<svg id="Layer_1" data-name="Layer 1" xmlns="http://www.w3.org/2000/svg" viewBox="0 0 160 160"><defs><style>.cls-1{fill:#ea8953;}.cls-2{fill:#3a556a;}.cls-3{fill:#ebf0f3;}.cls-4{fill:#d5d6db;}.cls-5{fill:#e1e6e9;}.cls-6{fill:#64798a;}.cls-7{fill:#f6c358;}.cls-8{fill:#fcd462;}.cls-9{fill:#e56353;}.cls-10{fill:#d15241;}.cls-11{fill:#2f4859;}.cls-12{fill:#27a2db;}</style></defs><title>book</title><circle class="cls-1" cx="80" cy="80" r="80"/><path class="cls-2" d="M50.82,3.52a1.13,1.13,0,0,0-1.13,1.14V61.1a1.13,1.13,0,0,0,1.13,1.14H89.7V3.52Z" transform="translate(-5 58)"/><path class="cls-2" d="M130.72,3.52H91.84V62.23h38.88a1.14,1.14,0,0,0,1.13-1.14V4.65A1.14,1.14,0,0,0,130.72,3.52Z" transform="translate(-5 58)"/><path class="cls-3" d="M129.15,4.2S110.05-4,91.79,4.2V59.7h37.36V4.2Z" transform="translate(-5 58)"/><path class="cls-4" d="M91.79,59.7h37.36S109.71,51.66,91.79,59.7Z" transform="translate(-5 58)"/><path class="cls-5" d="M127.87,10.81s-18.66-8.73-33.36,0v5.34s13-9.64,33.36,0Z" transform="translate(-5 58)"/><path class="cls-5" d="M127.87,19.28s-18.66-8.73-33.36,0v5.34s13-9.64,33.36,0Z" transform="translate(-5 58)"/><path class="cls-5" d="M127.87,27.75s-18.66-8.73-33.36,0v5.34s13-9.64,33.36,0Z" transform="translate(-5 58)"/><path class="cls-5" d="M127.87,36.21s-18.66-8.73-33.36,0v5.34s13-9.64,33.36,0Z" transform="translate(-5 58)"/><path class="cls-5" d="M127.87,44.68s-18.66-8.73-33.36,0V50s13-9.64,33.36,0Z" transform="translate(-5 58)"/><path class="cls-3" d="M89.75,4.2S70.65-4,52.38,4.2V59.7H89.75V4.2Z" transform="translate(-5 58)"/><path class="cls-4" d="M52.38,59.7H89.75S70.3,51.66,52.38,59.7Z" transform="translate(-5 58)"/><path class="cls-5" d="M87.75,11.46s-18.66-8.73-33.36,0V16.8s13-9.64,33.36,0V11.46Z" transform="translate(-5 58)"/><path class="cls-5" d="M87.75,19.93s-18.66-8.73-33.36,0v5.34s13-9.64,33.36,0V19.93Z" transform="translate(-5 58)"/><path class="cls-5" d="M87.75,28.4s-18.66-8.73-33.36,0v5.34s13-9.64,33.36,0V28.4Z" transform="translate(-5 58)"/><path class="cls-5" d="M87.75,36.86s-18.66-8.73-33.36,0V42.2s13-9.64,33.36,0V36.86Z" transform="translate(-5 58)"/><path class="cls-5" d="M87.75,45.33s-18.66-8.73-33.36,0v5.34s13-9.64,33.36,0V45.33Z" transform="translate(-5 58)"/><path class="cls-6" d="M93.44,9.58H88.1a1.24,1.24,0,0,1-1.24-1.24h0A1.24,1.24,0,0,1,88.1,7.09h5.33a1.24,1.24,0,0,1,1.24,1.24h0A1.24,1.24,0,0,1,93.44,9.58Z" transform="translate(-5 58)"/><path class="cls-6" d="M93.44,15.27H88.1A1.24,1.24,0,0,1,86.86,14h0a1.24,1.24,0,0,1,1.24-1.24h5.33A1.24,1.24,0,0,1,94.68,14h0A1.24,1.24,0,0,1,93.44,15.27Z" transform="translate(-5 58)"/><path class="cls-6" d="M93.44,21H88.1a1.24,1.24,0,0,1-1.24-1.24h0a1.24,1.24,0,0,1,1.24-1.24h5.33a1.24,1.24,0,0,1,1.24,1.24h0A1.24,1.24,0,0,1,93.44,21Z" transform="translate(-5 58)"/><path class="cls-6" d="M93.44,26.65H88.1a1.24,1.24,0,0,1-1.24-1.24h0a1.24,1.24,0,0,1,1.24-1.24h5.33a1.24,1.24,0,0,1,1.24,1.24h0A1.24,1.24,0,0,1,93.44,26.65Z" transform="translate(-5 58)"/><path class="cls-6" d="M93.44,32.33H88.1a1.24,1.24,0,0,1-1.24-1.24h0a1.24,1.24,0,0,1,1.24-1.24h5.33a1.24,1.24,0,0,1,1.24,1.24h0A1.24,1.24,0,0,1,93.44,32.33Z" transform="translate(-5 58)"/><path class="cls-6" d="M93.44,38H88.1a1.24,1.24,0,0,1-1.24-1.24h0a1.24,1.24,0,0,1,1.24-1.24h5.33a1.24,1.24,0,0,1,1.24,1.24h0A1.24,1.24,0,0,1,93.44,38Z" transform="translate(-5 58)"/><path class="cls-6" d="M93.44,43.71H88.1a1.24,1.24,0,0,1-1.24-1.24h0a1.24,1.24,0,0,1,1.24-1.24h5.33a1.24,1.24,0,0,1,1.24,1.24h0A1.24,1.24,0,0,1,93.44,43.71Z" transform="translate(-5 58)"/><path class="cls-6" d="M93.44,49.4H88.1a1.24,1.24,0,0,1-1.24-1.24h0a1.24,1.24,0,0,1,1.24-1.24h5.33a1.24,1.24,0,0,1,1.24,1.24h0A1.24,1.24,0,0,1,93.44,49.4Z" transform="translate(-5 58)"/><path class="cls-6" d="M93.44,55.09H88.1a1.24,1.24,0,0,1-1.24-1.24h0A1.24,1.24,0,0,1,88.1,52.6h5.33a1.24,1.24,0,0,1,1.24,1.24h0A1.24,1.24,0,0,1,93.44,55.09Z" transform="translate(-5 58)"/><rect class="cls-7" x="36.72" y="11.13" width="44.82" height="7.23" transform="translate(4.7 108.39) rotate(-49.8)"/><rect class="cls-8" x="35.39" y="11.75" width="44.82" height="3.71" transform="translate(5.1 106.97) rotate(-49.8)"/><rect class="cls-3" x="73.21" y="-6.86" width="2.29" height="7.23" transform="translate(23.84 113.64) rotate(-49.8)"/><rect class="cls-5" x="74.61" y="-3.84" width="2.29" height="3.56" transform="translate(23.43 115.13) rotate(-49.8)"/><path class="cls-9" d="M79.6-5.59,75.78-8.82a1.11,1.11,0,0,0-1.57.13L72.32-6.45l5.52,4.66L79.73-4A1.11,1.11,0,0,0,79.6-5.59Z" transform="translate(-5 58)"/><path class="cls-10" d="M79.6-5.59,77.66-7.23,75.05-4.14l2.79,2.36L79.73-4A1.11,1.11,0,0,0,79.6-5.59Z" transform="translate(-5 58)"/><polyline class="cls-5" points="42.44 92.2 33.13 97.61 36.92 87.53"/><polygon class="cls-3" points="36.92 87.53 33.13 97.61 39.75 89.92 36.92 87.53"/><polygon class="cls-11" points="33.13 97.61 34 95.24 35.31 96.34 33.13 97.61"/><path class="cls-11" d="M131.06.86a.79.79,0,0,1-.57-.24L113.65-16.6a.18.18,0,0,0-.16-.05.18.18,0,0,0-.13.1L111.63-13a.79.79,0,0,1-1.06.37.79.79,0,0,1-.37-1.06l1.72-3.57a1.77,1.77,0,0,1,1.3-1,1.77,1.77,0,0,1,1.55.51L131.63-.49a.79.79,0,0,1,0,1.12A.79.79,0,0,1,131.06.86Z" transform="translate(-5 58)"/><path class="cls-11" d="M91.3.86a.79.79,0,0,1-.49-.17.79.79,0,0,1-.13-1.11L104.41-17.7a1.77,1.77,0,0,1,1.55-.51,1.76,1.76,0,0,1,1.3,1L109-13.67a.79.79,0,0,1-.37,1.06.79.79,0,0,1-1.06-.37l-1.72-3.57a.17.17,0,0,0-.13-.1.18.18,0,0,0-.14,0L91.92.56A.79.79,0,0,1,91.3.86Z" transform="translate(-5 58)"/><ellipse class="cls-11" cx="116.98" cy="58.15" rx="9.9" ry="7.21"/><ellipse class="cls-12" cx="116.98" cy="58.15" rx="8.45" ry="6.16"/><ellipse class="cls-11" cx="95.43" cy="58.15" rx="9.9" ry="7.21"/><ellipse class="cls-12" cx="95.43" cy="58.15" rx="8.45" ry="6.16"/><rect class="cls-11" x="104.45" y="56.22" width="3.52" height="1.58"/></svg>