<svg id="Layer_1" data-name="Layer 1" xmlns="http://www.w3.org/2000/svg" viewBox="0 0 160 160"><defs><style>.cls-1{fill:#34495e;}.cls-2{fill:#fff;}.cls-3{fill:#c1d354;}</style></defs><title>chat</title><circle class="cls-1" cx="80" cy="80" r="80"/><path class="cls-2" d="M104.39-8.9c14.54,0,26.32,9.39,26.32,21,0,4.92-2.17,9.3-5.71,13A8.5,8.5,0,0,0,122.88,31a9.19,9.19,0,0,0,2.71,6.52A13.52,13.52,0,0,1,116,30.91,31.83,31.83,0,0,1,104.39,33c-14.53,0-26.31-9.39-26.31-21S89.87-8.9,104.39-8.9Z" transform="translate(-5 58)"/><path class="cls-3" d="M74.32-8.9C55-8.9,39.29,3.6,39.29,19c0,6.56,2.89,12.39,7.59,17.36a11.35,11.35,0,0,1,2.83,7.84,12.24,12.24,0,0,1-3.6,8.68A18,18,0,0,0,58.9,44.1a42.36,42.36,0,0,0,15.42,2.84c19.35,0,35-12.5,35-27.93S93.68-8.9,74.32-8.9Z" transform="translate(-5 58)"/></svg>