<svg xmlns="http://www.w3.org/2000/svg" xmlns:xlink="http://www.w3.org/1999/xlink" viewBox="0 0 79.01 80"><defs><style>.cls-1{fill:url(#linear-gradient);}.cls-2{fill:#fff;}.cls-3{fill:url(#linear-gradient-2);}.cls-4{fill:url(#linear-gradient-3);}</style><linearGradient id="linear-gradient" x1="-0.93" y1="72.62" x2="64.17" y2="7.52" gradientUnits="userSpaceOnUse"><stop offset="0" stop-color="#39a747"/><stop offset="1" stop-color="#b6d436"/></linearGradient><linearGradient id="linear-gradient-2" x1="15.45" y1="59.79" x2="53.36" y2="21.89" gradientUnits="userSpaceOnUse"><stop offset="0" stop-color="#58b44d"/><stop offset="1" stop-color="#a0ca38"/></linearGradient><linearGradient id="linear-gradient-3" x1="49.9" y1="21.64" x2="57.34" y2="14.2" gradientUnits="userSpaceOnUse"><stop offset="0" stop-color="#9dc939"/><stop offset="1" stop-color="#aad038"/></linearGradient></defs><title>DiaVita-logo</title><g id="Layer_2" data-name="Layer 2"><g id="Layer_2-2" data-name="Layer 2"><path class="cls-1" d="M0,11V69A11,11,0,0,0,11,80H44a30.78,30.78,0,0,0,19.19-6.65A41,41,0,0,0,79,41,41.88,41.88,0,0,0,63.37,7,30.75,30.75,0,0,0,43.73,0H11A11,11,0,0,0,0,11Z"/><path class="cls-2" d="M9,15V67a5,5,0,0,0,5,5H37.2A34.38,34.38,0,0,0,66.85,55.54,28.19,28.19,0,0,0,71,41a30.05,30.05,0,0,0-4.15-15.41A32.21,32.21,0,0,0,38.94,10H14A5,5,0,0,0,9,15Z"/><path class="cls-3" d="M18,21.29V60.71a3.69,3.69,0,0,0,3.59,3.79H38.24A24.41,24.41,0,0,0,59.52,52a22.26,22.26,0,0,0,3-11,23.76,23.76,0,0,0-3-11.68,22.88,22.88,0,0,0-20-11.82H21.59A3.69,3.69,0,0,0,18,21.29Z"/><path class="cls-2" d="M56.39,19.46,39.89,39.89A1.28,1.28,0,0,1,38,40l-7.87-7.87a3,3,0,0,0-4.24,0L24,34a3,3,0,0,0-.11,4.12L37.34,52.23A2.73,2.73,0,0,0,41.45,52l21-26.42Z"/><polygon class="cls-4" points="53.49 23.07 59.25 16.11 53.64 12.88 48.02 19.76 53.49 23.07"/></g></g></svg>