<svg id="Layer_1" data-name="Layer 1" xmlns="http://www.w3.org/2000/svg" viewBox="0 0 93.08 88.06"><defs><style>.cls-1,.cls-5{fill:#fff;}.cls-2{fill:#259955;}.cls-2,.cls-3,.cls-4,.cls-5,.cls-7{fill-rule:evenodd;}.cls-3,.cls-6{fill:#d9d9d9;}.cls-7{fill:#4cc47e;}</style></defs><title>headPanda</title><path class="cls-1" d="M36,435.66c-1.54-2.63,3.79-8,6.64-14.53,1.89-4.35.41-4,2.49-10.38,1.68-5.16,3.32-10.2,7.89-14.53A26.63,26.63,0,0,1,64.61,390c5-1.39,8.88-1.13,12.87-.83,7.2.54,13.63,1,19.51,5.4s8.24,10.58,9.55,14.11c3.67,9.9-.59,11.41,3.32,21.17,1.78,4.44,4.46,8.61,2.91,13.28a13.63,13.63,0,0,1-2.08,3.74c-2.06,2.83-4.25,4.17-8.3,6.64-10.58,6.46-11.69,7.17-14.53,8.3a31.46,31.46,0,0,1-6.23,2.08c-6,1.14-10.87-.92-18.26-4.15-6.78-3-15.68-7-22.83-16.19-1.35-1.74-2.08-2.91-2.08-2.91-.48-1-.57-1.58-1.25-2.91A20.88,20.88,0,0,0,36,435.66Z" transform="translate(-25.6 -380)"/><path class="cls-2" d="M28.41,447.56a3.05,3.05,0,0,0-.42-1,1.23,1.23,0,0,0-.85-.58H27l-.05,0a.43.43,0,0,0-.2.25,1.48,1.48,0,0,0-.06.72,3.09,3.09,0,0,0,.15.63h1.57Z" transform="translate(-25.6 -380)"/><path class="cls-3" d="M66.15,416c-1-1.17-1.72,6-2.54,5.22-1.1-1.1,1.26-3.8-.65-4s1.39-2.43-1.49-1.9c-16,2.94-15.92,14.2-8.54,18.25a1.63,1.63,0,0,1,.6-1.37c.59.65,2.47,3.11,3.67,3.18,1.38-2.51,6.49-1.67,8.16-4.2a5.42,5.42,0,0,1-.59,1.76,11.42,11.42,0,0,0,3.4-2.5,12.49,12.49,0,0,0,1.62-2.06c.64-1,1.06-1.13,1.11-2.16,2.65,2,2.42,6.75.06,9a27,27,0,0,1,4.92-.6H76a27,27,0,0,1,4.92.6c-2.36-2.21-2.6-7,.06-9a6.77,6.77,0,0,0,1.11,3.15,12.49,12.49,0,0,0,1.62,2.06,11.41,11.41,0,0,0,3.4,2.5,5.42,5.42,0,0,1-.58-1.76c1.67,2.53,5.59,3.71,7,6.22,1.2-.07,3.87-2.81,4.46-3.46a1.63,1.63,0,0,1,.6,1.37c7.38-4.05,7.88-18-8.14-21-2.88-.53.53,1.65-1.49,1.9s.45,2.93-.65,4c-.82.82-1.52-6.39-2.54-5.22-1.61-.22-3.86,1.15-5.31,2.79a5.65,5.65,0,0,1,1.43-4.73,2.84,2.84,0,0,0-3.66,2A6.22,6.22,0,0,0,76,411.66v-.14l-.07.07-.07-.07v.14A6.22,6.22,0,0,0,73.69,416a2.84,2.84,0,0,0-3.66-2,5.65,5.65,0,0,1,1.43,4.73c-1.45-1.64-3.7-3-5.31-2.79Z" transform="translate(-25.6 -380)"/><path class="cls-4" d="M101.09,424.73c.81,4.68-3.22,10.62-8,10.62-3.32,0-8.51-6-10.27-7.55-1.95-1.76-2.73-3.86-2.1-6.11,1.41-5,3.76-7,6.7-6.9,5,.11,12.78,5,13.64,10Z" transform="translate(-25.6 -380)"/><path class="cls-5" d="M90.23,427.94c-1.8.34-3.67-.79-3.94-2.2-.15-.82,6-2.66,6.45-1.54.49,1.35-.7,3.4-2.51,3.74Z" transform="translate(-25.6 -380)"/><path class="cls-4" d="M42.79,411.85c.69-3-7.77-4.77-8.19-13.49-.41-8.47,4.35-12.52,8.92-16.39.36.78.73.81,1.1.7.59-.18.35-1.32,1.67-2.68.42,1.13.83,2.76,1.75,2.42.35-.13.19-.77.67-1.42a5.16,5.16,0,0,0,1.72,1.46c1.91,1.08,3.28,4.05,3.45,4.3,2.27,3.31,4.24,4.19,9.41,2.31a36.84,36.84,0,0,1,12.6-2.21H76a36.84,36.84,0,0,1,12.6,2.21c5.17,1.89,7.14,1,9.41-2.31.17-.25,1.54-3.23,3.45-4.3a5.16,5.16,0,0,0,1.72-1.46c.47.65.31,1.29.67,1.42.92.34,1.33-1.3,1.75-2.42,1.31,1.37,1.08,2.51,1.67,2.68.37.11.74.08,1.1-.7,4.57,3.87,9.33,7.92,8.92,16.39-.42,8.72-8.88,10.45-8.19,13.49q.3,1.44.46,2.93c1.42,7.27,1.26,22.26,9.14,27.36a3.29,3.29,0,0,1-2.32,1.16,5,5,0,0,1-.61,5.51c-.32-.57-.68-.9-.82-.91-.67,5-11.39,9.53-15.25,11.55-9.8,5.13-11.56,8.59-23.69,8.61h-.12C62,468,58.66,461.52,50.77,457a45.87,45.87,0,0,0-8.47-4.3c-3-1.18-8-4.31-7.88-7.88-.14,0-.5.23-.82.8a5,5,0,0,1-.61-5.51,3.25,3.25,0,0,1-2.4-1c4.09-2.65,10.74-19.14,11.75-24.28q.16-1.5.46-2.93ZM76,390.07H75.9c-15.36,0-28.78,10.45-30.93,25.75-1.35,6.92-3.4,11.49-6.31,17.64-2.64,5.59-.91,13.9,5.49,16.41,3.74,1.47,4.68,2.77,8.25,4.84,7.28,4.21,11.26,10.56,23.53,10.58s14.74-5.1,22-9.31c7.78-4.5,18.35-7.33,12.72-19.27-2.92-6.16-2.44-14-3.79-20.88-2.15-15.3-15.56-25.74-30.93-25.75Z" transform="translate(-25.6 -380)"/><path class="cls-4" d="M50.78,424.73C50,429.41,53,431.91,59.21,432c4.72.3,8.05-2.59,9.82-4.18,1.95-1.76,3.64-4.34,2.1-6.11-3.24-3.73-4.82-6.55-7.76-6.49-5,.11-11.71,4.56-12.58,9.54Z" transform="translate(-25.6 -380)"/><path class="cls-5" d="M61.83,426.17c1.77.48,3.36.66,3.72-.4.21-.62-5.84-2.78-6.31-2-.57,1,.82,1.89,2.6,2.38Z" transform="translate(-25.6 -380)"/><path class="cls-6" d="M51.63,405.21c1-2.12,6-3.32,10.21-3.26a8.09,8.09,0,0,0-2.65-2.79c2.53-1.35,7.94-.19,10,.77a5.7,5.7,0,0,0-1.74-3.55c2.09-.22,5,.47,8.29,2.59a.33.33,0,0,0,.29,0c3.26-2.12,6.2-2.81,8.29-2.59a5.71,5.71,0,0,0-1.74,3.55c2.1-1,7.51-2.11,10-.77A8.09,8.09,0,0,0,90,402c4.2-.06,9.21,1.13,10.21,3.26A4.52,4.52,0,0,0,97,406c3.54.92,8.12,6,7.9,8.31a3.77,3.77,0,0,0-2-.13c3.2,2.9.53,14.93,5.21,22.47a8.57,8.57,0,0,1,.92,8l0,0,0,.1-.08.15a4.44,4.44,0,0,0-3.35-3A6.21,6.21,0,0,1,106,447v0a6.93,6.93,0,0,0-1.71-1.5c.85,5.92-4.49,7-9.87,8.16,0,0,0-.07,0-.06a2,2,0,0,1-1.53-.08,1.13,1.13,0,0,1,1.13-.61,2.37,2.37,0,0,0-2.31-.79,1.56,1.56,0,0,1,1-.76c-6-2-12.63,2.84-16-4.65-.88-2-1.1-5.93,4.52-7,2.39-.47,4.42-2.64,2.56-3.32-2.8-1-4.51-1-7.75-1h0c-3.24,0-5,0-7.75,1-1.86.68.17,2.85,2.56,3.32,5.62,1.09,5.12,5,4.52,7-1.35,4.63-6.87,4.46-11,1.63a25.36,25.36,0,0,1-6.71-7.5c-1.18-1.74-4.23-2.58-6-.78a2.15,2.15,0,0,1,2.17,1.18,5.93,5.93,0,0,0-3.64,1,3.49,3.49,0,0,1,2.15.88c-2.1.06-2.06,3-1.12,3.74,3.32,2.1,6.65,5.38,10,7.92-4.19-2.18-8.51-3.43-12.53-5-1.25-.49-4-4.39-3.57-7.59a6.93,6.93,0,0,0-1.71,1.5v0l0-.12v0l0-.12v0l0-.11v0l0-.12v0l0-.12v0l0-.12v0l0-.11v0l0-.11V442s0-.08,0-.12v0s0-.08,0-.13v0s0-.08,0-.13v0s0-.08,0-.12v-.35l0-.14v0l0-.14v0l0-.13v0l0-.14v0l0-.14v0l0-.14v0l0-.15v0l0-.15h0l.05-.15h0l.06-.16h0l.07-.16h0l.07-.15v0l.07-.15h0l.08-.16h0l.09-.16a4.44,4.44,0,0,0-3.35,3l-.08-.15,0-.1,0,0a8.57,8.57,0,0,1,.92-8C46,425.81,45.84,417.1,49,414.2a3.77,3.77,0,0,0-2,.13c-.22-2.33,4.36-7.39,7.9-8.31a4.52,4.52,0,0,0-3.27-.8Zm24,53.24a68.17,68.17,0,0,1,8.15-2.25l-2.72-3.37a11.79,11.79,0,0,1-5.11-1.66,11.78,11.78,0,0,1-5.11,1.66l4.8,5.62ZM76,390.07h-.12c0-1.85,0-1.39,0,0-15.35,0-28.75,10.46-30.9,25.75-1.14,5.85-3,9.77-5.08,14.83a27.52,27.52,0,0,1-4.56,7.54,1.4,1.4,0,0,0,1.25.09,4.46,4.46,0,0,0-.93,3.44,2.71,2.71,0,0,1,1.75-.62,11.14,11.14,0,0,0,6.74,8.69c3.74,1.47,5.44,3.31,9,5.38,7.27,4.2,10,10.09,22.71,10.12H76c12.68,0,14.89-4.18,22.16-8.39,2.57-1.48,10.08-5.33,11.46-7.27a8.26,8.26,0,0,0,2.54-5.56,3.9,3.9,0,0,1,1.51,1,4.46,4.46,0,0,0-.93-3.44,1.4,1.4,0,0,0,1.25-.09c-6.38-6.75-5.24-16.16-7.1-25.7-2.15-15.29-15.55-25.73-30.9-25.75Z" transform="translate(-25.6 -380)"/><path class="cls-4" d="M54.32,443.24h0a6.74,6.74,0,0,0-.57.42,14,14,0,0,0-2.1,2.65c-.2.31.33,0,.64.22a.67.67,0,0,0,.62,0c.93,3.68,6.44,7.87,12.43,10.16a28.46,28.46,0,0,0,10.54,1.64h0c2.82.09,11-1.25,13.28-4.13h0a7.82,7.82,0,0,0,1.19.26c.87.1,1.38-.18.14-.94a8.72,8.72,0,0,0-2.11-1,14,14,0,0,0-3.37-.22h0a10.08,10.08,0,0,1-4.76-.36c-2.42-.71-3.65-2.8-3.88-5.54.16-6,8.44-5,8.44-8.61,0-3-6.35-3.39-8.78-3.41h-.12c-2.43,0-8.78.43-8.78,3.41,0,3.65,8.29,2.63,8.44,8.61-.18,3.76-2.36,5.15-5.2,5.16-6,0-10.27-3.76-14.11-7.73l-.28-.28a5.93,5.93,0,0,0,.47-.47c.58-.66.63-1.24-.69-.65a10.39,10.39,0,0,0-1.4.74Z" transform="translate(-25.6 -380)"/><path class="cls-5" d="M68.56,453.41a5.21,5.21,0,0,1-2.38-.42,3.67,3.67,0,0,0,.11.57c.41,1.75.94,2.16,1.28,2.19s.64-.82.79-1.63a3.87,3.87,0,0,1,.19-.7Z" transform="translate(-25.6 -380)"/><path class="cls-3" d="M66.63,454.62c-.1-1,1.66-.85,1.58.2a13,13,0,0,1,.35-1.41,6,6,0,0,1-2.38-.42,3.67,3.67,0,0,0,.11.57,6.79,6.79,0,0,0,.34,1.07Z" transform="translate(-25.6 -380)"/><path class="cls-7" d="M55.85,446l-28.65-.56A5.19,5.19,0,0,1,29,448.1c0,.11,0,.22,0,.32-.07,2.39-2.07,6.92.24,10.71,1.17,1.92,3.41,2.79,4.44,2,1.9-1.41,2.11-4.87-1.1-8.14l29.31-2.88A28,28,0,0,1,55.85,446Z" transform="translate(-25.6 -380)"/><path class="cls-2" d="M28.88,454.44c8.4-.65,16.54-3.25,25-3.52l6.26-1.15a13.68,13.68,0,0,1-2.47-2.08l-2.21-1.39-9.68-.69c2.65.42,7.32,1.19,6.5,2.52-1.44,2.31-15.23,1.11-22.85,1.66l-.52,4.64Z" transform="translate(-25.6 -380)"/><path class="cls-2" d="M53.2,451c.62,2.32-.28,4.14-4.41,4.42s-6.15-.66-6.72-3.62c-.69-3.55,1.38-3.37,4.28-3.38,4.28,0,6.33.62,6.85,2.59Z" transform="translate(-25.6 -380)"/><path class="cls-2" d="M61.93,450.13,32.62,453c3.09,3.39,2.63,8.63,1.1,9l16-5.6L56,454.77l7.93-1q1.27-1.68-2-3.62Z" transform="translate(-25.6 -380)"/><path d="M62.17,450.93l-27.48,2.9c1.74,3,1.5,5.83.76,6.92a90.24,90.24,0,0,1,20.19-6.83c2.52-.48,5.29-.36,7.94-.65a1,1,0,0,0,0-1h0a3.11,3.11,0,0,0-1.39-1.34Zm-10.32-.34a4.79,4.79,0,0,0-1.37-1.19,8,8,0,0,0-4.13-1,4.3,4.3,0,0,0-3.1,1,2.82,2.82,0,0,0-.64,2.06l9.24-.91Zm-10.58,1a4.14,4.14,0,0,1,1-3.1,5.47,5.47,0,0,1,4.08-1.43,9.26,9.26,0,0,1,4.82,1.15,5.94,5.94,0,0,1,2.19,2.2l6.75-.66h0q-.59-.36-1.23-.8c-2.55-1.75-1.71-2.1-4.7-2.07-1.08,0-2.25-.11-3.35-.2-7.63-.58-16.72-1.67-21.37-.65a5.34,5.34,0,0,1,.17,4.23c-.83,2.42-.11,8.93,1.9,10.53,1.19.94,2.1.14,2.51-1.36a5.63,5.63,0,0,0,.17-2.17,10,10,0,0,0-2-3.94.54.54,0,0,1,.36-.88l8.74-.86Zm-12.86-4.07a3.05,3.05,0,0,0-.42-1,1.23,1.23,0,0,0-.85-.58H27l-.05,0a.43.43,0,0,0-.2.25,1.48,1.48,0,0,0-.06.72,3.09,3.09,0,0,0,.15.63h1.57Zm.07,1.07h-.74l-1.28,0h-.34l-.14-.32a4.49,4.49,0,0,1-.36-1.25,2.53,2.53,0,0,1,.13-1.25,1.47,1.47,0,0,1,.77-.83l.19-.07h.05c4.69-1.33,16.1-.06,23.87.63,2.1.19,3.7.41,5.22-.09H56l.14.12q1.8,1.52,3.29,2.55A18,18,0,0,0,62,449.59h0l.12.07,1.81.82-.55.05a4.34,4.34,0,0,1,1.08,1.23h0a2,2,0,0,1-.19,2.32l-.12.16-.19,0c-2.91.37-5.67.29-8.1.78-7.54,1.51-14.86,5.26-22,7.81l-.14,0h0a3.62,3.62,0,0,1-3.05-.56c-2.38-1.49-3.85-7.5-2.61-11.82a11.31,11.31,0,0,0,.43-1.92Z" transform="translate(-25.6 -380)"/><path class="cls-7" d="M50.79,452.15h0c-5.37.58-10.72,1.14-16.09,1.68a10,10,0,0,1,.6,1.2q.13.31.23.6c3.93-.67,8.39-1.34,12.32-2,4.79-.81,9.44-1.52,14.27-2l1-.09a4.74,4.74,0,0,0-.71-.54l-.18-.11-11.38,1.22Z" transform="translate(-25.6 -380)"/><path class="cls-5" d="M76,460.79h-.12c-3.61,0-7.9-1.69-7.09-.32.6,1,3,2.07,7.09,2.23H76c4.12-.16,6.5-1.21,7.09-2.23.81-1.38-3.49.34-7.09.32Z" transform="translate(-25.6 -380)"/><path class="cls-5" d="M75.9,436.38H76c3.08,0,5.59.59,4.76-.26-.32-.33-1.23-.61-4.76-.82H75.9c-3.54.22-4.44.49-4.76.82-.83.86,1.68.23,4.76.26Z" transform="translate(-25.6 -380)"/><path class="cls-5" d="M85.55,453.7c-.41,1.64-.92,2-1.25,2s-.64-.82-.79-1.63l0-.17a14.53,14.53,0,0,1,2.08-.25Z" transform="translate(-25.6 -380)"/><path class="cls-3" d="M85.55,453.7a9.46,9.46,0,0,1-.41,1.21c-.18-.54-1.14-.51-1.45,0-.07-.25-.13-.53-.18-.81l0-.17a14.56,14.56,0,0,1,2.08-.25Z" transform="translate(-25.6 -380)"/></svg>