<svg xmlns="http://www.w3.org/2000/svg" xmlns:xlink="http://www.w3.org/1999/xlink" viewBox="0 0 168.69 276.62"><defs><style>.cls-1{isolation:isolate;}.cls-2{fill:#84dbff;}.cls-3{fill:#54c0eb;}.cls-4{fill:none;stroke:#324a5e;stroke-linecap:round;stroke-linejoin:round;stroke-width:5px;}.cls-15,.cls-5{fill:#fff;}.cls-6{fill:#324a5e;}.cls-7{fill:#ffd05b;}.cls-8{fill:#f9b54c;}.cls-9{fill:#45b39c;}.cls-10{fill:#379982;}.cls-11{fill:#eadcb7;}.cls-12,.cls-14{mix-blend-mode:color-burn;}.cls-12{fill:url(#linear-gradient);}.cls-13{fill:#e2a442;}.cls-14{fill:#b1b1b1;}.cls-15{opacity:0.3;}.cls-16{fill:#7ca841;}</style><linearGradient id="linear-gradient" x1="134.26" y1="218.66" x2="152.9" y2="218.66" gradientUnits="userSpaceOnUse"><stop offset="0" stop-color="#fff"/><stop offset="1" stop-color="#979797"/></linearGradient></defs><title>hide-3</title><g class="cls-1"><g id="Layer_2" data-name="Layer 2"><g id="Layer_1-2" data-name="Layer 1"><circle class="cls-2" cx="30.04" cy="12.72" r="12.72"/><path class="cls-3" d="M40.48,27.88A17.63,17.63,0,0,1,30,31.14a17.63,17.63,0,0,1-10.43-3.26A24.86,24.86,0,0,0,4.94,50.54H55A24.46,24.46,0,0,0,40.48,27.88Z"/><line class="cls-4" x1="80.45" y1="20.8" x2="101.47" y2="41.82"/><line class="cls-4" x1="101.47" y1="20.8" x2="80.45" y2="41.82"/><path class="cls-5" d="M22.08,45.16,19.79,36v9.88a1.8,1.8,0,0,1-.37,1.23,1.34,1.34,0,0,1-1.93,0,1.78,1.78,0,0,1-.37-1.24V34.59a1.42,1.42,0,0,1,.49-1.26A2.34,2.34,0,0,1,18.93,33h.9a3.43,3.43,0,0,1,1.18.15,1,1,0,0,1,.54.53,8.13,8.13,0,0,1,.4,1.24L24,42.76l2.08-7.84a8.13,8.13,0,0,1,.4-1.24,1,1,0,0,1,.54-.53A3.43,3.43,0,0,1,28.23,33h.9a2.34,2.34,0,0,1,1.32.33,1.42,1.42,0,0,1,.49,1.26V45.92a1.8,1.8,0,0,1-.37,1.23,1.25,1.25,0,0,1-1,.41,1.22,1.22,0,0,1-.95-.41,1.78,1.78,0,0,1-.37-1.23V36L26,45.16q-.22.89-.37,1.3a1.8,1.8,0,0,1-.52.76,1.52,1.52,0,0,1-1.05.34,1.54,1.54,0,0,1-1.41-.78,3.23,3.23,0,0,1-.31-.76Z"/><path class="cls-5" d="M39.47,41.74H36.81v4.05a1.89,1.89,0,0,1-.41,1.32,1.45,1.45,0,0,1-2.09,0,1.89,1.89,0,0,1-.4-1.3v-11a1.8,1.8,0,0,1,.44-1.37,2,2,0,0,1,1.4-.41h3.72a9.77,9.77,0,0,1,2.54.25,3.78,3.78,0,0,1,1.52.81,3.66,3.66,0,0,1,1,1.39,4.88,4.88,0,0,1,.33,1.85,4.08,4.08,0,0,1-1.35,3.32A6.13,6.13,0,0,1,39.47,41.74Zm-.7-6.56h-2v4.38h2a5.82,5.82,0,0,0,1.71-.21,2,2,0,0,0,1-.7,2.1,2.1,0,0,0,.36-1.28,2.17,2.17,0,0,0-.56-1.54A3.71,3.71,0,0,0,38.76,35.18Z"/><path class="cls-6" d="M147.74,22h-8.48l-1,5.78a10,10,0,0,1,4.68-1.36,8,8,0,0,1,3.2.64,8.18,8.18,0,0,1,4.38,4.46,8.64,8.64,0,0,1,.64,3.34A9.67,9.67,0,0,1,150,39.6,8.56,8.56,0,0,1,146.65,43a10,10,0,0,1-5,1.25A10.09,10.09,0,0,1,136.42,43a7.33,7.33,0,0,1-2.82-2.7,5.77,5.77,0,0,1-.83-2.67,2.06,2.06,0,0,1,2-1.95A2.39,2.39,0,0,1,137,37.46,6,6,0,0,0,139,39.93a4.5,4.5,0,0,0,2.71.88,4.14,4.14,0,0,0,2.41-.71,4.63,4.63,0,0,0,1.6-2,6.85,6.85,0,0,0,.56-2.84,6.48,6.48,0,0,0-.61-2.93A4.22,4.22,0,0,0,144,30.56a4.39,4.39,0,0,0-2.27-.6,4.72,4.72,0,0,0-2.19.37,19.29,19.29,0,0,0-1.9,1.31,3.75,3.75,0,0,1-2,.94,2.21,2.21,0,0,1-1.55-.63,1.93,1.93,0,0,1-.68-1.44q0-.09.2-1.21l1.5-8.55a4.1,4.1,0,0,1,.93-2.23,3,3,0,0,1,2.21-.7h9.42q2.78,0,2.78,2.12a1.86,1.86,0,0,1-.68,1.5A3,3,0,0,1,147.74,22Z"/><path class="cls-6" d="M130.34,180.28h9.18a3.35,3.35,0,0,1,2.09.56,1.84,1.84,0,0,1,.72,1.53,2,2,0,0,1-.57,1.46,2.29,2.29,0,0,1-1.73.6h-13a2.8,2.8,0,0,1-2.06-.73,2.34,2.34,0,0,1-.74-1.72,4.37,4.37,0,0,1,.48-1.68,6,6,0,0,1,1-1.65q2.34-2.43,4.22-4.16a27.59,27.59,0,0,1,2.69-2.28,15.51,15.51,0,0,0,2.4-2,8.16,8.16,0,0,0,1.46-2.11,5,5,0,0,0,.5-2.12,3.83,3.83,0,0,0-.54-2,3.71,3.71,0,0,0-1.46-1.38,4.21,4.21,0,0,0-2-.49,4.11,4.11,0,0,0-3.62,2,8.75,8.75,0,0,0-.59,1.44,6,6,0,0,1-.93,1.81,1.85,1.85,0,0,1-1.52.63,2,2,0,0,1-1.46-.58,2.14,2.14,0,0,1-.58-1.58,6.61,6.61,0,0,1,.55-2.53,7.28,7.28,0,0,1,1.63-2.39,8,8,0,0,1,2.74-1.73,10.53,10.53,0,0,1,3.9-.66,11.27,11.27,0,0,1,4.59.84,6.89,6.89,0,0,1,2.16,1.55,7.27,7.27,0,0,1,2,5,7.51,7.51,0,0,1-1.08,4,12.29,12.29,0,0,1-2.21,2.8q-1.13,1-3.77,3.18a28.31,28.31,0,0,0-3.63,3.36A10.11,10.11,0,0,0,130.34,180.28Z"/><path class="cls-6" d="M160.39,163H152l-1,5.7a9.88,9.88,0,0,1,4.61-1.34,7.89,7.89,0,0,1,3.16.63,8.06,8.06,0,0,1,4.32,4.4,8.52,8.52,0,0,1,.63,3.29,9.53,9.53,0,0,1-1.14,4.65,8.44,8.44,0,0,1-3.3,3.33,9.84,9.84,0,0,1-5,1.23,10,10,0,0,1-5.11-1.16,7.23,7.23,0,0,1-2.78-2.67,5.69,5.69,0,0,1-.82-2.63,2,2,0,0,1,2-1.92,2.35,2.35,0,0,1,2.2,1.71,6,6,0,0,0,1.9,2.44,4.43,4.43,0,0,0,2.67.87,4.08,4.08,0,0,0,2.38-.7,4.56,4.56,0,0,0,1.57-1.94,6.75,6.75,0,0,0,.55-2.8,6.38,6.38,0,0,0-.6-2.89,4.16,4.16,0,0,0-1.6-1.79,4.33,4.33,0,0,0-2.23-.59,4.65,4.65,0,0,0-2.16.37,19,19,0,0,0-1.87,1.29,3.69,3.69,0,0,1-2,.92,2.17,2.17,0,0,1-1.53-.62,1.9,1.9,0,0,1-.67-1.42q0-.09.19-1.2l1.48-8.43a4,4,0,0,1,.91-2.2,3,3,0,0,1,2.18-.69h9.29q2.74,0,2.74,2.09a1.84,1.84,0,0,1-.67,1.48A3,3,0,0,1,160.39,163Z"/><circle class="cls-7" cx="30.04" cy="154.45" r="12.72"/><path class="cls-8" d="M40.48,169.61A17.63,17.63,0,0,1,30,172.87a17.63,17.63,0,0,1-10.43-3.26A24.86,24.86,0,0,0,4.94,192.27H55A24.46,24.46,0,0,0,40.48,169.61Z"/><line class="cls-4" x1="80.45" y1="161.63" x2="101.47" y2="182.65"/><line class="cls-4" x1="101.47" y1="161.63" x2="80.45" y2="182.65"/><path class="cls-5" d="M31.15,185H28.75v3.65a1.7,1.7,0,0,1-.37,1.19,1.3,1.3,0,0,1-1.88,0,1.7,1.7,0,0,1-.36-1.17v-9.94a1.63,1.63,0,0,1,.4-1.23,1.8,1.8,0,0,1,1.26-.37h3.35a8.78,8.78,0,0,1,2.29.23,3.41,3.41,0,0,1,1.37.73,3.29,3.29,0,0,1,.88,1.25A4.4,4.4,0,0,1,36,181a3.67,3.67,0,0,1-1.21,3A5.52,5.52,0,0,1,31.15,185Zm-.63-5.91H28.75v3.94h1.76a5.26,5.26,0,0,0,1.54-.19,1.8,1.8,0,0,0,.95-.63,1.89,1.89,0,0,0,.33-1.15,2,2,0,0,0-.5-1.39A3.34,3.34,0,0,0,30.51,179.11Z"/><path class="cls-6" d="M133.95,94.33a6.22,6.22,0,0,1,1-3.32,6.77,6.77,0,0,1,2.82-2.49,9.55,9.55,0,0,1,4.34-.93,11.27,11.27,0,0,1,3.68.55,7.52,7.52,0,0,1,2.64,1.5,6.14,6.14,0,0,1,1.57,2.16,6.51,6.51,0,0,1,.51,2.56,5.48,5.48,0,0,1-.89,3.08,6.48,6.48,0,0,1-2.65,2.22,7.41,7.41,0,0,1,2.48,1.52,6.22,6.22,0,0,1,1.49,2.18,7.29,7.29,0,0,1,.5,2.75,7.71,7.71,0,0,1-1.07,4,7.3,7.3,0,0,1-3.15,2.82,11,11,0,0,1-4.89,1,11.22,11.22,0,0,1-5-1,7.22,7.22,0,0,1-3.13-2.81,7.72,7.72,0,0,1-1.06-4,6.46,6.46,0,0,1,4.47-6.49A5.58,5.58,0,0,1,133.95,94.33ZM146.56,106a4.88,4.88,0,0,0-.56-2.39,3.84,3.84,0,0,0-1.58-1.57,4.77,4.77,0,0,0-2.29-.55,4.12,4.12,0,0,0-3,1.2A4.48,4.48,0,0,0,137.9,106a5,5,0,0,0,.57,2.42,4.11,4.11,0,0,0,1.56,1.62,4.52,4.52,0,0,0,4.42,0,4.09,4.09,0,0,0,1.55-1.64A5.09,5.09,0,0,0,146.56,106Zm-4.4-15a3.57,3.57,0,0,0-2.67,1,3.62,3.62,0,0,0-1,2.65,3.31,3.31,0,0,0,1,2.49,3.7,3.7,0,0,0,2.67,1,4.12,4.12,0,0,0,1.5-.26,3.44,3.44,0,0,0,1.16-.73,3.24,3.24,0,0,0,.75-1.11,4,4,0,0,0-.2-3.28,3.38,3.38,0,0,0-1.31-1.3A3.88,3.88,0,0,0,142.16,91Z"/><circle class="cls-9" cx="30.04" cy="83.45" r="12.72"/><path class="cls-10" d="M40.48,98.61A17.63,17.63,0,0,1,30,101.87a17.63,17.63,0,0,1-10.43-3.26A24.86,24.86,0,0,0,4.94,121.27H55A24.46,24.46,0,0,0,40.48,98.61Z"/><line class="cls-4" x1="80.45" y1="90.07" x2="101.47" y2="111.09"/><line class="cls-4" x1="101.47" y1="90.07" x2="80.45" y2="111.09"/><path class="cls-5" d="M29.31,114.44a4.2,4.2,0,0,1-.67,2.33,4.44,4.44,0,0,1-2,1.62,7.34,7.34,0,0,1-3.06.59,6.87,6.87,0,0,1-3.5-.8,4.65,4.65,0,0,1-1.59-1.54,3.49,3.49,0,0,1-.61-1.87,1.27,1.27,0,0,1,1.3-1.28,1.1,1.1,0,0,1,.78.29,2.3,2.3,0,0,1,.54.87,5.79,5.79,0,0,0,.59,1.14,2.4,2.4,0,0,0,.89.76,3.31,3.31,0,0,0,1.51.3,3.42,3.42,0,0,0,2.09-.6,1.81,1.81,0,0,0,.81-1.5,1.58,1.58,0,0,0-.43-1.16,2.81,2.81,0,0,0-1.12-.68q-.69-.23-1.84-.5a13.53,13.53,0,0,1-2.58-.84,4.18,4.18,0,0,1-1.65-1.32,3.42,3.42,0,0,1-.61-2.08,3.56,3.56,0,0,1,.64-2.1,4.07,4.07,0,0,1,1.87-1.41,7.63,7.63,0,0,1,2.87-.49,7.11,7.11,0,0,1,2.28.33,4.81,4.81,0,0,1,1.6.87,3.63,3.63,0,0,1,.93,1.14,2.62,2.62,0,0,1,.29,1.16,1.37,1.37,0,0,1-.37.93,1.17,1.17,0,0,1-.91.42,1.05,1.05,0,0,1-.76-.25,3.35,3.35,0,0,1-.56-.82,3.71,3.71,0,0,0-.94-1.26,2.74,2.74,0,0,0-1.76-.45,3,3,0,0,0-1.81.49,1.44,1.44,0,0,0-.69,1.19,1.2,1.2,0,0,0,.23.74,2,2,0,0,0,.64.54,4.38,4.38,0,0,0,.83.35l1.39.37a21.73,21.73,0,0,1,2.19.63,6.66,6.66,0,0,1,1.67.83,3.41,3.41,0,0,1,1.07,1.24A4,4,0,0,1,29.31,114.44Z"/><path class="cls-5" d="M37.33,113.16H34.68v4.05a1.89,1.89,0,0,1-.41,1.32,1.45,1.45,0,0,1-2.09,0,1.89,1.89,0,0,1-.4-1.3v-11a1.8,1.8,0,0,1,.44-1.37,2,2,0,0,1,1.4-.41h3.72a9.77,9.77,0,0,1,2.54.25,3.78,3.78,0,0,1,1.52.81,3.66,3.66,0,0,1,1,1.39,4.88,4.88,0,0,1,.33,1.85A4.08,4.08,0,0,1,41.35,112,6.13,6.13,0,0,1,37.33,113.16Zm-.7-6.56h-2V111h2a5.82,5.82,0,0,0,1.71-.21,2,2,0,0,0,1-.7,2.1,2.1,0,0,0,.36-1.28,2.17,2.17,0,0,0-.56-1.54A3.71,3.71,0,0,0,36.63,106.59Z"/><path class="cls-6" d="M12.1,258.56v-3.25H3.32a3.61,3.61,0,0,1-2.49-.75,2.62,2.62,0,0,1-.83-2,2,2,0,0,1,.12-.67,3.53,3.53,0,0,1,.37-.72c.16-.25.33-.49.51-.73l.65-.86,9.26-12.39a14.18,14.18,0,0,1,1.49-1.77,2,2,0,0,1,1.41-.55q2.66,0,2.66,3V251.4h.75a5.31,5.31,0,0,1,2.16.37,1.57,1.57,0,0,1,.81,1.61,1.68,1.68,0,0,1-.66,1.48,3.49,3.49,0,0,1-2,.46H16.47v3.25a2.9,2.9,0,0,1-.59,2,2,2,0,0,1-1.59.66,2,2,0,0,1-1.58-.67A2.89,2.89,0,0,1,12.1,258.56ZM4.58,251.4H12.1V241.24Z"/><path class="cls-6" d="M40.41,248.22a30,30,0,0,1-.35,4.93,11.46,11.46,0,0,1-1.29,3.74,8.59,8.59,0,0,1-3.08,3.18,8.36,8.36,0,0,1-9-.38,9.16,9.16,0,0,1-3.17-4.16,15.46,15.46,0,0,1-.8-3.21,26.59,26.59,0,0,1-.25-3.8,36.42,36.42,0,0,1,.28-4.75,15.69,15.69,0,0,1,.87-3.64A7.82,7.82,0,0,1,31.36,235a8.76,8.76,0,0,1,3.27.59,7.44,7.44,0,0,1,2.58,1.71,9.8,9.8,0,0,1,1.88,2.79A20,20,0,0,1,40.41,248.22Zm-4.79-.35a29.06,29.06,0,0,0-.38-5.23,6.44,6.44,0,0,0-1.29-3.08,3.17,3.17,0,0,0-2.52-1,3.23,3.23,0,0,0-3.21,2.32,21.2,21.2,0,0,0-.9,7.17,30.76,30.76,0,0,0,.38,5.38A6.76,6.76,0,0,0,29,256.56a3.38,3.38,0,0,0,5,0,6.94,6.94,0,0,0,1.28-3.2A32.57,32.57,0,0,0,35.62,247.87Z"/><path class="cls-6" d="M61.68,248.22a30,30,0,0,1-.35,4.93A11.46,11.46,0,0,1,60,256.89,8.59,8.59,0,0,1,57,260.07a8.36,8.36,0,0,1-9-.38,9.16,9.16,0,0,1-3.17-4.16,15.46,15.46,0,0,1-.8-3.21,26.59,26.59,0,0,1-.25-3.8,36.42,36.42,0,0,1,.28-4.75,15.69,15.69,0,0,1,.87-3.64A7.82,7.82,0,0,1,52.63,235a8.76,8.76,0,0,1,3.27.59,7.44,7.44,0,0,1,2.58,1.71,9.8,9.8,0,0,1,1.88,2.79A20,20,0,0,1,61.68,248.22Zm-4.79-.35a29.06,29.06,0,0,0-.38-5.23,6.44,6.44,0,0,0-1.29-3.08,3.17,3.17,0,0,0-2.52-1,3.23,3.23,0,0,0-3.21,2.32,21.2,21.2,0,0,0-.9,7.17,30.76,30.76,0,0,0,.38,5.38,6.76,6.76,0,0,0,1.29,3.17,3.38,3.38,0,0,0,5,0,6.94,6.94,0,0,0,1.28-3.2A32.57,32.57,0,0,0,56.89,247.87Z"/><path class="cls-6" d="M83,248.22a30,30,0,0,1-.35,4.93,11.46,11.46,0,0,1-1.29,3.74,8.59,8.59,0,0,1-3.08,3.18,8.36,8.36,0,0,1-9-.38,9.16,9.16,0,0,1-3.17-4.16,15.46,15.46,0,0,1-.8-3.21,26.59,26.59,0,0,1-.25-3.8,36.42,36.42,0,0,1,.28-4.75,15.69,15.69,0,0,1,.87-3.64A7.82,7.82,0,0,1,73.9,235a8.76,8.76,0,0,1,3.27.59,7.44,7.44,0,0,1,2.58,1.71,9.8,9.8,0,0,1,1.88,2.79A20,20,0,0,1,83,248.22Zm-4.79-.35a29.06,29.06,0,0,0-.38-5.23,6.44,6.44,0,0,0-1.29-3.08,3.17,3.17,0,0,0-2.52-1,3.23,3.23,0,0,0-3.21,2.32,21.2,21.2,0,0,0-.9,7.17,30.76,30.76,0,0,0,.38,5.38,6.76,6.76,0,0,0,1.29,3.17,3.38,3.38,0,0,0,5,0,6.94,6.94,0,0,0,1.28-3.2A32.57,32.57,0,0,0,78.17,247.87Z"/><path class="cls-6" d="M104.23,248.22a30,30,0,0,1-.35,4.93,11.46,11.46,0,0,1-1.29,3.74,8.59,8.59,0,0,1-3.08,3.18,8.36,8.36,0,0,1-9-.38,9.16,9.16,0,0,1-3.17-4.16,15.46,15.46,0,0,1-.8-3.21,26.59,26.59,0,0,1-.25-3.8,36.42,36.42,0,0,1,.28-4.75,15.69,15.69,0,0,1,.87-3.64A7.82,7.82,0,0,1,95.17,235a8.76,8.76,0,0,1,3.27.59,7.44,7.44,0,0,1,2.58,1.71,9.8,9.8,0,0,1,1.88,2.79A20,20,0,0,1,104.23,248.22Zm-4.79-.35a29.06,29.06,0,0,0-.38-5.23,6.44,6.44,0,0,0-1.29-3.08,3.17,3.17,0,0,0-2.52-1A3.23,3.23,0,0,0,92,240.84a21.2,21.2,0,0,0-.9,7.17,30.76,30.76,0,0,0,.38,5.38,6.76,6.76,0,0,0,1.29,3.17,3.38,3.38,0,0,0,5,0,6.94,6.94,0,0,0,1.28-3.2A32.57,32.57,0,0,0,99.44,247.87Z"/><path class="cls-11" d="M168.29,267.91c-1.19-5,1.88-30.72-21.54-40.49H140.4c-23.42,9.77-20.35,35.52-21.54,40.49-1.06,4.41.21,5.94,1.47,6.53s4.41-.77,6.41-.41,7.77,2.59,16.83,2.59,14.83-2.24,16.83-2.59,5.15,1,6.41.41S169.35,272.32,168.29,267.91Z"/><path class="cls-11" d="M152.83,215.25c-.51-1-3.59.7-5.46,2.23s-2-4.1-3.79-4.1-2.06,5.52-3.79,4.1-4.94-3.18-5.46-2.23,1.76,1.14,5.47,8.68h7.56C151.07,216.39,153.32,216.16,152.83,215.25Z"/><path class="cls-12" d="M152.83,215.25c-.51-1-3.59.7-5.46,2.23s-2-4.1-3.79-4.1-2.06,5.52-3.79,4.1-4.94-3.18-5.46-2.23,1.76,1.14,5.47,8.68h7.56C151.07,216.39,153.32,216.16,152.83,215.25Z"/><path class="cls-13" d="M147.74,227.81h-8.32a.82.82,0,0,1,0-1.65h8.32a.82.82,0,0,1,0,1.65Z"/><path class="cls-14" d="M139.42,227.81h8.32a.82.82,0,0,0,.82-.82h-10A.82.82,0,0,0,139.42,227.81Z"/><path class="cls-13" d="M147.74,226.16h-8.32a.82.82,0,0,1,0-1.65h8.32a.82.82,0,0,1,0,1.65Z"/><path class="cls-14" d="M139.42,226.16h8.32a.82.82,0,0,0,.82-.82h-10A.82.82,0,0,0,139.42,226.16Z"/><path class="cls-13" d="M147.74,224.52h-8.32a.82.82,0,0,1,0-1.65h8.32a.82.82,0,0,1,0,1.65Z"/><path class="cls-14" d="M139.42,224.52h8.32a.82.82,0,0,0,.82-.82h-10A.82.82,0,0,0,139.42,224.52Z"/><circle class="cls-15" cx="143.58" cy="256.65" r="13.73"/><path class="cls-16" d="M143,265.26h-5V247.49h5v-2.62h2.26v2.62h.92a5.13,5.13,0,0,1,3.66,1.22,4.65,4.65,0,0,1,1.3,3.56,4.32,4.32,0,0,1-.62,2.33,3.84,3.84,0,0,1-1.64,1.49q2.85.84,2.85,4.14a5.14,5.14,0,0,1-.67,2.68,4.56,4.56,0,0,1-1.84,1.74,5.52,5.52,0,0,1-2.59.61H145.3v2.62H143Zm0-10.14V249.6h-2.39v5.51Zm0,8v-5.9h-2.39v5.9Zm2.85-8a2.44,2.44,0,0,0,2.67-2.72,2.81,2.81,0,0,0-.7-2.17,3.16,3.16,0,0,0-2.15-.62h-.41v5.51Zm.18,8a3.47,3.47,0,0,0,2.29-.66,3.61,3.61,0,0,0,0-4.55,3.81,3.81,0,0,0-2.48-.69h-.53v5.9Z"/></g></g></g></svg>