<svg xmlns="http://www.w3.org/2000/svg" xmlns:xlink="http://www.w3.org/1999/xlink" viewBox="0 0 170.3 133.62"><defs><style>.cls-1{isolation:isolate;}.cls-2{fill:#ffd05b;}.cls-3{fill:#f9b54c;}.cls-4{fill:none;stroke:#324a5e;stroke-linecap:round;stroke-linejoin:round;stroke-width:5px;}.cls-11,.cls-5{fill:#fff;}.cls-6{fill:#324a5e;}.cls-7{fill:#eadcb7;}.cls-10,.cls-8{mix-blend-mode:color-burn;}.cls-8{fill:url(#linear-gradient);}.cls-9{fill:#e2a442;}.cls-10{fill:#b1b1b1;}.cls-11{opacity:0.3;}.cls-12{fill:#7ca841;}</style><linearGradient id="linear-gradient" x1="135.87" y1="75.66" x2="154.51" y2="75.66" gradientUnits="userSpaceOnUse"><stop offset="0" stop-color="#fff"/><stop offset="1" stop-color="#979797"/></linearGradient></defs><title>hide-1</title><g class="cls-1"><g id="Layer_2" data-name="Layer 2"><g id="Layer_1-2" data-name="Layer 1"><circle class="cls-2" cx="33.62" cy="12.72" r="12.72"/><path class="cls-3" d="M44.06,27.88a17.63,17.63,0,0,1-10.43,3.26,17.63,17.63,0,0,1-10.43-3.26A24.86,24.86,0,0,0,8.52,50.54h50A24.46,24.46,0,0,0,44.06,27.88Z"/><line class="cls-4" x1="82.5" y1="19.9" x2="103.52" y2="40.92"/><line class="cls-4" x1="103.52" y1="19.9" x2="82.5" y2="40.92"/><path class="cls-5" d="M34.73,43.29H32.34v3.65A1.7,1.7,0,0,1,32,48.13a1.3,1.3,0,0,1-1.88,0A1.7,1.7,0,0,1,29.72,47V37a1.63,1.63,0,0,1,.4-1.23,1.8,1.8,0,0,1,1.26-.37h3.35a8.78,8.78,0,0,1,2.29.23,3.41,3.41,0,0,1,1.37.73,3.29,3.29,0,0,1,.88,1.25,4.4,4.4,0,0,1,.3,1.66,3.67,3.67,0,0,1-1.21,3A5.52,5.52,0,0,1,34.73,43.29Zm-.63-5.91H32.34v3.94h1.76a5.26,5.26,0,0,0,1.54-.19,1.8,1.8,0,0,0,.95-.63,1.89,1.89,0,0,0,.33-1.15,2,2,0,0,0-.5-1.39A3.34,3.34,0,0,0,34.09,37.38Z"/><path class="cls-6" d="M127.36,39.42h9.18a3.35,3.35,0,0,1,2.09.56,1.84,1.84,0,0,1,.72,1.53,2,2,0,0,1-.57,1.46,2.29,2.29,0,0,1-1.73.6h-13a2.8,2.8,0,0,1-2.06-.73,2.34,2.34,0,0,1-.74-1.72,4.37,4.37,0,0,1,.48-1.68,6,6,0,0,1,1-1.65q2.34-2.43,4.22-4.16a27.81,27.81,0,0,1,2.69-2.28,15.59,15.59,0,0,0,2.4-2,8.14,8.14,0,0,0,1.46-2.11,5,5,0,0,0,.5-2.12,3.82,3.82,0,0,0-.54-2,3.72,3.72,0,0,0-1.46-1.38,4.21,4.21,0,0,0-2-.49,4.11,4.11,0,0,0-3.62,2,8.75,8.75,0,0,0-.59,1.44,6,6,0,0,1-.93,1.81,1.85,1.85,0,0,1-1.52.63,2,2,0,0,1-1.46-.58,2.14,2.14,0,0,1-.58-1.58,6.63,6.63,0,0,1,.55-2.53A7.26,7.26,0,0,1,123.55,20a8,8,0,0,1,2.74-1.73,10.53,10.53,0,0,1,3.9-.66,11.27,11.27,0,0,1,4.59.84A6.91,6.91,0,0,1,136.95,20a7.27,7.27,0,0,1,2,5,7.51,7.51,0,0,1-1.08,4,12.32,12.32,0,0,1-2.21,2.8q-1.13,1-3.77,3.18a28.31,28.31,0,0,0-3.63,3.36A10,10,0,0,0,127.36,39.42Z"/><path class="cls-6" d="M160.43,30.92a30.14,30.14,0,0,1-.35,5,11.55,11.55,0,0,1-1.3,3.77,8.65,8.65,0,0,1-3.1,3.2,8.41,8.41,0,0,1-9-.39,9.21,9.21,0,0,1-3.19-4.19,15.56,15.56,0,0,1-.8-3.23,26.9,26.9,0,0,1-.26-3.83,36.82,36.82,0,0,1,.28-4.79,15.8,15.8,0,0,1,.88-3.66,7.87,7.87,0,0,1,7.74-5.19,8.82,8.82,0,0,1,3.29.59,7.5,7.5,0,0,1,2.6,1.72,9.87,9.87,0,0,1,1.89,2.81A20.18,20.18,0,0,1,160.43,30.92Zm-4.82-.35a29.34,29.34,0,0,0-.39-5.27,6.48,6.48,0,0,0-1.3-3.1,3.19,3.19,0,0,0-2.53-1,3.25,3.25,0,0,0-3.23,2.34,21.32,21.32,0,0,0-.91,7.21,31,31,0,0,0,.39,5.42,6.81,6.81,0,0,0,1.3,3.19,3.4,3.4,0,0,0,5,0,7,7,0,0,0,1.28-3.22A32.79,32.79,0,0,0,155.61,30.57Z"/><path class="cls-7" d="M169.9,124.91c-1.19-5,1.88-30.72-21.54-40.49H142c-23.42,9.77-20.35,35.52-21.54,40.49-1.06,4.41.21,5.94,1.47,6.53s4.41-.77,6.41-.41,7.77,2.59,16.83,2.59S160,131.39,162,131s5.15,1,6.41.41S171,129.33,169.9,124.91Z"/><path class="cls-7" d="M154.44,72.26c-.51-1-3.59.7-5.46,2.23s-2-4.1-3.79-4.1-2.06,5.52-3.79,4.1-4.94-3.18-5.46-2.23,1.76,1.14,5.47,8.68H149C152.67,73.39,154.93,73.17,154.44,72.26Z"/><path class="cls-8" d="M154.44,72.26c-.51-1-3.59.7-5.46,2.23s-2-4.1-3.79-4.1-2.06,5.52-3.79,4.1-4.94-3.18-5.46-2.23,1.76,1.14,5.47,8.68H149C152.67,73.39,154.93,73.17,154.44,72.26Z"/><path class="cls-9" d="M149.35,84.82H141a.82.82,0,0,1,0-1.65h8.32a.82.82,0,0,1,0,1.65Z"/><path class="cls-10" d="M141,84.82h8.32a.82.82,0,0,0,.82-.82h-10A.82.82,0,0,0,141,84.82Z"/><path class="cls-9" d="M149.35,83.17H141a.82.82,0,0,1,0-1.65h8.32a.82.82,0,0,1,0,1.65Z"/><path class="cls-10" d="M141,83.17h8.32a.82.82,0,0,0,.82-.82h-10A.82.82,0,0,0,141,83.17Z"/><path class="cls-9" d="M149.35,81.52H141a.82.82,0,0,1,0-1.65h8.32a.82.82,0,0,1,0,1.65Z"/><path class="cls-10" d="M141,81.52h8.32a.82.82,0,0,0,.82-.82h-10A.82.82,0,0,0,141,81.52Z"/><circle class="cls-11" cx="145.19" cy="113.66" r="13.73"/><path class="cls-6" d="M7.89,120.58v-16Q3.43,108,1.88,108a1.78,1.78,0,0,1-1.31-.59A1.9,1.9,0,0,1,0,106.07a1.54,1.54,0,0,1,.56-1.32,12.43,12.43,0,0,1,2-1.09,14.83,14.83,0,0,0,3.4-2.11,14.39,14.39,0,0,0,2.26-2.48q1-1.37,1.28-1.69a1.54,1.54,0,0,1,1.12-.32,1.8,1.8,0,0,1,1.49.72,3.15,3.15,0,0,1,.56,2V119.9q0,3.53-2.41,3.53a2.21,2.21,0,0,1-1.72-.72A3.08,3.08,0,0,1,7.89,120.58Z"/><path class="cls-6" d="M38.8,110.36a30.1,30.1,0,0,1-.35,5,11.54,11.54,0,0,1-1.3,3.76,8.64,8.64,0,0,1-3.09,3.2,8.4,8.4,0,0,1-9-.39,9.19,9.19,0,0,1-3.19-4.18,15.54,15.54,0,0,1-.8-3.22,26.86,26.86,0,0,1-.25-3.82,36.77,36.77,0,0,1,.28-4.78,15.78,15.78,0,0,1,.88-3.65A7.86,7.86,0,0,1,29.7,97a8.81,8.81,0,0,1,3.29.59,7.49,7.49,0,0,1,2.59,1.72,9.85,9.85,0,0,1,1.89,2.8A20.16,20.16,0,0,1,38.8,110.36ZM34,110a29.3,29.3,0,0,0-.39-5.26,6.48,6.48,0,0,0-1.3-3.09,3.18,3.18,0,0,0-2.53-1,3.25,3.25,0,0,0-3.22,2.34,21.29,21.29,0,0,0-.9,7.2,31,31,0,0,0,.39,5.41,6.8,6.8,0,0,0,1.3,3.19,3.39,3.39,0,0,0,5,0,7,7,0,0,0,1.28-3.22A32.75,32.75,0,0,0,34,110Z"/><path class="cls-6" d="M60.18,110.36a30.1,30.1,0,0,1-.35,5,11.54,11.54,0,0,1-1.3,3.76,8.64,8.64,0,0,1-3.09,3.2,8.4,8.4,0,0,1-9-.39,9.19,9.19,0,0,1-3.19-4.18,15.54,15.54,0,0,1-.8-3.22,26.86,26.86,0,0,1-.25-3.82,36.77,36.77,0,0,1,.28-4.78,15.78,15.78,0,0,1,.88-3.65A7.86,7.86,0,0,1,51.08,97a8.81,8.81,0,0,1,3.29.59A7.49,7.49,0,0,1,57,99.35a9.85,9.85,0,0,1,1.89,2.8A20.16,20.16,0,0,1,60.18,110.36ZM55.37,110a29.3,29.3,0,0,0-.39-5.26,6.48,6.48,0,0,0-1.3-3.09,3.18,3.18,0,0,0-2.53-1,3.25,3.25,0,0,0-3.22,2.34,21.29,21.29,0,0,0-.9,7.2,31,31,0,0,0,.39,5.41,6.8,6.8,0,0,0,1.3,3.19,3.39,3.39,0,0,0,5,0A7,7,0,0,0,55,115.49,32.75,32.75,0,0,0,55.37,110Z"/><path class="cls-6" d="M81.57,110.36a30.1,30.1,0,0,1-.35,5,11.54,11.54,0,0,1-1.3,3.76,8.64,8.64,0,0,1-3.09,3.2,8.4,8.4,0,0,1-9-.39,9.19,9.19,0,0,1-3.19-4.18,15.54,15.54,0,0,1-.8-3.22,26.86,26.86,0,0,1-.25-3.82,36.77,36.77,0,0,1,.28-4.78,15.78,15.78,0,0,1,.88-3.65A7.86,7.86,0,0,1,72.47,97a8.81,8.81,0,0,1,3.29.59,7.49,7.49,0,0,1,2.59,1.72,9.85,9.85,0,0,1,1.89,2.8A20.16,20.16,0,0,1,81.57,110.36ZM76.75,110a29.3,29.3,0,0,0-.39-5.26,6.48,6.48,0,0,0-1.3-3.09,3.18,3.18,0,0,0-2.53-1,3.25,3.25,0,0,0-3.22,2.34,21.29,21.29,0,0,0-.9,7.2,31,31,0,0,0,.39,5.41,6.8,6.8,0,0,0,1.3,3.19,3.39,3.39,0,0,0,5,0,7,7,0,0,0,1.28-3.22A32.75,32.75,0,0,0,76.75,110Z"/><path class="cls-6" d="M103,110.36a30.1,30.1,0,0,1-.35,5,11.54,11.54,0,0,1-1.3,3.76,8.64,8.64,0,0,1-3.09,3.2,8.4,8.4,0,0,1-9-.39A9.19,9.19,0,0,1,86,117.7a15.54,15.54,0,0,1-.8-3.22,26.86,26.86,0,0,1-.25-3.82,36.77,36.77,0,0,1,.28-4.78,15.78,15.78,0,0,1,.88-3.65A7.86,7.86,0,0,1,93.85,97a8.81,8.81,0,0,1,3.29.59,7.49,7.49,0,0,1,2.59,1.72,9.85,9.85,0,0,1,1.89,2.8A20.16,20.16,0,0,1,103,110.36ZM98.14,110a29.3,29.3,0,0,0-.39-5.26,6.48,6.48,0,0,0-1.3-3.09,3.18,3.18,0,0,0-2.53-1,3.25,3.25,0,0,0-3.22,2.34,21.29,21.29,0,0,0-.9,7.2,31,31,0,0,0,.39,5.41,6.8,6.8,0,0,0,1.3,3.19,3.39,3.39,0,0,0,5,0,7,7,0,0,0,1.28-3.22A32.75,32.75,0,0,0,98.14,110Z"/><path class="cls-12" d="M144.65,122.27h-5V104.5h5v-2.62h2.26v2.62h.92a5.13,5.13,0,0,1,3.66,1.22,4.65,4.65,0,0,1,1.3,3.56,4.32,4.32,0,0,1-.62,2.33,3.84,3.84,0,0,1-1.64,1.49q2.85.84,2.85,4.14a5.14,5.14,0,0,1-.67,2.68,4.56,4.56,0,0,1-1.84,1.74,5.52,5.52,0,0,1-2.59.61h-1.35v2.62h-2.26Zm0-10.14v-5.51h-2.39v5.51Zm0,8v-5.9h-2.39v5.9Zm2.85-8a2.44,2.44,0,0,0,2.67-2.72,2.81,2.81,0,0,0-.7-2.17,3.16,3.16,0,0,0-2.15-.62h-.41v5.51Zm.18,8a3.47,3.47,0,0,0,2.29-.66,3.61,3.61,0,0,0,0-4.55,3.81,3.81,0,0,0-2.48-.69h-.53v5.9Z"/></g></g></g></svg>