<svg xmlns="http://www.w3.org/2000/svg" xmlns:xlink="http://www.w3.org/1999/xlink" viewBox="0 0 170.3 204.62"><defs><style>.cls-1{isolation:isolate;}.cls-2{fill:#ffd05b;}.cls-3{fill:#f9b54c;}.cls-4{fill:none;stroke:#324a5e;stroke-linecap:round;stroke-linejoin:round;stroke-width:5px;}.cls-13,.cls-5{fill:#fff;}.cls-6{fill:#324a5e;}.cls-7{fill:#45b39c;}.cls-8{fill:#379982;}.cls-9{fill:#eadcb7;}.cls-10,.cls-12{mix-blend-mode:color-burn;}.cls-10{fill:url(#linear-gradient);}.cls-11{fill:#e2a442;}.cls-12{fill:#b1b1b1;}.cls-13{opacity:0.3;}.cls-14{fill:#7ca841;}</style><linearGradient id="linear-gradient" x1="135.87" y1="146.66" x2="154.51" y2="146.66" gradientUnits="userSpaceOnUse"><stop offset="0" stop-color="#fff"/><stop offset="1" stop-color="#979797"/></linearGradient></defs><title>hide-2</title><g class="cls-1"><g id="Layer_2" data-name="Layer 2"><g id="Layer_1-2" data-name="Layer 1"><circle class="cls-2" cx="31.44" cy="83.18" r="12.72"/><path class="cls-3" d="M41.88,98.34a17.63,17.63,0,0,1-10.43,3.26A17.63,17.63,0,0,1,21,98.34,24.86,24.86,0,0,0,6.34,121h50A24.46,24.46,0,0,0,41.88,98.34Z"/><line class="cls-4" x1="81.85" y1="90.37" x2="102.88" y2="111.39"/><line class="cls-4" x1="102.88" y1="90.37" x2="81.85" y2="111.39"/><path class="cls-5" d="M32.55,113.76H30.16v3.65a1.7,1.7,0,0,1-.37,1.19,1.3,1.3,0,0,1-1.88,0,1.7,1.7,0,0,1-.36-1.17v-9.94a1.63,1.63,0,0,1,.4-1.23,1.8,1.8,0,0,1,1.26-.37h3.35a8.78,8.78,0,0,1,2.29.23,3.41,3.41,0,0,1,1.37.73,3.29,3.29,0,0,1,.88,1.25,4.4,4.4,0,0,1,.3,1.66,3.67,3.67,0,0,1-1.21,3A5.52,5.52,0,0,1,32.55,113.76Zm-.63-5.91H30.16v3.94h1.76a5.26,5.26,0,0,0,1.54-.19,1.8,1.8,0,0,0,.95-.63,1.89,1.89,0,0,0,.33-1.15,2,2,0,0,0-.5-1.39A3.34,3.34,0,0,0,31.92,107.84Z"/><path class="cls-6" d="M130.82,109.88H140a3.35,3.35,0,0,1,2.09.56,1.84,1.84,0,0,1,.72,1.53,2,2,0,0,1-.57,1.46,2.29,2.29,0,0,1-1.73.6h-13a2.8,2.8,0,0,1-2.06-.73,2.34,2.34,0,0,1-.74-1.72,4.37,4.37,0,0,1,.48-1.68,6,6,0,0,1,1-1.65q2.34-2.43,4.22-4.16a27.81,27.81,0,0,1,2.69-2.28,15.59,15.59,0,0,0,2.4-2,8.14,8.14,0,0,0,1.46-2.11,5,5,0,0,0,.5-2.12,3.82,3.82,0,0,0-.54-2,3.72,3.72,0,0,0-1.46-1.38,4.21,4.21,0,0,0-2-.49,4.11,4.11,0,0,0-3.62,2,8.75,8.75,0,0,0-.59,1.44,6,6,0,0,1-.93,1.81,1.85,1.85,0,0,1-1.52.63,2,2,0,0,1-1.46-.58,2.14,2.14,0,0,1-.58-1.58,6.63,6.63,0,0,1,.55-2.53A7.26,7.26,0,0,1,127,90.48a8,8,0,0,1,2.74-1.73,10.53,10.53,0,0,1,3.9-.66,11.27,11.27,0,0,1,4.59.84,6.91,6.91,0,0,1,2.16,1.55,7.27,7.27,0,0,1,2,5,7.51,7.51,0,0,1-1.08,4,12.32,12.32,0,0,1-2.21,2.8q-1.13,1-3.77,3.18a28.31,28.31,0,0,0-3.63,3.36A10,10,0,0,0,130.82,109.88Z"/><path class="cls-6" d="M146.78,94.67a6.13,6.13,0,0,1,.94-3.27A6.67,6.67,0,0,1,150.5,89a9.41,9.41,0,0,1,4.27-.92,11.11,11.11,0,0,1,3.62.54,7.41,7.41,0,0,1,2.6,1.48,6,6,0,0,1,1.54,2.13,6.42,6.42,0,0,1,.5,2.52,5.4,5.4,0,0,1-.88,3,6.38,6.38,0,0,1-2.61,2.18,7.3,7.3,0,0,1,2.44,1.5,6.12,6.12,0,0,1,1.46,2.15,7.18,7.18,0,0,1,.49,2.71,7.59,7.59,0,0,1-1.06,4,7.19,7.19,0,0,1-3.1,2.78,10.8,10.8,0,0,1-4.82,1,11.06,11.06,0,0,1-4.92-1,7.11,7.11,0,0,1-3.09-2.76,7.6,7.6,0,0,1-1-3.94,6.36,6.36,0,0,1,4.4-6.4A5.5,5.5,0,0,1,146.78,94.67Zm12.43,11.47a4.81,4.81,0,0,0-.55-2.36,3.78,3.78,0,0,0-1.56-1.54,4.7,4.7,0,0,0-2.25-.54,4.06,4.06,0,0,0-3,1.18,4.41,4.41,0,0,0-1.2,3.29,4.89,4.89,0,0,0,.56,2.38,4,4,0,0,0,1.53,1.59,4.45,4.45,0,0,0,4.35,0,4,4,0,0,0,1.53-1.61A5,5,0,0,0,159.21,106.15Zm-4.33-14.8a3.52,3.52,0,0,0-2.63,1,3.57,3.57,0,0,0-1,2.61,3.26,3.26,0,0,0,1,2.45,3.65,3.65,0,0,0,2.63,1,4.06,4.06,0,0,0,1.48-.26,3.39,3.39,0,0,0,1.14-.72,3.19,3.19,0,0,0,.74-1.09,3.89,3.89,0,0,0-.2-3.23,3.33,3.33,0,0,0-1.29-1.28A3.82,3.82,0,0,0,154.88,91.35Z"/><circle class="cls-7" cx="31.44" cy="12.72" r="12.72"/><path class="cls-8" d="M41.88,27.88a17.63,17.63,0,0,1-10.43,3.26A17.63,17.63,0,0,1,21,27.88,24.86,24.86,0,0,0,6.34,50.54h50A24.46,24.46,0,0,0,41.88,27.88Z"/><line class="cls-4" x1="81.85" y1="19.33" x2="102.88" y2="40.35"/><line class="cls-4" x1="102.88" y1="19.33" x2="81.85" y2="40.35"/><path class="cls-5" d="M30.72,43.7A4.2,4.2,0,0,1,30,46a4.44,4.44,0,0,1-2,1.62,7.34,7.34,0,0,1-3.06.59,6.87,6.87,0,0,1-3.5-.8A4.65,4.65,0,0,1,20,45.91,3.49,3.49,0,0,1,19.34,44a1.27,1.27,0,0,1,1.3-1.28,1.1,1.1,0,0,1,.78.29,2.3,2.3,0,0,1,.54.87,5.79,5.79,0,0,0,.59,1.14,2.4,2.4,0,0,0,.89.76,3.31,3.31,0,0,0,1.51.3,3.42,3.42,0,0,0,2.09-.6,1.81,1.81,0,0,0,.81-1.5,1.58,1.58,0,0,0-.43-1.16,2.81,2.81,0,0,0-1.12-.68q-.69-.23-1.84-.5a13.53,13.53,0,0,1-2.58-.84,4.18,4.18,0,0,1-1.65-1.32,3.42,3.42,0,0,1-.61-2.08,3.56,3.56,0,0,1,.64-2.1,4.07,4.07,0,0,1,1.87-1.41A7.63,7.63,0,0,1,25,33.44a7.11,7.11,0,0,1,2.28.33,4.81,4.81,0,0,1,1.6.87,3.63,3.63,0,0,1,.93,1.14,2.62,2.62,0,0,1,.29,1.16,1.37,1.37,0,0,1-.37.93,1.17,1.17,0,0,1-.91.42,1.05,1.05,0,0,1-.76-.25,3.35,3.35,0,0,1-.56-.82A3.71,3.71,0,0,0,26.56,36a2.74,2.74,0,0,0-1.76-.45A3,3,0,0,0,23,36a1.44,1.44,0,0,0-.69,1.19,1.2,1.2,0,0,0,.23.74,2,2,0,0,0,.64.54,4.38,4.38,0,0,0,.83.35l1.39.37a21.73,21.73,0,0,1,2.19.63,6.66,6.66,0,0,1,1.67.83,3.41,3.41,0,0,1,1.07,1.24A4,4,0,0,1,30.72,43.7Z"/><path class="cls-5" d="M38.73,42.42H36.08v4.05a1.89,1.89,0,0,1-.41,1.32,1.45,1.45,0,0,1-2.09,0,1.89,1.89,0,0,1-.4-1.3v-11a1.8,1.8,0,0,1,.44-1.37,2,2,0,0,1,1.4-.41h3.72a9.77,9.77,0,0,1,2.54.25,3.78,3.78,0,0,1,1.52.81,3.66,3.66,0,0,1,1,1.39A4.88,4.88,0,0,1,44.1,38a4.08,4.08,0,0,1-1.35,3.32A6.13,6.13,0,0,1,38.73,42.42ZM38,35.86h-2v4.38h2A5.82,5.82,0,0,0,39.75,40a2,2,0,0,0,1-.7A2.1,2.1,0,0,0,41.16,38a2.17,2.17,0,0,0-.56-1.54A3.71,3.71,0,0,0,38,35.86Z"/><path class="cls-6" d="M141.82,38.61H151a3.35,3.35,0,0,1,2.09.56,1.84,1.84,0,0,1,.72,1.53,2,2,0,0,1-.57,1.46,2.29,2.29,0,0,1-1.73.6h-13a2.8,2.8,0,0,1-2.06-.73,2.34,2.34,0,0,1-.74-1.72,4.37,4.37,0,0,1,.48-1.68,6,6,0,0,1,1-1.65q2.34-2.43,4.22-4.16a27.81,27.81,0,0,1,2.69-2.28,15.59,15.59,0,0,0,2.4-2,8.14,8.14,0,0,0,1.46-2.11,5,5,0,0,0,.5-2.12,3.82,3.82,0,0,0-.54-2,3.72,3.72,0,0,0-1.46-1.38,4.21,4.21,0,0,0-2-.49,4.11,4.11,0,0,0-3.62,2,8.75,8.75,0,0,0-.59,1.44,6,6,0,0,1-.93,1.81,1.85,1.85,0,0,1-1.52.63,2,2,0,0,1-1.46-.58,2.14,2.14,0,0,1-.58-1.58,6.63,6.63,0,0,1,.55-2.53A7.26,7.26,0,0,1,138,19.2a8,8,0,0,1,2.74-1.73,10.53,10.53,0,0,1,3.9-.66,11.27,11.27,0,0,1,4.59.84,6.91,6.91,0,0,1,2.16,1.55,7.27,7.27,0,0,1,2,5,7.51,7.51,0,0,1-1.08,4,12.32,12.32,0,0,1-2.21,2.8q-1.13,1-3.77,3.18a28.31,28.31,0,0,0-3.63,3.36A10,10,0,0,0,141.82,38.61Z"/><path class="cls-6" d="M7.89,192V176q-4.46,3.43-6,3.43a1.78,1.78,0,0,1-1.31-.59A1.9,1.9,0,0,1,0,177.44a1.54,1.54,0,0,1,.56-1.32,12.43,12.43,0,0,1,2-1.09,14.83,14.83,0,0,0,3.4-2.11,14.39,14.39,0,0,0,2.26-2.48q1-1.37,1.28-1.69a1.54,1.54,0,0,1,1.12-.32,1.8,1.8,0,0,1,1.49.72,3.15,3.15,0,0,1,.56,2v20.12q0,3.53-2.41,3.53a2.21,2.21,0,0,1-1.72-.72A3.08,3.08,0,0,1,7.89,192Z"/><path class="cls-6" d="M29,178.81a4.28,4.28,0,0,0,2.79-.95,3.31,3.31,0,0,0,1.17-2.72,3.25,3.25,0,0,0-.93-2.33,3.31,3.31,0,0,0-2.51-1,4.51,4.51,0,0,0-1.77.3,2.83,2.83,0,0,0-1.1.79,6,6,0,0,0-.76,1.27q-.36.77-.66,1.46a1.23,1.23,0,0,1-.63.58,2.49,2.49,0,0,1-1.05.21,1.82,1.82,0,0,1-1.29-.57,2,2,0,0,1-.59-1.52,4,4,0,0,1,.55-1.92,7,7,0,0,1,1.62-1.92A8.12,8.12,0,0,1,26.45,169a10.64,10.64,0,0,1,3.53-.55,9.83,9.83,0,0,1,3.11.47,7.29,7.29,0,0,1,2.44,1.34,5.8,5.8,0,0,1,1.56,2,6,6,0,0,1,.53,2.5,5.69,5.69,0,0,1-.76,3,10.14,10.14,0,0,1-2.19,2.45A9.68,9.68,0,0,1,37,182a6.3,6.3,0,0,1,1.89,4.59,7.76,7.76,0,0,1-.64,3.09,7.88,7.88,0,0,1-1.89,2.66,9,9,0,0,1-3,1.83,10.47,10.47,0,0,1-3.79.66,9.06,9.06,0,0,1-3.78-.76,8.71,8.71,0,0,1-2.75-1.89,8.6,8.6,0,0,1-1.63-2.35,5.09,5.09,0,0,1-.55-2,2.16,2.16,0,0,1,.66-1.64,2.29,2.29,0,0,1,1.64-.62,1.75,1.75,0,0,1,.95.29,1.37,1.37,0,0,1,.6.69,11.82,11.82,0,0,0,2,3.63,3.72,3.72,0,0,0,2.94,1.19,4.43,4.43,0,0,0,2.1-.54,4.37,4.37,0,0,0,1.67-1.59,4.51,4.51,0,0,0,.66-2.44,4.46,4.46,0,0,0-1.12-3.22,4.14,4.14,0,0,0-3.13-1.17q-.35,0-1.09.07c-.49,0-.81.07-.95.07a2.13,2.13,0,0,1-1.49-.48,1.73,1.73,0,0,1-.53-1.34,1.68,1.68,0,0,1,.63-1.36,2.91,2.91,0,0,1,1.88-.52Z"/><path class="cls-6" d="M60.18,181.73a30.1,30.1,0,0,1-.35,5,11.54,11.54,0,0,1-1.3,3.76,8.64,8.64,0,0,1-3.09,3.2,8.4,8.4,0,0,1-9-.39,9.19,9.19,0,0,1-3.19-4.18,15.54,15.54,0,0,1-.8-3.22,26.86,26.86,0,0,1-.25-3.82,36.77,36.77,0,0,1,.28-4.78,15.78,15.78,0,0,1,.88-3.65,7.86,7.86,0,0,1,7.73-5.18,8.81,8.81,0,0,1,3.29.59A7.49,7.49,0,0,1,57,170.72a9.85,9.85,0,0,1,1.89,2.8A20.16,20.16,0,0,1,60.18,181.73Zm-4.81-.35a29.3,29.3,0,0,0-.39-5.26,6.48,6.48,0,0,0-1.3-3.09,3.18,3.18,0,0,0-2.53-1,3.25,3.25,0,0,0-3.22,2.34,21.29,21.29,0,0,0-.9,7.2,31,31,0,0,0,.39,5.41,6.8,6.8,0,0,0,1.3,3.19,3.39,3.39,0,0,0,5,0A7,7,0,0,0,55,186.86,32.75,32.75,0,0,0,55.37,181.38Z"/><path class="cls-6" d="M81.57,181.73a30.1,30.1,0,0,1-.35,5,11.54,11.54,0,0,1-1.3,3.76,8.64,8.64,0,0,1-3.09,3.2,8.4,8.4,0,0,1-9-.39,9.19,9.19,0,0,1-3.19-4.18,15.54,15.54,0,0,1-.8-3.22,26.86,26.86,0,0,1-.25-3.82,36.77,36.77,0,0,1,.28-4.78,15.78,15.78,0,0,1,.88-3.65,7.86,7.86,0,0,1,7.73-5.18,8.81,8.81,0,0,1,3.29.59,7.49,7.49,0,0,1,2.59,1.72,9.85,9.85,0,0,1,1.89,2.8A20.16,20.16,0,0,1,81.57,181.73Zm-4.81-.35a29.3,29.3,0,0,0-.39-5.26,6.48,6.48,0,0,0-1.3-3.09,3.18,3.18,0,0,0-2.53-1,3.25,3.25,0,0,0-3.22,2.34,21.29,21.29,0,0,0-.9,7.2,31,31,0,0,0,.39,5.41,6.8,6.8,0,0,0,1.3,3.19,3.39,3.39,0,0,0,5,0,7,7,0,0,0,1.28-3.22A32.75,32.75,0,0,0,76.75,181.38Z"/><path class="cls-6" d="M103,181.73a30.1,30.1,0,0,1-.35,5,11.54,11.54,0,0,1-1.3,3.76,8.64,8.64,0,0,1-3.09,3.2,8.4,8.4,0,0,1-9-.39A9.19,9.19,0,0,1,86,189.08a15.54,15.54,0,0,1-.8-3.22A26.86,26.86,0,0,1,85,182a36.77,36.77,0,0,1,.28-4.78,15.78,15.78,0,0,1,.88-3.65,7.86,7.86,0,0,1,7.73-5.18,8.81,8.81,0,0,1,3.29.59,7.49,7.49,0,0,1,2.59,1.72,9.85,9.85,0,0,1,1.89,2.8A20.16,20.16,0,0,1,103,181.73Zm-4.81-.35a29.3,29.3,0,0,0-.39-5.26,6.48,6.48,0,0,0-1.3-3.09,3.18,3.18,0,0,0-2.53-1,3.25,3.25,0,0,0-3.22,2.34,21.29,21.29,0,0,0-.9,7.2,31,31,0,0,0,.39,5.41,6.8,6.8,0,0,0,1.3,3.19,3.39,3.39,0,0,0,5,0,7,7,0,0,0,1.28-3.22A32.75,32.75,0,0,0,98.14,181.38Z"/><path class="cls-9" d="M169.9,195.91c-1.19-5,1.88-30.72-21.54-40.49H142c-23.42,9.77-20.35,35.52-21.54,40.49-1.06,4.41.21,5.94,1.47,6.53s4.41-.77,6.41-.41,7.77,2.59,16.83,2.59S160,202.38,162,202s5.15,1,6.41.41S171,200.32,169.9,195.91Z"/><path class="cls-9" d="M154.44,143.25c-.51-1-3.59.7-5.46,2.23s-2-4.1-3.79-4.1-2.06,5.52-3.79,4.1-4.94-3.18-5.46-2.23,1.76,1.14,5.47,8.68H149C152.67,144.39,154.93,144.16,154.44,143.25Z"/><path class="cls-10" d="M154.44,143.25c-.51-1-3.59.7-5.46,2.23s-2-4.1-3.79-4.1-2.06,5.52-3.79,4.1-4.94-3.18-5.46-2.23,1.76,1.14,5.47,8.68H149C152.67,144.39,154.93,144.16,154.44,143.25Z"/><path class="cls-11" d="M149.35,155.81H141a.82.82,0,0,1,0-1.65h8.32a.82.82,0,0,1,0,1.65Z"/><path class="cls-12" d="M141,155.81h8.32a.82.82,0,0,0,.82-.82h-10A.82.82,0,0,0,141,155.81Z"/><path class="cls-11" d="M149.35,154.16H141a.82.82,0,0,1,0-1.65h8.32a.82.82,0,0,1,0,1.65Z"/><path class="cls-12" d="M141,154.16h8.32a.82.82,0,0,0,.82-.82h-10A.82.82,0,0,0,141,154.16Z"/><path class="cls-11" d="M149.35,152.52H141a.82.82,0,0,1,0-1.65h8.32a.82.82,0,0,1,0,1.65Z"/><path class="cls-12" d="M141,152.52h8.32a.82.82,0,0,0,.82-.82h-10A.82.82,0,0,0,141,152.52Z"/><circle class="cls-13" cx="145.19" cy="184.65" r="13.73"/><path class="cls-14" d="M144.65,193.26h-5V175.49h5v-2.62h2.26v2.62h.92a5.13,5.13,0,0,1,3.66,1.22,4.65,4.65,0,0,1,1.3,3.56,4.32,4.32,0,0,1-.62,2.33,3.84,3.84,0,0,1-1.64,1.49q2.85.84,2.85,4.14a5.14,5.14,0,0,1-.67,2.68,4.56,4.56,0,0,1-1.84,1.74,5.52,5.52,0,0,1-2.59.61h-1.35v2.62h-2.26Zm0-10.14V177.6h-2.39v5.51Zm0,8v-5.9h-2.39v5.9Zm2.85-8a2.44,2.44,0,0,0,2.67-2.72,2.81,2.81,0,0,0-.7-2.17,3.16,3.16,0,0,0-2.15-.62h-.41v5.51Zm.18,8a3.47,3.47,0,0,0,2.29-.66,3.61,3.61,0,0,0,0-4.55,3.81,3.81,0,0,0-2.48-.69h-.53v5.9Z"/></g></g></g></svg>