<svg id="Слой_1" data-name="Слой 1" xmlns="http://www.w3.org/2000/svg" viewBox="0 0 580.48 149.99">
    <defs>
        <style>
            .cls-1,.cls-4,.cls-6{stroke:#000;stroke-linecap:round;stroke-linejoin:round;stroke-width:3px;}.cls-2{fill:#d9d9d9;}.cls-3{fill:#fff;}.cls-4{fill:#129f58;}.cls-5{fill:#107a43;}.cls-6,.cls-7{fill:none;}
        </style>
    </defs>
    <title>logo</title>
    <path class="cls-1"
          d="M9.58,101.65A78.57,78.57,0,0,0,18.5,88.08C22.89,79.82,27.3,68.79,29,59.29a6.67,6.67,0,0,0-1.48-5.72l-.25-.27C16,42,13.58,38.74,15.31,26.25,16.6,16.81,26,9,29.31,6.51A10.46,10.46,0,0,0,31,8c1.4-.31,1.75-4.73,3-4.91,1.28,1.29,1,4.19,3.11,4.11.52,0,.62-1.45.69-2.27.41,0,1,.34,2.07,1.76a19.91,19.91,0,0,1,3.25,2.19c2,1.81,2.72,5.24,7.53,9.38A7.56,7.56,0,0,0,56.86,20c8.3-1.38,10.45-4.86,24.31-5.73,13-.82,21,4.41,30,4.84A8,8,0,0,0,115.7,18a12.67,12.67,0,0,0,3.11-3c1.65-2,4-7.32,7.93-9.59.84-.48,1.52-1.87,2.35-2.09.75,1.18.64,2.22,1.34,2.29.91.1,2.09-2.72,2.72-4.08,1.17.65,2.12,3.29,3.09,4.36.75,0,1.19-.56,1.71-1.23a5.55,5.55,0,0,1,2.49,2c8.43,7.35,12.16,11.55,12.83,21.46.12,1.81.55,8-3.11,13.66-3.87,5.95-6.61,7.24-10.65,11.45-1.19,1.24-.5,4.81,1,12.23,4.3,21.07,2.49,30.12,14.76,40.88-.47,1-1.75,1.75-3.5,2.18,1.34,2.91-.47,8.9-1.59,9.2,0,.11-.23-1.81-1.17-1.62a11.59,11.59,0,0,1-2.63,4.62c-5,5.87-12.22,8.32-23.7,14.26-9.3,4.79-10.35,6.49-18.86,10.32-3,1.34-23.46,6.81-38.41-.54a49.68,49.68,0,0,1-11.56-7.43,70.48,70.48,0,0,0-7.71-5.58c-10-6.5-26.5-17.3-26.91-20.87-1.87.17-3.62,3.46-3.62,3.46-1.25-.36-4.39-6.5-2-11A8.34,8.34,0,0,1,9.58,101.65Z"
          transform="translate(0 -0.03)"/>
    <path class="cls-2"
          d="M16.82,100.86A6.57,6.57,0,0,1,18,99.05c4.53-5.11,10-19,10.94-22.08,3-9.48,2.88-11.87,5.3-20.63a46.92,46.92,0,0,1,10-18.9,50.57,50.57,0,0,1,17-12.67,52.81,52.81,0,0,1,21.43-4.69,55.66,55.66,0,0,1,16.83,2.07A52.55,52.55,0,0,1,115.9,30.3c3.46,2.56,10.81,8.15,15.32,18a56.64,56.64,0,0,1,4.28,16.15c.52,3.54.57,5.58,1.73,14.48.57,4.43.91,6.64,1.15,8a55.3,55.3,0,0,0,5.77,14.41c1.38,2.31,2.09,3.46,3.46,4.61.23.19,1,.91.91.91-1.36.37-2.53-.66-3.46-1.27,1.38,1.67,1.9,4.66,1.29,5.12-.41-.41-1.68-1.57-2.56-1.21.26.91,0,2.51-.91,4.61a16.16,16.16,0,0,1-5,6.23c-1.32,1.11-.91.52-7.72,4.84a38.66,38.66,0,0,1-3.82,2.27c-1.65.82-2.15.91-4,1.81-1,.5-1.81,1-3.46,2-1.1.65-2.53,1.49-4.15,2.53-2.62,1.69-3.05,2.16-4.84,3.34a39.23,39.23,0,0,1-6.57,3.58A38.09,38.09,0,0,1,94,143a55.32,55.32,0,0,1-8.15.81,45.64,45.64,0,0,1-8.15-.46,42.92,42.92,0,0,1-8.88-2.3,31.35,31.35,0,0,1-6.8-3.34c-3-2-3.09-2.9-7.38-6-.43-.31-2-1.43-4.15-2.77a62.38,62.38,0,0,0-5.53-3.11S27.89,117.12,22.82,110a7.24,7.24,0,0,1-1.7-3.22,11.19,11.19,0,0,1,0-2.42c-.63-.34-1.81.58-2.53,1.61-.58-.35-.58-4.09,1.49-6.23-.62-.45-1.81.63-3.27,1.61A3.08,3.08,0,0,1,16.82,100.86Z"
          transform="translate(0 -0.03)"/>
    <path class="cls-3"
          d="M72.8,37c.81-1.63-3.84-5.43-3.19-6.25.81-1.06,7.72,1.32,14.06,4.61,6.91-4,12.92-5.87,13.58-5C97.78,31,93.34,34.6,94,36c5.92-2.2,16.44-3.22,17.2-1.42.41,1-3.67,2.59-4.45,4.53,8.91.78,16.11,3.62,16.09,4.61,0,.48-3.25,1-4.94,2,3.67,3,14.91,9.33,13.49,12.93,0,0-2.42-.59-3.11.24a10.21,10.21,0,0,1,3,6.68c.91,8.37-.4,10.72,2.31,20.63,2,7.17,5.27,8.64,6.34,17.29.69,5.53-.69,6.57-1,6.72-1-1.56-6.5-4.87-6.5-4.87,1.73,3.22,2.85,8.08,2.07,8.53s-2.84-1.07-4.35-3.22a11.84,11.84,0,0,1-.26,6.34c-2,7.38-17.34,10-18.1,8.41-.22-.45.91-1.08.69-2.19-.25-1.56-2.72-2.37-3.58-2.65-4.59-1.48-6.6.55-12.33.12-2.91-.22-5.68-.43-8-2.42-2.77-2.42-2.91-5.9-4.38-5.87-1.09,0-1.17,1.9-3.22,3.92a11.59,11.59,0,0,1-6.45,3,13.14,13.14,0,0,1-8.06-1.76,22.26,22.26,0,0,1-7.86-7.39c-2-2.86-2.22-4.45-4.72-6.68a8.87,8.87,0,0,0-4.53-2.42c-2.54-.43-5.19.55-5.19,1.27,2.34.2,3.85,1.25,3.8,2s-3.75,0-5.53,1.73c1.57.19,2.47.36,2.77,1.38.24.85-1.31,1.43-2.31,3.22-1.45,2.63.06,4.72-1,5.53-1.36,1-5.5-.77-7.15-3.92-1.42-2.72-1.21-4-1.38-5.87-.91-.24-2.21,3-2.77,2.77-.91-.31-.22-5.65.69-9-2.55-.72-3.19,6.34-5.07,6-1.57-.27-3.32-5.57-1.49-9.79.91-2.1,2.2-3.36,4.53-7.6,3.67-6.8,6.62-22.16,10-28.24-1.1-1-2.34-.37-3.46-.58-.92-1.86,8.58-9.11,13.23-13-.62-1.67-5.59-1.07-5.65-1.73-.1-1.24,7.13-4.31,17.75-5.65.09-1.69-5.27-3.17-5.07-3.8C56.5,34.62,65.24,33.83,72.8,37Z"
          transform="translate(0 -0.03)"/>
    <path class="cls-2"
          d="M76.19,67.45c.79-.34,1-2.42.29-3.92A6.12,6.12,0,0,0,73,60,3.74,3.74,0,0,1,76,59.68c1.89.57,2.39,2.18,3.29,2,.56-.14.59-.84,1.38-2.42A7.24,7.24,0,0,1,83.22,56a6.75,6.75,0,0,1,3.11,3.69c.47,1.35.43,2.47.91,2.53s.55-.82,1.38-1.56c1.45-1.28,3.8-1.38,4.53-.81-.69.83-1.21.91-1.9,2.42a5.66,5.66,0,0,0-.46,2.59c0,.25.12,1.81.69,2s1-.81,1.27-1.15c1.67-1.9,3.41-2.31,6.45-3.11A26.12,26.12,0,0,1,115.5,64c3.16,1.35,9.49,4.06,12.44,10.86.44,1,2.9,7,.46,13.2-2,5-6.47,8.53-7,8.15-.12-.08,0-.34-.12-.91a2.43,2.43,0,0,0-1.21-1.56,19.54,19.54,0,0,1-6.68,6c-.24,0-.24-.15-1-.91a28.62,28.62,0,0,0-3.22-2.59c-3.39-2.55-6.83-7-7.49-6.57-.34.24.43,1.61,0,1.9-2.59,0-8.41-6.51-10-11.64-1-.1-2,2.16-2.19,2.65a10.54,10.54,0,0,0,0,7.49,18.6,18.6,0,0,0,4.21,5.87c1.38,1.45,1.81,1.58,1.73,2-.45,2.62-22.38,1.3-22.47-.41,0-.34.85-.41,2.19-1.73a10.44,10.44,0,0,0,2.07-3,13.4,13.4,0,0,0,1.2-4.39,14.29,14.29,0,0,0-.29-4.61c-.38-1.67-1.27-4.24-2-4.15-.34,0-.5.71-.63,1.15-.54,1.81-1.67,2.91-3.92,5.19a20.74,20.74,0,0,1-8.07,5,6.85,6.85,0,0,0,2.3-1.52c.58-.62,1.1-1.38,1-1.49s-1.19,1-3.17,2a14.79,14.79,0,0,1-3.3,1.29,34.88,34.88,0,0,0-3.62.75,5.67,5.67,0,0,0-2,.91,3.16,3.16,0,0,0-1.44,2c-.4.14-.91,0-1.9-.91-2.49-2.1-2.93-3.46-3.8-4.21-.59.09-.69.91-.91,2.14-1.4.65-8.64-5.72-8.15-13.49.38-6.54,6.08-10.49,7.24-11.23A23.12,23.12,0,0,1,52,64.1c4.37-1.38,5.9-1.1,11-1.38a22.23,22.23,0,0,1,6.85.41C73.6,64.45,75,68,76.19,67.45Z"
          transform="translate(0 -0.03)"/>
    <path class="cls-1"
          d="M76.5,76.93a6,6,0,0,0,.41-1.73A4.28,4.28,0,0,0,76.5,73a9.49,9.49,0,0,0-1.21-1.44c-.91-1-1-1.1-1.49-1.61-.62-.72-.76-1-1.32-1.73a31.22,31.22,0,0,0-2.07-2.36c-1.87-2-3.25-3.39-5.07-4s-3.29-.28-5.87.34a25.34,25.34,0,0,0-8.76,4.21,22,22,0,0,0-5.29,5.08,14.78,14.78,0,0,0-2.48,4.84,10.78,10.78,0,0,0-.24,5.94,8,8,0,0,0,1.9,3.62,9.28,9.28,0,0,0,4.34,2.31,23,23,0,0,0,5.43,1,22.63,22.63,0,0,0,7.84-.52,20.25,20.25,0,0,0,5.43-2.3,30.32,30.32,0,0,0,4-3.22,20.24,20.24,0,0,0,3.29-3.39A10.94,10.94,0,0,0,76.5,76.93Z"
          transform="translate(0 -0.03)"/>
    <path class="cls-1"
          d="M93.12,67.84A25.23,25.23,0,0,0,92,71.06a11.58,11.58,0,0,0-.63,2.88,9.57,9.57,0,0,0,.34,2.77,10.81,10.81,0,0,0,1.15,3.34,9.4,9.4,0,0,0,1.44,1.81c1.92,2,2.91,2.64,4.72,4.38,1.54,1.48,1.17,1.37,2.53,2.65a28.28,28.28,0,0,0,4.38,3.39c2.09,1.29,3.37,2.07,5.3,2.31a10,10,0,0,0,3.86-.34,11.66,11.66,0,0,0,3.86-1.9,14.48,14.48,0,0,0,3.86-4.15,17.11,17.11,0,0,0,2.31-5.94,13.45,13.45,0,0,0,.24-4.32,12.54,12.54,0,0,0-1.1-3.86,14.2,14.2,0,0,0-2.56-3.63,27.42,27.42,0,0,0-3.51-3.22,33.86,33.86,0,0,0-5.53-3.72,28.42,28.42,0,0,0-10-3,7.44,7.44,0,0,0-5.94,2A13.81,13.81,0,0,0,93.12,67.84Z"
          transform="translate(0 -0.03)"/>
    <path class="cls-3"
          d="M100.74,78.91a1.71,1.71,0,0,0,.42,1,5.14,5.14,0,0,0,1.6,1.47,6,6,0,0,0,2.31,1,5.14,5.14,0,0,0,2.1,0,5,5,0,0,0,2.48-1.48,6.34,6.34,0,0,0,1.22-2,3.54,3.54,0,0,0,.44-2.1,1.21,1.21,0,0,0-.43-.85,1,1,0,0,0-.56-.17,7.39,7.39,0,0,0-1.95.07,33,33,0,0,0-5.43,1.38C101,77.9,100.78,78.5,100.74,78.91Z"
          transform="translate(0 -0.03)"/>
    <path class="cls-3"
          d="M58.1,75.66a2.72,2.72,0,0,0-.78,0,1.12,1.12,0,0,0-.78.26,1,1,0,0,0-.22.65,1.73,1.73,0,0,0,.26,1,3.53,3.53,0,0,0,1.29,1.26,14.87,14.87,0,0,0,6.63,1.62,2.51,2.51,0,0,0,1.71-.54c.07-.06.52-.47.41-.84a.69.69,0,0,0-.39-.39A40.31,40.31,0,0,0,58.1,75.66Z"
          transform="translate(0 -0.03)"/>
    <path class="cls-1"
          d="M52.62,106.06c.17.17.08.54,0,.63-.19.76-1.13.91-1.15,1.38,0,.24.19.4.52.69.58.52,1.07,1.13,1.67,1.61,1,.77.67.69,2.48,2.31,1.13,1,2.24,1.94,3,2.53a29.44,29.44,0,0,0,6.91,4.32,24.26,24.26,0,0,0,6.68,1.81,10.78,10.78,0,0,0,5.43-.29,7.24,7.24,0,0,0,3.46-2.48,7.93,7.93,0,0,0,1.26-3.12,8.64,8.64,0,0,0,.24-3.46,8.34,8.34,0,0,0-1.1-3,9.77,9.77,0,0,0-1.81-2.24,11.61,11.61,0,0,0-3-1.94c-1.3-.66-1.45-.54-3.51-1.49a10.21,10.21,0,0,1-2.53-1.44,4.33,4.33,0,0,1-1.61-2.17,3.46,3.46,0,0,1,0-2.14,4,4,0,0,1,1.61-1.81,6.62,6.62,0,0,1,1.81-.91A33.43,33.43,0,0,1,79,93.45a36.47,36.47,0,0,1,5.43-.24,40.87,40.87,0,0,1,5.59.52,28.65,28.65,0,0,1,4,1,5.9,5.9,0,0,1,3.09,1.72A4.79,4.79,0,0,1,98,98.06a3.31,3.31,0,0,1,.17,1.56,3.17,3.17,0,0,1-.81,1.61,5.51,5.51,0,0,1-2,1.27c-1,.51-1.62.76-2.59,1.21s-1.67.77-2.65,1.27a15.51,15.51,0,0,0-2.28,1.33,7.39,7.39,0,0,0-1.69,1.6,6.85,6.85,0,0,0-1,2,8.9,8.9,0,0,0-.46,3.34,10.52,10.52,0,0,0,.69,3.34,9,9,0,0,0,2.13,3.55,8.56,8.56,0,0,0,3.29,2,12.31,12.31,0,0,0,4,.75c1.52.07,1.6-.14,4.09-.24a19,19,0,0,1,4,.12,14.75,14.75,0,0,1,3.62,1.13c.32.14,2.87,1.32,2.72,2-.05.22-.42.32-.75.41a2.82,2.82,0,0,1-1.49,0c-.79-.23-1-.59-1.44-.46a1,1,0,0,0-.52.46c-.09.14-.79.72-2.19,1.9a16.71,16.71,0,0,1-5.36,2.24A55.66,55.66,0,0,1,91,131.78a52.5,52.5,0,0,1-5.36.69,45,45,0,0,1-9.22-.41,50.17,50.17,0,0,1-6-1.27,36.2,36.2,0,0,1-6.11-2.14,33.24,33.24,0,0,1-4.32-2.42,39.76,39.76,0,0,1-7.43-6.68c-3.39-3.56-3.88-4.79-3.86-5.82,0-.13,0-.83-.24-.91-.52-.18-1.51,2.42-2.36,2.24-.52-.1-.69-1.13-.75-1.38a3.94,3.94,0,0,1,.37-2.53,8.52,8.52,0,0,1,2.86-3.27C49.93,106.85,52.12,105.54,52.62,106.06Z"
          transform="translate(0 -0.03)"/>
    <path class="cls-3" d="M96.18,125.07c1.41-.07,2.32-.09,3.34-.24.29,1-.54,3-1.61,3S96.21,126.14,96.18,125.07Z"
          transform="translate(0 -0.03)"/>
    <path class="cls-3" d="M68.28,123.45a15,15,0,0,0,4,.41c-1,2.39-.37,4.32-1.81,4.32S67.74,124.92,68.28,123.45Z"
          transform="translate(0 -0.03)"/>
    <path class="cls-3"
          d="M76,96.36c.37-1,4.26-1.62,7.43-1.73,4.47-.14,8.5,1.19,8.35,1.67s-2.34,0-8,0C80.5,96.21,76,97,76,96.36Z"
          transform="translate(0 -0.03)"/>
    <path class="cls-3"
          d="M72.78,134.91c.1-.17.38-.21,1-.17a7.62,7.62,0,0,1,2.59.41,30.45,30.45,0,0,0,6.91,1.21,15,15,0,0,0,6.22-.41A16.65,16.65,0,0,1,93,135c.74-.09,2.51-.32,2.77.29.06.14,0,.34-.17.69a4.9,4.9,0,0,1-2.24,1.9,24.44,24.44,0,0,1-8.93,1.81,27.74,27.74,0,0,1-6.8-1.21A8.15,8.15,0,0,1,74,136.71C73.84,136.68,72.5,135.39,72.78,134.91Z"
          transform="translate(0 -0.03)"/>
    <path class="cls-1"
          d="M52.21,113.07c-2.81-.59-5.08-1-6.43-1.21-26.82-3.57-41.45-1.62-43.44-.72-.28.13-.64.57-.81,1.56a8.07,8.07,0,0,0,.91,4.53c12-1.21,41.63-2.48,51.74-2.14C54.13,114.35,53.27,113.64,52.21,113.07Z"
          transform="translate(0 -0.03)"/>
    <path class="cls-1"
          d="M2.25,111.2A4.25,4.25,0,0,1,5.43,113c1.3,1.58,1,4,.81,5.36C6,119.95,5.72,120,5.33,122a23.53,23.53,0,0,0-.41,5,20.93,20.93,0,0,0,.91,6,12.67,12.67,0,0,0,2.4,4.84A7.56,7.56,0,0,0,11,140a6.64,6.64,0,0,0,3.75.52,9.05,9.05,0,0,0,1.81-.58c2.61-1,3.62-1.44,3.62-1.44,2.57-1.15,5.19-2.22,7.72-3.39a117.54,117.54,0,0,1,17-6.52c2.34-.69,4.67-1.16,9.33-2.14,5.26-1.1,8.46-1.58,10.14-.75.14.06.53.28.81.12.62-.38.31-2.62-.81-4.21-.82-1.17-1.88-1.7-3.75-2.65a47.2,47.2,0,0,1-4.28-2.34c-1.44-.91-3-3.37-4.15-3.62C42.73,110.45,9.39,108.34,2.25,111.2Z"
          transform="translate(0 -0.03)"/>
    <path class="cls-4"
          d="M8,112.78c2.85-.62,10-2,45.44,1.11,4.69,5.71,11.35,5,10.6,9.77-19-.09-45,12.41-49.73,13.66a3,3,0,0,1-1.73,0,3.46,3.46,0,0,1-1.73-1.47,17.91,17.91,0,0,1-2.36-4.8,21.53,21.53,0,0,1-.69-7.43A35.65,35.65,0,0,1,8.5,119,9.48,9.48,0,0,0,9,115.67,6.34,6.34,0,0,0,8,112.78Z"
          transform="translate(0 -0.03)"/>
    <path class="cls-4"
          d="M3.68,116.72c-.5.24-.74,1.81.22,2.66a4.84,4.84,0,0,1,2.44.06C6.5,117.27,4.5,116.35,3.68,116.72Z"
          transform="translate(0 -0.03)"/>
    <path class="cls-5"
          d="M8.68,118.56c13.13,1.71,38.07-2.13,46.86-2.62a34.28,34.28,0,0,0,5.33,3.2c-12,0-35.91,5.1-53.06,6.9A37.53,37.53,0,0,1,8.68,118.56Z"
          transform="translate(0 -0.03)"/>
    <path class="cls-6"
          d="M8,112.78c2.85-.62,10-2,45.44,1.11,4.69,5.71,11.35,5,10.6,9.77-19-.09-45,12.41-49.73,13.66a3,3,0,0,1-1.73,0,3.46,3.46,0,0,1-1.73-1.47,17.91,17.91,0,0,1-2.36-4.8,21.53,21.53,0,0,1-.69-7.43A35.65,35.65,0,0,1,8.5,119,9.48,9.48,0,0,0,9,115.67,6.34,6.34,0,0,0,8,112.78Z"
          transform="translate(0 -0.03)"/>
    <path class="cls-1"
          d="M9.69,138.71c.14-.25,1.09.49,2.42.29,2-.32,3.21-2.57,3.39-2.94a7.24,7.24,0,0,0,.58-3.92,10.41,10.41,0,0,0-.91-3.39,13.28,13.28,0,0,0-1.52-2.65c-1.1-1.52-1.67-1.66-1.73-2,3.62-2,21.88-3.46,47.26-5.73,3.17,1.81,7.08,2,5.92,7.51-13.76-2.42-42.4,12.44-50,14.6a4.06,4.06,0,0,1-2.72,0C10.73,140,9.5,139,9.69,138.71Z"
          transform="translate(0 -0.03)"/>
    <path class="cls-4"
          d="M17,125.45c13.77-2.48,27.54-2.77,44.42-5.19a3.62,3.62,0,0,1,2.42,3.89c-8.82-.24-28.24,3.75-45.46,12.27C19.14,133.45,20.06,130.58,17,125.45Z"
          transform="translate(0 -0.03)"/>
    <path class="cls-1"
          d="M27.77,121.76c.16-.57-.11-.91-.17-1.67A5.29,5.29,0,0,1,28,118c.69-1.81,2.77-2.81,3.51-3.17,4.66-2.22,9.54-.34,10.14-.12A12.94,12.94,0,0,1,46,117.55c1.33,1.22,1.64,2,1.49,2.53a1.23,1.23,0,0,1-.41.63,1.69,1.69,0,0,1-1.9,0c-.59-.4-.44-.91-1-1.67a4.58,4.58,0,0,0-1.57-1.15,13.19,13.19,0,0,0-4.15-1.32,13.85,13.85,0,0,0-4.43.12,5,5,0,0,0-2.31.75A4.1,4.1,0,0,0,30.4,119a3.62,3.62,0,0,0-.24,2.65c.16.45.34.52.29.75-.19,1-3.62,1.18-3.75.69C26.61,122.83,27.5,122.64,27.77,121.76Z"
          transform="translate(0 -0.03)"/>
    <path class="cls-5"
          d="M18.82,129.59c19.31-4.72,19.1-4.93,44.68-7.52a3.19,3.19,0,0,1,.34,2c-12.34-.62-29.26,4.86-45.45,12.29C19.08,133.32,19.5,131.22,18.82,129.59Z"
          transform="translate(0 -0.03)"/>
    <path class="cls-7" d="M63.89,124.16c-12.39.4-29.27,4.84-45.47,12.29.66-3.08,1.1-5.19.43-6.77"
          transform="translate(0 -0.03)"/>
    <path class="cls-6"
          d="M17,125.45c13.77-2.48,27.54-2.77,44.42-5.19a3.62,3.62,0,0,1,2.42,3.89c-8.82-.24-28.24,3.75-45.46,12.27C19.14,133.45,20.06,130.58,17,125.45Z"
          transform="translate(0 -0.03)"/>
    <path id="DiaVita_Club_копия" data-name="DiaVita Club копия" class="cls-5"
          d="M181.19,104.94a2.81,2.81,0,0,0,2,.79h16.72q13,0,18.87-5.17t5.91-16.22q0-11.07-5.91-16.29t-18.87-5.2H183.19a2.72,2.72,0,0,0-2,.83,2.84,2.84,0,0,0-.83,2.07V103A2.6,2.6,0,0,0,181.19,104.94Zm10.43-33.62h8q8,0,10.93,2.94t2.9,10q0,7.1-2.9,10t-10.93,2.93h-8Zm39.52-2.1a3.35,3.35,0,0,0,2.51.91h3.71a3.39,3.39,0,0,0,2.53-.91,3.43,3.43,0,0,0,.91-2.51v-1a3.18,3.18,0,0,0-3.44-3.44h-3.71a3.38,3.38,0,0,0-2.52.91,3.44,3.44,0,0,0-.91,2.52v1a3.35,3.35,0,0,0,.91,2.51Zm-.26,35.94a1.75,1.75,0,0,0,1.3.51h6.7a1.76,1.76,0,0,0,1.29-.51,1.74,1.74,0,0,0,.53-1.3V75.54a1.81,1.81,0,0,0-1.7-1.81h-6.82a1.81,1.81,0,0,0-1.81,1.7v28.46a1.81,1.81,0,0,0,.52,1.3Zm29.53,1.12a18.19,18.19,0,0,0,10.86-3.36v.91a1.81,1.81,0,0,0,.51,1.29,1.74,1.74,0,0,0,1.32.52h5.75a1.74,1.74,0,0,0,1.81-1.66V85.45c0-4.45-1.44-7.72-4.31-9.86s-6.67-3.18-11.42-3.18q-16.29,0-16.29,8.58a1.81,1.81,0,0,0,1.81,1.81H255A4.53,4.53,0,0,0,258.6,81c1-1.21,2.72-1.81,5.13-1.81s4.15.46,5.13,1.38,1.46,2.54,1.46,4.87H260.5a17.82,17.82,0,0,0-10.21,2.72,8.76,8.76,0,0,0-4,7.71,8.91,8.91,0,0,0,4,7.78,17.42,17.42,0,0,0,10.12,2.72Zm.8-14.15h9.13v4.66a16.36,16.36,0,0,1-8.88,2.72,5.43,5.43,0,0,1-3.56-1,3.44,3.44,0,0,1,0-5.28,5,5,0,0,1,3.3-1Zm35.07,10.49a4.53,4.53,0,0,0,4.27,3h4.3a4.53,4.53,0,0,0,4.27-3l17.2-37.3a2.21,2.21,0,0,0,.15-.8,1.9,1.9,0,0,0-.56-1,2,2,0,0,0-1.59-.65h-6.55c-1.56,0-2.72,1-3.56,2.85L302.63,91.45,291.06,65.67c-.82-1.89-2-2.85-3.56-2.85H281a2,2,0,0,0-1.57.65,1.86,1.86,0,0,0-.55,1.07,1.67,1.67,0,0,0,.19.8Zm35.44-33.49a3.35,3.35,0,0,0,2.51.91h3.71a3.39,3.39,0,0,0,2.53-.91,3.43,3.43,0,0,0,.91-2.51v-1a3.18,3.18,0,0,0-3.44-3.44h-3.71a3.38,3.38,0,0,0-2.52.91,3.44,3.44,0,0,0-.91,2.52v1a3.35,3.35,0,0,0,.91,2.51Zm-.38,36a1.81,1.81,0,0,0,1.32.54h6.7a1.76,1.76,0,0,0,1.29-.51,1.74,1.74,0,0,0,.53-1.3V75.54a1.81,1.81,0,0,0-.51-1.29,1.75,1.75,0,0,0-1.32-.53h-6.7a1.81,1.81,0,0,0-1.81,1.7V103.9a1.81,1.81,0,0,0,.51,1.3Zm29.11-7.6A7,7,0,0,1,359,92.82V81.91h8.34a1.81,1.81,0,0,0,1.29-.51,1.74,1.74,0,0,0,.52-1.32V76.52a1.74,1.74,0,0,0-.52-1.32,1.81,1.81,0,0,0-1.29-.51H359v-10a1.81,1.81,0,0,0-1.76-1.86H350.5a1.81,1.81,0,0,0-1.81,1.81V92.89q0,13.44,12.84,13.44a42.68,42.68,0,0,0,8-.6,2.32,2.32,0,0,0,1.33-.63,1.66,1.66,0,0,0,.52-1.18v-3.2a1.76,1.76,0,0,0-1.7-1.81h-1.19l-4.1.35a4.83,4.83,0,0,1-3.86-1.75Zm27.72,8.74A18.16,18.16,0,0,0,399,102.91v.91a1.81,1.81,0,0,0,.52,1.29,1.71,1.71,0,0,0,1.3.52h5.77a1.74,1.74,0,0,0,1.81-1.64q0-.08,0-.17V85.45c0-4.45-1.44-7.72-4.3-9.86s-6.67-3.18-11.42-3.18q-16.29,0-16.29,8.58a1.81,1.81,0,0,0,1.73,1.81h4.58A4.53,4.53,0,0,0,386.35,81c1-1.21,2.72-1.81,5.14-1.81s4.15.46,5.12,1.38,1.48,2.54,1.48,4.87h-9.8a17.85,17.85,0,0,0-10.21,2.72,8.78,8.78,0,0,0-4,7.71,8.92,8.92,0,0,0,4,7.78,17.43,17.43,0,0,0,10.14,2.72ZM389,92.12h9.19v4.66a16.39,16.39,0,0,1-8.88,2.72,5.43,5.43,0,0,1-3.57-1,3.31,3.31,0,0,1-1.25-2.66,3.25,3.25,0,0,1,1.21-2.62,4.93,4.93,0,0,1,3.33-1Zm68.61,13.81h7.24a20.93,20.93,0,0,0,12.07-3.48,11,11,0,0,0,5.2-9.63,3.62,3.62,0,0,0-.81-2.27,2.72,2.72,0,0,0-2.24-1H475.5q-2.77,0-4.3,3.32a7.52,7.52,0,0,1-7.32,4.72h-6c-4.35,0-7.32-.91-8.88-2.82s-2.27-5.35-2.27-10.37.78-8.53,2.34-10.41,4.53-2.81,8.88-2.81h5.32a7.56,7.56,0,0,1,7.36,4.72q1.52,3.29,4.27,3.29h3.51a3.41,3.41,0,0,0,2-.77,2.91,2.91,0,0,0,1-2.52,11.07,11.07,0,0,0-5.21-9.66,20.94,20.94,0,0,0-12-3.58h-6.6Q446.51,62.66,441,68t-5.54,16.41q0,11.07,5.55,16.36T457.61,106Zm30.21-.77a1.72,1.72,0,0,0,1.29.52h6.7a1.72,1.72,0,0,0,1.29-.52,1.75,1.75,0,0,0,.53-1.29V64.72a1.81,1.81,0,0,0-.53-1.33,1.73,1.73,0,0,0-1.29-.53h-6.7a1.73,1.73,0,0,0-1.29.53,1.81,1.81,0,0,0-.53,1.33V103.9a1.75,1.75,0,0,0,.52,1.29Zm20.82-2.43a13,13,0,0,0,9.47,3.55,16.74,16.74,0,0,0,11-4.33v1.9a1.75,1.75,0,0,0,.53,1.29,1.72,1.72,0,0,0,1.28.52h6.62a1.81,1.81,0,0,0,1.81-1.72V74.83A1.81,1.81,0,0,0,537.5,73h-6.63a1.72,1.72,0,0,0-1.29.52,1.81,1.81,0,0,0-.53,1.33v20q-4.29,4.29-8,4.3-5.67,0-5.67-7.17V74.83a1.81,1.81,0,0,0-.53-1.33,1.72,1.72,0,0,0-1.29-.52h-6.7a1.72,1.72,0,0,0-1.36.47,1.81,1.81,0,0,0-.53,1.33V91.95q0,7.29,3.62,10.86Zm36.88.2a24.36,24.36,0,0,0,7,2.38,44,44,0,0,0,9,1q19,0,19-16.94,0-8.26-4.34-12.67T564.5,72.32a29.27,29.27,0,0,0-8.64,1.52V64.73a1.81,1.81,0,0,0-1.76-1.86h-6.75a1.73,1.73,0,0,0-1.29.53,1.81,1.81,0,0,0-.53,1.33V103Zm16.83-23.38c2.72,0,4.66.78,5.82,2.32s1.72,4,1.72,7.47-.59,5.9-1.76,7.44-3.07,2.3-5.72,2.3a25.89,25.89,0,0,1-6.54-.68V80.81a22.55,22.55,0,0,1,6.49-1.2h0Z"
          transform="translate(0 -0.03)"/>
</svg>