<svg xmlns="http://www.w3.org/2000/svg" xmlns:xlink="http://www.w3.org/1999/xlink" viewBox="0 0 737.99 332.76"><defs><style>.cls-1{fill:#eb7e7e;}.cls-2{fill:#b3d887;}.cls-3{fill:#6dc0ec;}.cls-4{fill:#fedb77;}.cls-5{fill:#eaad5c;}.cls-6{fill:#40d3b7;}.cls-7{fill:url(#linear-gradient);}.cls-8{fill:#9a8479;}.cls-9{fill:#da251d;}.cls-10{fill:#ff0;}.cls-11{fill:url(#linear-gradient-2);}.cls-12{fill:#ce2b37;}.cls-13{fill:#009246;}.cls-14{fill:#fff;}.cls-15{fill:url(#linear-gradient-3);}.cls-16{fill:#ed1c24;}.cls-17{fill:#241d4f;}.cls-18{fill:url(#linear-gradient-4);}.cls-19{fill:#00966e;}.cls-20{fill:#d62612;}</style><linearGradient id="linear-gradient" x1="-276.98" y1="367.67" x2="-211.63" y2="334.99" gradientTransform="translate(962.26 -65.96) rotate(17.48)" gradientUnits="userSpaceOnUse"><stop offset="0" stop-color="#6d6e70"/><stop offset="0.03" stop-color="#757678" stop-opacity="0.94"/><stop offset="0.23" stop-color="#a2a2a4" stop-opacity="0.6"/><stop offset="0.43" stop-color="#c4c5c6" stop-opacity="0.34"/><stop offset="0.63" stop-color="#ddddde" stop-opacity="0.15"/><stop offset="0.82" stop-color="#ececed" stop-opacity="0.04"/><stop offset="1" stop-color="#f1f1f2" stop-opacity="0"/></linearGradient><linearGradient id="linear-gradient-2" x1="-494.96" y1="371.29" x2="-429.61" y2="338.62" xlink:href="#linear-gradient"/><linearGradient id="linear-gradient-3" x1="-300.32" y1="363.48" x2="-234.97" y2="330.81" xlink:href="#linear-gradient"/><linearGradient id="linear-gradient-4" x1="-466.4" y1="365.45" x2="-401.05" y2="332.77" xlink:href="#linear-gradient"/></defs><title>map</title><g id="Layer_2" data-name="Layer 2"><g id="Layer_1-2" data-name="Layer 1"><path class="cls-1" d="M288.73,70.25c1.88,0,1.18-1.86,3.81-1.38,3.51.89,5.54,2.9,10.43,2.77,3.22-1.65-4.55-3.06-1.89-4.13,1.42.35,2.4,1,3.79,1.36.75-2.38-1.06-2.91-1.9-4.13,7.84-.3,5.27-7.23,3.84-11a28.07,28.07,0,0,1,8.51-.68c-.24-3-5.1-2.73-7.57-4.15,3,.34,2.12-2.1,5.66-1.38.68-2.09-1.63-2-.94-4.13,3.4.38,2.34-2.44,5.71-2.06,2.38-.57,8.17,1.35,7.6-1.37.87-2.51-4.12-.7-4.75-2.08-2.24-.2-1.79-2.38-4.75-2.06-4.11-.41-8.53,2.48-10.45,1.39.58-3.48,8.37-1.76,9.48-4.83-2-2-6.14-2.41-11.42-2.07-3.06-.79-6.84-1.82-8.53,0-.79-1-3-1-4.73-1.39-3.82,1.83-13.15-.33-17.06,1.39-4.4.07-9.66-.55-11.44,1.39-.08,1.5,2.6,4.46.93,4.8-6.85-.78-10.72.48-17-.68-9.52,1-14,5.48-23.76,6.21-.9,2.49,4.26.55,3.77,2.77-2.74,1.66-7.83,1.62-10.4,3.44-2.35-.89-5.42-.75-6.67,2.06,3-.6,2.94,1.08,4.74,1.36,0-1.82,4.76-1.82,4.76,0,2.31-.4,6.46-3.06,6.64.71-4.06.27-9.76-.67-12.35.69.87,2.58,4.47,3.17,7.62,4.11,2.93.5,1.79-1.89,4.74-1.37a18.66,18.66,0,0,0,11.4,2.07c-.77,3.06.65,4.58,1.91,6.19-.32,1.61-1.51,2.6-1,4.82,3.79,1.35,4.39-3.17,6.66-.67.52,2.46-2.87,2.09-5.71,2.05.8,3.09,7.22,2.13,8.53,4.83-2.16,1.19-4.78,2-6.65,3.45,2.67.9-3,1.42-1.88,3.44,6.77,3.33,1.52,11.2,6.62,15.85h6.67c2.76.08,1.66,2.93,4.73,2.74,1-1.38,1.64-2.94,3.83-3.46-1.15-5.19,4.73-5.26,3.81-10.32,2.43-.05,1.33-2.68,3.77-2.75,3.62,1.4,3.62-1.63,7.62,0a37.41,37.41,0,0,1,4.76-2.73c4.59-.83,6.61-3.48,11.37-4.14.39-2.48,8.39-3.08,5.7-5.52C295.37,73.21,291.38,70.45,288.73,70.25Zm9.51-2.74c-2.54-1.23,0-4.55,2.84-4.12C300.6,65.08,298.54,65.67,298.24,67.51Zm6.64-33.07c-.07,2-2.14,2.56-3.79,3.44-2.91-1.34-7.2-1.64-12.36-1.38C291.94,33.67,300.84,34.87,304.87,34.44Z"/><path class="cls-1" d="M171,44.79V48.9c2.89-.48,3.44.71,5.66.7.44-3.14,6.17-6.07,9.52-4.8,1.44,2.88-4.92.09-4.73,2.05,2.86,1-3.29,1.24-2.86,2.75,2.47-.42,3.38.28,2.86,2.05-2.24,0-2.81-1.19-5.72-.66.14,2-3.19,1.34-1.89,4.13,5.67-.53,9.76-1,12.34,2-7.54,1.18-12.41-2.72-17.1-1.37-.76,3.32,5.75,1.35,5.72,4.15,7.16-.74,16.78,3.05,19-2.08,2.48.21,4.07-.26,3.8-2.07.71-1.87-4.43.51-3.8-1.37h6.67c0-3.67,5.79-3.16,4.75-7.57,4.91-.11,5.38-3.44,11.44-2.77,1.16-1.65,3-2.78,6.6-2.75,1.22-1.71-2.11-3.34,0-3.44,4-1.32,9.81.69,11.4-3.44,0-1.13-2.65-.37-2.82-1.37-15.56,1.53-36.76-2-53.23,2.75-1.27,4.16,4.09,3.46,4.74,6.21-6.17.35-4.3-5.16-11.37-4.15-.31.95-1.4,1.32-1,2.78-1.53,0-3.3-.11-2.86,1.37C167.28,44.23,170.59,43.45,171,44.79Zm19.94,12.37c.49.36-.7.91-1,.7C189.45,57.51,190.63,57,190.91,57.16Z"/><path class="cls-2" d="M404.59,43.39c.5-1.93,5-1,3.82-4.12-8.68-1-17-1.23-24.71-1.39a3.22,3.22,0,0,0,.93,2.78C390.64,42,395.57,44.22,404.59,43.39Z"/><path class="cls-2" d="M367.59,46.85c-.12,1.7-1.78,2.13,0,3.44,3.9-.15,4-3.05,8.52-2.77-.23,3.07-4.65,3.06-4.72,6.21A9.16,9.16,0,0,0,378,55.11c-.46,2.15,2,2.2,4.73,2a51.7,51.7,0,0,1,2.85-7.56c2.51,1.83,4,4.49,10.46,3.45.84-5.25-5-5.57-7.6-8.25-.29,1.61-2.55-.81-3.85-.72-2.31.12-3.9-.35-4.67-1.36,2.21-1.83-.81-4-4.79-3.45-2.79,1.11,1.51,3.57-1,4.12-2-3.26-11.09-6.49-11.42,0C363.26,45.39,366.89,45,367.59,46.85Z"/><path class="cls-3" d="M463.48,42c-.09-4.35-8.83-2.87-8.52.69C458.2,44.86,460,41.76,463.48,42Z"/><path class="cls-3" d="M516.73,46.15c7.46-.92,15.3,2.4,17.06-2.08-2.23-2.66-10.92-3.78-16.11-2C515.54,42.11,517.22,44.93,516.73,46.15Z"/><path class="cls-3" d="M459.75,71.64c-1.39-3.17-5.85-4-4.79-9,6.71-.42,9.21-3.88,14.23-5.52,6,.45,9-1.23,9.56-4.8H474c-.23.54,0,1.37-1,1.37-7.12.57-12.43,2.48-18,4.14.47,3.54-4.59,3.12-3.81,6.88-1.17,1.47-3.54,2-3.77,4.13A77.78,77.78,0,0,0,456.83,73C457.25,72.15,458.09,71.6,459.75,71.64Z"/><path class="cls-3" d="M618.32,59.25c2.28-1.11,3.41-3,5.73-4.14-3.61-.34-4.38-3.17-7.63-2.75-.41,0-.88,1.62-1.89,1.37h-5.67C607.59,58.75,615.63,57,618.32,59.25Z"/><path class="cls-2" d="M315.32,90.22c.11-1.75,3.55-1.08,4.76-2.05,1-3.49-2.16-4-1.89-6.88-4.12.91-5.59-.44-9.5.67-2.58-.42-2.38-2.88-5.71-2.73,1.17,3.33-3.77,2.3-3.77,4.8,2.66.58,2.46-1,4.71-.68-.49,1.67-3.65,1.48-2.82,4.12,4.76-.9,3.72,2.38,6.67,2.75C308.54,88.81,314.35,89.52,315.32,90.22Z"/><path class="cls-1" d="M185.18,90.22c-3.76-.73-1.29-1.74-3.77-3.45-2.88.5-2.81-1.18-5.72-.67-1.34,1.32-.49,4.2-4.73,3.47.06,2.4,3.11,2.75,6.62,2.72C177.28,86.91,184.07,94.56,185.18,90.22Z"/><path class="cls-2" d="M352.42,115c-1.32-.72-2.93-1.15-3.85-2.07,1.19-4.08-6.3-4.73-2.83-8.27-1.28-.7-2.88-1.13-3.83-2.08,1.38-.58,3-1,2.87-2.75-3.48-.21-5.3.78-7.57,1.37.7,3.76-1.5,5.36-1,9a20.7,20.7,0,0,0,4.72,1.38c.4,2.44-3.19,3.79-4.72,2.74-.74,3.1.66,4.61,1.9,6.22-1.67.63-5.09,0-4.78,2.07a98.55,98.55,0,0,1,15.21-.7C349.35,119,348.83,117,352.42,115Z"/><path class="cls-2" d="M326.7,117.79c2.19-.74,5.77-.46,7.62-1.39-1-2.88-.22-3,0-6.2h-4.73c-.06,3.08-2.16.87-3.8,2.07C325.91,114.26,325.27,116.77,326.7,117.79Z"/><path class="cls-3" d="M652.49,137.76c1.83.09.68,2.27,2.87,2.06,2.1-1.69,1.78-5.13,5.69-5.5-5-.52-8.09-2.4-13.28-2.76.69,3.27-1.07,4.73-1,7.59C649.41,141,649.17,137.37,652.49,137.76Z"/><path class="cls-3" d="M630.68,159.12c-.17,2.43,2.24,3,3.8,4.11.66-2.49,3-3.81,5.71-4.82a5.83,5.83,0,0,1,2.82.71c3-2.65,9.3-2.91,12.35-5.52-.16-4.91-2.1-8.6-1.88-13.78h-3.84c1.17,3.23-.49,4.8,1,8.26a1.11,1.11,0,0,0-1,1.41,28.29,28.29,0,0,0-8.54,4.11c-3.34,1.27-9.38.53-9.49,4.14-.43,1.9,5.17-.53,4.77,1.38Z"/><path class="cls-3" d="M398.92,153.6c.28,1.93,3.15.56,5.68,2.08.69-2.58-1.45-3.05-4.72-2.77C400,153.48,399.49,153.56,398.92,153.6Z"/><path class="cls-3" d="M610.7,177a6.21,6.21,0,0,1,2.85,4.13c4-.16,3.63-3.37,3.84-6.19C615,173.43,611.72,175.45,610.7,177Z"/><path class="cls-1" d="M171,175v2.74h3.8C174.65,176,173.4,175,171,175Z"/><path class="cls-1" d="M181.42,178.37a3.51,3.51,0,0,0-1-3.41h-2.86C177.23,177.31,177.88,178.89,181.42,178.37Z"/><path class="cls-1" d="M182.34,177.71v3.45c2,.27,2.54-.47,3.8-.71C186,178.71,184.78,177.78,182.34,177.71Z"/><path class="cls-1" d="M180.45,188.73c3.41-.4,4.6.79,6.69,1.38.07-2,3.93-1.26,6.6-1.38-1.36-4.56-6.6-3.94-12.33-4.13.7-1.88-1.94-1.39-1.94-2.75-2.06-.78-5.22-.82-5.67-2.75H159.59c-.42,1.31-2.07,1.73-1.93,3.45,3.87.27,3.85-2.27,8.56-1.38,4,.56,4.44,3.68,8.55,4.13,2.26.43,6.88-.87,7.57.69C178.87,186,180,187,180.45,188.73Z"/><path class="cls-1" d="M189.94,181.16c-.3-.95-2.37-.58-3.79-.71C184.14,183,191,183.56,189.94,181.16Z"/><path class="cls-3" d="M614.53,188.73a17.08,17.08,0,0,0,5.7,4.13c1.19-2.14,4.42-2.75,3.82-6.2C621.46,184.16,614.39,185.3,614.53,188.73Z"/><path class="cls-3" d="M591.7,190.8c2.68-.4,2.68-2.69,3.82-4.14a7,7,0,0,0-3.82-.68C589.95,188.66,590.47,186.54,591.7,190.8Z"/><path class="cls-1" d="M170,187.33v2.78c3.2-.74,3.27.22,6.64-.69C177.28,186.66,173,187.45,170,187.33Z"/><path class="cls-1" d="M195.63,190.11c3.43.17,6.59.15,5.72-2.78h-5.72Z"/><path class="cls-4" d="M295.37,190.11c0,1.35-2.58.87-1.87,2.75h3.77C297.56,191.28,297,190.26,295.37,190.11Z"/><path class="cls-3" d="M622.14,201.13c2,1.48,2.68-.35,5.67,0-.3,1.61-2,3,1,3.43,1.34-2,4-3.07,8.53-2.75.89-3.17-3-2.85-4.74-4.13.24-2.26-1.12-3.33-3.79-3.45-1.33.89-.94,3-1,4.82C624.64,197.88,623.71,199.47,622.14,201.13Z"/><path class="cls-3" d="M528.08,203.19c1.36,4.08-3.61,4.92,0,6.88,3,.34,2.53-1.85,4.77-2.06C532.06,205.83,530.08,204.49,528.08,203.19Z"/><path class="cls-3" d="M590.78,221.8c.93,2.77,5.06,3.2,4.75,6.88,6.16-1,5.22,3.09,11.38,2.06-.27-1.58,2.73-.76,2.87-2.06-.73-.16-1.88,0-1.89-.71,3.12-.95,1.55-5.25,4.77-6.17-2.19-2.24.79-4.58-1-6.22,1.66-.61,3.27-1.26,2.84-3.42-2.29-1.32-4.15-3-8.55-2.78C605.09,216.57,592.47,215.19,590.78,221.8Z"/><path class="cls-3" d="M572.71,217c-1.43-1.6-4.43-2.71-3.76-4.79-2.6.48-1.93-1.39-3.81-1.39.12,3-2.33-.08-4.77.68,0,8,13.35,6.41,11.43,15.84,4.68.38,6,4.91,10.4,3.44,2.18-2.63-2-5.64-1.84-8.93C577.46,220.38,574,218.42,572.71,217Z"/><path class="cls-3" d="M626,222.47c-.2-3.06-6-2.09-7.64-4.13-4.87,2.84-8.25,10.5-.93,13.07-.21-2,.22-3.5,1.89-4.13,2.09,1.33,2.22,3.51,5.7,2.09-.49-2.88-3.67-3.81-3.79-6.9A4.58,4.58,0,0,0,626,222.47Z"/><path class="cls-5" d="M646.8,219.71c-3.09-1.4-10.67-1.13-10.42,2.09C639.63,223.27,646.57,222.58,646.8,219.71Z"/><path class="cls-5" d="M657.28,222.47h-6.64c-.85,1-1.42,2.19-3.83,2.07-2.94.52-1.77-1.92-4.7-1.39.28,1.81-3.74.56-2.86,2.74.12,1.56,2.36-.86,4.69,0,4.24,2.48,9.79,4,13.34,6.9v4.14c5.08-2.23,6.6,1.41,10.45,2.06,3.34-.1,2.29-3.4,6.64-2.76,2.23.94,4.75,5.24,8.54,2.76a3.81,3.81,0,0,1-2.85-4.11c-2.48-1.66-6-2.55-7.58-4.84V228C665.15,227.78,663.16,223.73,657.28,222.47Z"/><path class="cls-3" d="M606.91,238.32c.53-2.44-3.31-1.7-2.83-4.14-7.74.15-13.26-1.43-19-2.76-.83,1.23-2.66,1.77-1.87,4.14C592.26,235.63,596.57,239.18,606.91,238.32Z"/><path class="cls-5" d="M677.18,265.18c.39-3.25-1.66-4.74-.94-8.28-1.86-.46-2.16-2.07-3.77-2.74-.34-5.28-6.8-6.1-5.71-12.4-1.77.15-2.08-.77-3.79-.69-2.45,2.83,1,10-2.88,11.71-3.73.9-1.92-2.27-5.7-1.39-.15-1.93-4.48-.84-3.77-3.43-.49-2.18,4.68-.26,3.77-2.73-3.3-2.68-13-.7-18-2.08-1.65.42,0,3.26-1.91,3.43a46.77,46.77,0,0,0-9.5,2.09c-1.19,2.08-.33,5.73-3.79,6.2-2.26-1.63-4.69.1-7.64,0-1.85.47.23,3.84-1.87,4.11-2-.38-1.85-2.07-3.79-.68-2.37,1.72-1.25,6-4.75,6.88-2.13,1-6.35.45-7.62,2.06,1,3.07,3.33,6.88,1,10.33,1.85.49,2.5,1.85,2.85,3.44.52,3.14-1.69,4.29-1,7.58,2.84-.18,3,1.55,5.74,1.39,4-1.26,6.29-3.69,13.31-2.77,3.35-3.07,10-3.75,18-3.44a13,13,0,0,1,5.66,6.2c3.72-1.29,2.56,1.59,6.66,0,0,1.81.34,3.91-1,4.82,6.08,2.56,9.67,2.71,19,2.77,2.39-1.24,4.16-3,7.6-3.49-.47-3.52,4.53-3.09,3.76-6.86,3.32-.16,2.48-3.28,5.72-3.44-1.09-2.44,1.63-3.91,1.89-6.2.52-4.2-1.84-8.51-2.84-12.39C679.58,264.26,678,267.2,677.18,265.18Z"/><path class="cls-4" d="M455.91,243.14a17.41,17.41,0,0,0-3.81,6.89c-4.12.69-6.21,2.78-8.52,4.82-.76,2.38,1.38,2.66.94,4.81-.86,1.44-1.51,3.05-2.88,4.14,2.07,3.11-.65,5.86,2.88,8.27,3.08.13,4-1.22,7.58-.7,2.06-3.08,1.27-4.45,3.81-7.57v-3.45c.23-.77,1-1.07,1.89-1.39-1.73-3,1.75-5.87,1.95-11C456.18,248,459.83,242.84,455.91,243.14Z"/><path class="cls-5" d="M729.45,290c.18-2,.13-3.77-2.84-3.44V292c-.76,2-4.52,1.8-3.81,4.85,6.38-.68,2.17,2.05,1.89,4.12,6-.21,6.22-4.7,8.57-7.58,1.42-1,4-1.24,4.72-2.78C735.7,288.52,734,290.23,729.45,290Z"/><path class="cls-5" d="M719,298.24c-.81,1.45-2.85,2-2.81,4.12a7.13,7.13,0,0,0-3.83.69c-1.6,1.38-2.21,3.46-4.73,4.12-3.92,1.08-5.07,4.12-6.68,6.9,3.11-1.11,5.16-.34,8.55,0,.9-1.64,3.83-1.82,2.86-4.83h3.83c.26-3.92,7.46-2.82,7.56-6.88C723.4,300.08,720.93,299.4,719,298.24Z"/><path class="cls-5" d="M654.4,300.29c-1.06,1.06,3.17,4.16,3.83,6.22,4.62-.33,7.59-1.83,6.65-6.22C660.73,300.84,656.08,299.44,654.4,300.29Z"/><path class="cls-6" d="M224.13,321.64h3.81C228.59,318.93,224,319.4,224.13,321.64Z"/><path class="cls-4" d="M460.64,199.06c-4.06-.41-3.84,2.25-7.56,2.07h-8.57c-.46-4.72-5.19-6.35-8.58-9,.84-4.53-5.64-3.71-3.79-9-1.61-1.57-4.57-2.19-5.69-4.12.84-1.94-1.07-4.93-.22-5.43-.24-.49-.53-1-.86-1.62-.27.17-.66.28-.8.18-.34-.25.11-.58.51-.7-1.72-3-4.16-6.86-5.1-8.33l-.2,0c-6.91-1.83-15.52-2.48-24.7-2.73-2.74.52-2.27,3.4-4.73,4.15-4.37-3.28-13-3.46-17.06-6.9.73-2.39-1.09-2.92-1.91-4.14,2.21-.19,2.17-1.84.92-2.75A43.9,43.9,0,0,0,358,152.91c-7.7-.33-14.38.1-18.06,2.77-.81-1.45-2.74-2.12-5.67-2.08-.79,2.43-4.2,2.92-6.63,4.14-2.58,3.23-1.61,7.45-3.78,10.32-1.42,1.82-6.52,3.68-8.58,5.52-.15,4-2.34,6.57-4.76,9v17.9c3.28,2.68,6.15,5.67,7.63,9.63,4.37,1.88,7.31,4.82,13.28,5.51a67,67,0,0,1,13.3-.68c2-1.12,1.83-3.71,5.74-3.45,1.69.11.54,2.33,1.92,2.75,4.37-.44,6,1.11,9.46,1.38,1.62-.6,2.42-1.92,5.7-1.38,1,5.32-2,7.76-1.92,12.42,2.71,3.53,7.34,6.2,5.71,11,2.51,2.31,2.68,6.31,3.8,9.64-2.35,3.13-1.81,8.3-3.8,11.7A21.62,21.62,0,0,1,380,270v6.2c4.21,3.58,4.1,10.29,8.52,13.78,9.13-.48,13.71-4.26,21.85-5.51,1.44-3.79,4.33-6.49,8.52-8.27-.48-2.67,1.71-3.37.93-6.2,1.71-.63,2.44-1.92,5.72-1.39.1-7.94,4-13.14,11.42-15.83a45.23,45.23,0,0,0,0-19.27,30.1,30.1,0,0,0,4.7-9c2.27-1.12,4.19-2.47,6.67-3.45,4.52-4.75,8.62-9.83,13.32-14.44C462.34,204.06,463.6,200.55,460.64,199.06Z"/><path class="cls-3" d="M724.7,83.35c-2.53-.84-6.22-4.53-8.53-1.39a3.64,3.64,0,0,0-.94-3.44c-5.18-1.35-7.92-4.41-16.16-3.45-1.1-1.28-3.67-1.47-4.75-2.76-6.22.6-7.54-2.36-14.27-1.39-1.31,2,2.62,3.53,0,4.15-2.75-.3-2.25-3-4.73-3.44-2.79,2.13-7.92.2-13.38,1.38-3.39-1.61-3.14-6-10.37-4.82-1.38.15-.32,2.05-1.93,2.05-4-1.25-7.82-2.6-11.38-4.1a2.62,2.62,0,0,1-1.89,1.36c1.19-2.71-2.27-2.05-4.77-2.05,2.34-1.64-1-1.56-1.86-2.77-4.58,1.21-4.25-.4-8.56-.68-.33.92-2.41.57-3.8.68-1,1.29,2.83,2.31,0,2.77-8.17-.94-18.53,1.22-25.69,0-2.39-.44-3.31-2.55-5.66-2.07-4.4.73-7.33-.72-10.48-1.38-1.11-.27-2.61.16-3.76,0-2.38-.33-4.19-2.19-9.49-1.41.36-1.77,2.8-2.07,2.83-4.11-1.34-2-4.39-2.78-5.69-4.84-2.87.93-7.27.73-11.41.71-2.37-.58-2-3.12-5.7-2.76-2.23.69-3,2.37-2.85,4.82-4.71-1.11-3,2.41-6.65,2.07-1.82-.28-.76-2.68-3.8-2.07-2.46,1.89-5.9,3.09-11.37,2.74C516,58,515.16,59.5,512,59.25c-1.34.87-.44,3.36-2.9,3.43-2,.43-6.57-1.12-5.63,1.38,0,2.53,5.52,1,4.72,4.15-3.5-.74-4.43-3.22-9.52-2.75,0,1.8.53,4-1.9,4.12-1.1-.82-1.1-2.46-.95-4.12-3.7-.61-1.53,3-5.68,2.05-1.49-1.23-1.3-3.68-5.7-2.77-2.68,2.9-6.31,5.09-9.53,7.58-6.15.33-5.69-1.29-12.32-1.39-1.54,3.4,4.91,1,3.79,4.15-4-.67-8.22.35-14.25,0-4.28,1.26-6.61,3.92-11.39,4.81V75.76c-2.36.11-4.58.12-5.69-.68.23,3.85,0,7.36-5.7,6.89.32,2.54-3.48,2.06-5.7,2.76-2.35.92,1.69,2.06-1,2.75-5.56.81-5.88-5-5.68-6.18,4.41,0,9.26-.3,12.34.67,2.54-4.32-5.34-6.54-11.41-6.89-1.48-1.67-4-2.57-7.56-2.76a14.5,14.5,0,0,0-4.77-4.12H397c-2.57,1.3-5,2.79-7.55,4.12-.44-1-1.25.29-2.9,0-3.39,2.61-7.64,4.55-11.37,6.91a14.78,14.78,0,0,1-5.7,7.55c-.18-.8-1.75-.57-2.85-.67v2.74c-6,.27-6.66,4.36-8.58,7.59,1.92,1.63,2.2,4.4,1.92,7.57.92,1.86,6,.74,7.62,2.08-2.08,2-3.81,2.79-3.81,4.83,2-.33,1.78,1,1.89,2.06-3.38,0-5.5,1.07-8.53,1.35-.88,1.24-2.69,1.77-1.93,4.15-5.39-1.17-2.12,4-6.64,3.44.15.82-.2,1.22-1,1.38-4.17-.3-5,1.87-7.6,2.78-2.29.37-4.84.58-4.69,2.75,1.22.94,4.11.67,6.6.69-.45,3.11,4.4,2.33,3.83,5.52-1,.92-1,2.56-2.88,2.75-4.42-1.64-8.35.62-14.22,0-1,2.27,2.11,7.5-1.94,7.59.7,2,2.89,3,1.94,6.19,4.41-.68,5.74.9,8.56,1.37,3.55-1.32,4-1.32,7.57,0,2.16-2.79,5.43-4.8,4.73-9.64,4.17-.88,3.47-5.28,8.55-5.5,4,1.72,5.66-.48,9.54-.69-2.69,2.68-1.33,7,0,10.33,6-.39,2.27-3.9,2.83-7.59-1,0-1.19-1.21,0-1.38v1.38c2,.21,1.89,1.84,2.88,2.77,4.6.07,7.46,1.4,8.51,4.14-.16,1.49-2.37,1.46-4.77,1.35-.12,2.41,3.36,2.17,4.77,3.46-.45-3.1,2.56-3.66,4.75-4.81.53-1.56-1.8-1-1.91-2.09,1.76-2.15,3.22,2.33,4.8,0C386.84,141,375,140.38,378,135c2.82,3.15,8.19,4.63,11.4,7.57.53.52,1.34,2.14,1.86,2.76.74.86,2.31,1.65,1.92,2.73v4.13c1.23.94,4.14.68,6.65.7,1.59-2.37-1.71-5.76.92-8.27h2.85c-1.06,2.71-.16,2.57-.91,5.49,2.12-.24,1.26,2,2.83,2.78,3.46,1.76,9.79,1.22,12.33,0,2.85,1-2.47,3.58,1.89,3.46,3.92.51.21-4.46,4.8-3.46V157c-2.36,1-1.37,4.47-3.36,5.74,1.66,3,5.6,10.28,6.15,11.41h0c2,1.51,3.76,4.38,2.86,5.59,4,2.88,6.62,6.67,10.47,9.65,2.27,2.87,1.91,7.17,6.67,9.63,6.62-1.6,11.27-4.66,19-5.53,1.33-.4.17-2.64,1.88-2.73,4.13-.48,5.85-2.67,9.52-3.47-.68-3,2.79-3.06,2.86-5.49-1.64-2.48-6.53-2.63-5.73-6.88-3.59-.34-6,.19-7.58,1.34-.79-2.6-4.28-3.3-3.82-6.88-3.07.18-2.74-2.12-4.71-2.75,1.41-.37,2.38-1,3.79-1.38,5.25,2.38,3.67,9.72,13.31,9,.38,1.33,2.69,1.26,1.88,3.45,4.6.34,5.27-2.13,9.52-2.06,1,.43,1,1.56,2.84,1.38,6.61-.72,8.25,2.27,12.29,3.42-1.57-.24-1.77.55-1.84,1.39,1,1.32,4.35.93,5.71,2.06-.5,2.17,1.7,2.42.89,4.82,2.89,2.29,4.12,5.76,5.72,9,2,1.32,4,2.64,4.8,4.81v4.16c1.18,1,4.1.66,6.61.68,1.26-4.4,4.66-7.19,3.79-13.09h3.82v-2.77c3.59,1,1.84-1.86,4.73-1.35-.27-3.17,3.47-3.47,4.76-5.52a21.93,21.93,0,0,1,8.54-2.75c2.16,1.89,2.17,5.33,5.73,6.22.33,1.62-1.75,1.46-1,3.4,1.07,2.25,7.56.52,9.56,2.06-1.28,1.46.47,2.05-1,4.16,2.48.71,4.23,2,4.75,4.13-.35,1.3-2.71,1.25-1.88,3.45.29,2.08,2.93,2.45,1.88,5.51,4.57,2.87,8.89,6,14.24,8.27.25-4.55-4.47-5.46-4.73-9.66-2.65-1.32-5.17-2.69-6.66-4.82.44-2.23-1.25-5.94,1.89-6.19,2.08,2,3.58,4.33,7.66,4.82a3.1,3.1,0,0,1,.89,2.75c9.23-.88,11.48-6.84,10.44-15.13-1.21-.7-3.49-.69-4.73-1.38,1.21-3-4.55-2.83-1.9-4.83s2.47,2.26,6.63,1.38c.69-3,5.51-2.92,10.46-2.76,3-3.32,7.06-5.87,8.54-10.34,1.55.2,1.63-.64,2.85-.66,1.59-2.8-.21-8,2.87-9.63-2-.63-2.87-2-2.87-4.17-1.6-.86-3.69-1.41-3.77-3.43-.42-1.65,1.75-1.51.92-3.44,2,.21,3-.14,2.85-1.41,2.72-.87-4.28-4.11,1.92-4.11,1.08,2.2,4.36,2.77,5.71,4.83-.93,3.64,1.79,4.68,4.77,5.52,5.69-3-.2-10.57,2.83-15.83,2-1.31,4.86-2,7.6-2.77,2.19-3.22,4.14-6.62,7.55-9,1.32-5.55-2.16-11.27,0-15.15-1.29,3.93,2.19,4.4,2.87,6.89.19,4.27.47,8.39,4.77,9.63,1.77-1.22-.78-1.74,0-4.11,2.59-.08,1.91,1.15,3.79,0,.17-2.19-2.52-2.34-1.88-4.85-3.43-.47-4.33-2.81-5.72-4.81-.35-2.48.34-5.76-2.82-6.2-2,.17-.26,3.06-2.84,2.77-1.61-5.07-8.06,3.17-10.5-2.06.66-1.61,2.41-2.37,3.83-3.44,1.09-2.2.71-5.43,3.8-6.23,2.18,1.7,1.73-1,4.69-.68,4.48.46,8.62,1.81,14.29,1.39-.33,1.17.73,1.31,1.87,1.37,1.25-1,4.15-.66,6.67-.7.48-2.17-1.69-2.41-.94-4.8,1.93-.2,1.85-1.86,3.79-2.07,1.95.21,1.87,1.87,3.8,2.07-.44-1.51,2.82-3.8,3.76-2.07-3,4.42-7.49,7.85-8.53,13.77.62,1.86,2.71,2.63,3.82,4.14.42,2.64,1.12,5.16,3.77,6.19,2.37-1.73,3.77-4.16,6.66-5.52-.87-3.41,3-2.9,1-5.49.24-1.39,2.51-1.36,2.81-2.75-1.4-.82-4.26-.62-3.81-2.76.93-6,7.17-4.74,14.26-4.14,1.37-1.06,1.24-3.21,2.85-4.12,5.54-.3,9.71-2.19,13.26-2.08,0-2.95-4.7-2.52-4.7-5.51,2.23-.22,1.77-2.37,4.7-2,5,.06,4.3,4.24,10.45,3.41C725,87.62,722.88,85.38,724.7,83.35ZM389.45,95.06A14.72,14.72,0,0,0,397,97.81v6.88c-2.13-.28.54-4-3.77-2.75-2.1,2.38-.77,7.22-3.78,9-3.17.21-5.5-.33-7.64,0-2.64.39-3.2,2-5.7,2.06.3-.84-2.72-2.38-2.81-.7-2.23-.2-2.23-1.88,0-2.07a8.82,8.82,0,0,1-3.81-6.89c4.74.29,2.91,9.7,11.39,6.89,2.13-2.8,3.6-6.1,5.68-9a13.35,13.35,0,0,0-1.91-4.14c.57-6.47,7.33-8.46,10.44-13.07,1.15-.09,1.73.15,1.91.7C396.23,89.45,388.57,89.15,389.45,95.06Zm10.43,4.81c-.06-2.08,3.35-1.7,5.69-2.06C405.64,99.94,402.71,99.86,399.88,99.87ZM407.47,73c-.5-.37.69-.89.94-.7C408.89,72.69,407.74,73.21,407.47,73Zm18,13.76c-.5-.35.67-.87,1-.67C426.93,86.46,425.77,87,425.51,86.78Zm70.28-11c-1.8-.28-4.08-.22-3.79-2.06-2.84-.14.89-2.87,0,0C492.67,74.8,496.63,73.55,495.79,75.76Zm58.86-12.37c-.46-.35.73-.92,1-.71C556.16,63.05,554.93,63.57,554.64,63.39Zm2.88-.71c-.48-.35.69-.87.94-.68C559,62.33,557.81,62.88,557.53,62.68Zm2.85-1.38c-.49-.35.69-.89,1-.7C561.82,61,560.64,61.48,560.37,61.3Zm42.77,86.78c1.33-1.31,2.1-3,5.71-2.73,0,1.06-.46,2.61.92,2.73C608.35,150.15,605.62,147.51,603.14,148.08Z"/><path class="cls-2" d="M435,118.82s-6.39-.47-9.58-1.86a8.47,8.47,0,0,0-8.9-2.32c.46-3.41-1.83-6.66-6.84-6.66s-3.88-7.9-.46-9.92,2.74-2.94,0-5-3.88-9.61-3.88-9.61l5.1-11.17h-.11a14.5,14.5,0,0,0-4.77-4.12H397c-2.57,1.3-5,2.79-7.55,4.12-.44-1-1.25.29-2.9,0-3.39,2.61-7.64,4.55-11.37,6.91a14.78,14.78,0,0,1-5.7,7.55c-.18-.8-1.75-.57-2.85-.67v2.74c-6,.27-6.66,4.36-8.58,7.59,1.92,1.63,2.2,4.4,1.92,7.57.92,1.86,6,.74,7.62,2.08-2.08,2-3.81,2.79-3.81,4.83,2-.33,1.78,1,1.89,2.06-3.38,0-5.5,1.07-8.53,1.35-.88,1.24-2.69,1.77-1.93,4.15-5.39-1.17-2.12,4-6.64,3.44.15.82-.2,1.22-1,1.38-4.17-.3-5,1.87-7.6,2.78-2.29.37-4.84.58-4.69,2.75,1.22.94,4.11.67,6.6.69-.45,3.11,4.4,2.33,3.83,5.52-1,.92-1,2.56-2.88,2.75-4.42-1.64-8.35.62-14.22,0-1,2.27,2.11,7.5-1.94,7.59.7,2,2.89,3,1.94,6.19,4.41-.68,5.74.9,8.56,1.37,3.55-1.32,4-1.32,7.57,0,2.16-2.79,5.43-4.8,4.73-9.64,4.17-.88,3.47-5.28,8.55-5.5,4,1.72,5.66-.48,9.54-.69-2.69,2.68-1.33,7,0,10.33,6-.39,2.27-3.9,2.83-7.59-1,0-1.19-1.21,0-1.38v1.38c2,.21,1.89,1.84,2.88,2.77,4.6.07,7.46,1.4,8.51,4.14-.16,1.49-2.37,1.46-4.77,1.35-.12,2.41,3.36,2.17,4.77,3.46-.45-3.1,2.56-3.66,4.75-4.81.53-1.56-1.8-1-1.91-2.09,1.76-2.15,3.22,2.33,4.8,0C386.84,141,375,140.38,378,135c2.82,3.15,8.19,4.63,11.4,7.57.53.52,1.34,2.14,1.86,2.76.74.86,2.31,1.65,1.92,2.73v4.13c1.23.94,4.14.68,6.65.7,1.59-2.37-1.71-5.76.92-8.27h2.85c-1.06,2.71-.16,2.57-.91,5.49,2.12-.24,1.26,2,2.83,2.78a9.52,9.52,0,0,0,2.34.78l1.32-17.28a164,164,0,0,0,22.13-9.84C435.24,122.07,435,118.82,435,118.82Zm-26.6-46.5c.48.37-.68.89-.94.7C407,72.65,408.16,72.14,408.42,72.32Zm-19,22.74A14.72,14.72,0,0,0,397,97.81v6.88c-2.13-.28.54-4-3.77-2.75-2.1,2.38-.77,7.22-3.78,9-3.17.21-5.5-.33-7.64,0-2.64.39-3.2,2-5.7,2.06.3-.84-2.72-2.38-2.81-.7-2.23-.2-2.23-1.88,0-2.07a8.82,8.82,0,0,1-3.81-6.89c4.74.29,2.91,9.7,11.39,6.89,2.13-2.8,3.6-6.1,5.68-9a13.35,13.35,0,0,0-1.91-4.14c.57-6.47,7.33-8.46,10.44-13.07,1.15-.09,1.73.15,1.91.7C396.23,89.45,388.57,89.15,389.45,95.06Zm10.43,4.81c-.06-2.08,3.35-1.7,5.69-2.06C405.64,99.94,402.71,99.86,399.88,99.87Z"/><path class="cls-6" d="M267.82,235.55c0-2.56-1-4.36-1.89-6.18-1.67-1.3-2.79.29-4.74.67-1.5-2.36-5.18-3.15-8.52-4.15H246c-1.7-2-8.06-.59-8.56-3.42-2.53,0-5.62.38-5.67-1.38,2.73-3.21-2.82-12-11.43-8.93-3-1.29-5.19-3.13-5.69-6.23-5-1-8.5-3-13.33-4.12-1.23.25-1.48,1.2-2.84,1.37-1.29-2.48-5.91-2.6-6.68-5.5-3-.62-2,1.76-3.78,2.07-2.21-.48-2.52-2.3-4.75-2.76-.86,1.2-1.73,2.38-4.74,2.06-1.45,2.85-5.22,4-7.55,6.18a29.7,29.7,0,0,1-3.06,3.87c.63,1.28,1.48,2.41,2,3.7,0,1.39-2.57.91-1.88,2.77.44,3.55-3,4.24-3.8,6.9-1.84,4.8,3.82,7.43,0,9.64,1.66,1.32,4.68,1.64,6.66,2.78-.79,1-3.05,1-4.75,1.35-.69,5.55,3.48,7.57,8.55,9,.38,1.64-1.76,1.48-1,3.43,3.55,2,4.81,5.67,10.47,6.2,1.73,3.08,4.73,5.26,4.71,9.64-1,.91-.89,2.54-1.85,3.43a2.89,2.89,0,0,1,1.85,2.76c-2.55,3.1,1.14,6.72,0,11-5.13,2.22-2.77,9.93-4.71,14.46,1.4,1.91,3.88-1.19,4.71.7.87,3.37-3.25,3.15-4.71,4.8-1.21,2.24,3,.54,1.87,2.78-1.81,1.67,1,3.33-1,5.49.93,4.68,4.12,7.09,2,11,2.8,1.61,2.5,5.49,5.67,6.89-.14,1.22,1.12,1.44.93,2.74a20.76,20.76,0,0,1,5.69,2.06c3.56-.42,9.8,1.14,10.42-1.38a9.27,9.27,0,0,1-5.68-2.76c.71-2.32-3.84-.87-2.85-3.43-.33-3,2.75-3.54,2.85-6.2,2.46-.08,3.69-1,3.82-2.74.48-2.44-3.35-1.68-2.85-4.14,2.55-2.12,6.45-8.93,0-9.64,6.36,1.17,6.14-2.4,7.58-4.8,5.11.24,6.86-1.95,10.47-2.77.63-3.21-1.52-4.42-1.92-6.87h7.61c.05-.69,1.17-.55,1.91-.71.53-1.68.81-3.53,3.8-3.44-.34-3.91,3.58-4.73,5.68-6.9v-4.8c1.81-1.22,3-2.92,4.74-4.15,4.53-1,4.53-1,8.55-2.06.43-4.42,5-8.25,1.9-13.09a3,3,0,0,0,1.9-3.45c1.53.22,1.65-.63,2.87-.67.35-2.28,2.79-3,3.81-4.81,2.52-1.8-.14-3.33,2.81-4.14C266.21,237.59,267.82,237.17,267.82,235.55Z"/><path class="cls-1" d="M164.31,209.38c1-.91.91-2.56,2.83-2.74a7,7,0,0,0,.19.88,28.34,28.34,0,0,1,3.53-3.64c-.39-1.32-1.66-2-3.72-2.07-2.44.73-3.52,2.48-6.68,2.75-2.22-3.36,1-6.55,0-11-1.72-2.39-8-1.48-11.36-2.73.94-3,3.7-4.66,2.85-9a36.11,36.11,0,0,1-9.48,0c-1.75,1.48-.91,4.84-3.81,5.49-12.71.5-4.76-11.81-7.6-17.21,3.36-.57,5.36-2.06,8.56-2.74,5.19-.32,6.41,2.21,11.37,2-.08-1-.2-1.93,1-2,4.57.16,10.69-.88,11.39,2-.41,4,2.1,5.86,6.64,6.22-1.14-3.55-.63-4.63,0-6.9-1.07-1-2.7-1.69-2.84-3.45,1.6-4.56,5.79-7.28,12.33-8.27.88-2,.88-2.1,0-4.12a8.44,8.44,0,0,0,4.8-.7c-2.37-3.78,3.09-2.94,1.87-7.57,3.16-.93,6.17-1.92,9.48-2.75.5-2.16-2.88-1.56-1.88-4.13,3.47-2.09,8.75-2.86,13.34-4.14.66,1.87-1.93,1.39-1.93,2.75,3.8-1.15,7.83-2.12,10.47-4.12-2.35-1.08-7.08-.43-6.67-3.45.53-1.91,3.65-1.92,5.71-2.75.38-1.67-1.75-1.49-1-3.46,4.62,2.27,10-3.33,13.3-2.07-2.2,3.69-6.72,5.67-8.54,9.63,3.52.5,4.09-1.17,7.57-.67.09,1.07-.42,2.62,1,2.76.94-1.71,3.64.94,6.65,0-.46-1.58-1.86-3.52,0-4.83-3.46-.24-4.35-2.36-5.71-4.14a41,41,0,0,0,0-9c-1.82-1.27-2.36,0-4.73,0,.1-3.26-4.39-3.25-4.75-6.18a3.15,3.15,0,0,0,.94-2.75c-3.66-1.51-2.33-6.61-7.62-6.9-.48,1,1.14,3.56-.94,3.46-2-.41-6.24.86-6.65-.71V94.37C199.1,96,200,92.76,195.63,92.3c-2.5,1.9-2-.8-4.72-.68-2.3-.28-2.05,1.25-4.76.68,1.42,6.86-2.58,10.72-1,15.84-1.62.2-4.73-1.95-5.71,0,1,2,3.17.44,3.82,1.37-3.32,1.5-3.39,5.34-4.74,8.28-2.17-2.11-2.6-5.49-3.78-8.28-1.94-1.37-1.88.32-3.8.69-.82-2-1.42-.75-3.83-.69a26.52,26.52,0,0,0-10.4-4.81c1.5-3.42-3.34-2.19-2.93-4.83,2.07.33,1.85-1,1.95-2.06,3.14-1.18,4.47-3.62,7.59-4.83,2.1-2.41,3.55-5.25,8.58-5.51.06-1.23-1.17-1.45-1-2.75A90.87,90.87,0,0,0,185.18,82a12.8,12.8,0,0,1,1-6.89c-1.12-1-3.59-1.08-4.73-2.06,3.77-.23,7,0,8.52,1.36,1.78-2.09,4.56.8,7.61,0-1.32,3.51,4.34,1.91,3.8,4.85-.93,5-11.27,3.28-12.35,8.24,1.57,1.64,5.54,1.51,9.51,1.37,5.9,1.93,8.23,6.45,16.17,6.9-2.13-3.57,1.59-3.47,1-7.57-.42-1.79-2.88-2.08-2.89-4.14,3.62.15,4.62,2.19,7.62,2.75-.27-1.79-.34-3.43,2.85-2.75-.67-2.12,1-2.51.92-4.14-2.56.49-1.8-1.41-2.84-2.06a60,60,0,0,1-8.55-2.08c.27-1.4,2.59-1.33,2.89-2.74-1.23-1.65-4.18-2-3.85-4.82h-8.52c.45-2.18-2.55-1.82-2.85-3.46-4-.4-6.28.5-9.51.71.56-4.27-7.5-2.92-8.56-.71.35-2.57-.76-4-3.79-4.14-4.9,2.19-10.61,9.23-4.74,13.1,1.39.38,4.88-.78,4.74.68-1,2-3,3.32-4.74,4.85-2.43-1.7,2-1.49,1-4.15-3.25-1.54-6.33-3.23-7.63-6.21-3.61.33-3-2.38-7.55-1.36.33,1.64-1.79,1.48-1,3.42,3.26.94,2.05,6.41,0,7.59a3,3,0,0,1-1.85-3.45c-4.78-.49-4.78,2.55-8.61,2.76-3.53-1.1-7.41-2-9.47-4.13,4.24-.52,5.72.92,9.47.68,2.1-1.43-.43-2,0-4.13,5.27-.78,7.36-3.86,12.33-4.8-1.72-2.17-1.37-3.79-1.87-5.51H144.38c-2.1,1.93-6.83,1.93-7.63,4.8-.48-1-1.39-1.71-1.88-2.74-2.51,0-5.92.63-4.73-2.06,7,1.05,15.42-2.51,21.83-4.15,0,3.17,8.13,2.38,9.5.69-.66-1.57-.86-3.5-1.87-4.84-5.6.54-8.35,3.19-14.28,3.46V51c-5.19-1.27-6.12,3.24-2.84,4.13-5.45.49-8.52-.76-13.27-.69,1.41,3.57-4.39,1.91-4.75,4.14,2.37.87,2.92-.35,3.77.69-.61.91-2,1.28-3.77,1.35-1.53-3.93-9.06-3.55-16.17-3.44-.5,3.34-2.92,5.23-5.71,6.9-.17,2.17,2.48,2.33,1.93,4.82,4.69.21,7-1.3,10.39-2.06-1.94,3.73,5.22.83,5.73,2.77.68,1.86-4.47-.5-3.82,1.35,0,3.73,10.39-.17,8.58,4.83,3.54-1.53,4.64-1.09,8.52,0h1c-.3-.83,2.74-2.37,2.85-.68-.17.82-1.51.77-2.85.68.25,1.74,4.07,3.91,0,4.84-1.12-.14-.77-1.27-1-2.07-8.43-.55-12.7-4.1-22.78-3.45-2.9-.64-3-3.34-6.63-3.44-.45,2-3,2.43-5.72,2.75a3.61,3.61,0,0,0-.92-3.45c-3.67.16-3.67,2.93-7.6,2.77-3.61.53-4.54-.84-7.62-.68-1.05.17-.62,1.36-1.9,1.36-.92,0-.77-.84-.92-1.36-2.28.22-3.6,1.08-6.69.68-7.57-3.43-22.2-1.79-30.35-4.83-7.1,2.25-16.32,2.89-20.9,3.45C19.69,75,23.58,75,24.68,77.16c3.63-.33,5.94.28,6.67,2.08-3.85-1-3.41,1.22-4.77,2.06-1.73-.61-2.58-1.78-4.72-2.06C18.25,81.89,9.57,80.9,6.64,84c5.24-.12,7.1,2.21,7.61,5.55,5-1.32,8.82.18,13.31-.73C22.9,94.91,3.15,90,4.72,100.56c3.17,1.66,3.91,1.89,2.87,5.52,1.71.08,2-.85,3.77-.69.08,1.1-.44,2.62,1,2.75,1.34-2.19.44,2.82,2.87,2.06,1.17-2.68,5.41-3.29,8.53-1.37-4.1,2.32-5.58,6.5-10.41,8.26-4.36,1-5.85,4-11.39,4.12.76,2.21-1.52,2.13-1.92,3.45,4.35.39,5.92-1.23,10.43-.69,1.06-2,4-2.56,7.62-2.77,3.57-4.73,9.75-7.6,15.2-11h1.92c1-.64.28-2.52,2.81-2.06.07-.41.16-.81.94-.67-.05.41-.11.81-.94.67.41,3.08-2.54,3.65-3.79,5.51,7.81.63,9.7-3,16.16-3.45.43-3.09-.5-5.17-1-7.58,4.36.65,4.61-1.71,8.5-1.38a23.79,23.79,0,0,1,6.69,4.84c6,1.39,11.2,3.38,10.44,9.64,4.6-.44.22-3.81,3.84-4.14.21,5.83-.3,12.11,2.8,15.85-2.86,1.79-1,2.55,0,4.83,0,1.35-2.58.85-1.85,2.76-.46,7.55-1.09,12.61,0,20,2.52,1.14,4.18,2.92,6.62,4.14,2.62,2.66,2.43,7.39,5.69,9.63-1.1.12-.8,1.25-1,2.07,4,1,4.88,4.26,6.69,6.89,2.89-.52,2.74,1.2,5.63.67.14-2.93-1.83-2.29-1.85-6.16-.54,0-1.07-.59,0-.7v.7c2-.35,1.77,1,1.85,2a29.62,29.62,0,0,1,7.64,5.51c-.69,4.86,1.83,7.4,3.77,10.34,7.85,1.41,12.47,4.94,21.86,3.42a26.12,26.12,0,0,0,3.82,4.84c3.58-.53,4.55.84,7.56.69.9,1.66,2.79,2.57,4.75,3.43v2.07C158.37,205,159.49,208.52,164.31,209.38ZM222.26,115c.47.35-.69.86-1,.67C220.81,115.36,222,114.82,222.26,115ZM149.1,61.3c2.92.67-1,1.85-1,2.76C145.26,63.39,148.58,61.73,149.1,61.3Zm-3.79,3.45c3-.32,3.36,1.27,6.65.71,0,2.73-3.72,2.82-6.65,3.42Zm-29.42,1.41c-.51-.38.62-.91.91-.7C117.29,65.8,116.14,66.32,115.89,66.15Zm-20,99.15a.46.46,0,0,1,.92,0C96.7,166.1,95.93,165.69,95.93,165.3Zm.92,1.38c2.26.23,2.16,2.14,3.81,2.75C99.46,171.17,96,168.69,96.85,166.68Z"/><path class="cls-1" d="M288.73,70.25c1.88,0,1.18-1.86,3.81-1.38,3.51.89,5.54,2.9,10.43,2.77,3.22-1.65-4.55-3.06-1.89-4.13,1.42.35,2.4,1,3.79,1.36.75-2.38-1.06-2.91-1.9-4.13,7.84-.3,5.27-7.23,3.84-11a28.07,28.07,0,0,1,8.51-.68c-.24-3-5.1-2.73-7.57-4.15,3,.34,2.12-2.1,5.66-1.38.68-2.09-1.63-2-.94-4.13,3.4.38,2.34-2.44,5.71-2.06,2.38-.57,8.17,1.35,7.6-1.37.87-2.51-4.12-.7-4.75-2.08-2.24-.2-1.79-2.38-4.75-2.06-4.11-.41-8.53,2.48-10.45,1.39.58-3.48,8.37-1.76,9.48-4.83-2-2-6.14-2.41-11.42-2.07-3.06-.79-6.84-1.82-8.53,0-.79-1-3-1-4.73-1.39-3.82,1.83-13.15-.33-17.06,1.39-4.4.07-9.66-.55-11.44,1.39-.08,1.5,2.6,4.46.93,4.8-6.85-.78-10.72.48-17-.68-9.52,1-14,5.48-23.76,6.21-.9,2.49,4.26.55,3.77,2.77-2.74,1.66-7.83,1.62-10.4,3.44-2.35-.89-5.42-.75-6.67,2.06,3-.6,2.94,1.08,4.74,1.36,0-1.82,4.76-1.82,4.76,0,2.31-.4,6.46-3.06,6.64.71-4.06.27-9.76-.67-12.35.69.87,2.58,4.47,3.17,7.62,4.11,2.93.5,1.79-1.89,4.74-1.37a18.66,18.66,0,0,0,11.4,2.07c-.77,3.06.65,4.58,1.91,6.19-.32,1.61-1.51,2.6-1,4.82,3.79,1.35,4.39-3.17,6.66-.67.52,2.46-2.87,2.09-5.71,2.05.8,3.09,7.22,2.13,8.53,4.83-2.16,1.19-4.78,2-6.65,3.45,2.67.9-3,1.42-1.88,3.44,6.77,3.33,1.52,11.2,6.62,15.85h6.67c2.76.08,1.66,2.93,4.73,2.74,1-1.38,1.64-2.94,3.83-3.46-1.15-5.19,4.73-5.26,3.81-10.32,2.43-.05,1.33-2.68,3.77-2.75,3.62,1.4,3.62-1.63,7.62,0a37.41,37.41,0,0,1,4.76-2.73c4.59-.83,6.61-3.48,11.37-4.14.39-2.48,8.39-3.08,5.7-5.52C295.37,73.21,291.38,70.45,288.73,70.25Zm9.51-2.74c-2.54-1.23,0-4.55,2.84-4.12C300.6,65.08,298.54,65.67,298.24,67.51Zm6.64-33.07c-.07,2-2.14,2.56-3.79,3.44-2.91-1.34-7.2-1.64-12.36-1.38C291.94,33.67,300.84,34.87,304.87,34.44Z"/><path class="cls-1" d="M171,44.79V48.9c2.89-.48,3.44.71,5.66.7.44-3.14,6.17-6.07,9.52-4.8,1.44,2.88-4.92.09-4.73,2.05,2.86,1-3.29,1.24-2.86,2.75,2.47-.42,3.38.28,2.86,2.05-2.24,0-2.81-1.19-5.72-.66.14,2-3.19,1.34-1.89,4.13,5.67-.53,9.76-1,12.34,2-7.54,1.18-12.41-2.72-17.1-1.37-.76,3.32,5.75,1.35,5.72,4.15,7.16-.74,16.78,3.05,19-2.08,2.48.21,4.07-.26,3.8-2.07.71-1.87-4.43.51-3.8-1.37h6.67c0-3.67,5.79-3.16,4.75-7.57,4.91-.11,5.38-3.44,11.44-2.77,1.16-1.65,3-2.78,6.6-2.75,1.22-1.71-2.11-3.34,0-3.44,4-1.32,9.81.69,11.4-3.44,0-1.13-2.65-.37-2.82-1.37-15.56,1.53-36.76-2-53.23,2.75-1.27,4.16,4.09,3.46,4.74,6.21-6.17.35-4.3-5.16-11.37-4.15-.31.95-1.4,1.32-1,2.78-1.53,0-3.3-.11-2.86,1.37C167.28,44.23,170.59,43.45,171,44.79Zm19.94,12.37c.49.36-.7.91-1,.7C189.45,57.51,190.63,57,190.91,57.16Z"/><path class="cls-2" d="M404.59,43.39c.5-1.93,5-1,3.82-4.12-8.68-1-17-1.23-24.71-1.39a3.22,3.22,0,0,0,.93,2.78C390.64,42,395.57,44.22,404.59,43.39Z"/><path class="cls-2" d="M367.59,46.85c-.12,1.7-1.78,2.13,0,3.44,3.9-.15,4-3.05,8.52-2.77-.23,3.07-4.65,3.06-4.72,6.21A9.16,9.16,0,0,0,378,55.11c-.46,2.15,2,2.2,4.73,2a51.7,51.7,0,0,1,2.85-7.56c2.51,1.83,4,4.49,10.46,3.45.84-5.25-5-5.57-7.6-8.25-.29,1.61-2.55-.81-3.85-.72-2.31.12-3.9-.35-4.67-1.36,2.21-1.83-.81-4-4.79-3.45-2.79,1.11,1.51,3.57-1,4.12-2-3.26-11.09-6.49-11.42,0C363.26,45.39,366.89,45,367.59,46.85Z"/><path class="cls-3" d="M463.48,42c-.09-4.35-8.83-2.87-8.52.69C458.2,44.86,460,41.76,463.48,42Z"/><path class="cls-3" d="M516.73,46.15c7.46-.92,15.3,2.4,17.06-2.08-2.23-2.66-10.92-3.78-16.11-2C515.54,42.11,517.22,44.93,516.73,46.15Z"/><path class="cls-3" d="M459.75,71.64c-1.39-3.17-5.85-4-4.79-9,6.71-.42,9.21-3.88,14.23-5.52,6,.45,9-1.23,9.56-4.8H474c-.23.54,0,1.37-1,1.37-7.12.57-12.43,2.48-18,4.14.47,3.54-4.59,3.12-3.81,6.88-1.17,1.47-3.54,2-3.77,4.13A77.78,77.78,0,0,0,456.83,73C457.25,72.15,458.09,71.6,459.75,71.64Z"/><path class="cls-3" d="M618.32,59.25c2.28-1.11,3.41-3,5.73-4.14-3.61-.34-4.38-3.17-7.63-2.75-.41,0-.88,1.62-1.89,1.37h-5.67C607.59,58.75,615.63,57,618.32,59.25Z"/><path class="cls-2" d="M315.32,90.22c.11-1.75,3.55-1.08,4.76-2.05,1-3.49-2.16-4-1.89-6.88-4.12.91-5.59-.44-9.5.67-2.58-.42-2.38-2.88-5.71-2.73,1.17,3.33-3.77,2.3-3.77,4.8,2.66.58,2.46-1,4.71-.68-.49,1.67-3.65,1.48-2.82,4.12,4.76-.9,3.72,2.38,6.67,2.75C308.54,88.81,314.35,89.52,315.32,90.22Z"/><path class="cls-1" d="M185.18,90.22c-3.76-.73-1.29-1.74-3.77-3.45-2.88.5-2.81-1.18-5.72-.67-1.34,1.32-.49,4.2-4.73,3.47.06,2.4,3.11,2.75,6.62,2.72C177.28,86.91,184.07,94.56,185.18,90.22Z"/><path class="cls-2" d="M352.42,115c-1.32-.72-2.93-1.15-3.85-2.07,1.19-4.08-6.3-4.73-2.83-8.27-1.28-.7-2.88-1.13-3.83-2.08,1.38-.58,3-1,2.87-2.75-3.48-.21-5.3.78-7.57,1.37.7,3.76-1.5,5.36-1,9a20.7,20.7,0,0,0,4.72,1.38c.4,2.44-3.19,3.79-4.72,2.74-.74,3.1.66,4.61,1.9,6.22-1.67.63-5.09,0-4.78,2.07a98.55,98.55,0,0,1,15.21-.7C349.35,119,348.83,117,352.42,115Z"/><path class="cls-2" d="M326.7,117.79c2.19-.74,5.77-.46,7.62-1.39-1-2.88-.22-3,0-6.2h-4.73c-.06,3.08-2.16.87-3.8,2.07C325.91,114.26,325.27,116.77,326.7,117.79Z"/><path class="cls-3" d="M652.49,137.76c1.83.09.68,2.27,2.87,2.06,2.1-1.69,1.78-5.13,5.69-5.5-5-.52-8.09-2.4-13.28-2.76.69,3.27-1.07,4.73-1,7.59C649.41,141,649.17,137.37,652.49,137.76Z"/><path class="cls-3" d="M630.68,159.12c-.17,2.43,2.24,3,3.8,4.11.66-2.49,3-3.81,5.71-4.82a5.83,5.83,0,0,1,2.82.71c3-2.65,9.3-2.91,12.35-5.52-.16-4.91-2.1-8.6-1.88-13.78h-3.84c1.17,3.23-.49,4.8,1,8.26a1.11,1.11,0,0,0-1,1.41,28.29,28.29,0,0,0-8.54,4.11c-3.34,1.27-9.38.53-9.49,4.14-.43,1.9,5.17-.53,4.77,1.38Z"/><path class="cls-3" d="M398.92,153.6c.28,1.93,3.15.56,5.68,2.08.69-2.58-1.45-3.05-4.72-2.77C400,153.48,399.49,153.56,398.92,153.6Z"/><path class="cls-3" d="M610.7,177a6.21,6.21,0,0,1,2.85,4.13c4-.16,3.63-3.37,3.84-6.19C615,173.43,611.72,175.45,610.7,177Z"/><path class="cls-1" d="M171,175v2.74h3.8C174.65,176,173.4,175,171,175Z"/><path class="cls-1" d="M181.42,178.37a3.51,3.51,0,0,0-1-3.41h-2.86C177.23,177.31,177.88,178.89,181.42,178.37Z"/><path class="cls-1" d="M182.34,177.71v3.45c2,.27,2.54-.47,3.8-.71C186,178.71,184.78,177.78,182.34,177.71Z"/><path class="cls-1" d="M180.45,188.73c3.41-.4,4.6.79,6.69,1.38.07-2,3.93-1.26,6.6-1.38-1.36-4.56-6.6-3.94-12.33-4.13.7-1.88-1.94-1.39-1.94-2.75-2.06-.78-5.22-.82-5.67-2.75H159.59c-.42,1.31-2.07,1.73-1.93,3.45,3.87.27,3.85-2.27,8.56-1.38,4,.56,4.44,3.68,8.55,4.13,2.26.43,6.88-.87,7.57.69C178.87,186,180,187,180.45,188.73Z"/><path class="cls-1" d="M189.94,181.16c-.3-.95-2.37-.58-3.79-.71C184.14,183,191,183.56,189.94,181.16Z"/><path class="cls-3" d="M614.53,188.73a17.08,17.08,0,0,0,5.7,4.13c1.19-2.14,4.42-2.75,3.82-6.2C621.46,184.16,614.39,185.3,614.53,188.73Z"/><path class="cls-3" d="M591.7,190.8c2.68-.4,2.68-2.69,3.82-4.14a7,7,0,0,0-3.82-.68C589.95,188.66,590.47,186.54,591.7,190.8Z"/><path class="cls-1" d="M170,187.33v2.78c3.2-.74,3.27.22,6.64-.69C177.28,186.66,173,187.45,170,187.33Z"/><path class="cls-1" d="M195.63,190.11c3.43.17,6.59.15,5.72-2.78h-5.72Z"/><path class="cls-4" d="M295.37,190.11c0,1.35-2.58.87-1.87,2.75h3.77C297.56,191.28,297,190.26,295.37,190.11Z"/><path class="cls-3" d="M622.14,201.13c2,1.48,2.68-.35,5.67,0-.3,1.61-2,3,1,3.43,1.34-2,4-3.07,8.53-2.75.89-3.17-3-2.85-4.74-4.13.24-2.26-1.12-3.33-3.79-3.45-1.33.89-.94,3-1,4.82C624.64,197.88,623.71,199.47,622.14,201.13Z"/><path class="cls-3" d="M528.08,203.19c1.36,4.08-3.61,4.92,0,6.88,3,.34,2.53-1.85,4.77-2.06C532.06,205.83,530.08,204.49,528.08,203.19Z"/><path class="cls-3" d="M590.78,221.8c.93,2.77,5.06,3.2,4.75,6.88,6.16-1,5.22,3.09,11.38,2.06-.27-1.58,2.73-.76,2.87-2.06-.73-.16-1.88,0-1.89-.71,3.12-.95,1.55-5.25,4.77-6.17-2.19-2.24.79-4.58-1-6.22,1.66-.61,3.27-1.26,2.84-3.42-2.29-1.32-4.15-3-8.55-2.78C605.09,216.57,592.47,215.19,590.78,221.8Z"/><path class="cls-3" d="M572.71,217c-1.43-1.6-4.43-2.71-3.76-4.79-2.6.48-1.93-1.39-3.81-1.39.12,3-2.33-.08-4.77.68,0,8,13.35,6.41,11.43,15.84,4.68.38,6,4.91,10.4,3.44,2.18-2.63-2-5.64-1.84-8.93C577.46,220.38,574,218.42,572.71,217Z"/><path class="cls-3" d="M626,222.47c-.2-3.06-6-2.09-7.64-4.13-4.87,2.84-8.25,10.5-.93,13.07-.21-2,.22-3.5,1.89-4.13,2.09,1.33,2.22,3.51,5.7,2.09-.49-2.88-3.67-3.81-3.79-6.9A4.58,4.58,0,0,0,626,222.47Z"/><path class="cls-5" d="M646.8,219.71c-3.09-1.4-10.67-1.13-10.42,2.09C639.63,223.27,646.57,222.58,646.8,219.71Z"/><path class="cls-5" d="M657.28,222.47h-6.64c-.85,1-1.42,2.19-3.83,2.07-2.94.52-1.77-1.92-4.7-1.39.28,1.81-3.74.56-2.86,2.74.12,1.56,2.36-.86,4.69,0,4.24,2.48,9.79,4,13.34,6.9v4.14c5.08-2.23,6.6,1.41,10.45,2.06,3.34-.1,2.29-3.4,6.64-2.76,2.23.94,4.75,5.24,8.54,2.76a3.81,3.81,0,0,1-2.85-4.11c-2.48-1.66-6-2.55-7.58-4.84V228C665.15,227.78,663.16,223.73,657.28,222.47Z"/><path class="cls-3" d="M606.91,238.32c.53-2.44-3.31-1.7-2.83-4.14-7.74.15-13.26-1.43-19-2.76-.83,1.23-2.66,1.77-1.87,4.14C592.26,235.63,596.57,239.18,606.91,238.32Z"/><path class="cls-5" d="M677.18,265.18c.39-3.25-1.66-4.74-.94-8.28-1.86-.46-2.16-2.07-3.77-2.74-.34-5.28-6.8-6.1-5.71-12.4-1.77.15-2.08-.77-3.79-.69-2.45,2.83,1,10-2.88,11.71-3.73.9-1.92-2.27-5.7-1.39-.15-1.93-4.48-.84-3.77-3.43-.49-2.18,4.68-.26,3.77-2.73-3.3-2.68-13-.7-18-2.08-1.65.42,0,3.26-1.91,3.43a46.77,46.77,0,0,0-9.5,2.09c-1.19,2.08-.33,5.73-3.79,6.2-2.26-1.63-4.69.1-7.64,0-1.85.47.23,3.84-1.87,4.11-2-.38-1.85-2.07-3.79-.68-2.37,1.72-1.25,6-4.75,6.88-2.13,1-6.35.45-7.62,2.06,1,3.07,3.33,6.88,1,10.33,1.85.49,2.5,1.85,2.85,3.44.52,3.14-1.69,4.29-1,7.58,2.84-.18,3,1.55,5.74,1.39,4-1.26,6.29-3.69,13.31-2.77,3.35-3.07,10-3.75,18-3.44a13,13,0,0,1,5.66,6.2c3.72-1.29,2.56,1.59,6.66,0,0,1.81.34,3.91-1,4.82,6.08,2.56,9.67,2.71,19,2.77,2.39-1.24,4.16-3,7.6-3.49-.47-3.52,4.53-3.09,3.76-6.86,3.32-.16,2.48-3.28,5.72-3.44-1.09-2.44,1.63-3.91,1.89-6.2.52-4.2-1.84-8.51-2.84-12.39C679.58,264.26,678,267.2,677.18,265.18Z"/><path class="cls-4" d="M455.91,243.14a17.41,17.41,0,0,0-3.81,6.89c-4.12.69-6.21,2.78-8.52,4.82-.76,2.38,1.38,2.66.94,4.81-.86,1.44-1.51,3.05-2.88,4.14,2.07,3.11-.65,5.86,2.88,8.27,3.08.13,4-1.22,7.58-.7,2.06-3.08,1.27-4.45,3.81-7.57v-3.45c.23-.77,1-1.07,1.89-1.39-1.73-3,1.75-5.87,1.95-11C456.18,248,459.83,242.84,455.91,243.14Z"/><path class="cls-5" d="M729.45,290c.18-2,.13-3.77-2.84-3.44V292c-.76,2-4.52,1.8-3.81,4.85,6.38-.68,2.17,2.05,1.89,4.12,6-.21,6.22-4.7,8.57-7.58,1.42-1,4-1.24,4.72-2.78C735.7,288.52,734,290.23,729.45,290Z"/><path class="cls-5" d="M719,298.24c-.81,1.45-2.85,2-2.81,4.12a7.13,7.13,0,0,0-3.83.69c-1.6,1.38-2.21,3.46-4.73,4.12-3.92,1.08-5.07,4.12-6.68,6.9,3.11-1.11,5.16-.34,8.55,0,.9-1.64,3.83-1.82,2.86-4.83h3.83c.26-3.92,7.46-2.82,7.56-6.88C723.4,300.08,720.93,299.4,719,298.24Z"/><path class="cls-5" d="M654.4,300.29c-1.06,1.06,3.17,4.16,3.83,6.22,4.62-.33,7.59-1.83,6.65-6.22C660.73,300.84,656.08,299.44,654.4,300.29Z"/><path class="cls-6" d="M224.13,321.64h3.81C228.59,318.93,224,319.4,224.13,321.64Z"/><path class="cls-4" d="M460.64,199.06c-4.06-.41-3.84,2.25-7.56,2.07h-8.57c-.46-4.72-5.19-6.35-8.58-9,.84-4.53-5.64-3.71-3.79-9-1.61-1.57-4.57-2.19-5.69-4.12.84-1.94-1.07-4.93-.22-5.43-.24-.49-.53-1-.86-1.62-.27.17-.66.28-.8.18-.34-.25.11-.58.51-.7-1.72-3-4.16-6.86-5.1-8.33l-.2,0c-6.91-1.83-15.52-2.48-24.7-2.73-2.74.52-2.27,3.4-4.73,4.15-4.37-3.28-13-3.46-17.06-6.9.73-2.39-1.09-2.92-1.91-4.14,2.21-.19,2.17-1.84.92-2.75A43.9,43.9,0,0,0,358,152.91c-7.7-.33-14.38.1-18.06,2.77-.81-1.45-2.74-2.12-5.67-2.08-.79,2.43-4.2,2.92-6.63,4.14-2.58,3.23-1.61,7.45-3.78,10.32-1.42,1.82-6.52,3.68-8.58,5.52-.15,4-2.34,6.57-4.76,9v17.9c3.28,2.68,6.15,5.67,7.63,9.63,4.37,1.88,7.31,4.82,13.28,5.51a67,67,0,0,1,13.3-.68c2-1.12,1.83-3.71,5.74-3.45,1.69.11.54,2.33,1.92,2.75,4.37-.44,6,1.11,9.46,1.38,1.62-.6,2.42-1.92,5.7-1.38,1,5.32-2,7.76-1.92,12.42,2.71,3.53,7.34,6.2,5.71,11,2.51,2.31,2.68,6.31,3.8,9.64-2.35,3.13-1.81,8.3-3.8,11.7A21.62,21.62,0,0,1,380,270v6.2c4.21,3.58,4.1,10.29,8.52,13.78,9.13-.48,13.71-4.26,21.85-5.51,1.44-3.79,4.33-6.49,8.52-8.27-.48-2.67,1.71-3.37.93-6.2,1.71-.63,2.44-1.92,5.72-1.39.1-7.94,4-13.14,11.42-15.83a45.23,45.23,0,0,0,0-19.27,30.1,30.1,0,0,0,4.7-9c2.27-1.12,4.19-2.47,6.67-3.45,4.52-4.75,8.62-9.83,13.32-14.44C462.34,204.06,463.6,200.55,460.64,199.06Z"/><path class="cls-3" d="M724.7,83.35c-2.53-.84-6.22-4.53-8.53-1.39a3.64,3.64,0,0,0-.94-3.44c-5.18-1.35-7.92-4.41-16.16-3.45-1.1-1.28-3.67-1.47-4.75-2.76-6.22.6-7.54-2.36-14.27-1.39-1.31,2,2.62,3.53,0,4.15-2.75-.3-2.25-3-4.73-3.44-2.79,2.13-7.92.2-13.38,1.38-3.39-1.61-3.14-6-10.37-4.82-1.38.15-.32,2.05-1.93,2.05-4-1.25-7.82-2.6-11.38-4.1a2.62,2.62,0,0,1-1.89,1.36c1.19-2.71-2.27-2.05-4.77-2.05,2.34-1.64-1-1.56-1.86-2.77-4.58,1.21-4.25-.4-8.56-.68-.33.92-2.41.57-3.8.68-1,1.29,2.83,2.31,0,2.77-8.17-.94-18.53,1.22-25.69,0-2.39-.44-3.31-2.55-5.66-2.07-4.4.73-7.33-.72-10.48-1.38-1.11-.27-2.61.16-3.76,0-2.38-.33-4.19-2.19-9.49-1.41.36-1.77,2.8-2.07,2.83-4.11-1.34-2-4.39-2.78-5.69-4.84-2.87.93-7.27.73-11.41.71-2.37-.58-2-3.12-5.7-2.76-2.23.69-3,2.37-2.85,4.82-4.71-1.11-3,2.41-6.65,2.07-1.82-.28-.76-2.68-3.8-2.07-2.46,1.89-5.9,3.09-11.37,2.74C516,58,515.16,59.5,512,59.25c-1.34.87-.44,3.36-2.9,3.43-2,.43-6.57-1.12-5.63,1.38,0,2.53,5.52,1,4.72,4.15-3.5-.74-4.43-3.22-9.52-2.75,0,1.8.53,4-1.9,4.12-1.1-.82-1.1-2.46-.95-4.12-3.7-.61-1.53,3-5.68,2.05-1.49-1.23-1.3-3.68-5.7-2.77-2.68,2.9-6.31,5.09-9.53,7.58-6.15.33-5.69-1.29-12.32-1.39-1.54,3.4,4.91,1,3.79,4.15-4-.67-8.22.35-14.25,0-4.28,1.26-6.61,3.92-11.39,4.81V75.76c-2.36.11-4.58.12-5.69-.68.23,3.85,0,7.36-5.7,6.89.32,2.54-3.48,2.06-5.7,2.76-2.35.92,1.69,2.06-1,2.75-5.56.81-5.88-5-5.68-6.18,4.41,0,9.26-.3,12.34.67,2.54-4.32-5.34-6.54-11.41-6.89-1.48-1.67-4-2.57-7.56-2.76a14.5,14.5,0,0,0-4.77-4.12H397c-2.57,1.3-5,2.79-7.55,4.12-.44-1-1.25.29-2.9,0-3.39,2.61-7.64,4.55-11.37,6.91a14.78,14.78,0,0,1-5.7,7.55c-.18-.8-1.75-.57-2.85-.67v2.74c-6,.27-6.66,4.36-8.58,7.59,1.92,1.63,2.2,4.4,1.92,7.57.92,1.86,6,.74,7.62,2.08-2.08,2-3.81,2.79-3.81,4.83,2-.33,1.78,1,1.89,2.06-3.38,0-5.5,1.07-8.53,1.35-.88,1.24-2.69,1.77-1.93,4.15-5.39-1.17-2.12,4-6.64,3.44.15.82-.2,1.22-1,1.38-4.17-.3-5,1.87-7.6,2.78-2.29.37-4.84.58-4.69,2.75,1.22.94,4.11.67,6.6.69-.45,3.11,4.4,2.33,3.83,5.52-1,.92-1,2.56-2.88,2.75-4.42-1.64-8.35.62-14.22,0-1,2.27,2.11,7.5-1.94,7.59.7,2,2.89,3,1.94,6.19,4.41-.68,5.74.9,8.56,1.37,3.55-1.32,4-1.32,7.57,0,2.16-2.79,5.43-4.8,4.73-9.64,4.17-.88,3.47-5.28,8.55-5.5,4,1.72,5.66-.48,9.54-.69-2.69,2.68-1.33,7,0,10.33,6-.39,2.27-3.9,2.83-7.59-1,0-1.19-1.21,0-1.38v1.38c2,.21,1.89,1.84,2.88,2.77,4.6.07,7.46,1.4,8.51,4.14-.16,1.49-2.37,1.46-4.77,1.35-.12,2.41,3.36,2.17,4.77,3.46-.45-3.1,2.56-3.66,4.75-4.81.53-1.56-1.8-1-1.91-2.09,1.76-2.15,3.22,2.33,4.8,0C386.84,141,375,140.38,378,135c2.82,3.15,8.19,4.63,11.4,7.57.53.52,1.34,2.14,1.86,2.76.74.86,2.31,1.65,1.92,2.73v4.13c1.23.94,4.14.68,6.65.7,1.59-2.37-1.71-5.76.92-8.27h2.85c-1.06,2.71-.16,2.57-.91,5.49,2.12-.24,1.26,2,2.83,2.78,3.46,1.76,9.79,1.22,12.33,0,2.85,1-2.47,3.58,1.89,3.46,3.92.51.21-4.46,4.8-3.46V157c-2.36,1-1.37,4.47-3.36,5.74,1.66,3,5.6,10.28,6.15,11.41h0c2,1.51,3.76,4.38,2.86,5.59,4,2.88,6.62,6.67,10.47,9.65,2.27,2.87,1.91,7.17,6.67,9.63,6.62-1.6,11.27-4.66,19-5.53,1.33-.4.17-2.64,1.88-2.73,4.13-.48,5.85-2.67,9.52-3.47-.68-3,2.79-3.06,2.86-5.49-1.64-2.48-6.53-2.63-5.73-6.88-3.59-.34-6,.19-7.58,1.34-.79-2.6-4.28-3.3-3.82-6.88-3.07.18-2.74-2.12-4.71-2.75,1.41-.37,2.38-1,3.79-1.38,5.25,2.38,3.67,9.72,13.31,9,.38,1.33,2.69,1.26,1.88,3.45,4.6.34,5.27-2.13,9.52-2.06,1,.43,1,1.56,2.84,1.38,6.61-.72,8.25,2.27,12.29,3.42-1.57-.24-1.77.55-1.84,1.39,1,1.32,4.35.93,5.71,2.06-.5,2.17,1.7,2.42.89,4.82,2.89,2.29,4.12,5.76,5.72,9,2,1.32,4,2.64,4.8,4.81v4.16c1.18,1,4.1.66,6.61.68,1.26-4.4,4.66-7.19,3.79-13.09h3.82v-2.77c3.59,1,1.84-1.86,4.73-1.35-.27-3.17,3.47-3.47,4.76-5.52a21.93,21.93,0,0,1,8.54-2.75c2.16,1.89,2.17,5.33,5.73,6.22.33,1.62-1.75,1.46-1,3.4,1.07,2.25,7.56.52,9.56,2.06-1.28,1.46.47,2.05-1,4.16,2.48.71,4.23,2,4.75,4.13-.35,1.3-2.71,1.25-1.88,3.45.29,2.08,2.93,2.45,1.88,5.51,4.57,2.87,8.89,6,14.24,8.27.25-4.55-4.47-5.46-4.73-9.66-2.65-1.32-5.17-2.69-6.66-4.82.44-2.23-1.25-5.94,1.89-6.19,2.08,2,3.58,4.33,7.66,4.82a3.1,3.1,0,0,1,.89,2.75c9.23-.88,11.48-6.84,10.44-15.13-1.21-.7-3.49-.69-4.73-1.38,1.21-3-4.55-2.83-1.9-4.83s2.47,2.26,6.63,1.38c.69-3,5.51-2.92,10.46-2.76,3-3.32,7.06-5.87,8.54-10.34,1.55.2,1.63-.64,2.85-.66,1.59-2.8-.21-8,2.87-9.63-2-.63-2.87-2-2.87-4.17-1.6-.86-3.69-1.41-3.77-3.43-.42-1.65,1.75-1.51.92-3.44,2,.21,3-.14,2.85-1.41,2.72-.87-4.28-4.11,1.92-4.11,1.08,2.2,4.36,2.77,5.71,4.83-.93,3.64,1.79,4.68,4.77,5.52,5.69-3-.2-10.57,2.83-15.83,2-1.31,4.86-2,7.6-2.77,2.19-3.22,4.14-6.62,7.55-9,1.32-5.55-2.16-11.27,0-15.15-1.29,3.93,2.19,4.4,2.87,6.89.19,4.27.47,8.39,4.77,9.63,1.77-1.22-.78-1.74,0-4.11,2.59-.08,1.91,1.15,3.79,0,.17-2.19-2.52-2.34-1.88-4.85-3.43-.47-4.33-2.81-5.72-4.81-.35-2.48.34-5.76-2.82-6.2-2,.17-.26,3.06-2.84,2.77-1.61-5.07-8.06,3.17-10.5-2.06.66-1.61,2.41-2.37,3.83-3.44,1.09-2.2.71-5.43,3.8-6.23,2.18,1.7,1.73-1,4.69-.68,4.48.46,8.62,1.81,14.29,1.39-.33,1.17.73,1.31,1.87,1.37,1.25-1,4.15-.66,6.67-.7.48-2.17-1.69-2.41-.94-4.8,1.93-.2,1.85-1.86,3.79-2.07,1.95.21,1.87,1.87,3.8,2.07-.44-1.51,2.82-3.8,3.76-2.07-3,4.42-7.49,7.85-8.53,13.77.62,1.86,2.71,2.63,3.82,4.14.42,2.64,1.12,5.16,3.77,6.19,2.37-1.73,3.77-4.16,6.66-5.52-.87-3.41,3-2.9,1-5.49.24-1.39,2.51-1.36,2.81-2.75-1.4-.82-4.26-.62-3.81-2.76.93-6,7.17-4.74,14.26-4.14,1.37-1.06,1.24-3.21,2.85-4.12,5.54-.3,9.71-2.19,13.26-2.08,0-2.95-4.7-2.52-4.7-5.51,2.23-.22,1.77-2.37,4.7-2,5,.06,4.3,4.24,10.45,3.41C725,87.62,722.88,85.38,724.7,83.35ZM389.45,95.06A14.72,14.72,0,0,0,397,97.81v6.88c-2.13-.28.54-4-3.77-2.75-2.1,2.38-.77,7.22-3.78,9-3.17.21-5.5-.33-7.64,0-2.64.39-3.2,2-5.7,2.06.3-.84-2.72-2.38-2.81-.7-2.23-.2-2.23-1.88,0-2.07a8.82,8.82,0,0,1-3.81-6.89c4.74.29,2.91,9.7,11.39,6.89,2.13-2.8,3.6-6.1,5.68-9a13.35,13.35,0,0,0-1.91-4.14c.57-6.47,7.33-8.46,10.44-13.07,1.15-.09,1.73.15,1.91.7C396.23,89.45,388.57,89.15,389.45,95.06Zm10.43,4.81c-.06-2.08,3.35-1.7,5.69-2.06C405.64,99.94,402.71,99.86,399.88,99.87ZM407.47,73c-.5-.37.69-.89.94-.7C408.89,72.69,407.74,73.21,407.47,73Zm18,13.76c-.5-.35.67-.87,1-.67C426.93,86.46,425.77,87,425.51,86.78Zm70.28-11c-1.8-.28-4.08-.22-3.79-2.06-2.84-.14.89-2.87,0,0C492.67,74.8,496.63,73.55,495.79,75.76Zm58.86-12.37c-.46-.35.73-.92,1-.71C556.16,63.05,554.93,63.57,554.64,63.39Zm2.88-.71c-.48-.35.69-.87.94-.68C559,62.33,557.81,62.88,557.53,62.68Zm2.85-1.38c-.49-.35.69-.89,1-.7C561.82,61,560.64,61.48,560.37,61.3Zm42.77,86.78c1.33-1.31,2.1-3,5.71-2.73,0,1.06-.46,2.61.92,2.73C608.35,150.15,605.62,147.51,603.14,148.08Z"/><path class="cls-2" d="M435,118.82s-6.39-.47-9.58-1.86a8.47,8.47,0,0,0-8.9-2.32c.46-3.41-1.83-6.66-6.84-6.66s-3.88-7.9-.46-9.92,2.74-2.94,0-5-3.88-9.61-3.88-9.61l5.1-11.17h-.11a14.5,14.5,0,0,0-4.77-4.12H397c-2.57,1.3-5,2.79-7.55,4.12-.44-1-1.25.29-2.9,0-3.39,2.61-7.64,4.55-11.37,6.91a14.78,14.78,0,0,1-5.7,7.55c-.18-.8-1.75-.57-2.85-.67v2.74c-6,.27-6.66,4.36-8.58,7.59,1.92,1.63,2.2,4.4,1.92,7.57.92,1.86,6,.74,7.62,2.08-2.08,2-3.81,2.79-3.81,4.83,2-.33,1.78,1,1.89,2.06-3.38,0-5.5,1.07-8.53,1.35-.88,1.24-2.69,1.77-1.93,4.15-5.39-1.17-2.12,4-6.64,3.44.15.82-.2,1.22-1,1.38-4.17-.3-5,1.87-7.6,2.78-2.29.37-4.84.58-4.69,2.75,1.22.94,4.11.67,6.6.69-.45,3.11,4.4,2.33,3.83,5.52-1,.92-1,2.56-2.88,2.75-4.42-1.64-8.35.62-14.22,0-1,2.27,2.11,7.5-1.94,7.59.7,2,2.89,3,1.94,6.19,4.41-.68,5.74.9,8.56,1.37,3.55-1.32,4-1.32,7.57,0,2.16-2.79,5.43-4.8,4.73-9.64,4.17-.88,3.47-5.28,8.55-5.5,4,1.72,5.66-.48,9.54-.69-2.69,2.68-1.33,7,0,10.33,6-.39,2.27-3.9,2.83-7.59-1,0-1.19-1.21,0-1.38v1.38c2,.21,1.89,1.84,2.88,2.77,4.6.07,7.46,1.4,8.51,4.14-.16,1.49-2.37,1.46-4.77,1.35-.12,2.41,3.36,2.17,4.77,3.46-.45-3.1,2.56-3.66,4.75-4.81.53-1.56-1.8-1-1.91-2.09,1.76-2.15,3.22,2.33,4.8,0C386.84,141,375,140.38,378,135c2.82,3.15,8.19,4.63,11.4,7.57.53.52,1.34,2.14,1.86,2.76.74.86,2.31,1.65,1.92,2.73v4.13c1.23.94,4.14.68,6.65.7,1.59-2.37-1.71-5.76.92-8.27h2.85c-1.06,2.71-.16,2.57-.91,5.49,2.12-.24,1.26,2,2.83,2.78a9.52,9.52,0,0,0,2.34.78l1.32-17.28a164,164,0,0,0,22.13-9.84C435.24,122.07,435,118.82,435,118.82Zm-26.6-46.5c.48.37-.68.89-.94.7C407,72.65,408.16,72.14,408.42,72.32Zm-19,22.74A14.72,14.72,0,0,0,397,97.81v6.88c-2.13-.28.54-4-3.77-2.75-2.1,2.38-.77,7.22-3.78,9-3.17.21-5.5-.33-7.64,0-2.64.39-3.2,2-5.7,2.06.3-.84-2.72-2.38-2.81-.7-2.23-.2-2.23-1.88,0-2.07a8.82,8.82,0,0,1-3.81-6.89c4.74.29,2.91,9.7,11.39,6.89,2.13-2.8,3.6-6.1,5.68-9a13.35,13.35,0,0,0-1.91-4.14c.57-6.47,7.33-8.46,10.44-13.07,1.15-.09,1.73.15,1.91.7C396.23,89.45,388.57,89.15,389.45,95.06Zm10.43,4.81c-.06-2.08,3.35-1.7,5.69-2.06C405.64,99.94,402.71,99.86,399.88,99.87Z"/><path class="cls-6" d="M267.82,235.55c0-2.56-1-4.36-1.89-6.18-1.67-1.3-2.79.29-4.74.67-1.5-2.36-5.18-3.15-8.52-4.15H246c-1.7-2-8.06-.59-8.56-3.42-2.53,0-5.62.38-5.67-1.38,2.73-3.21-2.82-12-11.43-8.93-3-1.29-5.19-3.13-5.69-6.23-5-1-8.5-3-13.33-4.12-1.23.25-1.48,1.2-2.84,1.37-1.29-2.48-5.91-2.6-6.68-5.5-3-.62-2,1.76-3.78,2.07-2.21-.48-2.52-2.3-4.75-2.76-.86,1.2-1.73,2.38-4.74,2.06-1.45,2.85-5.22,4-7.55,6.18a29.7,29.7,0,0,1-3.06,3.87c.63,1.28,1.48,2.41,2,3.7,0,1.39-2.57.91-1.88,2.77.44,3.55-3,4.24-3.8,6.9-1.84,4.8,3.82,7.43,0,9.64,1.66,1.32,4.68,1.64,6.66,2.78-.79,1-3.05,1-4.75,1.35-.69,5.55,3.48,7.57,8.55,9,.38,1.64-1.76,1.48-1,3.43,3.55,2,4.81,5.67,10.47,6.2,1.73,3.08,4.73,5.26,4.71,9.64-1,.91-.89,2.54-1.85,3.43a2.89,2.89,0,0,1,1.85,2.76c-2.55,3.1,1.14,6.72,0,11-5.13,2.22-2.77,9.93-4.71,14.46,1.4,1.91,3.88-1.19,4.71.7.87,3.37-3.25,3.15-4.71,4.8-1.21,2.24,3,.54,1.87,2.78-1.81,1.67,1,3.33-1,5.49.93,4.68,4.12,7.09,2,11,2.8,1.61,2.5,5.49,5.67,6.89-.14,1.22,1.12,1.44.93,2.74a20.76,20.76,0,0,1,5.69,2.06c3.56-.42,9.8,1.14,10.42-1.38a9.27,9.27,0,0,1-5.68-2.76c.71-2.32-3.84-.87-2.85-3.43-.33-3,2.75-3.54,2.85-6.2,2.46-.08,3.69-1,3.82-2.74.48-2.44-3.35-1.68-2.85-4.14,2.55-2.12,6.45-8.93,0-9.64,6.36,1.17,6.14-2.4,7.58-4.8,5.11.24,6.86-1.95,10.47-2.77.63-3.21-1.52-4.42-1.92-6.87h7.61c.05-.69,1.17-.55,1.91-.71.53-1.68.81-3.53,3.8-3.44-.34-3.91,3.58-4.73,5.68-6.9v-4.8c1.81-1.22,3-2.92,4.74-4.15,4.53-1,4.53-1,8.55-2.06.43-4.42,5-8.25,1.9-13.09a3,3,0,0,0,1.9-3.45c1.53.22,1.65-.63,2.87-.67.35-2.28,2.79-3,3.81-4.81,2.52-1.8-.14-3.33,2.81-4.14C266.21,237.59,267.82,237.17,267.82,235.55Z"/><path class="cls-1" d="M164.31,209.38c1-.91.91-2.56,2.83-2.74a7,7,0,0,0,.19.88,28.34,28.34,0,0,1,3.53-3.64c-.39-1.32-1.66-2-3.72-2.07-2.44.73-3.52,2.48-6.68,2.75-2.22-3.36,1-6.55,0-11-1.72-2.39-8-1.48-11.36-2.73.94-3,3.7-4.66,2.85-9a36.11,36.11,0,0,1-9.48,0c-1.75,1.48-.91,4.84-3.81,5.49-12.71.5-4.76-11.81-7.6-17.21,3.36-.57,5.36-2.06,8.56-2.74,5.19-.32,6.41,2.21,11.37,2-.08-1-.2-1.93,1-2,4.57.16,10.69-.88,11.39,2-.41,4,2.1,5.86,6.64,6.22-1.14-3.55-.63-4.63,0-6.9-1.07-1-2.7-1.69-2.84-3.45,1.6-4.56,5.79-7.28,12.33-8.27.88-2,.88-2.1,0-4.12a8.44,8.44,0,0,0,4.8-.7c-2.37-3.78,3.09-2.94,1.87-7.57,3.16-.93,6.17-1.92,9.48-2.75.5-2.16-2.88-1.56-1.88-4.13,3.47-2.09,8.75-2.86,13.34-4.14.66,1.87-1.93,1.39-1.93,2.75,3.8-1.15,7.83-2.12,10.47-4.12-2.35-1.08-7.08-.43-6.67-3.45.53-1.91,3.65-1.92,5.71-2.75.38-1.67-1.75-1.49-1-3.46,4.62,2.27,10-3.33,13.3-2.07-2.2,3.69-6.72,5.67-8.54,9.63,3.52.5,4.09-1.17,7.57-.67.09,1.07-.42,2.62,1,2.76.94-1.71,3.64.94,6.65,0-.46-1.58-1.86-3.52,0-4.83-3.46-.24-4.35-2.36-5.71-4.14a41,41,0,0,0,0-9c-1.82-1.27-2.36,0-4.73,0,.1-3.26-4.39-3.25-4.75-6.18a3.15,3.15,0,0,0,.94-2.75c-3.66-1.51-2.33-6.61-7.62-6.9-.48,1,1.14,3.56-.94,3.46-2-.41-6.24.86-6.65-.71V94.37C199.1,96,200,92.76,195.63,92.3c-2.5,1.9-2-.8-4.72-.68-2.3-.28-2.05,1.25-4.76.68,1.42,6.86-2.58,10.72-1,15.84-1.62.2-4.73-1.95-5.71,0,1,2,3.17.44,3.82,1.37-3.32,1.5-3.39,5.34-4.74,8.28-2.17-2.11-2.6-5.49-3.78-8.28-1.94-1.37-1.88.32-3.8.69-.82-2-1.42-.75-3.83-.69a26.52,26.52,0,0,0-10.4-4.81c1.5-3.42-3.34-2.19-2.93-4.83,2.07.33,1.85-1,1.95-2.06,3.14-1.18,4.47-3.62,7.59-4.83,2.1-2.41,3.55-5.25,8.58-5.51.06-1.23-1.17-1.45-1-2.75A90.87,90.87,0,0,0,185.18,82a12.8,12.8,0,0,1,1-6.89c-1.12-1-3.59-1.08-4.73-2.06,3.77-.23,7,0,8.52,1.36,1.78-2.09,4.56.8,7.61,0-1.32,3.51,4.34,1.91,3.8,4.85-.93,5-11.27,3.28-12.35,8.24,1.57,1.64,5.54,1.51,9.51,1.37,5.9,1.93,8.23,6.45,16.17,6.9-2.13-3.57,1.59-3.47,1-7.57-.42-1.79-2.88-2.08-2.89-4.14,3.62.15,4.62,2.19,7.62,2.75-.27-1.79-.34-3.43,2.85-2.75-.67-2.12,1-2.51.92-4.14-2.56.49-1.8-1.41-2.84-2.06a60,60,0,0,1-8.55-2.08c.27-1.4,2.59-1.33,2.89-2.74-1.23-1.65-4.18-2-3.85-4.82h-8.52c.45-2.18-2.55-1.82-2.85-3.46-4-.4-6.28.5-9.51.71.56-4.27-7.5-2.92-8.56-.71.35-2.57-.76-4-3.79-4.14-4.9,2.19-10.61,9.23-4.74,13.1,1.39.38,4.88-.78,4.74.68-1,2-3,3.32-4.74,4.85-2.43-1.7,2-1.49,1-4.15-3.25-1.54-6.33-3.23-7.63-6.21-3.61.33-3-2.38-7.55-1.36.33,1.64-1.79,1.48-1,3.42,3.26.94,2.05,6.41,0,7.59a3,3,0,0,1-1.85-3.45c-4.78-.49-4.78,2.55-8.61,2.76-3.53-1.1-7.41-2-9.47-4.13,4.24-.52,5.72.92,9.47.68,2.1-1.43-.43-2,0-4.13,5.27-.78,7.36-3.86,12.33-4.8-1.72-2.17-1.37-3.79-1.87-5.51H144.38c-2.1,1.93-6.83,1.93-7.63,4.8-.48-1-1.39-1.71-1.88-2.74-2.51,0-5.92.63-4.73-2.06,7,1.05,15.42-2.51,21.83-4.15,0,3.17,8.13,2.38,9.5.69-.66-1.57-.86-3.5-1.87-4.84-5.6.54-8.35,3.19-14.28,3.46V51c-5.19-1.27-6.12,3.24-2.84,4.13-5.45.49-8.52-.76-13.27-.69,1.41,3.57-4.39,1.91-4.75,4.14,2.37.87,2.92-.35,3.77.69-.61.91-2,1.28-3.77,1.35-1.53-3.93-9.06-3.55-16.17-3.44-.5,3.34-2.92,5.23-5.71,6.9-.17,2.17,2.48,2.33,1.93,4.82,4.69.21,7-1.3,10.39-2.06-1.94,3.73,5.22.83,5.73,2.77.68,1.86-4.47-.5-3.82,1.35,0,3.73,10.39-.17,8.58,4.83,3.54-1.53,4.64-1.09,8.52,0h1c-.3-.83,2.74-2.37,2.85-.68-.17.82-1.51.77-2.85.68.25,1.74,4.07,3.91,0,4.84-1.12-.14-.77-1.27-1-2.07-8.43-.55-12.7-4.1-22.78-3.45-2.9-.64-3-3.34-6.63-3.44-.45,2-3,2.43-5.72,2.75a3.61,3.61,0,0,0-.92-3.45c-3.67.16-3.67,2.93-7.6,2.77-3.61.53-4.54-.84-7.62-.68-1.05.17-.62,1.36-1.9,1.36-.92,0-.77-.84-.92-1.36-2.28.22-3.6,1.08-6.69.68-7.57-3.43-22.2-1.79-30.35-4.83-7.1,2.25-16.32,2.89-20.9,3.45C19.69,75,23.58,75,24.68,77.16c3.63-.33,5.94.28,6.67,2.08-3.85-1-3.41,1.22-4.77,2.06-1.73-.61-2.58-1.78-4.72-2.06C18.25,81.89,9.57,80.9,6.64,84c5.24-.12,7.1,2.21,7.61,5.55,5-1.32,8.82.18,13.31-.73C22.9,94.91,3.15,90,4.72,100.56c3.17,1.66,3.91,1.89,2.87,5.52,1.71.08,2-.85,3.77-.69.08,1.1-.44,2.62,1,2.75,1.34-2.19.44,2.82,2.87,2.06,1.17-2.68,5.41-3.29,8.53-1.37-4.1,2.32-5.58,6.5-10.41,8.26-4.36,1-5.85,4-11.39,4.12.76,2.21-1.52,2.13-1.92,3.45,4.35.39,5.92-1.23,10.43-.69,1.06-2,4-2.56,7.62-2.77,3.57-4.73,9.75-7.6,15.2-11h1.92c1-.64.28-2.52,2.81-2.06.07-.41.16-.81.94-.67-.05.41-.11.81-.94.67.41,3.08-2.54,3.65-3.79,5.51,7.81.63,9.7-3,16.16-3.45.43-3.09-.5-5.17-1-7.58,4.36.65,4.61-1.71,8.5-1.38a23.79,23.79,0,0,1,6.69,4.84c6,1.39,11.2,3.38,10.44,9.64,4.6-.44.22-3.81,3.84-4.14.21,5.83-.3,12.11,2.8,15.85-2.86,1.79-1,2.55,0,4.83,0,1.35-2.58.85-1.85,2.76-.46,7.55-1.09,12.61,0,20,2.52,1.14,4.18,2.92,6.62,4.14,2.62,2.66,2.43,7.39,5.69,9.63-1.1.12-.8,1.25-1,2.07,4,1,4.88,4.26,6.69,6.89,2.89-.52,2.74,1.2,5.63.67.14-2.93-1.83-2.29-1.85-6.16-.54,0-1.07-.59,0-.7v.7c2-.35,1.77,1,1.85,2a29.62,29.62,0,0,1,7.64,5.51c-.69,4.86,1.83,7.4,3.77,10.34,7.85,1.41,12.47,4.94,21.86,3.42a26.12,26.12,0,0,0,3.82,4.84c3.58-.53,4.55.84,7.56.69.9,1.66,2.79,2.57,4.75,3.43v2.07C158.37,205,159.49,208.52,164.31,209.38ZM222.26,115c.47.35-.69.86-1,.67C220.81,115.36,222,114.82,222.26,115ZM149.1,61.3c2.92.67-1,1.85-1,2.76C145.26,63.39,148.58,61.73,149.1,61.3Zm-3.79,3.45c3-.32,3.36,1.27,6.65.71,0,2.73-3.72,2.82-6.65,3.42Zm-29.42,1.41c-.51-.38.62-.91.91-.7C117.29,65.8,116.14,66.32,115.89,66.15Zm-20,99.15a.46.46,0,0,1,.92,0C96.7,166.1,95.93,165.69,95.93,165.3Zm.92,1.38c2.26.23,2.16,2.14,3.81,2.75C99.46,171.17,96,168.69,96.85,166.68Z"/><path class="cls-7" d="M588,203l-.25-1.47,70.94-15.12a10.79,10.79,0,0,0,.18,3.78,14.06,14.06,0,0,0,1.08,3.63Z"/><polygon class="cls-8" points="589.32 203.06 587.84 202.88 601.43 68.7 608.89 69.63 589.32 203.06"/><polyline class="cls-9" points="601.13 70.5 681.02 80.4 659.71 105.98 674.13 135.98 595.73 126.26"/><polygon class="cls-10" points="643 118.99 633.01 109.72 621.08 116.3 626.71 103.9 616.86 94.63 630.67 96.33 636.17 83.92 638.61 97.32 652.33 98.97 640.61 105.63 643 118.99"/><path class="cls-11" d="M379,141l-.25-1.47,70.94-15.12a10.79,10.79,0,0,0,.18,3.78,14.06,14.06,0,0,0,1.08,3.63Z"/><polygon class="cls-8" points="380.35 140.41 378.87 140.57 361.33 6.86 368.81 6.04 380.35 140.41"/><polygon class="cls-12" points="441.48 0 426.61 29.78 447.52 55.67 419.19 58.75 413.15 3.07 441.48 0"/><polygon class="cls-13" points="384.32 6.2 390.36 61.87 368.98 64.19 361.45 8.68 384.32 6.2"/><rect class="cls-14" x="387.25" y="4.47" width="29" height="56" transform="translate(-1.16 43.51) rotate(-6.19)"/><path class="cls-15" d="M567,192l-.25-1.47,70.94-15.12a10.79,10.79,0,0,0,.18,3.78,14.06,14.06,0,0,0,1.08,3.63Z"/><polygon class="cls-16" points="557.08 115.76 552.36 116.59 550.56 107.77 555.73 106.86 622.9 95.06 630.16 102.92 557.08 115.76"/><polygon class="cls-14" points="550.56 107.77 555.73 106.86 622.9 95.06 615.25 86.76 554.29 97.46 548.66 98.45 550.56 107.77"/><polygon class="cls-17" points="548.66 98.45 554.29 97.46 615.25 86.76 607.59 78.46 611.97 68.04 551.42 78.68 544.91 79.82 546.6 88.25 548.66 98.45"/><polygon class="cls-16" points="543.06 70.5 550 69.28 616.33 57.63 620.48 47.77 548.63 60.38 541.31 61.67 543.06 70.5"/><polygon class="cls-14" points="541.31 61.67 543.06 70.5 550 69.28 616.33 57.63 611.97 68.04 551.42 78.68 544.91 79.82 546.6 88.25 544.88 79.83 542.98 70.51 541.19 61.69 541.31 61.67"/><polygon class="cls-8" points="546.6 88.25 548.66 98.45 550.56 107.77 552.36 116.59 557.08 115.76 568.71 191.89 567.24 192.15 550.47 107.78 548.62 98.46 546.6 88.25"/><polygon class="cls-8" points="548.36 58.57 548.63 60.38 541.31 61.67 540.95 59.88 548.36 58.57"/><path class="cls-18" d="M408,144l-.25-1.47,70.94-15.12a10.79,10.79,0,0,0,.18,3.78,14.06,14.06,0,0,0,1.08,3.63Z"/><polygon class="cls-14" points="433.19 13.29 433.08 13.26 429.99 29.67 428.07 39.85 430.03 29.68 436.57 31.13 497.39 44.67 511.76 30.27 440.47 14.86 433.19 13.29"/><polygon class="cls-19" points="426.08 50.4 431.65 51.65 492.51 65.19 488.25 53.84 497.39 44.67 436.57 31.13 430.03 29.68 428.07 39.85 426.08 50.4"/><polygon class="cls-8" points="440.89 13.09 440.47 14.86 433.19 13.29 433.54 11.5 440.89 13.09"/><polygon class="cls-8" points="428.07 39.85 426.08 50.4 422.71 68.31 427.41 69.33 409.46 144.23 408 143.91 426.03 50.39 428.07 39.85"/><polygon class="cls-20" points="427.41 69.33 422.71 68.31 426.08 50.4 431.65 51.65 492.51 65.19 499.93 85.01 427.41 69.33"/></g></g></svg>