<svg id="Layer_1" data-name="Layer 1" xmlns="http://www.w3.org/2000/svg" xmlns:xlink="http://www.w3.org/1999/xlink" viewBox="0 0 1146 332.77"><defs><style>.cls-1{fill:#107a43;}.cls-2,.cls-6{fill:#fff;}.cls-3{fill:#259955;}.cls-3,.cls-4,.cls-5,.cls-6,.cls-8{fill-rule:evenodd;}.cls-4,.cls-7{fill:#d9d9d9;}.cls-8{fill:#4cc47e;}.cls-9{fill:#eb7e7e;}.cls-10{fill:#b3d887;}.cls-11{fill:#6dc0ec;}.cls-12{fill:#fedb77;}.cls-13{fill:#eaad5c;}.cls-14{fill:#40d3b7;}.cls-15{fill:url(#linear-gradient);}.cls-16{fill:#9a8479;}.cls-17{fill:#da251d;}.cls-18{fill:#ff0;}.cls-19{fill:url(#linear-gradient-2);}.cls-20{fill:#009246;}.cls-21{fill:#ce2b37;}.cls-22{fill:url(#linear-gradient-3);}.cls-23{fill:#ed1c24;}.cls-24{fill:#241d4f;}.cls-25{fill:url(#linear-gradient-4);}.cls-26{fill:#00966e;}.cls-27{fill:#d62612;}</style><linearGradient id="linear-gradient" x1="197.97" y1="124.45" x2="263.33" y2="91.78" gradientTransform="translate(115.21 -98.22) rotate(17.48)" gradientUnits="userSpaceOnUse"><stop offset="0" stop-color="#6d6e70"/><stop offset="0.03" stop-color="#757678" stop-opacity="0.94"/><stop offset="0.23" stop-color="#a2a2a4" stop-opacity="0.6"/><stop offset="0.43" stop-color="#c4c5c6" stop-opacity="0.34"/><stop offset="0.63" stop-color="#ddddde" stop-opacity="0.15"/><stop offset="0.82" stop-color="#ececed" stop-opacity="0.04"/><stop offset="1" stop-color="#f1f1f2" stop-opacity="0"/></linearGradient><linearGradient id="linear-gradient-2" x1="-20.01" y1="128.08" x2="45.34" y2="95.4" xlink:href="#linear-gradient"/><linearGradient id="linear-gradient-3" x1="174.64" y1="120.27" x2="239.99" y2="87.59" xlink:href="#linear-gradient"/><linearGradient id="linear-gradient-4" x1="8.56" y1="122.23" x2="73.91" y2="89.55" xlink:href="#linear-gradient"/></defs><title>map</title><path id="DiaVita_Club_копия" data-name="DiaVita Club копия" class="cls-1" d="M618.11,86.59a1.45,1.45,0,0,0,1,.41h8.66q6.72,0,9.78-2.68t3.06-8.4q0-5.74-3.06-8.44t-9.78-2.69h-8.66a1.41,1.41,0,0,0-1,.43,1.47,1.47,0,0,0-.43,1.07V85.6A1.35,1.35,0,0,0,618.11,86.59Zm5.4-17.42h4.12q4.16,0,5.66,1.52t1.5,5.2q0,3.68-1.5,5.2t-5.66,1.52h-4.12ZM644,68.08a1.74,1.74,0,0,0,1.3.47h1.92a1.75,1.75,0,0,0,1.31-.47,1.78,1.78,0,0,0,.47-1.3v-.53a1.65,1.65,0,0,0-1.5-1.78h-2.21a1.75,1.75,0,0,0-1.3.47,1.78,1.78,0,0,0-.47,1.3v.53a1.74,1.74,0,0,0,.47,1.3Zm-.14,18.62a.91.91,0,0,0,.68.26H648a.91.91,0,0,0,.67-.26.9.9,0,0,0,.28-.68V71.36a.94.94,0,0,0-.88-.94h-3.53a.94.94,0,0,0-.94.88V86.05a.94.94,0,0,0,.27.68Zm15.3.58a9.43,9.43,0,0,0,5.63-1.74V86a.94.94,0,0,0,.26.67.9.9,0,0,0,.68.27h3a.9.9,0,0,0,.94-.86s0-.05,0-.08V76.47a5.94,5.94,0,0,0-2.23-5.11,9.67,9.67,0,0,0-5.92-1.65q-8.44,0-8.44,4.45a.94.94,0,0,0,.94.94h2.34a2.34,2.34,0,0,0,1.88-.94,3.26,3.26,0,0,1,2.66-.94,3.91,3.91,0,0,1,2.66.71,3.38,3.38,0,0,1,.76,2.52h-5.1a9.23,9.23,0,0,0-5.29,1.41,4.54,4.54,0,0,0-2.05,4,4.61,4.61,0,0,0,2.05,4,9,9,0,0,0,5.24,1.41Zm.41-7.33h4.73v2.42a8.48,8.48,0,0,1-4.6,1.41,2.81,2.81,0,0,1-1.84-.54,1.72,1.72,0,0,1-.65-1.38,1.7,1.7,0,0,1,.63-1.36,2.57,2.57,0,0,1,1.71-.53Zm18.17,5.44A2.34,2.34,0,0,0,679.95,87h2.23a2.34,2.34,0,0,0,2.21-1.58l8.91-19.33a1.14,1.14,0,0,0,.08-.41,1,1,0,0,0-.29-.52,1,1,0,0,0-.83-.34h-3.4c-.81,0-1.41.51-1.84,1.48l-6,13.35-6-13.36a2,2,0,0,0-1.84-1.48H669.8a1,1,0,0,0-.82.34,1,1,0,0,0-.29.55.87.87,0,0,0,.1.41ZM696.1,68a1.74,1.74,0,0,0,1.3.47h1.92a1.75,1.75,0,0,0,1.31-.47,1.78,1.78,0,0,0,.47-1.3v-.5a1.65,1.65,0,0,0-1.5-1.78H697.4a1.75,1.75,0,0,0-1.3.47,1.78,1.78,0,0,0-.47,1.3v.53a1.74,1.74,0,0,0,.47,1.3Zm-.2,18.66a.94.94,0,0,0,.68.28h3.47a.91.91,0,0,0,.67-.26A.9.9,0,0,0,701,86V71.36a.94.94,0,0,0-.26-.67.91.91,0,0,0-.68-.28h-3.47a.94.94,0,0,0-.94.88V86.05a.94.94,0,0,0,.26.68ZM711,82.77a3.63,3.63,0,0,1-.75-2.44V74.66h4.32a.94.94,0,0,0,.67-.26.9.9,0,0,0,.27-.68V71.87a.9.9,0,0,0-.27-.68.94.94,0,0,0-.67-.26h-4.32V65.77a.94.94,0,0,0-.91-1h-3.5a.94.94,0,0,0-.94.94V80.37q0,7,6.65,7a22.12,22.12,0,0,0,4.12-.31,1.2,1.2,0,0,0,.69-.33.86.86,0,0,0,.27-.61V84.43a.91.91,0,0,0-.88-.94h-.62l-2.12.18a2.5,2.5,0,0,1-2-.91Zm14.36,4.53A9.41,9.41,0,0,0,731,85.56V86a.94.94,0,0,0,.27.67.89.89,0,0,0,.68.27h3a.9.9,0,0,0,.94-.85.89.89,0,0,0,0-.09V76.47a6,6,0,0,0-2.23-5.11,9.66,9.66,0,0,0-5.92-1.65q-8.44,0-8.44,4.45a.94.94,0,0,0,.9.94h2.37a2.34,2.34,0,0,0,1.88-.94,3.27,3.27,0,0,1,2.66-.94,3.89,3.89,0,0,1,2.65.71,3.38,3.38,0,0,1,.76,2.52H725.4a9.25,9.25,0,0,0-5.29,1.41,4.55,4.55,0,0,0-2,4,4.62,4.62,0,0,0,2,4,9,9,0,0,0,5.25,1.41Zm.41-7.33h4.76v2.42a8.49,8.49,0,0,1-4.6,1.41,2.81,2.81,0,0,1-1.85-.55,1.72,1.72,0,0,1-.65-1.38A1.68,1.68,0,0,1,724,80.5a2.56,2.56,0,0,1,1.73-.53Zm35.55,7.16h3.75a10.84,10.84,0,0,0,6.26-1.82,5.71,5.71,0,0,0,2.69-5,1.88,1.88,0,0,0-.42-1.18,1.41,1.41,0,0,0-1.16-.54h-1.84a2.46,2.46,0,0,0-2.23,1.72,3.9,3.9,0,0,1-3.79,2.45h-3.09c-2.26,0-3.79-.47-4.6-1.46s-1.18-2.77-1.18-5.37.4-4.42,1.21-5.39,2.34-1.45,4.6-1.45h2.76a3.92,3.92,0,0,1,3.81,2.45,2.44,2.44,0,0,0,2.21,1.7h1.82a1.77,1.77,0,0,0,1.06-.4,1.51,1.51,0,0,0,.54-1.3,5.74,5.74,0,0,0-2.7-5,10.85,10.85,0,0,0-6.22-1.85h-3.46q-5.74,0-8.62,2.75t-2.87,8.5q0,5.74,2.87,8.48t8.62,2.74Zm15.65-.4a.89.89,0,0,0,.67.27h3.47a.89.89,0,0,0,.67-.27.91.91,0,0,0,.28-.67V65.75a.94.94,0,0,0-.28-.69.9.9,0,0,0-.67-.28h-3.47a.9.9,0,0,0-.67.28.94.94,0,0,0-.28.69v20.3a.91.91,0,0,0,.27.67Zm10.79-1.26a6.73,6.73,0,0,0,4.91,1.84,8.68,8.68,0,0,0,5.7-2.24v1a.91.91,0,0,0,.28.67.89.89,0,0,0,.66.27h3.45a.94.94,0,0,0,.94-.89V71a.94.94,0,0,0-.94-.94h-3.43a.89.89,0,0,0-.67.27.94.94,0,0,0-.28.69V81.38q-2.22,2.22-4.16,2.23-2.94,0-2.94-3.71V71a.94.94,0,0,0-.28-.69.89.89,0,0,0-.67-.27h-3.47a.89.89,0,0,0-.67.27.94.94,0,0,0-.28.69v8.87q0,3.78,1.88,5.63Zm19.11.1a12.62,12.62,0,0,0,3.65,1.23,22.78,22.78,0,0,0,4.65.5q9.85,0,9.85-8.78,0-4.28-2.25-6.57a8.07,8.07,0,0,0-6.06-2.27,15.17,15.17,0,0,0-4.48.79V65.76a.94.94,0,0,0-.91-1h-3.5a.9.9,0,0,0-.67.28.94.94,0,0,0-.28.69V85.57Zm8.72-12.11a3.54,3.54,0,0,1,3,1.2,6.52,6.52,0,0,1,.89,3.87,6.42,6.42,0,0,1-.91,3.85,3.48,3.48,0,0,1-3,1.19,13.41,13.41,0,0,1-3.39-.35V74.09a11.68,11.68,0,0,1,3.36-.62h0Z" transform="translate(321 121.61)"/><path class="cls-2" d="M527,82.66c-1.54-2.63,3.79-8,6.64-14.53,1.89-4.35.41-4,2.49-10.38,1.68-5.16,3.32-10.2,7.89-14.53A26.63,26.63,0,0,1,555.61,37c5-1.39,8.88-1.13,12.87-.83,7.2.54,13.63,1,19.51,5.4s8.24,10.58,9.55,14.11c3.67,9.9-.59,11.41,3.32,21.17,1.78,4.44,4.46,8.61,2.91,13.28a13.63,13.63,0,0,1-2.08,3.74c-2.06,2.83-4.25,4.17-8.3,6.64-10.58,6.46-11.69,7.17-14.53,8.3a31.46,31.46,0,0,1-6.23,2.08c-6,1.14-10.87-.92-18.26-4.15-6.78-3-15.68-7-22.83-16.19-1.35-1.74-2.08-2.91-2.08-2.91-.48-1-.57-1.58-1.25-2.91A20.88,20.88,0,0,0,527,82.66Z" transform="translate(321 121.61)"/><path class="cls-3" d="M519.41,94.56a3.05,3.05,0,0,0-.42-1,1.23,1.23,0,0,0-.85-.58H518l-.05,0a.43.43,0,0,0-.2.25,1.48,1.48,0,0,0-.06.72,3.09,3.09,0,0,0,.15.63h1.57Z" transform="translate(321 121.61)"/><path class="cls-4" d="M557.15,63c-1-1.17-1.72,6-2.54,5.22-1.1-1.1,1.26-3.8-.65-4s1.39-2.43-1.49-1.9c-16,2.94-15.92,14.2-8.54,18.25a1.63,1.63,0,0,1,.6-1.37c.59.65,2.47,3.11,3.67,3.18,1.38-2.51,6.49-1.67,8.16-4.2a5.42,5.42,0,0,1-.59,1.76,11.42,11.42,0,0,0,3.4-2.5,12.49,12.49,0,0,0,1.62-2.06c.64-1,1.06-1.13,1.11-2.16,2.65,2,2.42,6.75.06,9a27,27,0,0,1,4.92-.6H567a27,27,0,0,1,4.92.6c-2.36-2.21-2.6-7,.06-9a6.77,6.77,0,0,0,1.11,3.15,12.49,12.49,0,0,0,1.62,2.06,11.41,11.41,0,0,0,3.4,2.5,5.42,5.42,0,0,1-.58-1.76c1.67,2.53,5.59,3.71,7,6.22,1.2-.07,3.87-2.81,4.46-3.46a1.63,1.63,0,0,1,.6,1.37c7.38-4.05,7.88-18-8.14-21-2.88-.53.53,1.65-1.49,1.9s.45,2.93-.65,4c-.82.82-1.52-6.39-2.54-5.22-1.61-.22-3.86,1.15-5.31,2.79a5.65,5.65,0,0,1,1.43-4.73,2.84,2.84,0,0,0-3.66,2A6.22,6.22,0,0,0,567,58.66v-.14l-.07.07-.07-.07v.14A6.22,6.22,0,0,0,564.69,63a2.84,2.84,0,0,0-3.66-2,5.65,5.65,0,0,1,1.43,4.73c-1.45-1.64-3.7-3-5.31-2.79Z" transform="translate(321 121.61)"/><path class="cls-5" d="M592.09,71.73c.81,4.68-3.22,10.62-8,10.62-3.32,0-8.51-6-10.27-7.55-1.95-1.76-2.73-3.86-2.1-6.11,1.41-5,3.76-7,6.7-6.9,5,.11,12.78,5,13.64,10Z" transform="translate(321 121.61)"/><path class="cls-6" d="M581.23,74.94c-1.8.34-3.67-.79-3.94-2.2-.15-.82,6-2.66,6.45-1.54.49,1.35-.7,3.4-2.51,3.74Z" transform="translate(321 121.61)"/><path class="cls-5" d="M533.79,58.85c.69-3-7.77-4.77-8.19-13.49-.41-8.47,4.35-12.52,8.92-16.39.36.78.73.81,1.1.7.59-.18.35-1.32,1.67-2.68.42,1.13.83,2.76,1.75,2.42.35-.13.19-.77.67-1.42a5.16,5.16,0,0,0,1.72,1.46c1.91,1.08,3.28,4.05,3.45,4.3,2.27,3.31,4.24,4.19,9.41,2.31a36.84,36.84,0,0,1,12.6-2.21H567a36.84,36.84,0,0,1,12.6,2.21c5.17,1.89,7.14,1,9.41-2.31.17-.25,1.54-3.23,3.45-4.3A5.16,5.16,0,0,0,594.17,28c.47.65.31,1.29.67,1.42.92.34,1.33-1.3,1.75-2.42,1.31,1.37,1.08,2.51,1.67,2.68.37.11.74.08,1.1-.7,4.57,3.87,9.33,7.92,8.92,16.39-.42,8.72-8.88,10.45-8.19,13.49q.3,1.44.46,2.93C602,69.05,601.8,84,609.68,89.15a3.29,3.29,0,0,1-2.32,1.16,5,5,0,0,1-.61,5.51c-.32-.57-.68-.9-.82-.91-.67,5-11.39,9.53-15.25,11.55-9.8,5.13-11.56,8.59-23.69,8.61h-.12c-13.88,0-17.22-6.53-25.1-11.09a45.87,45.87,0,0,0-8.47-4.3c-3-1.18-8-4.31-7.88-7.88-.14,0-.5.23-.82.8a5,5,0,0,1-.61-5.51,3.25,3.25,0,0,1-2.4-1c4.09-2.65,10.74-19.14,11.75-24.28q.16-1.5.46-2.93ZM567,37.07h-.06c-15.36,0-28.78,10.45-30.93,25.75-1.35,6.92-3.4,11.49-6.31,17.64-2.64,5.59-.91,13.9,5.49,16.41,3.74,1.47,4.68,2.77,8.25,4.84,7.28,4.21,11.26,10.56,23.53,10.58s14.74-5.1,22-9.31c7.78-4.5,18.35-7.33,12.72-19.27-2.92-6.16-2.44-14-3.79-20.88-2.15-15.3-15.56-25.74-30.93-25.75Z" transform="translate(321 121.61)"/><path class="cls-5" d="M541.78,71.73C541,76.41,544,78.91,550.21,79c4.72.3,8.05-2.59,9.82-4.18,1.95-1.76,3.64-4.34,2.1-6.11-3.24-3.73-4.82-6.55-7.76-6.49-5,.11-11.71,4.56-12.58,9.54Z" transform="translate(321 121.61)"/><path class="cls-6" d="M552.83,73.17c1.77.48,3.36.66,3.72-.4.21-.62-5.84-2.78-6.31-2-.57,1,.82,1.89,2.6,2.38Z" transform="translate(321 121.61)"/><path class="cls-7" d="M542.63,52.21c1-2.12,6-3.32,10.21-3.26a8.09,8.09,0,0,0-2.65-2.79c2.53-1.35,7.94-.19,10,.77a5.7,5.7,0,0,0-1.74-3.55c2.09-.22,5,.47,8.29,2.59a.33.33,0,0,0,.29,0c3.26-2.12,6.2-2.81,8.29-2.59a5.71,5.71,0,0,0-1.74,3.55c2.1-1,7.51-2.11,10-.77A8.09,8.09,0,0,0,581,49c4.2-.06,9.21,1.13,10.21,3.26A4.52,4.52,0,0,0,588,53c3.54.92,8.12,6,7.9,8.31a3.77,3.77,0,0,0-2-.13c3.2,2.9.53,14.93,5.21,22.47a8.57,8.57,0,0,1,.92,8l0,0,0,.1-.08.15a4.44,4.44,0,0,0-3.35-3A6.21,6.21,0,0,1,597,94v0a6.93,6.93,0,0,0-1.71-1.5c.85,5.92-4.49,7-9.87,8.16,0,0,0-.07,0-.06a2,2,0,0,1-1.53-.08,1.13,1.13,0,0,1,1.13-.61,2.37,2.37,0,0,0-2.31-.79,1.56,1.56,0,0,1,1-.76c-6-2-12.63,2.84-16-4.65-.88-2-1.1-5.93,4.52-7,2.39-.47,4.42-2.64,2.56-3.32-2.8-1-4.51-1-7.75-1h0c-3.24,0-5,0-7.75,1-1.86.68.17,2.85,2.56,3.32,5.62,1.09,5.12,5,4.52,7-1.35,4.63-6.87,4.46-11,1.63a25.36,25.36,0,0,1-6.71-7.5c-1.18-1.74-4.23-2.58-6-.78a2.15,2.15,0,0,1,2.17,1.18,5.93,5.93,0,0,0-3.64,1,3.49,3.49,0,0,1,2.15.88c-2.1.06-2.06,3-1.12,3.74,3.32,2.1,6.65,5.38,10,7.92-4.19-2.18-8.51-3.43-12.53-5-1.25-.49-4-4.39-3.57-7.59a6.93,6.93,0,0,0-1.71,1.5v0l0-.12v0l0-.12v0l0-.11v0l0-.12v0l0-.12v0l0-.12v0l0-.11v0l0-.11V89s0-.08,0-.12v0s0-.08,0-.13v0s0-.08,0-.13v0s0-.08,0-.12v-.35l0-.14v0l0-.14v0l0-.13v0l0-.14v0l0-.14v0l0-.14v0l0-.15v0l0-.15h0l.05-.15h0l.06-.16h0l.07-.16h0l.07-.15v0l.07-.15h0l.08-.16h0l.09-.16a4.44,4.44,0,0,0-3.35,3l-.08-.15,0-.1,0,0a8.57,8.57,0,0,1,.92-8C537,72.81,536.84,64.1,540,61.2a3.77,3.77,0,0,0-2,.13c-.22-2.33,4.36-7.39,7.9-8.31a4.52,4.52,0,0,0-3.27-.8Zm24,53.24a68.17,68.17,0,0,1,8.15-2.25l-2.72-3.37a11.79,11.79,0,0,1-5.11-1.66,11.78,11.78,0,0,1-5.11,1.66l4.8,5.62ZM567,37.07h-.12c0-1.85,0-1.39,0,0-15.35,0-28.75,10.46-30.9,25.75-1.14,5.85-3,9.77-5.08,14.83a27.52,27.52,0,0,1-4.56,7.54,1.4,1.4,0,0,0,1.25.09,4.46,4.46,0,0,0-.93,3.44,2.71,2.71,0,0,1,1.75-.62,11.14,11.14,0,0,0,6.74,8.69c3.74,1.47,5.44,3.31,9,5.38,7.27,4.2,10,10.09,22.71,10.12H567c12.68,0,14.89-4.18,22.16-8.39,2.57-1.48,10.08-5.33,11.46-7.27a8.26,8.26,0,0,0,2.54-5.56,3.9,3.9,0,0,1,1.51,1,4.46,4.46,0,0,0-.93-3.44,1.4,1.4,0,0,0,1.25-.09c-6.38-6.75-5.24-16.16-7.1-25.7-2.15-15.29-15.55-25.73-30.9-25.75Z" transform="translate(321 121.61)"/><path class="cls-5" d="M545.32,90.24h0a6.74,6.74,0,0,0-.57.42,14,14,0,0,0-2.1,2.65c-.2.31.33,0,.64.22a.67.67,0,0,0,.62,0c.93,3.68,6.44,7.87,12.43,10.16a28.46,28.46,0,0,0,10.54,1.64h0c2.82.09,11-1.25,13.28-4.13h0a7.82,7.82,0,0,0,1.19.26c.87.1,1.38-.18.14-.94a8.72,8.72,0,0,0-2.11-1,14,14,0,0,0-3.37-.22h0a10.08,10.08,0,0,1-4.76-.36c-2.42-.71-3.65-2.8-3.88-5.54.16-6,8.44-5,8.44-8.61,0-3-6.35-3.39-8.78-3.41h-.12c-2.43,0-8.78.43-8.78,3.41,0,3.65,8.29,2.63,8.44,8.61-.18,3.76-2.36,5.15-5.2,5.16-6,0-10.27-3.76-14.11-7.73l-.28-.28a5.93,5.93,0,0,0,.47-.47c.58-.66.63-1.24-.69-.65a10.39,10.39,0,0,0-1.4.74Z" transform="translate(321 121.61)"/><path class="cls-6" d="M559.56,100.41a5.21,5.21,0,0,1-2.38-.42,3.67,3.67,0,0,0,.11.57c.41,1.75.94,2.16,1.28,2.19s.64-.82.79-1.63a3.87,3.87,0,0,1,.19-.7Z" transform="translate(321 121.61)"/><path class="cls-4" d="M557.63,101.62c-.1-1,1.66-.85,1.58.2a13,13,0,0,1,.35-1.41,6,6,0,0,1-2.38-.42,3.67,3.67,0,0,0,.11.57,6.79,6.79,0,0,0,.34,1.07Z" transform="translate(321 121.61)"/><path class="cls-8" d="M546.85,93l-28.65-.56A5.19,5.19,0,0,1,520,95.1c0,.11,0,.22,0,.32-.07,2.39-2.07,6.92.24,10.71,1.17,1.92,3.41,2.79,4.44,2,1.9-1.41,2.11-4.87-1.1-8.14l29.31-2.88A28,28,0,0,1,546.85,93Z" transform="translate(321 121.61)"/><path class="cls-3" d="M519.88,101.44c8.4-.65,16.54-3.25,25-3.52l6.26-1.15a13.68,13.68,0,0,1-2.47-2.08l-2.21-1.39-9.68-.69c2.65.42,7.32,1.19,6.5,2.52-1.44,2.31-15.23,1.11-22.85,1.66l-.52,4.64Z" transform="translate(321 121.61)"/><path class="cls-3" d="M544.2,98c.62,2.32-.28,4.14-4.41,4.42s-6.15-.66-6.72-3.62c-.69-3.55,1.38-3.37,4.28-3.38,4.28,0,6.33.62,6.85,2.59Z" transform="translate(321 121.61)"/><path class="cls-3" d="M552.93,97.13,523.62,100c3.09,3.39,2.63,8.63,1.1,9l16-5.6,6.24-1.67,7.93-1q1.27-1.68-2-3.62Z" transform="translate(321 121.61)"/><path d="M553.17,97.93l-27.48,2.9c1.74,3,1.5,5.83.76,6.92a90.24,90.24,0,0,1,20.19-6.83c2.52-.48,5.29-.36,7.94-.65a1,1,0,0,0,0-1h0a3.11,3.11,0,0,0-1.39-1.34Zm-10.32-.34a4.79,4.79,0,0,0-1.37-1.19,8,8,0,0,0-4.13-1,4.3,4.3,0,0,0-3.1,1,2.82,2.82,0,0,0-.64,2.06l9.24-.91Zm-10.58,1a4.14,4.14,0,0,1,1-3.1,5.47,5.47,0,0,1,4.08-1.43,9.26,9.26,0,0,1,4.82,1.15,5.94,5.94,0,0,1,2.19,2.2l6.75-.66h0q-.59-.36-1.23-.8c-2.55-1.75-1.71-2.1-4.7-2.07-1.08,0-2.25-.11-3.35-.2-7.63-.58-16.72-1.67-21.37-.65a5.34,5.34,0,0,1,.17,4.23c-.83,2.42-.11,8.93,1.9,10.53,1.19.94,2.1.14,2.51-1.36a5.63,5.63,0,0,0,.17-2.17,10,10,0,0,0-2-3.94.54.54,0,0,1,.36-.88l8.74-.86Zm-12.86-4.07a3.05,3.05,0,0,0-.42-1,1.23,1.23,0,0,0-.85-.58H518l-.05,0a.43.43,0,0,0-.2.25,1.48,1.48,0,0,0-.06.72,3.09,3.09,0,0,0,.15.63h1.57Zm.07,1.07h-.74l-1.28,0h-.34l-.14-.32a4.49,4.49,0,0,1-.36-1.25,2.53,2.53,0,0,1,.13-1.25,1.47,1.47,0,0,1,.77-.83l.19-.07h.05c4.69-1.33,16.1-.06,23.87.63,2.1.19,3.7.41,5.22-.09H547l.14.12q1.8,1.52,3.29,2.55A18,18,0,0,0,553,96.59h0l.12.07,1.81.82-.55.05a4.34,4.34,0,0,1,1.08,1.23h0a2,2,0,0,1-.19,2.32l-.12.16-.19,0c-2.91.37-5.67.29-8.1.78-7.54,1.51-14.86,5.26-22,7.81l-.14,0h0a3.62,3.62,0,0,1-3.05-.56c-2.38-1.49-3.85-7.5-2.61-11.82a11.31,11.31,0,0,0,.43-1.92Z" transform="translate(321 121.61)"/><path class="cls-8" d="M541.79,99.15h0c-5.37.58-10.72,1.14-16.09,1.68a10,10,0,0,1,.6,1.2q.13.31.23.6c3.93-.67,8.39-1.34,12.32-2,4.79-.81,9.44-1.52,14.27-2l1-.09a4.74,4.74,0,0,0-.71-.54l-.18-.11-11.38,1.22Z" transform="translate(321 121.61)"/><path class="cls-6" d="M567,107.79h-.12c-3.61,0-7.9-1.69-7.09-.32.6,1,3,2.07,7.09,2.23H567c4.12-.16,6.5-1.21,7.09-2.23.81-1.38-3.49.34-7.09.32Z" transform="translate(321 121.61)"/><path class="cls-6" d="M566.9,83.38H567c3.08,0,5.59.59,4.76-.26-.32-.33-1.23-.61-4.76-.82h-.08c-3.54.22-4.44.49-4.76.82-.83.86,1.68.23,4.76.26Z" transform="translate(321 121.61)"/><path class="cls-6" d="M576.55,100.7c-.41,1.64-.92,2-1.25,2s-.64-.82-.79-1.63l0-.17a14.53,14.53,0,0,1,2.08-.25Z" transform="translate(321 121.61)"/><path class="cls-4" d="M576.55,100.7a9.46,9.46,0,0,1-.41,1.21c-.18-.54-1.14-.51-1.45,0-.07-.25-.13-.53-.18-.81l0-.17a14.56,14.56,0,0,1,2.08-.25Z" transform="translate(321 121.61)"/><path class="cls-9" d="M-32.27-51.35c1.88,0,1.18-1.86,3.81-1.38C-25-51.84-22.92-49.83-18-50c3.22-1.65-4.55-3.06-1.89-4.13,1.42.35,2.4,1,3.79,1.36.75-2.38-1.06-2.91-1.9-4.13,7.84-.3,5.27-7.23,3.84-11a28.07,28.07,0,0,1,8.51-.68c-.24-3-5.1-2.73-7.57-4.15,3,.34,2.12-2.1,5.66-1.38.68-2.09-1.63-2-.94-4.13,3.4.38,2.34-2.44,5.71-2.06,2.38-.57,8.17,1.35,7.6-1.37.87-2.51-4.12-.7-4.75-2.08-2.24-.2-1.79-2.38-4.75-2.06-4.11-.41-8.53,2.48-10.45,1.39.58-3.48,8.37-1.76,9.48-4.83-2-2-6.14-2.41-11.42-2.07-3.06-.79-6.84-1.82-8.53,0-.79-1-3-1-4.73-1.39-3.82,1.83-13.15-.33-17.06,1.39-4.4.07-9.66-.55-11.44,1.39-.08,1.5,2.6,4.46.93,4.8-6.85-.78-10.72.48-17-.68-9.52,1-14,5.48-23.76,6.21-.9,2.49,4.26.55,3.77,2.77-2.74,1.66-7.83,1.62-10.4,3.44-2.35-.89-5.42-.75-6.67,2.06,3-.6,2.94,1.08,4.74,1.36,0-1.82,4.76-1.82,4.76,0,2.31-.4,6.46-3.06,6.64.71-4.06.27-9.76-.67-12.35.69.87,2.58,4.47,3.17,7.62,4.11,2.93.5,1.79-1.89,4.74-1.37a18.66,18.66,0,0,0,11.4,2.07c-.77,3.06.65,4.58,1.91,6.19-.32,1.61-1.51,2.6-1,4.82,3.79,1.35,4.39-3.17,6.66-.67.52,2.46-2.87,2.09-5.71,2.05.8,3.09,7.22,2.13,8.53,4.83-2.16,1.19-4.78,2-6.65,3.45,2.67.9-3,1.42-1.88,3.44,6.77,3.33,1.52,11.2,6.62,15.85h6.67c2.76.08,1.66,2.93,4.73,2.74,1-1.38,1.64-2.94,3.83-3.46-1.15-5.19,4.73-5.26,3.81-10.32,2.43-.05,1.33-2.68,3.77-2.75,3.62,1.4,3.62-1.63,7.62,0a37.41,37.41,0,0,1,4.76-2.73c4.59-.83,6.61-3.48,11.37-4.14C-29-46.93-21-47.53-23.72-50-25.63-48.39-29.62-51.15-32.27-51.35Zm9.51-2.74c-2.54-1.23,0-4.55,2.84-4.12C-20.4-56.52-22.46-55.94-22.76-54.09Zm6.64-33.07c-.07,2-2.14,2.56-3.79,3.44-2.91-1.34-7.2-1.64-12.36-1.38C-29.06-87.94-20.16-86.73-16.13-87.16Z" transform="translate(321 121.61)"/><path class="cls-9" d="M-150-76.81v4.11c2.89-.48,3.44.71,5.66.7.44-3.14,6.17-6.07,9.52-4.8,1.44,2.88-4.92.09-4.73,2.05,2.86,1-3.29,1.24-2.86,2.75,2.47-.42,3.38.28,2.86,2.05-2.24,0-2.81-1.19-5.72-.66.14,2-3.19,1.34-1.89,4.13,5.67-.53,9.76-1,12.34,2-7.54,1.18-12.41-2.72-17.1-1.37-.76,3.32,5.75,1.35,5.72,4.15,7.16-.74,16.78,3.05,19-2.08,2.48.21,4.07-.26,3.8-2.07.71-1.87-4.43.51-3.8-1.37h6.67c0-3.67,5.79-3.16,4.75-7.57,4.91-.11,5.38-3.44,11.44-2.77,1.16-1.65,3-2.78,6.6-2.75,1.22-1.71-2.11-3.34,0-3.44,4-1.32,9.81.69,11.4-3.44,0-1.13-2.65-.37-2.82-1.37-15.56,1.53-36.76-2-53.23,2.75-1.27,4.16,4.09,3.46,4.74,6.21-6.17.35-4.3-5.16-11.37-4.15-.31.95-1.4,1.32-1,2.78-1.53,0-3.3-.11-2.86,1.37C-153.72-77.37-150.41-78.15-150-76.81Zm19.94,12.37c.49.36-.7.91-1,.7C-131.55-64.09-130.37-64.63-130.09-64.44Z" transform="translate(321 121.61)"/><path class="cls-10" d="M83.59-78.22c.5-1.93,5-1,3.82-4.12-8.68-1-17-1.23-24.71-1.39a3.22,3.22,0,0,0,.93,2.78C69.64-79.56,74.57-77.39,83.59-78.22Z" transform="translate(321 121.61)"/><path class="cls-10" d="M46.59-74.76c-.12,1.7-1.78,2.13,0,3.44,3.9-.15,4-3.05,8.52-2.77C54.88-71,50.45-71,50.38-67.88A9.16,9.16,0,0,0,57-66.49c-.46,2.15,2,2.2,4.73,2A51.7,51.7,0,0,1,64.63-72c2.51,1.83,4,4.49,10.46,3.45.84-5.25-5-5.57-7.6-8.25-.29,1.61-2.55-.81-3.85-.72-2.31.12-3.9-.35-4.67-1.36,2.21-1.83-.81-4-4.79-3.45-2.79,1.11,1.51,3.57-1,4.12-2-3.26-11.09-6.49-11.42,0C42.26-76.21,45.89-76.58,46.59-74.76Z" transform="translate(321 121.61)"/><path class="cls-11" d="M142.48-79.57c-.08-4.35-8.83-2.87-8.52.69C137.2-76.74,139-79.84,142.48-79.57Z" transform="translate(321 121.61)"/><path class="cls-11" d="M195.73-75.45c7.46-.92,15.3,2.4,17.06-2.08-2.23-2.66-10.92-3.78-16.11-2C194.54-79.49,196.22-76.68,195.73-75.45Z" transform="translate(321 121.61)"/><path class="cls-11" d="M138.75-50c-1.39-3.17-5.85-4-4.79-9,6.71-.42,9.21-3.88,14.23-5.52,6,.45,9-1.23,9.56-4.8H153c-.23.54,0,1.37-1,1.37-7.12.57-12.43,2.48-18,4.14.47,3.54-4.59,3.12-3.81,6.88-1.17,1.47-3.54,2-3.77,4.13a77.78,77.78,0,0,0,9.45,4.15C136.25-49.45,137.09-50,138.75-50Z" transform="translate(321 121.61)"/><path class="cls-11" d="M297.32-62.35c2.28-1.11,3.41-3,5.73-4.14-3.61-.34-4.38-3.17-7.63-2.75-.41,0-.88,1.62-1.89,1.37h-5.67C286.59-62.86,294.63-64.55,297.32-62.35Z" transform="translate(321 121.61)"/><path class="cls-10" d="M-5.68-31.38c.11-1.75,3.55-1.08,4.76-2.05,1-3.49-2.16-4-1.89-6.88-4.12.91-5.59-.44-9.5.67-2.58-.42-2.38-2.88-5.71-2.73,1.17,3.33-3.77,2.3-3.77,4.8,2.66.58,2.46-1,4.71-.68-.49,1.67-3.65,1.48-2.82,4.12,4.76-.9,3.72,2.38,6.67,2.75C-12.46-32.8-6.65-32.08-5.68-31.38Z" transform="translate(321 121.61)"/><path class="cls-9" d="M-135.82-31.38c-3.76-.73-1.29-1.74-3.77-3.45-2.88.5-2.81-1.18-5.72-.67-1.34,1.32-.49,4.2-4.73,3.47.06,2.4,3.11,2.75,6.62,2.72C-143.72-34.69-136.93-27-135.82-31.38Z" transform="translate(321 121.61)"/><path class="cls-10" d="M31.42-6.56c-1.32-.72-2.93-1.15-3.85-2.07,1.19-4.08-6.3-4.73-2.83-8.27C23.45-17.61,21.85-18,20.9-19c1.38-.58,3-1,2.87-2.75-3.48-.21-5.3.78-7.57,1.37.7,3.76-1.5,5.36-1,9A20.7,20.7,0,0,0,20-10c.4,2.44-3.19,3.79-4.72,2.74-.74,3.1.66,4.61,1.9,6.22C15.47-.43,12-1.11,12.36,1A98.55,98.55,0,0,1,27.57.3C28.35-2.65,27.83-4.59,31.42-6.56Z" transform="translate(321 121.61)"/><path class="cls-10" d="M5.7-3.81c2.19-.74,5.77-.46,7.62-1.39-1-2.88-.22-3,0-6.2H8.59c-.06,3.08-2.16.87-3.8,2.07C4.91-7.34,4.27-4.83,5.7-3.81Z" transform="translate(321 121.61)"/><path class="cls-11" d="M331.49,16.16c1.83.09.68,2.27,2.87,2.06,2.1-1.69,1.78-5.13,5.69-5.5-5-.52-8.09-2.4-13.28-2.76.69,3.27-1.07,4.73-1,7.59C328.41,19.4,328.17,15.77,331.49,16.16Z" transform="translate(321 121.61)"/><path class="cls-11" d="M309.68,37.51c-.17,2.43,2.24,3,3.8,4.11.66-2.49,3-3.81,5.71-4.82a5.83,5.83,0,0,1,2.82.71c3-2.65,9.3-2.91,12.35-5.52-.16-4.91-2.1-8.6-1.88-13.78h-3.84c1.17,3.23-.49,4.8,1,8.26a1.11,1.11,0,0,0-1,1.41A28.29,28.29,0,0,0,320.1,32c-3.34,1.27-9.38.53-9.49,4.14-.43,1.9,5.17-.53,4.77,1.38Z" transform="translate(321 121.61)"/><path class="cls-11" d="M77.92,32c.28,1.93,3.15.56,5.68,2.08.69-2.58-1.45-3.05-4.72-2.77C79,31.88,78.49,32,77.92,32Z" transform="translate(321 121.61)"/><path class="cls-11" d="M289.7,55.43a6.21,6.21,0,0,1,2.85,4.13c4-.16,3.63-3.37,3.84-6.19C294,51.83,290.72,53.84,289.7,55.43Z" transform="translate(321 121.61)"/><path class="cls-9" d="M-150,53.36V56.1h3.8C-146.35,54.37-147.6,53.43-150,53.36Z" transform="translate(321 121.61)"/><path class="cls-9" d="M-139.58,56.77a3.51,3.51,0,0,0-1-3.41h-2.86C-143.77,55.7-143.12,57.28-139.58,56.77Z" transform="translate(321 121.61)"/><path class="cls-9" d="M-138.66,56.1v3.45c2,.27,2.54-.47,3.8-.71C-135,57.11-136.22,56.18-138.66,56.1Z" transform="translate(321 121.61)"/><path class="cls-9" d="M-140.55,67.12c3.41-.4,4.6.79,6.69,1.38.07-2,3.93-1.26,6.6-1.38-1.36-4.56-6.6-3.94-12.33-4.13.7-1.88-1.94-1.39-1.94-2.75-2.06-.78-5.22-.82-5.67-2.75h-14.22c-.42,1.31-2.07,1.73-1.93,3.45,3.87.27,3.85-2.27,8.56-1.38,4,.56,4.44,3.68,8.55,4.13,2.26.43,6.88-.87,7.57.69C-142.13,64.44-141,65.36-140.55,67.12Z" transform="translate(321 121.61)"/><path class="cls-9" d="M-131.06,59.55c-.3-.95-2.37-.58-3.79-.71C-136.86,61.39-130,62-131.06,59.55Z" transform="translate(321 121.61)"/><path class="cls-11" d="M293.53,67.12a17.08,17.08,0,0,0,5.7,4.13c1.19-2.14,4.42-2.75,3.82-6.2C300.46,62.56,293.39,63.7,293.53,67.12Z" transform="translate(321 121.61)"/><path class="cls-11" d="M270.7,69.2c2.68-.4,2.68-2.69,3.82-4.14a7,7,0,0,0-3.82-.68C268.95,67.06,269.47,64.94,270.7,69.2Z" transform="translate(321 121.61)"/><path class="cls-9" d="M-151,65.73v2.78c3.2-.74,3.27.22,6.64-.69C-143.72,65.06-148,65.85-151,65.73Z" transform="translate(321 121.61)"/><path class="cls-9" d="M-125.37,68.51c3.43.17,6.59.15,5.72-2.78h-5.72Z" transform="translate(321 121.61)"/><path class="cls-12" d="M-25.63,68.51c0,1.35-2.58.87-1.87,2.75h3.77C-23.44,69.68-24,68.66-25.63,68.51Z" transform="translate(321 121.61)"/><path class="cls-11" d="M301.14,79.53c2,1.48,2.68-.35,5.67,0-.3,1.61-2,3,1,3.43,1.34-2,4-3.07,8.53-2.75.89-3.17-3-2.85-4.74-4.13.24-2.26-1.12-3.33-3.79-3.45-1.33.89-.94,3-1,4.82C303.64,76.28,302.71,77.87,301.14,79.53Z" transform="translate(321 121.61)"/><path class="cls-11" d="M207.08,81.58c1.36,4.08-3.61,4.92,0,6.88,3,.34,2.53-1.85,4.77-2.06C211.06,84.22,209.08,82.89,207.08,81.58Z" transform="translate(321 121.61)"/><path class="cls-11" d="M269.78,100.2c.93,2.77,5.06,3.2,4.75,6.88,6.16-1,5.22,3.09,11.38,2.06-.27-1.58,2.73-.76,2.87-2.06-.73-.16-1.88,0-1.89-.71,3.12-.95,1.55-5.25,4.77-6.17-2.19-2.24.79-4.58-1-6.22,1.66-.61,3.27-1.26,2.84-3.42-2.29-1.32-4.15-3-8.55-2.78C284.09,95,271.47,93.59,269.78,100.2Z" transform="translate(321 121.61)"/><path class="cls-11" d="M251.71,95.35c-1.43-1.6-4.43-2.71-3.76-4.79-2.6.48-1.93-1.39-3.81-1.39.12,3-2.33-.08-4.77.68,0,8,13.35,6.41,11.43,15.84,4.68.38,6,4.91,10.4,3.44,2.18-2.63-2-5.64-1.84-8.93C256.46,98.78,253,96.82,251.71,95.35Z" transform="translate(321 121.61)"/><path class="cls-11" d="M305,100.87c-.2-3.06-6-2.09-7.64-4.13-4.87,2.84-8.25,10.5-.93,13.07-.21-2,.22-3.5,1.89-4.13,2.09,1.33,2.22,3.51,5.7,2.09-.49-2.88-3.67-3.81-3.79-6.9A4.58,4.58,0,0,0,305,100.87Z" transform="translate(321 121.61)"/><path class="cls-13" d="M325.8,98.11c-3.09-1.4-10.67-1.13-10.42,2.08C318.63,101.66,325.57,101,325.8,98.11Z" transform="translate(321 121.61)"/><path class="cls-13" d="M336.28,100.87h-6.64c-.85,1-1.42,2.19-3.83,2.07-2.94.52-1.77-1.92-4.7-1.39.28,1.81-3.74.56-2.86,2.74.12,1.56,2.36-.86,4.69,0,4.24,2.48,9.79,4,13.34,6.9v4.14c5.08-2.23,6.6,1.41,10.45,2.06,3.34-.1,2.29-3.4,6.64-2.76,2.23.94,4.75,5.24,8.54,2.76a3.81,3.81,0,0,1-2.85-4.11c-2.48-1.66-6-2.55-7.58-4.84v-2.08C344.15,106.18,342.16,102.12,336.28,100.87Z" transform="translate(321 121.61)"/><path class="cls-11" d="M285.91,116.71c.53-2.44-3.31-1.7-2.83-4.14-7.74.15-13.26-1.43-19-2.76-.83,1.23-2.66,1.77-1.87,4.14C271.26,114,275.57,117.58,285.91,116.71Z" transform="translate(321 121.61)"/><path class="cls-13" d="M356.18,143.58c.39-3.25-1.66-4.74-.94-8.28-1.86-.46-2.16-2.07-3.77-2.74-.34-5.28-6.8-6.1-5.71-12.4-1.77.15-2.08-.77-3.79-.69-2.45,2.83,1,10-2.88,11.71-3.73.9-1.92-2.27-5.7-1.39-.15-1.93-4.48-.84-3.77-3.43-.49-2.18,4.68-.26,3.77-2.73-3.3-2.68-13-.7-18-2.08-1.65.42,0,3.26-1.91,3.43a46.77,46.77,0,0,0-9.5,2.08c-1.19,2.08-.33,5.73-3.79,6.2-2.26-1.63-4.69.1-7.64,0-1.85.47.23,3.84-1.87,4.11-2-.38-1.85-2.07-3.79-.68-2.37,1.72-1.25,6-4.75,6.88-2.13,1-6.35.45-7.62,2.06,1,3.07,3.33,6.88,1,10.33,1.85.49,2.5,1.85,2.85,3.44.52,3.14-1.69,4.29-1,7.58,2.84-.18,3,1.55,5.74,1.39,4-1.26,6.29-3.69,13.31-2.77,3.35-3.07,10-3.75,18-3.44a13,13,0,0,1,5.66,6.2c3.72-1.29,2.56,1.59,6.66,0,0,1.81.34,3.91-1,4.82,6.08,2.56,9.67,2.71,19,2.77,2.39-1.24,4.16-3,7.6-3.49-.47-3.52,4.53-3.09,3.76-6.86,3.32-.16,2.48-3.28,5.72-3.44-1.09-2.44,1.63-3.91,1.89-6.2.52-4.2-1.84-8.51-2.84-12.39C358.58,142.66,357,145.6,356.18,143.58Z" transform="translate(321 121.61)"/><path class="cls-12" d="M134.91,121.54a17.41,17.41,0,0,0-3.81,6.89c-4.12.69-6.21,2.78-8.52,4.82-.76,2.38,1.38,2.66.94,4.81-.86,1.44-1.51,3.05-2.88,4.14,2.07,3.11-.65,5.86,2.88,8.27,3.08.13,4-1.22,7.58-.7,2.06-3.08,1.27-4.45,3.81-7.57v-3.45c.23-.77,1-1.07,1.89-1.39-1.73-3,1.75-5.87,1.95-11C135.18,126.39,138.83,121.23,134.91,121.54Z" transform="translate(321 121.61)"/><path class="cls-13" d="M408.45,168.37c.18-2,.13-3.77-2.84-3.44v5.48c-.76,2-4.52,1.8-3.81,4.85,6.38-.68,2.17,2.05,1.89,4.12,6-.21,6.22-4.7,8.57-7.58,1.42-1,4-1.24,4.72-2.78C414.7,166.91,413,168.63,408.45,168.37Z" transform="translate(321 121.61)"/><path class="cls-13" d="M398,176.64c-.81,1.45-2.85,2-2.81,4.12a7.13,7.13,0,0,0-3.83.69c-1.6,1.38-2.21,3.46-4.73,4.12-3.92,1.08-5.07,4.12-6.68,6.9,3.11-1.11,5.16-.34,8.55,0,.9-1.64,3.83-1.82,2.86-4.83h3.83c.26-3.92,7.46-2.82,7.56-6.88C402.4,178.48,399.93,177.79,398,176.64Z" transform="translate(321 121.61)"/><path class="cls-13" d="M333.4,178.69c-1.06,1.06,3.17,4.16,3.83,6.22,4.62-.33,7.59-1.83,6.65-6.22C339.73,179.24,335.08,177.84,333.4,178.69Z" transform="translate(321 121.61)"/><path class="cls-14" d="M-96.87,200h3.81C-92.41,197.33-97,197.79-96.87,200Z" transform="translate(321 121.61)"/><path class="cls-12" d="M139.64,77.45c-4.06-.42-3.84,2.25-7.56,2.07h-8.57c-.46-4.72-5.19-6.35-8.58-9,.84-4.53-5.64-3.71-3.79-9-1.61-1.57-4.57-2.19-5.69-4.12.84-1.94-1.07-4.93-.22-5.43-.24-.49-.53-1-.86-1.62-.27.17-.66.28-.8.18-.34-.25.11-.58.51-.7-1.72-3-4.16-6.86-5.1-8.33l-.2,0c-6.91-1.83-15.52-2.48-24.7-2.73-2.74.52-2.27,3.4-4.73,4.15-4.37-3.28-13-3.46-17.06-6.9.73-2.39-1.09-2.92-1.91-4.14,2.21-.19,2.17-1.84.92-2.75A43.9,43.9,0,0,0,37,31.3c-7.7-.33-14.38.1-18.06,2.77C18.18,32.63,16.24,32,13.31,32c-.79,2.43-4.2,2.92-6.63,4.14C4.1,39.37,5.07,43.59,2.91,46.46,1.48,48.28-3.62,50.14-5.68,52c-.15,4-2.34,6.57-4.76,9v17.9c3.28,2.68,6.15,5.67,7.63,9.63C1.56,90.35,4.5,93.28,10.47,94a67,67,0,0,1,13.3-.68c2-1.12,1.83-3.71,5.74-3.45,1.69.11.54,2.33,1.92,2.75,4.37-.44,6,1.11,9.46,1.38,1.62-.6,2.42-1.92,5.7-1.38,1,5.32-2,7.76-1.92,12.42,2.71,3.53,7.34,6.2,5.71,11,2.51,2.31,2.68,6.31,3.8,9.64-2.35,3.13-1.81,8.3-3.8,11.7a21.62,21.62,0,0,1,8.58,11v6.2c4.21,3.58,4.1,10.29,8.52,13.78,9.13-.48,13.71-4.26,21.85-5.51,1.44-3.79,4.33-6.49,8.52-8.27-.48-2.67,1.71-3.37.93-6.2,1.71-.63,2.44-1.92,5.72-1.39.1-7.94,4-13.14,11.42-15.83a45.23,45.23,0,0,0,0-19.27,30.1,30.1,0,0,0,4.7-9c2.27-1.12,4.19-2.47,6.67-3.45,4.52-4.75,8.62-9.83,13.32-14.44C141.34,82.46,142.6,78.95,139.64,77.45Z" transform="translate(321 121.61)"/><path class="cls-11" d="M403.7-38.25c-2.53-.84-6.22-4.53-8.53-1.39a3.64,3.64,0,0,0-.94-3.44c-5.18-1.35-7.92-4.41-16.16-3.45-1.1-1.28-3.67-1.47-4.75-2.76-6.22.6-7.54-2.36-14.27-1.39-1.31,2,2.62,3.53,0,4.15-2.75-.3-2.25-3-4.73-3.44-2.79,2.13-7.92.2-13.38,1.38-3.39-1.61-3.14-6-10.37-4.82-1.38.15-.32,2.05-1.93,2.05-4-1.25-7.82-2.6-11.38-4.1a2.62,2.62,0,0,1-1.89,1.36c1.19-2.71-2.27-2.05-4.77-2.05,2.34-1.64-1-1.56-1.86-2.77-4.58,1.21-4.25-.4-8.56-.68-.33.92-2.41.57-3.8.68-1,1.29,2.83,2.31,0,2.77-8.17-.94-18.53,1.22-25.69,0-2.39-.44-3.31-2.55-5.66-2.07-4.4.73-7.33-.72-10.48-1.38-1.11-.27-2.61.16-3.76,0-2.38-.33-4.19-2.19-9.49-1.41.36-1.77,2.8-2.07,2.83-4.11-1.34-2-4.39-2.78-5.69-4.84-2.87.93-7.27.73-11.41.71-2.37-.58-2-3.12-5.7-2.76-2.23.69-3,2.37-2.85,4.82-4.71-1.11-3,2.41-6.65,2.07-1.82-.28-.76-2.68-3.8-2.07-2.46,1.89-5.9,3.09-11.37,2.74-1.69.89-2.52,2.34-5.71,2.09-1.34.87-.44,3.36-2.9,3.43-2,.43-6.57-1.12-5.63,1.38,0,2.53,5.52,1,4.72,4.15-3.5-.74-4.43-3.22-9.52-2.75,0,1.8.53,4-1.9,4.12-1.1-.82-1.1-2.46-.95-4.12-3.7-.61-1.53,3-5.68,2.05-1.49-1.23-1.3-3.68-5.7-2.77-2.68,2.9-6.31,5.09-9.53,7.58-6.15.33-5.69-1.29-12.32-1.39-1.54,3.4,4.91,1,3.79,4.15-4-.67-8.22.35-14.25,0-4.28,1.26-6.61,3.92-11.39,4.81v-4.13c-2.36.11-4.58.12-5.69-.68.23,3.85,0,7.36-5.7,6.89.32,2.54-3.48,2.06-5.7,2.76-2.35.92,1.69,2.06-1,2.75-5.56.81-5.88-5-5.68-6.18,4.41,0,9.26-.3,12.34.67C110.85-44,103-46.18,96.9-46.52c-1.48-1.67-4-2.57-7.56-2.76a14.5,14.5,0,0,0-4.77-4.12H76c-2.57,1.3-5,2.79-7.55,4.12-.44-1-1.25.29-2.9,0-3.39,2.61-7.64,4.55-11.37,6.91a14.78,14.78,0,0,1-5.7,7.55c-.18-.8-1.75-.57-2.85-.67v2.74c-6,.27-6.66,4.36-8.58,7.59,1.92,1.63,2.2,4.4,1.92,7.57.92,1.86,6,.74,7.62,2.08-2.08,2-3.81,2.79-3.81,4.83,2-.33,1.78,1,1.89,2.06-3.38,0-5.5,1.07-8.53,1.35C35.26-6,33.45-5.51,34.21-3.13,28.81-4.3,32.09.84,27.57.3c.15.82-.2,1.22-1,1.37-4.17-.3-5,1.87-7.6,2.78C16.7,4.83,14.14,5,14.3,7.2c1.22.94,4.11.67,6.6.69-.45,3.11,4.4,2.33,3.83,5.52-1,.92-1,2.56-2.88,2.75-4.42-1.64-8.35.62-14.22,0-1,2.27,2.11,7.5-1.94,7.59.7,2,2.89,3,1.94,6.19,4.41-.68,5.74.9,8.56,1.37,3.55-1.32,4-1.32,7.57,0,2.16-2.79,5.43-4.8,4.73-9.64,4.17-.88,3.47-5.28,8.55-5.5,4,1.72,5.66-.48,9.54-.69-2.69,2.68-1.33,7,0,10.33,6-.39,2.27-3.9,2.83-7.59-1,0-1.19-1.21,0-1.38v1.38c2,.21,1.89,1.84,2.88,2.77,4.6.07,7.46,1.4,8.51,4.14-.16,1.49-2.37,1.46-4.77,1.35-.12,2.41,3.36,2.17,4.77,3.46-.45-3.1,2.56-3.66,4.75-4.81.53-1.56-1.8-1-1.91-2.09,1.76-2.15,3.22,2.33,4.8,0C65.84,19.39,54,18.78,57,13.41,59.87,16.56,65.23,18,68.45,21c.53.52,1.34,2.14,1.86,2.76.74.86,2.31,1.65,1.92,2.73v4.13c1.23.94,4.14.68,6.65.7,1.59-2.37-1.71-5.76.92-8.27h2.85c-1.06,2.71-.16,2.57-.91,5.49,2.12-.24,1.26,2,2.83,2.78,3.46,1.76,9.79,1.22,12.33,0,2.85,1-2.47,3.58,1.89,3.46,3.92.51.21-4.46,4.8-3.46v4.12c-2.36,1-1.37,4.47-3.36,5.74,1.66,3,5.6,10.28,6.15,11.41h0c2,1.51,3.76,4.38,2.86,5.59,4,2.88,6.62,6.67,10.47,9.65,2.27,2.87,1.91,7.17,6.67,9.63,6.62-1.6,11.27-4.66,19-5.53,1.33-.4.17-2.64,1.88-2.73,4.13-.48,5.85-2.67,9.52-3.47-.68-3,2.79-3.06,2.86-5.49-1.64-2.48-6.53-2.63-5.73-6.88-3.59-.34-6,.19-7.58,1.34-.79-2.6-4.28-3.3-3.82-6.88-3.07.18-2.74-2.12-4.71-2.75,1.41-.37,2.38-1,3.79-1.38,5.25,2.38,3.67,9.72,13.31,9,.38,1.33,2.69,1.26,1.88,3.45,4.6.34,5.27-2.13,9.52-2.06,1,.43,1,1.56,2.84,1.38,6.61-.72,8.25,2.27,12.29,3.42-1.57-.24-1.77.55-1.84,1.39,1,1.32,4.35.93,5.71,2.06-.5,2.17,1.7,2.42.89,4.82,2.89,2.29,4.12,5.76,5.72,9,2,1.32,4,2.64,4.8,4.81V85c1.18,1,4.1.66,6.61.68,1.26-4.4,4.66-7.19,3.79-13.09h3.82V69.86c3.59,1,1.84-1.86,4.73-1.35-.27-3.17,3.47-3.47,4.76-5.52a21.93,21.93,0,0,1,8.54-2.75c2.16,1.89,2.17,5.33,5.73,6.22.33,1.62-1.75,1.46-1,3.4,1.07,2.25,7.56.52,9.56,2.06-1.28,1.46.47,2.05-1,4.16,2.48.71,4.23,2,4.75,4.13-.35,1.3-2.71,1.25-1.88,3.45.29,2.08,2.93,2.45,1.88,5.51,4.57,2.87,8.89,6,14.24,8.27.25-4.55-4.47-5.46-4.73-9.66-2.65-1.32-5.17-2.69-6.66-4.82.44-2.23-1.25-5.94,1.89-6.19,2.08,2,3.58,4.33,7.66,4.82a3.1,3.1,0,0,1,.89,2.75c9.23-.88,11.48-6.84,10.44-15.13-1.21-.7-3.49-.69-4.73-1.38,1.21-3-4.55-2.83-1.9-4.83s2.47,2.26,6.63,1.38c.69-3,5.51-2.92,10.46-2.76,3-3.32,7.06-5.87,8.54-10.34,1.55.2,1.63-.64,2.85-.66,1.59-2.8-.21-8,2.87-9.63-2-.63-2.87-2-2.87-4.17-1.6-.86-3.69-1.41-3.77-3.43-.42-1.65,1.75-1.51.92-3.44,2,.21,3-.14,2.85-1.41,2.72-.87-4.28-4.11,1.92-4.11,1.08,2.2,4.36,2.77,5.71,4.83-.93,3.64,1.79,4.68,4.77,5.52,5.69-3-.2-10.57,2.83-15.83,2-1.31,4.86-2,7.6-2.77,2.19-3.22,4.14-6.62,7.55-9,1.32-5.55-2.16-11.27,0-15.15-1.29,3.93,2.19,4.4,2.87,6.89.19,4.27.47,8.39,4.77,9.63,1.77-1.22-.78-1.74,0-4.11,2.59-.08,1.91,1.15,3.79,0,.17-2.19-2.52-2.34-1.88-4.85-3.43-.47-4.33-2.81-5.72-4.81-.35-2.48.34-5.76-2.82-6.2-2,.17-.26,3.06-2.84,2.77-1.61-5.07-8.06,3.17-10.5-2.06.66-1.61,2.41-2.37,3.83-3.44,1.09-2.2.71-5.43,3.8-6.23,2.18,1.7,1.73-1,4.69-.68,4.48.46,8.62,1.81,14.29,1.39-.33,1.17.73,1.31,1.87,1.37,1.25-1,4.15-.66,6.67-.7.48-2.17-1.69-2.41-.94-4.8,1.93-.2,1.85-1.86,3.79-2.07,1.95.21,1.87,1.87,3.8,2.07-.44-1.51,2.82-3.8,3.76-2.07-3,4.42-7.49,7.85-8.53,13.77.62,1.86,2.71,2.63,3.82,4.14.42,2.64,1.12,5.16,3.77,6.19,2.37-1.73,3.77-4.16,6.66-5.52-.87-3.41,3-2.9,1-5.49.24-1.39,2.51-1.36,2.81-2.75-1.4-.82-4.26-.62-3.81-2.76.93-6,7.17-4.74,14.26-4.14,1.37-1.06,1.24-3.21,2.85-4.12,5.54-.3,9.71-2.19,13.26-2.08,0-2.95-4.7-2.52-4.7-5.51,2.23-.22,1.77-2.37,4.7-2,5,.06,4.3,4.24,10.45,3.41C404-34,401.88-36.22,403.7-38.25ZM68.45-26.55A14.72,14.72,0,0,0,76-23.79v6.88c-2.13-.28.54-4-3.77-2.75-2.1,2.38-.77,7.22-3.78,9-3.17.21-5.5-.33-7.64,0-2.64.39-3.2,2-5.7,2.06.3-.84-2.72-2.38-2.81-.7-2.23-.2-2.23-1.88,0-2.07a8.82,8.82,0,0,1-3.81-6.89c4.74.29,2.91,9.7,11.39,6.89,2.13-2.8,3.6-6.1,5.68-9a13.35,13.35,0,0,0-1.91-4.14C64.21-31,71-33,74.08-37.58c1.15-.09,1.73.15,1.91.7C75.23-32.15,67.57-32.46,68.45-26.55Zm10.43,4.81c-.06-2.08,3.35-1.7,5.69-2.06C84.64-21.66,81.71-21.74,78.88-21.73Zm7.6-26.85c-.5-.37.69-.89.94-.7C87.89-48.91,86.74-48.39,86.47-48.58Zm18,13.76c-.5-.35.67-.87,1-.67C105.93-35.14,104.77-34.63,104.51-34.82Zm70.28-11c-1.8-.28-4.08-.22-3.79-2.06-2.84-.14.89-2.87,0,0C171.67-46.8,175.63-48.06,174.79-45.84Zm58.86-12.37c-.46-.35.73-.92,1-.71C235.16-58.55,233.93-58,233.64-58.21Zm2.88-.71c-.48-.35.69-.87.94-.68C238-59.27,236.81-58.73,236.53-58.92Zm2.85-1.38c-.49-.35.69-.89,1-.7C240.82-60.62,239.64-60.12,239.37-60.31Zm42.77,86.78c1.33-1.31,2.1-3,5.71-2.73,0,1.06-.46,2.61.92,2.73C287.35,28.55,284.62,25.91,282.14,26.48Z" transform="translate(321 121.61)"/><path class="cls-10" d="M114-2.78s-6.39-.47-9.58-1.86A8.47,8.47,0,0,0,95.53-7c.46-3.41-1.83-6.66-6.84-6.66s-3.88-7.9-.46-9.92,2.74-2.94,0-5-3.88-9.61-3.88-9.61l5.1-11.17h-.11a14.5,14.5,0,0,0-4.77-4.12H76c-2.57,1.3-5,2.79-7.55,4.12-.44-1-1.25.29-2.9,0-3.39,2.61-7.64,4.55-11.37,6.91a14.78,14.78,0,0,1-5.7,7.55c-.18-.8-1.75-.57-2.85-.67v2.74c-6,.27-6.66,4.36-8.58,7.59,1.92,1.63,2.2,4.4,1.92,7.57.92,1.86,6,.74,7.62,2.08-2.08,2-3.81,2.79-3.81,4.83,2-.33,1.78,1,1.89,2.06-3.38,0-5.5,1.07-8.53,1.35C35.26-6,33.45-5.51,34.21-3.13,28.81-4.3,32.09.84,27.57.3c.15.82-.2,1.22-1,1.37-4.17-.3-5,1.87-7.6,2.78C16.7,4.83,14.14,5,14.3,7.2c1.22.94,4.11.67,6.6.69-.45,3.11,4.4,2.33,3.83,5.52-1,.92-1,2.56-2.88,2.75-4.42-1.64-8.35.62-14.22,0-1,2.27,2.11,7.5-1.94,7.59.7,2,2.89,3,1.94,6.19,4.41-.68,5.74.9,8.56,1.37,3.55-1.32,4-1.32,7.57,0,2.16-2.79,5.43-4.8,4.73-9.64,4.17-.88,3.47-5.28,8.55-5.5,4,1.72,5.66-.48,9.54-.69-2.69,2.68-1.33,7,0,10.33,6-.39,2.27-3.9,2.83-7.59-1,0-1.19-1.21,0-1.38v1.38c2,.21,1.89,1.84,2.88,2.77,4.6.07,7.46,1.4,8.51,4.14-.16,1.49-2.37,1.46-4.77,1.35-.12,2.41,3.36,2.17,4.77,3.46-.45-3.1,2.56-3.66,4.75-4.81.53-1.56-1.8-1-1.91-2.09,1.76-2.15,3.22,2.33,4.8,0C65.84,19.39,54,18.78,57,13.41,59.87,16.56,65.23,18,68.45,21c.53.52,1.34,2.14,1.86,2.76.74.86,2.31,1.65,1.92,2.73v4.13c1.23.94,4.14.68,6.65.7,1.59-2.37-1.71-5.76.92-8.27h2.85c-1.06,2.71-.16,2.57-.91,5.49,2.12-.24,1.26,2,2.83,2.78a9.52,9.52,0,0,0,2.34.78L88.23,14.8A164,164,0,0,0,110.36,5C114.24.47,114-2.78,114-2.78Zm-26.6-46.5c.48.37-.68.89-.94.7C86-49,87.16-49.47,87.42-49.28Zm-19,22.74A14.72,14.72,0,0,0,76-23.79v6.88c-2.13-.28.54-4-3.77-2.75-2.1,2.38-.77,7.22-3.78,9-3.17.21-5.5-.33-7.64,0-2.64.39-3.2,2-5.7,2.06.3-.84-2.72-2.38-2.81-.7-2.23-.2-2.23-1.88,0-2.07a8.82,8.82,0,0,1-3.81-6.89c4.74.29,2.91,9.7,11.39,6.89,2.13-2.8,3.6-6.1,5.68-9a13.35,13.35,0,0,0-1.91-4.14C64.21-31,71-33,74.08-37.58c1.15-.09,1.73.15,1.91.7C75.23-32.15,67.57-32.46,68.45-26.55Zm10.43,4.81c-.06-2.08,3.35-1.7,5.69-2.06C84.64-21.66,81.71-21.74,78.88-21.73Z" transform="translate(321 121.61)"/><path class="cls-14" d="M-53.18,113.95c0-2.56-1-4.36-1.89-6.18-1.67-1.3-2.79.29-4.74.67-1.5-2.36-5.18-3.15-8.52-4.15H-75c-1.7-2-8.06-.59-8.56-3.42-2.53,0-5.62.38-5.67-1.38,2.73-3.21-2.82-12-11.43-8.93-3-1.29-5.19-3.13-5.69-6.23-5-1-8.5-3-13.33-4.12-1.23.25-1.48,1.2-2.84,1.37-1.29-2.48-5.91-2.6-6.68-5.5-3-.62-2,1.76-3.78,2.07-2.21-.48-2.52-2.3-4.75-2.76-.86,1.2-1.73,2.38-4.74,2.06-1.45,2.85-5.22,4-7.55,6.18a29.7,29.7,0,0,1-3.06,3.87c.63,1.28,1.48,2.41,2,3.7,0,1.39-2.57.91-1.88,2.77.44,3.55-3,4.24-3.8,6.9-1.84,4.8,3.82,7.43,0,9.64,1.66,1.32,4.68,1.64,6.66,2.78-.79,1-3.05,1-4.75,1.35-.69,5.55,3.48,7.57,8.55,9,.38,1.64-1.76,1.48-1,3.43,3.55,2,4.81,5.67,10.47,6.2,1.73,3.08,4.73,5.26,4.71,9.64-1,.91-.89,2.54-1.85,3.43a2.89,2.89,0,0,1,1.85,2.76c-2.55,3.1,1.14,6.72,0,11-5.13,2.22-2.77,9.93-4.71,14.46,1.4,1.91,3.88-1.19,4.71.7.87,3.37-3.25,3.15-4.71,4.8-1.21,2.24,3,.54,1.87,2.78-1.81,1.67,1,3.33-1,5.49.93,4.68,4.12,7.09,2,11,2.8,1.61,2.5,5.49,5.67,6.89-.14,1.22,1.12,1.44.93,2.74a20.76,20.76,0,0,1,5.69,2.06c3.56-.42,9.8,1.14,10.42-1.38a9.27,9.27,0,0,1-5.68-2.76c.71-2.32-3.84-.87-2.85-3.43-.33-3,2.75-3.54,2.85-6.2,2.46-.08,3.69-1,3.82-2.74.48-2.44-3.35-1.68-2.85-4.14,2.55-2.12,6.45-8.93,0-9.64,6.36,1.17,6.14-2.4,7.58-4.8,5.11.24,6.86-1.95,10.47-2.77.63-3.21-1.52-4.42-1.92-6.87h7.61c.05-.69,1.17-.55,1.91-.71.53-1.68.81-3.53,3.8-3.44-.34-3.91,3.58-4.73,5.68-6.9v-4.8c1.81-1.22,3-2.92,4.74-4.15,4.53-1,4.53-1,8.55-2.06.43-4.42,5-8.25,1.9-13.09a3,3,0,0,0,1.9-3.45c1.53.22,1.65-.63,2.87-.67.35-2.28,2.79-3,3.81-4.81,2.52-1.8-.14-3.33,2.81-4.14C-54.79,116-53.18,115.57-53.18,113.95Z" transform="translate(321 121.61)"/><path class="cls-9" d="M-156.69,87.78c1-.91.91-2.56,2.83-2.74a7,7,0,0,0,.19.88,28.34,28.34,0,0,1,3.53-3.64c-.39-1.32-1.66-2-3.72-2.07-2.44.73-3.52,2.48-6.68,2.75-2.22-3.36,1-6.55,0-11-1.72-2.39-8-1.48-11.36-2.73.94-3,3.7-4.66,2.85-9a36.11,36.11,0,0,1-9.48,0c-1.75,1.48-.91,4.84-3.81,5.49-12.71.5-4.76-11.81-7.6-17.21,3.36-.57,5.36-2.06,8.56-2.74,5.19-.32,6.41,2.21,11.37,2-.08-1-.2-1.93,1-2,4.57.16,10.69-.88,11.39,2-.41,4,2.1,5.86,6.64,6.22-1.14-3.55-.63-4.63,0-6.9-1.07-1-2.7-1.69-2.84-3.45,1.6-4.56,5.79-7.28,12.33-8.27.88-2,.88-2.1,0-4.12a8.44,8.44,0,0,0,4.8-.7c-2.37-3.78,3.09-2.94,1.87-7.57,3.16-.93,6.17-1.92,9.48-2.75.5-2.16-2.88-1.56-1.88-4.13,3.47-2.09,8.75-2.86,13.34-4.14.66,1.87-1.93,1.39-1.93,2.75,3.8-1.15,7.83-2.12,10.47-4.12-2.35-1.08-7.08-.43-6.67-3.45.53-1.91,3.65-1.92,5.71-2.75.38-1.67-1.75-1.49-1-3.46,4.62,2.27,10-3.33,13.3-2.07-2.2,3.69-6.72,5.67-8.54,9.63,3.52.5,4.09-1.17,7.57-.67.09,1.07-.42,2.62,1,2.76.94-1.7,3.64.94,6.65,0-.46-1.58-1.86-3.52,0-4.83-3.46-.24-4.35-2.36-5.71-4.14a41,41,0,0,0,0-9c-1.82-1.27-2.36,0-4.73,0,.1-3.26-4.39-3.25-4.75-6.18a3.15,3.15,0,0,0,.94-2.75c-3.66-1.51-2.33-6.61-7.62-6.9-.48,1,1.14,3.56-.94,3.46-2-.41-6.24.86-6.65-.71v-6.87c-5.09,1.66-4.16-1.61-8.56-2.07-2.5,1.9-2-.8-4.72-.68-2.3-.28-2.05,1.25-4.76.68,1.42,6.86-2.58,10.72-1,15.84-1.62.2-4.73-1.95-5.71,0,1,2,3.17.44,3.82,1.37-3.32,1.5-3.39,5.34-4.74,8.28-2.17-2.11-2.6-5.49-3.78-8.28-1.94-1.37-1.88.32-3.8.69-.82-2-1.42-.75-3.83-.69a26.52,26.52,0,0,0-10.4-4.81c1.5-3.42-3.34-2.19-2.93-4.83,2.07.33,1.85-1,1.95-2.06,3.14-1.18,4.47-3.62,7.59-4.83,2.1-2.41,3.55-5.25,8.58-5.51.06-1.23-1.17-1.45-1-2.75a90.87,90.87,0,0,0,14.21-2.76,12.8,12.8,0,0,1,1-6.89c-1.12-1-3.59-1.08-4.73-2.06,3.77-.23,7,0,8.52,1.36,1.78-2.09,4.56.8,7.61,0-1.32,3.51,4.34,1.91,3.8,4.85-.93,5-11.27,3.28-12.35,8.24,1.57,1.64,5.54,1.51,9.51,1.37,5.9,1.93,8.23,6.45,16.17,6.9-2.13-3.57,1.59-3.47,1-7.57-.42-1.79-2.88-2.08-2.89-4.14,3.62.15,4.62,2.19,7.62,2.75-.27-1.79-.34-3.43,2.85-2.75-.67-2.12,1-2.51.92-4.14-2.56.49-1.8-1.41-2.84-2.06a60,60,0,0,1-8.55-2.08c.27-1.4,2.59-1.33,2.89-2.74-1.23-1.65-4.18-2-3.85-4.82h-8.52c.45-2.18-2.55-1.82-2.85-3.46-4-.4-6.28.5-9.51.71.56-4.27-7.5-2.91-8.56-.71.35-2.57-.76-4-3.79-4.14-4.9,2.19-10.61,9.23-4.74,13.1,1.39.38,4.88-.78,4.74.68-1,2-3,3.32-4.74,4.85-2.43-1.7,2-1.49,1-4.15-3.25-1.54-6.33-3.23-7.63-6.21-3.61.33-3-2.38-7.55-1.36.33,1.64-1.79,1.48-1,3.42,3.26.94,2.05,6.41,0,7.59a3,3,0,0,1-1.85-3.45C-169-47-169-44-172.87-43.77c-3.53-1.1-7.41-2-9.47-4.13,4.24-.52,5.72.92,9.47.68,2.1-1.43-.43-2,0-4.13,5.27-.78,7.36-3.86,12.33-4.8-1.72-2.17-1.37-3.79-1.87-5.51h-14.21c-2.1,1.93-6.83,1.93-7.63,4.8-.48-1-1.39-1.71-1.88-2.74-2.51,0-5.92.63-4.73-2.06,7,1.05,15.42-2.51,21.83-4.15,0,3.17,8.13,2.38,9.5.69-.66-1.57-.86-3.5-1.87-4.84-5.6.54-8.35,3.19-14.28,3.46v-4.13c-5.19-1.27-6.12,3.24-2.84,4.13-5.45.49-8.52-.76-13.27-.69,1.41,3.57-4.39,1.91-4.75,4.14,2.37.87,2.92-.35,3.77.69-.61.91-2,1.28-3.77,1.35-1.53-3.93-9.06-3.55-16.17-3.44-.5,3.34-2.92,5.23-5.71,6.9-.17,2.17,2.48,2.33,1.93,4.82,4.69.21,7-1.3,10.39-2.06-1.94,3.73,5.22.83,5.73,2.77.68,1.86-4.47-.5-3.82,1.35,0,3.73,10.39-.17,8.58,4.83,3.54-1.53,4.64-1.09,8.52,0h1c-.3-.83,2.74-2.37,2.85-.68-.17.82-1.51.77-2.85.68.25,1.74,4.07,3.91,0,4.84-1.12-.14-.77-1.27-1-2.07-8.43-.55-12.7-4.1-22.78-3.45-2.9-.64-3-3.34-6.63-3.44-.45,2-3,2.43-5.72,2.75a3.61,3.61,0,0,0-.92-3.45c-3.67.16-3.67,2.93-7.6,2.77-3.61.53-4.54-.84-7.62-.68-1.05.16-.62,1.36-1.9,1.36-.92,0-.77-.84-.92-1.36-2.28.22-3.6,1.08-6.69.68-7.57-3.43-22.2-1.79-30.35-4.83-7.1,2.25-16.32,2.89-20.9,3.45-2.17,2.67,1.72,2.72,2.81,4.84,3.63-.33,5.94.28,6.67,2.08-3.85-1-3.41,1.22-4.77,2.06-1.73-.61-2.58-1.78-4.72-2.06-3.61,2.65-12.29,1.66-15.22,4.8,5.24-.12,7.1,2.21,7.61,5.55,5-1.32,8.82.18,13.31-.73-4.65,6.07-24.41,1.18-22.83,11.72,3.17,1.66,3.91,1.89,2.87,5.52,1.71.08,2-.85,3.77-.69.08,1.1-.44,2.62,1,2.75,1.34-2.19.44,2.82,2.87,2.06,1.17-2.68,5.41-3.29,8.53-1.37-4.1,2.32-5.58,6.5-10.41,8.26-4.36,1-5.85,4-11.39,4.12.76,2.21-1.52,2.13-1.92,3.45,4.35.39,5.92-1.23,10.43-.69,1.06-2,4-2.56,7.62-2.77,3.57-4.73,9.75-7.6,15.2-11h1.92c1-.64.28-2.52,2.81-2.06.07-.41.16-.81.94-.67-.05.41-.11.81-.94.67.41,3.08-2.54,3.65-3.79,5.51,7.81.63,9.7-3,16.16-3.45.43-3.09-.5-5.17-1-7.58,4.36.65,4.61-1.71,8.5-1.38a23.79,23.79,0,0,1,6.69,4.84c6,1.39,11.2,3.38,10.44,9.64,4.6-.44.22-3.81,3.84-4.14.21,5.83-.3,12.11,2.8,15.85-2.86,1.79-1,2.55,0,4.83,0,1.35-2.58.85-1.85,2.76-.46,7.55-1.09,12.61,0,20,2.52,1.14,4.18,2.92,6.62,4.14,2.62,2.66,2.43,7.39,5.69,9.63-1.1.12-.8,1.25-1,2.07,4,1,4.88,4.26,6.69,6.89,2.89-.52,2.74,1.2,5.63.67.14-2.93-1.83-2.29-1.85-6.16-.54,0-1.07-.59,0-.7v.7c2-.35,1.77,1,1.85,2a29.62,29.62,0,0,1,7.64,5.51c-.69,4.86,1.83,7.4,3.77,10.34,7.85,1.41,12.47,4.94,21.86,3.42a26.12,26.12,0,0,0,3.82,4.84c3.58-.53,4.55.84,7.56.69.9,1.66,2.79,2.57,4.75,3.43V83C-162.63,83.37-161.51,86.92-156.69,87.78ZM-98.74-6.56c.47.35-.69.86-1,.67C-100.19-6.24-99-6.79-98.74-6.56ZM-171.9-60.31c2.92.67-1,1.85-1,2.76C-175.74-58.21-172.42-59.87-171.9-60.31Zm-3.79,3.45c3-.32,3.36,1.27,6.65.71,0,2.73-3.72,2.82-6.65,3.42Zm-29.42,1.41c-.51-.38.62-.91.91-.7C-203.71-55.8-204.86-55.29-205.11-55.45Zm-20,99.15a.46.46,0,0,1,.92,0C-224.3,44.5-225.07,44.09-225.07,43.7Zm.92,1.38c2.26.23,2.16,2.14,3.81,2.75C-221.54,49.57-225,47.09-224.15,45.08Z" transform="translate(321 121.61)"/><path class="cls-9" d="M-32.27-51.35c1.88,0,1.18-1.86,3.81-1.38C-25-51.84-22.92-49.83-18-50c3.22-1.65-4.55-3.06-1.89-4.13,1.42.35,2.4,1,3.79,1.36.75-2.38-1.06-2.91-1.9-4.13,7.84-.3,5.27-7.23,3.84-11a28.07,28.07,0,0,1,8.51-.68c-.24-3-5.1-2.73-7.57-4.15,3,.34,2.12-2.1,5.66-1.38.68-2.09-1.63-2-.94-4.13,3.4.38,2.34-2.44,5.71-2.06,2.38-.57,8.17,1.35,7.6-1.37.87-2.51-4.12-.7-4.75-2.08-2.24-.2-1.79-2.38-4.75-2.06-4.11-.41-8.53,2.48-10.45,1.39.58-3.48,8.37-1.76,9.48-4.83-2-2-6.14-2.41-11.42-2.07-3.06-.79-6.84-1.82-8.53,0-.79-1-3-1-4.73-1.39-3.82,1.83-13.15-.33-17.06,1.39-4.4.07-9.66-.55-11.44,1.39-.08,1.5,2.6,4.46.93,4.8-6.85-.78-10.72.48-17-.68-9.52,1-14,5.48-23.76,6.21-.9,2.49,4.26.55,3.77,2.77-2.74,1.66-7.83,1.62-10.4,3.44-2.35-.89-5.42-.75-6.67,2.06,3-.6,2.94,1.08,4.74,1.36,0-1.82,4.76-1.82,4.76,0,2.31-.4,6.46-3.06,6.64.71-4.06.27-9.76-.67-12.35.69.87,2.58,4.47,3.17,7.62,4.11,2.93.5,1.79-1.89,4.74-1.37a18.66,18.66,0,0,0,11.4,2.07c-.77,3.06.65,4.58,1.91,6.19-.32,1.61-1.51,2.6-1,4.82,3.79,1.35,4.39-3.17,6.66-.67.52,2.46-2.87,2.09-5.71,2.05.8,3.09,7.22,2.13,8.53,4.83-2.16,1.19-4.78,2-6.65,3.45,2.67.9-3,1.42-1.88,3.44,6.77,3.33,1.52,11.2,6.62,15.85h6.67c2.76.08,1.66,2.93,4.73,2.74,1-1.38,1.64-2.94,3.83-3.46-1.15-5.19,4.73-5.26,3.81-10.32,2.43-.05,1.33-2.68,3.77-2.75,3.62,1.4,3.62-1.63,7.62,0a37.41,37.41,0,0,1,4.76-2.73c4.59-.83,6.61-3.48,11.37-4.14C-29-46.93-21-47.53-23.72-50-25.63-48.39-29.62-51.15-32.27-51.35Zm9.51-2.74c-2.54-1.23,0-4.55,2.84-4.12C-20.4-56.52-22.46-55.94-22.76-54.09Zm6.64-33.07c-.07,2-2.14,2.56-3.79,3.44-2.91-1.34-7.2-1.64-12.36-1.38C-29.06-87.94-20.16-86.73-16.13-87.16Z" transform="translate(321 121.61)"/><path class="cls-9" d="M-150-76.81v4.11c2.89-.48,3.44.71,5.66.7.44-3.14,6.17-6.07,9.52-4.8,1.44,2.88-4.92.09-4.73,2.05,2.86,1-3.29,1.24-2.86,2.75,2.47-.42,3.38.28,2.86,2.05-2.24,0-2.81-1.19-5.72-.66.14,2-3.19,1.34-1.89,4.13,5.67-.53,9.76-1,12.34,2-7.54,1.18-12.41-2.72-17.1-1.37-.76,3.32,5.75,1.35,5.72,4.15,7.16-.74,16.78,3.05,19-2.08,2.48.21,4.07-.26,3.8-2.07.71-1.87-4.43.51-3.8-1.37h6.67c0-3.67,5.79-3.16,4.75-7.57,4.91-.11,5.38-3.44,11.44-2.77,1.16-1.65,3-2.78,6.6-2.75,1.22-1.71-2.11-3.34,0-3.44,4-1.32,9.81.69,11.4-3.44,0-1.13-2.65-.37-2.82-1.37-15.56,1.53-36.76-2-53.23,2.75-1.27,4.16,4.09,3.46,4.74,6.21-6.17.35-4.3-5.16-11.37-4.15-.31.95-1.4,1.32-1,2.78-1.53,0-3.3-.11-2.86,1.37C-153.72-77.37-150.41-78.15-150-76.81Zm19.94,12.37c.49.36-.7.91-1,.7C-131.55-64.09-130.37-64.63-130.09-64.44Z" transform="translate(321 121.61)"/><path class="cls-10" d="M83.59-78.22c.5-1.93,5-1,3.82-4.12-8.68-1-17-1.23-24.71-1.39a3.22,3.22,0,0,0,.93,2.78C69.64-79.56,74.57-77.39,83.59-78.22Z" transform="translate(321 121.61)"/><path class="cls-10" d="M46.59-74.76c-.12,1.7-1.78,2.13,0,3.44,3.9-.15,4-3.05,8.52-2.77C54.88-71,50.45-71,50.38-67.88A9.16,9.16,0,0,0,57-66.49c-.46,2.15,2,2.2,4.73,2A51.7,51.7,0,0,1,64.63-72c2.51,1.83,4,4.49,10.46,3.45.84-5.25-5-5.57-7.6-8.25-.29,1.61-2.55-.81-3.85-.72-2.31.12-3.9-.35-4.67-1.36,2.21-1.83-.81-4-4.79-3.45-2.79,1.11,1.51,3.57-1,4.12-2-3.26-11.09-6.49-11.42,0C42.26-76.21,45.89-76.58,46.59-74.76Z" transform="translate(321 121.61)"/><path class="cls-11" d="M142.48-79.57c-.08-4.35-8.83-2.87-8.52.69C137.2-76.74,139-79.84,142.48-79.57Z" transform="translate(321 121.61)"/><path class="cls-11" d="M195.73-75.45c7.46-.92,15.3,2.4,17.06-2.08-2.23-2.66-10.92-3.78-16.11-2C194.54-79.49,196.22-76.68,195.73-75.45Z" transform="translate(321 121.61)"/><path class="cls-11" d="M138.75-50c-1.39-3.17-5.85-4-4.79-9,6.71-.42,9.21-3.88,14.23-5.52,6,.45,9-1.23,9.56-4.8H153c-.23.54,0,1.37-1,1.37-7.12.57-12.43,2.48-18,4.14.47,3.54-4.59,3.12-3.81,6.88-1.17,1.47-3.54,2-3.77,4.13a77.78,77.78,0,0,0,9.45,4.15C136.25-49.45,137.09-50,138.75-50Z" transform="translate(321 121.61)"/><path class="cls-11" d="M297.32-62.35c2.28-1.11,3.41-3,5.73-4.14-3.61-.34-4.38-3.17-7.63-2.75-.41,0-.88,1.62-1.89,1.37h-5.67C286.59-62.86,294.63-64.55,297.32-62.35Z" transform="translate(321 121.61)"/><path class="cls-10" d="M-5.68-31.38c.11-1.75,3.55-1.08,4.76-2.05,1-3.49-2.16-4-1.89-6.88-4.12.91-5.59-.44-9.5.67-2.58-.42-2.38-2.88-5.71-2.73,1.17,3.33-3.77,2.3-3.77,4.8,2.66.58,2.46-1,4.71-.68-.49,1.67-3.65,1.48-2.82,4.12,4.76-.9,3.72,2.38,6.67,2.75C-12.46-32.8-6.65-32.08-5.68-31.38Z" transform="translate(321 121.61)"/><path class="cls-9" d="M-135.82-31.38c-3.76-.73-1.29-1.74-3.77-3.45-2.88.5-2.81-1.18-5.72-.67-1.34,1.32-.49,4.2-4.73,3.47.06,2.4,3.11,2.75,6.62,2.72C-143.72-34.69-136.93-27-135.82-31.38Z" transform="translate(321 121.61)"/><path class="cls-10" d="M31.42-6.56c-1.32-.72-2.93-1.15-3.85-2.07,1.19-4.08-6.3-4.73-2.83-8.27C23.45-17.61,21.85-18,20.9-19c1.38-.58,3-1,2.87-2.75-3.48-.21-5.3.78-7.57,1.37.7,3.76-1.5,5.36-1,9A20.7,20.7,0,0,0,20-10c.4,2.44-3.19,3.79-4.72,2.74-.74,3.1.66,4.61,1.9,6.22C15.47-.43,12-1.11,12.36,1A98.55,98.55,0,0,1,27.57.3C28.35-2.65,27.83-4.59,31.42-6.56Z" transform="translate(321 121.61)"/><path class="cls-10" d="M5.7-3.81c2.19-.74,5.77-.46,7.62-1.39-1-2.88-.22-3,0-6.2H8.59c-.06,3.08-2.16.87-3.8,2.07C4.91-7.34,4.27-4.83,5.7-3.81Z" transform="translate(321 121.61)"/><path class="cls-11" d="M331.49,16.16c1.83.09.68,2.27,2.87,2.06,2.1-1.69,1.78-5.13,5.69-5.5-5-.52-8.09-2.4-13.28-2.76.69,3.27-1.07,4.73-1,7.59C328.41,19.4,328.17,15.77,331.49,16.16Z" transform="translate(321 121.61)"/><path class="cls-11" d="M309.68,37.51c-.17,2.43,2.24,3,3.8,4.11.66-2.49,3-3.81,5.71-4.82a5.83,5.83,0,0,1,2.82.71c3-2.65,9.3-2.91,12.35-5.52-.16-4.91-2.1-8.6-1.88-13.78h-3.84c1.17,3.23-.49,4.8,1,8.26a1.11,1.11,0,0,0-1,1.41A28.29,28.29,0,0,0,320.1,32c-3.34,1.27-9.38.53-9.49,4.14-.43,1.9,5.17-.53,4.77,1.38Z" transform="translate(321 121.61)"/><path class="cls-11" d="M77.92,32c.28,1.93,3.15.56,5.68,2.08.69-2.58-1.45-3.05-4.72-2.77C79,31.88,78.49,32,77.92,32Z" transform="translate(321 121.61)"/><path class="cls-11" d="M289.7,55.43a6.21,6.21,0,0,1,2.85,4.13c4-.16,3.63-3.37,3.84-6.19C294,51.83,290.72,53.84,289.7,55.43Z" transform="translate(321 121.61)"/><path class="cls-9" d="M-150,53.36V56.1h3.8C-146.35,54.37-147.6,53.43-150,53.36Z" transform="translate(321 121.61)"/><path class="cls-9" d="M-139.58,56.77a3.51,3.51,0,0,0-1-3.41h-2.86C-143.77,55.7-143.12,57.28-139.58,56.77Z" transform="translate(321 121.61)"/><path class="cls-9" d="M-138.66,56.1v3.45c2,.27,2.54-.47,3.8-.71C-135,57.11-136.22,56.18-138.66,56.1Z" transform="translate(321 121.61)"/><path class="cls-9" d="M-140.55,67.12c3.41-.4,4.6.79,6.69,1.38.07-2,3.93-1.26,6.6-1.38-1.36-4.56-6.6-3.94-12.33-4.13.7-1.88-1.94-1.39-1.94-2.75-2.06-.78-5.22-.82-5.67-2.75h-14.22c-.42,1.31-2.07,1.73-1.93,3.45,3.87.27,3.85-2.27,8.56-1.38,4,.56,4.44,3.68,8.55,4.13,2.26.43,6.88-.87,7.57.69C-142.13,64.44-141,65.36-140.55,67.12Z" transform="translate(321 121.61)"/><path class="cls-9" d="M-131.06,59.55c-.3-.95-2.37-.58-3.79-.71C-136.86,61.39-130,62-131.06,59.55Z" transform="translate(321 121.61)"/><path class="cls-11" d="M293.53,67.12a17.08,17.08,0,0,0,5.7,4.13c1.19-2.14,4.42-2.75,3.82-6.2C300.46,62.56,293.39,63.7,293.53,67.12Z" transform="translate(321 121.61)"/><path class="cls-11" d="M270.7,69.2c2.68-.4,2.68-2.69,3.82-4.14a7,7,0,0,0-3.82-.68C268.95,67.06,269.47,64.94,270.7,69.2Z" transform="translate(321 121.61)"/><path class="cls-9" d="M-151,65.73v2.78c3.2-.74,3.27.22,6.64-.69C-143.72,65.06-148,65.85-151,65.73Z" transform="translate(321 121.61)"/><path class="cls-9" d="M-125.37,68.51c3.43.17,6.59.15,5.72-2.78h-5.72Z" transform="translate(321 121.61)"/><path class="cls-12" d="M-25.63,68.51c0,1.35-2.58.87-1.87,2.75h3.77C-23.44,69.68-24,68.66-25.63,68.51Z" transform="translate(321 121.61)"/><path class="cls-11" d="M301.14,79.53c2,1.48,2.68-.35,5.67,0-.3,1.61-2,3,1,3.43,1.34-2,4-3.07,8.53-2.75.89-3.17-3-2.85-4.74-4.13.24-2.26-1.12-3.33-3.79-3.45-1.33.89-.94,3-1,4.82C303.64,76.28,302.71,77.87,301.14,79.53Z" transform="translate(321 121.61)"/><path class="cls-11" d="M207.08,81.58c1.36,4.08-3.61,4.92,0,6.88,3,.34,2.53-1.85,4.77-2.06C211.06,84.22,209.08,82.89,207.08,81.58Z" transform="translate(321 121.61)"/><path class="cls-11" d="M269.78,100.2c.93,2.77,5.06,3.2,4.75,6.88,6.16-1,5.22,3.09,11.38,2.06-.27-1.58,2.73-.76,2.87-2.06-.73-.16-1.88,0-1.89-.71,3.12-.95,1.55-5.25,4.77-6.17-2.19-2.24.79-4.58-1-6.22,1.66-.61,3.27-1.26,2.84-3.42-2.29-1.32-4.15-3-8.55-2.78C284.09,95,271.47,93.59,269.78,100.2Z" transform="translate(321 121.61)"/><path class="cls-11" d="M251.71,95.35c-1.43-1.6-4.43-2.71-3.76-4.79-2.6.48-1.93-1.39-3.81-1.39.12,3-2.33-.08-4.77.68,0,8,13.35,6.41,11.43,15.84,4.68.38,6,4.91,10.4,3.44,2.18-2.63-2-5.64-1.84-8.93C256.46,98.78,253,96.82,251.71,95.35Z" transform="translate(321 121.61)"/><path class="cls-11" d="M305,100.87c-.2-3.06-6-2.09-7.64-4.13-4.87,2.84-8.25,10.5-.93,13.07-.21-2,.22-3.5,1.89-4.13,2.09,1.33,2.22,3.51,5.7,2.09-.49-2.88-3.67-3.81-3.79-6.9A4.58,4.58,0,0,0,305,100.87Z" transform="translate(321 121.61)"/><path class="cls-13" d="M325.8,98.11c-3.09-1.4-10.67-1.13-10.42,2.08C318.63,101.66,325.57,101,325.8,98.11Z" transform="translate(321 121.61)"/><path class="cls-13" d="M336.28,100.87h-6.64c-.85,1-1.42,2.19-3.83,2.07-2.94.52-1.77-1.92-4.7-1.39.28,1.81-3.74.56-2.86,2.74.12,1.56,2.36-.86,4.69,0,4.24,2.48,9.79,4,13.34,6.9v4.14c5.08-2.23,6.6,1.41,10.45,2.06,3.34-.1,2.29-3.4,6.64-2.76,2.23.94,4.75,5.24,8.54,2.76a3.81,3.81,0,0,1-2.85-4.11c-2.48-1.66-6-2.55-7.58-4.84v-2.08C344.15,106.18,342.16,102.12,336.28,100.87Z" transform="translate(321 121.61)"/><path class="cls-11" d="M285.91,116.71c.53-2.44-3.31-1.7-2.83-4.14-7.74.15-13.26-1.43-19-2.76-.83,1.23-2.66,1.77-1.87,4.14C271.26,114,275.57,117.58,285.91,116.71Z" transform="translate(321 121.61)"/><path class="cls-13" d="M356.18,143.58c.39-3.25-1.66-4.74-.94-8.28-1.86-.46-2.16-2.07-3.77-2.74-.34-5.28-6.8-6.1-5.71-12.4-1.77.15-2.08-.77-3.79-.69-2.45,2.83,1,10-2.88,11.71-3.73.9-1.92-2.27-5.7-1.39-.15-1.93-4.48-.84-3.77-3.43-.49-2.18,4.68-.26,3.77-2.73-3.3-2.68-13-.7-18-2.08-1.65.42,0,3.26-1.91,3.43a46.77,46.77,0,0,0-9.5,2.08c-1.19,2.08-.33,5.73-3.79,6.2-2.26-1.63-4.69.1-7.64,0-1.85.47.23,3.84-1.87,4.11-2-.38-1.85-2.07-3.79-.68-2.37,1.72-1.25,6-4.75,6.88-2.13,1-6.35.45-7.62,2.06,1,3.07,3.33,6.88,1,10.33,1.85.49,2.5,1.85,2.85,3.44.52,3.14-1.69,4.29-1,7.58,2.84-.18,3,1.55,5.74,1.39,4-1.26,6.29-3.69,13.31-2.77,3.35-3.07,10-3.75,18-3.44a13,13,0,0,1,5.66,6.2c3.72-1.29,2.56,1.59,6.66,0,0,1.81.34,3.91-1,4.82,6.08,2.56,9.67,2.71,19,2.77,2.39-1.24,4.16-3,7.6-3.49-.47-3.52,4.53-3.09,3.76-6.86,3.32-.16,2.48-3.28,5.72-3.44-1.09-2.44,1.63-3.91,1.89-6.2.52-4.2-1.84-8.51-2.84-12.39C358.58,142.66,357,145.6,356.18,143.58Z" transform="translate(321 121.61)"/><path class="cls-12" d="M134.91,121.54a17.41,17.41,0,0,0-3.81,6.89c-4.12.69-6.21,2.78-8.52,4.82-.76,2.38,1.38,2.66.94,4.81-.86,1.44-1.51,3.05-2.88,4.14,2.07,3.11-.65,5.86,2.88,8.27,3.08.13,4-1.22,7.58-.7,2.06-3.08,1.27-4.45,3.81-7.57v-3.45c.23-.77,1-1.07,1.89-1.39-1.73-3,1.75-5.87,1.95-11C135.18,126.39,138.83,121.23,134.91,121.54Z" transform="translate(321 121.61)"/><path class="cls-13" d="M408.45,168.37c.18-2,.13-3.77-2.84-3.44v5.48c-.76,2-4.52,1.8-3.81,4.85,6.38-.68,2.17,2.05,1.89,4.12,6-.21,6.22-4.7,8.57-7.58,1.42-1,4-1.24,4.72-2.78C414.7,166.91,413,168.63,408.45,168.37Z" transform="translate(321 121.61)"/><path class="cls-13" d="M398,176.64c-.81,1.45-2.85,2-2.81,4.12a7.13,7.13,0,0,0-3.83.69c-1.6,1.38-2.21,3.46-4.73,4.12-3.92,1.08-5.07,4.12-6.68,6.9,3.11-1.11,5.16-.34,8.55,0,.9-1.64,3.83-1.82,2.86-4.83h3.83c.26-3.92,7.46-2.82,7.56-6.88C402.4,178.48,399.93,177.79,398,176.64Z" transform="translate(321 121.61)"/><path class="cls-13" d="M333.4,178.69c-1.06,1.06,3.17,4.16,3.83,6.22,4.62-.33,7.59-1.83,6.65-6.22C339.73,179.24,335.08,177.84,333.4,178.69Z" transform="translate(321 121.61)"/><path class="cls-14" d="M-96.87,200h3.81C-92.41,197.33-97,197.79-96.87,200Z" transform="translate(321 121.61)"/><path class="cls-12" d="M139.64,77.45c-4.06-.42-3.84,2.25-7.56,2.07h-8.57c-.46-4.72-5.19-6.35-8.58-9,.84-4.53-5.64-3.71-3.79-9-1.61-1.57-4.57-2.19-5.69-4.12.84-1.94-1.07-4.93-.22-5.43-.24-.49-.53-1-.86-1.62-.27.17-.66.28-.8.18-.34-.25.11-.58.51-.7-1.72-3-4.16-6.86-5.1-8.33l-.2,0c-6.91-1.83-15.52-2.48-24.7-2.73-2.74.52-2.27,3.4-4.73,4.15-4.37-3.28-13-3.46-17.06-6.9.73-2.39-1.09-2.92-1.91-4.14,2.21-.19,2.17-1.84.92-2.75A43.9,43.9,0,0,0,37,31.3c-7.7-.33-14.38.1-18.06,2.77C18.18,32.63,16.24,32,13.31,32c-.79,2.43-4.2,2.92-6.63,4.14C4.1,39.37,5.07,43.59,2.91,46.46,1.48,48.28-3.62,50.14-5.68,52c-.15,4-2.34,6.57-4.76,9v17.9c3.28,2.68,6.15,5.67,7.63,9.63C1.56,90.35,4.5,93.28,10.47,94a67,67,0,0,1,13.3-.68c2-1.12,1.83-3.71,5.74-3.45,1.69.11.54,2.33,1.92,2.75,4.37-.44,6,1.11,9.46,1.38,1.62-.6,2.42-1.92,5.7-1.38,1,5.32-2,7.76-1.92,12.42,2.71,3.53,7.34,6.2,5.71,11,2.51,2.31,2.68,6.31,3.8,9.64-2.35,3.13-1.81,8.3-3.8,11.7a21.62,21.62,0,0,1,8.58,11v6.2c4.21,3.58,4.1,10.29,8.52,13.78,9.13-.48,13.71-4.26,21.85-5.51,1.44-3.79,4.33-6.49,8.52-8.27-.48-2.67,1.71-3.37.93-6.2,1.71-.63,2.44-1.92,5.72-1.39.1-7.94,4-13.14,11.42-15.83a45.23,45.23,0,0,0,0-19.27,30.1,30.1,0,0,0,4.7-9c2.27-1.12,4.19-2.47,6.67-3.45,4.52-4.75,8.62-9.83,13.32-14.44C141.34,82.46,142.6,78.95,139.64,77.45Z" transform="translate(321 121.61)"/><path class="cls-11" d="M403.7-38.25c-2.53-.84-6.22-4.53-8.53-1.39a3.64,3.64,0,0,0-.94-3.44c-5.18-1.35-7.92-4.41-16.16-3.45-1.1-1.28-3.67-1.47-4.75-2.76-6.22.6-7.54-2.36-14.27-1.39-1.31,2,2.62,3.53,0,4.15-2.75-.3-2.25-3-4.73-3.44-2.79,2.13-7.92.2-13.38,1.38-3.39-1.61-3.14-6-10.37-4.82-1.38.15-.32,2.05-1.93,2.05-4-1.25-7.82-2.6-11.38-4.1a2.62,2.62,0,0,1-1.89,1.36c1.19-2.71-2.27-2.05-4.77-2.05,2.34-1.64-1-1.56-1.86-2.77-4.58,1.21-4.25-.4-8.56-.68-.33.92-2.41.57-3.8.68-1,1.29,2.83,2.31,0,2.77-8.17-.94-18.53,1.22-25.69,0-2.39-.44-3.31-2.55-5.66-2.07-4.4.73-7.33-.72-10.48-1.38-1.11-.27-2.61.16-3.76,0-2.38-.33-4.19-2.19-9.49-1.41.36-1.77,2.8-2.07,2.83-4.11-1.34-2-4.39-2.78-5.69-4.84-2.87.93-7.27.73-11.41.71-2.37-.58-2-3.12-5.7-2.76-2.23.69-3,2.37-2.85,4.82-4.71-1.11-3,2.41-6.65,2.07-1.82-.28-.76-2.68-3.8-2.07-2.46,1.89-5.9,3.09-11.37,2.74-1.69.89-2.52,2.34-5.71,2.09-1.34.87-.44,3.36-2.9,3.43-2,.43-6.57-1.12-5.63,1.38,0,2.53,5.52,1,4.72,4.15-3.5-.74-4.43-3.22-9.52-2.75,0,1.8.53,4-1.9,4.12-1.1-.82-1.1-2.46-.95-4.12-3.7-.61-1.53,3-5.68,2.05-1.49-1.23-1.3-3.68-5.7-2.77-2.68,2.9-6.31,5.09-9.53,7.58-6.15.33-5.69-1.29-12.32-1.39-1.54,3.4,4.91,1,3.79,4.15-4-.67-8.22.35-14.25,0-4.28,1.26-6.61,3.92-11.39,4.81v-4.13c-2.36.11-4.58.12-5.69-.68.23,3.85,0,7.36-5.7,6.89.32,2.54-3.48,2.06-5.7,2.76-2.35.92,1.69,2.06-1,2.75-5.56.81-5.88-5-5.68-6.18,4.41,0,9.26-.3,12.34.67C110.85-44,103-46.18,96.9-46.52c-1.48-1.67-4-2.57-7.56-2.76a14.5,14.5,0,0,0-4.77-4.12H76c-2.57,1.3-5,2.79-7.55,4.12-.44-1-1.25.29-2.9,0-3.39,2.61-7.64,4.55-11.37,6.91a14.78,14.78,0,0,1-5.7,7.55c-.18-.8-1.75-.57-2.85-.67v2.74c-6,.27-6.66,4.36-8.58,7.59,1.92,1.63,2.2,4.4,1.92,7.57.92,1.86,6,.74,7.62,2.08-2.08,2-3.81,2.79-3.81,4.83,2-.33,1.78,1,1.89,2.06-3.38,0-5.5,1.07-8.53,1.35C35.26-6,33.45-5.51,34.21-3.13,28.81-4.3,32.09.84,27.57.3c.15.82-.2,1.22-1,1.37-4.17-.3-5,1.87-7.6,2.78C16.7,4.83,14.14,5,14.3,7.2c1.22.94,4.11.67,6.6.69-.45,3.11,4.4,2.33,3.83,5.52-1,.92-1,2.56-2.88,2.75-4.42-1.64-8.35.62-14.22,0-1,2.27,2.11,7.5-1.94,7.59.7,2,2.89,3,1.94,6.19,4.41-.68,5.74.9,8.56,1.37,3.55-1.32,4-1.32,7.57,0,2.16-2.79,5.43-4.8,4.73-9.64,4.17-.88,3.47-5.28,8.55-5.5,4,1.72,5.66-.48,9.54-.69-2.69,2.68-1.33,7,0,10.33,6-.39,2.27-3.9,2.83-7.59-1,0-1.19-1.21,0-1.38v1.38c2,.21,1.89,1.84,2.88,2.77,4.6.07,7.46,1.4,8.51,4.14-.16,1.49-2.37,1.46-4.77,1.35-.12,2.41,3.36,2.17,4.77,3.46-.45-3.1,2.56-3.66,4.75-4.81.53-1.56-1.8-1-1.91-2.09,1.76-2.15,3.22,2.33,4.8,0C65.84,19.39,54,18.78,57,13.41,59.87,16.56,65.23,18,68.45,21c.53.52,1.34,2.14,1.86,2.76.74.86,2.31,1.65,1.92,2.73v4.13c1.23.94,4.14.68,6.65.7,1.59-2.37-1.71-5.76.92-8.27h2.85c-1.06,2.71-.16,2.57-.91,5.49,2.12-.24,1.26,2,2.83,2.78,3.46,1.76,9.79,1.22,12.33,0,2.85,1-2.47,3.58,1.89,3.46,3.92.51.21-4.46,4.8-3.46v4.12c-2.36,1-1.37,4.47-3.36,5.74,1.66,3,5.6,10.28,6.15,11.41h0c2,1.51,3.76,4.38,2.86,5.59,4,2.88,6.62,6.67,10.47,9.65,2.27,2.87,1.91,7.17,6.67,9.63,6.62-1.6,11.27-4.66,19-5.53,1.33-.4.17-2.64,1.88-2.73,4.13-.48,5.85-2.67,9.52-3.47-.68-3,2.79-3.06,2.86-5.49-1.64-2.48-6.53-2.63-5.73-6.88-3.59-.34-6,.19-7.58,1.34-.79-2.6-4.28-3.3-3.82-6.88-3.07.18-2.74-2.12-4.71-2.75,1.41-.37,2.38-1,3.79-1.38,5.25,2.38,3.67,9.72,13.31,9,.38,1.33,2.69,1.26,1.88,3.45,4.6.34,5.27-2.13,9.52-2.06,1,.43,1,1.56,2.84,1.38,6.61-.72,8.25,2.27,12.29,3.42-1.57-.24-1.77.55-1.84,1.39,1,1.32,4.35.93,5.71,2.06-.5,2.17,1.7,2.42.89,4.82,2.89,2.29,4.12,5.76,5.72,9,2,1.32,4,2.64,4.8,4.81V85c1.18,1,4.1.66,6.61.68,1.26-4.4,4.66-7.19,3.79-13.09h3.82V69.86c3.59,1,1.84-1.86,4.73-1.35-.27-3.17,3.47-3.47,4.76-5.52a21.93,21.93,0,0,1,8.54-2.75c2.16,1.89,2.17,5.33,5.73,6.22.33,1.62-1.75,1.46-1,3.4,1.07,2.25,7.56.52,9.56,2.06-1.28,1.46.47,2.05-1,4.16,2.48.71,4.23,2,4.75,4.13-.35,1.3-2.71,1.25-1.88,3.45.29,2.08,2.93,2.45,1.88,5.51,4.57,2.87,8.89,6,14.24,8.27.25-4.55-4.47-5.46-4.73-9.66-2.65-1.32-5.17-2.69-6.66-4.82.44-2.23-1.25-5.94,1.89-6.19,2.08,2,3.58,4.33,7.66,4.82a3.1,3.1,0,0,1,.89,2.75c9.23-.88,11.48-6.84,10.44-15.13-1.21-.7-3.49-.69-4.73-1.38,1.21-3-4.55-2.83-1.9-4.83s2.47,2.26,6.63,1.38c.69-3,5.51-2.92,10.46-2.76,3-3.32,7.06-5.87,8.54-10.34,1.55.2,1.63-.64,2.85-.66,1.59-2.8-.21-8,2.87-9.63-2-.63-2.87-2-2.87-4.17-1.6-.86-3.69-1.41-3.77-3.43-.42-1.65,1.75-1.51.92-3.44,2,.21,3-.14,2.85-1.41,2.72-.87-4.28-4.11,1.92-4.11,1.08,2.2,4.36,2.77,5.71,4.83-.93,3.64,1.79,4.68,4.77,5.52,5.69-3-.2-10.57,2.83-15.83,2-1.31,4.86-2,7.6-2.77,2.19-3.22,4.14-6.62,7.55-9,1.32-5.55-2.16-11.27,0-15.15-1.29,3.93,2.19,4.4,2.87,6.89.19,4.27.47,8.39,4.77,9.63,1.77-1.22-.78-1.74,0-4.11,2.59-.08,1.91,1.15,3.79,0,.17-2.19-2.52-2.34-1.88-4.85-3.43-.47-4.33-2.81-5.72-4.81-.35-2.48.34-5.76-2.82-6.2-2,.17-.26,3.06-2.84,2.77-1.61-5.07-8.06,3.17-10.5-2.06.66-1.61,2.41-2.37,3.83-3.44,1.09-2.2.71-5.43,3.8-6.23,2.18,1.7,1.73-1,4.69-.68,4.48.46,8.62,1.81,14.29,1.39-.33,1.17.73,1.31,1.87,1.37,1.25-1,4.15-.66,6.67-.7.48-2.17-1.69-2.41-.94-4.8,1.93-.2,1.85-1.86,3.79-2.07,1.95.21,1.87,1.87,3.8,2.07-.44-1.51,2.82-3.8,3.76-2.07-3,4.42-7.49,7.85-8.53,13.77.62,1.86,2.71,2.63,3.82,4.14.42,2.64,1.12,5.16,3.77,6.19,2.37-1.73,3.77-4.16,6.66-5.52-.87-3.41,3-2.9,1-5.49.24-1.39,2.51-1.36,2.81-2.75-1.4-.82-4.26-.62-3.81-2.76.93-6,7.17-4.74,14.26-4.14,1.37-1.06,1.24-3.21,2.85-4.12,5.54-.3,9.71-2.19,13.26-2.08,0-2.95-4.7-2.52-4.7-5.51,2.23-.22,1.77-2.37,4.7-2,5,.06,4.3,4.24,10.45,3.41C404-34,401.88-36.22,403.7-38.25ZM68.45-26.55A14.72,14.72,0,0,0,76-23.79v6.88c-2.13-.28.54-4-3.77-2.75-2.1,2.38-.77,7.22-3.78,9-3.17.21-5.5-.33-7.64,0-2.64.39-3.2,2-5.7,2.06.3-.84-2.72-2.38-2.81-.7-2.23-.2-2.23-1.88,0-2.07a8.82,8.82,0,0,1-3.81-6.89c4.74.29,2.91,9.7,11.39,6.89,2.13-2.8,3.6-6.1,5.68-9a13.35,13.35,0,0,0-1.91-4.14C64.21-31,71-33,74.08-37.58c1.15-.09,1.73.15,1.91.7C75.23-32.15,67.57-32.46,68.45-26.55Zm10.43,4.81c-.06-2.08,3.35-1.7,5.69-2.06C84.64-21.66,81.71-21.74,78.88-21.73Zm7.6-26.85c-.5-.37.69-.89.94-.7C87.89-48.91,86.74-48.39,86.47-48.58Zm18,13.76c-.5-.35.67-.87,1-.67C105.93-35.14,104.77-34.63,104.51-34.82Zm70.28-11c-1.8-.28-4.08-.22-3.79-2.06-2.84-.14.89-2.87,0,0C171.67-46.8,175.63-48.06,174.79-45.84Zm58.86-12.37c-.46-.35.73-.92,1-.71C235.16-58.55,233.93-58,233.64-58.21Zm2.88-.71c-.48-.35.69-.87.94-.68C238-59.27,236.81-58.73,236.53-58.92Zm2.85-1.38c-.49-.35.69-.89,1-.7C240.82-60.62,239.64-60.12,239.37-60.31Zm42.77,86.78c1.33-1.31,2.1-3,5.71-2.73,0,1.06-.46,2.61.92,2.73C287.35,28.55,284.62,25.91,282.14,26.48Z" transform="translate(321 121.61)"/><path class="cls-10" d="M114-2.78s-6.39-.47-9.58-1.86A8.47,8.47,0,0,0,95.53-7c.46-3.41-1.83-6.66-6.84-6.66s-3.88-7.9-.46-9.92,2.74-2.94,0-5-3.88-9.61-3.88-9.61l5.1-11.17h-.11a14.5,14.5,0,0,0-4.77-4.12H76c-2.57,1.3-5,2.79-7.55,4.12-.44-1-1.25.29-2.9,0-3.39,2.61-7.64,4.55-11.37,6.91a14.78,14.78,0,0,1-5.7,7.55c-.18-.8-1.75-.57-2.85-.67v2.74c-6,.27-6.66,4.36-8.58,7.59,1.92,1.63,2.2,4.4,1.92,7.57.92,1.86,6,.74,7.62,2.08-2.08,2-3.81,2.79-3.81,4.83,2-.33,1.78,1,1.89,2.06-3.38,0-5.5,1.07-8.53,1.35C35.26-6,33.45-5.51,34.21-3.13,28.81-4.3,32.09.84,27.57.3c.15.82-.2,1.22-1,1.37-4.17-.3-5,1.87-7.6,2.78C16.7,4.83,14.14,5,14.3,7.2c1.22.94,4.11.67,6.6.69-.45,3.11,4.4,2.33,3.83,5.52-1,.92-1,2.56-2.88,2.75-4.42-1.64-8.35.62-14.22,0-1,2.27,2.11,7.5-1.94,7.59.7,2,2.89,3,1.94,6.19,4.41-.68,5.74.9,8.56,1.37,3.55-1.32,4-1.32,7.57,0,2.16-2.79,5.43-4.8,4.73-9.64,4.17-.88,3.47-5.28,8.55-5.5,4,1.72,5.66-.48,9.54-.69-2.69,2.68-1.33,7,0,10.33,6-.39,2.27-3.9,2.83-7.59-1,0-1.19-1.21,0-1.38v1.38c2,.21,1.89,1.84,2.88,2.77,4.6.07,7.46,1.4,8.51,4.14-.16,1.49-2.37,1.46-4.77,1.35-.12,2.41,3.36,2.17,4.77,3.46-.45-3.1,2.56-3.66,4.75-4.81.53-1.56-1.8-1-1.91-2.09,1.76-2.15,3.22,2.33,4.8,0C65.84,19.39,54,18.78,57,13.41,59.87,16.56,65.23,18,68.45,21c.53.52,1.34,2.14,1.86,2.76.74.86,2.31,1.65,1.92,2.73v4.13c1.23.94,4.14.68,6.65.7,1.59-2.37-1.71-5.76.92-8.27h2.85c-1.06,2.71-.16,2.57-.91,5.49,2.12-.24,1.26,2,2.83,2.78a9.52,9.52,0,0,0,2.34.78L88.23,14.8A164,164,0,0,0,110.36,5C114.24.47,114-2.78,114-2.78Zm-26.6-46.5c.48.37-.68.89-.94.7C86-49,87.16-49.47,87.42-49.28Zm-19,22.74A14.72,14.72,0,0,0,76-23.79v6.88c-2.13-.28.54-4-3.77-2.75-2.1,2.38-.77,7.22-3.78,9-3.17.21-5.5-.33-7.64,0-2.64.39-3.2,2-5.7,2.06.3-.84-2.72-2.38-2.81-.7-2.23-.2-2.23-1.88,0-2.07a8.82,8.82,0,0,1-3.81-6.89c4.74.29,2.91,9.7,11.39,6.89,2.13-2.8,3.6-6.1,5.68-9a13.35,13.35,0,0,0-1.91-4.14C64.21-31,71-33,74.08-37.58c1.15-.09,1.73.15,1.91.7C75.23-32.15,67.57-32.46,68.45-26.55Zm10.43,4.81c-.06-2.08,3.35-1.7,5.69-2.06C84.64-21.66,81.71-21.74,78.88-21.73Z" transform="translate(321 121.61)"/><path class="cls-14" d="M-53.18,113.95c0-2.56-1-4.36-1.89-6.18-1.67-1.3-2.79.29-4.74.67-1.5-2.36-5.18-3.15-8.52-4.15H-75c-1.7-2-8.06-.59-8.56-3.42-2.53,0-5.62.38-5.67-1.38,2.73-3.21-2.82-12-11.43-8.93-3-1.29-5.19-3.13-5.69-6.23-5-1-8.5-3-13.33-4.12-1.23.25-1.48,1.2-2.84,1.37-1.29-2.48-5.91-2.6-6.68-5.5-3-.62-2,1.76-3.78,2.07-2.21-.48-2.52-2.3-4.75-2.76-.86,1.2-1.73,2.38-4.74,2.06-1.45,2.85-5.22,4-7.55,6.18a29.7,29.7,0,0,1-3.06,3.87c.63,1.28,1.48,2.41,2,3.7,0,1.39-2.57.91-1.88,2.77.44,3.55-3,4.24-3.8,6.9-1.84,4.8,3.82,7.43,0,9.64,1.66,1.32,4.68,1.64,6.66,2.78-.79,1-3.05,1-4.75,1.35-.69,5.55,3.48,7.57,8.55,9,.38,1.64-1.76,1.48-1,3.43,3.55,2,4.81,5.67,10.47,6.2,1.73,3.08,4.73,5.26,4.71,9.64-1,.91-.89,2.54-1.85,3.43a2.89,2.89,0,0,1,1.85,2.76c-2.55,3.1,1.14,6.72,0,11-5.13,2.22-2.77,9.93-4.71,14.46,1.4,1.91,3.88-1.19,4.71.7.87,3.37-3.25,3.15-4.71,4.8-1.21,2.24,3,.54,1.87,2.78-1.81,1.67,1,3.33-1,5.49.93,4.68,4.12,7.09,2,11,2.8,1.61,2.5,5.49,5.67,6.89-.14,1.22,1.12,1.44.93,2.74a20.76,20.76,0,0,1,5.69,2.06c3.56-.42,9.8,1.14,10.42-1.38a9.27,9.27,0,0,1-5.68-2.76c.71-2.32-3.84-.87-2.85-3.43-.33-3,2.75-3.54,2.85-6.2,2.46-.08,3.69-1,3.82-2.74.48-2.44-3.35-1.68-2.85-4.14,2.55-2.12,6.45-8.93,0-9.64,6.36,1.17,6.14-2.4,7.58-4.8,5.11.24,6.86-1.95,10.47-2.77.63-3.21-1.52-4.42-1.92-6.87h7.61c.05-.69,1.17-.55,1.91-.71.53-1.68.81-3.53,3.8-3.44-.34-3.91,3.58-4.73,5.68-6.9v-4.8c1.81-1.22,3-2.92,4.74-4.15,4.53-1,4.53-1,8.55-2.06.43-4.42,5-8.25,1.9-13.09a3,3,0,0,0,1.9-3.45c1.53.22,1.65-.63,2.87-.67.35-2.28,2.79-3,3.81-4.81,2.52-1.8-.14-3.33,2.81-4.14C-54.79,116-53.18,115.57-53.18,113.95Z" transform="translate(321 121.61)"/><path class="cls-9" d="M-156.69,87.78c1-.91.91-2.56,2.83-2.74a7,7,0,0,0,.19.88,28.34,28.34,0,0,1,3.53-3.64c-.39-1.32-1.66-2-3.72-2.07-2.44.73-3.52,2.48-6.68,2.75-2.22-3.36,1-6.55,0-11-1.72-2.39-8-1.48-11.36-2.73.94-3,3.7-4.66,2.85-9a36.11,36.11,0,0,1-9.48,0c-1.75,1.48-.91,4.84-3.81,5.49-12.71.5-4.76-11.81-7.6-17.21,3.36-.57,5.36-2.06,8.56-2.74,5.19-.32,6.41,2.21,11.37,2-.08-1-.2-1.93,1-2,4.57.16,10.69-.88,11.39,2-.41,4,2.1,5.86,6.64,6.22-1.14-3.55-.63-4.63,0-6.9-1.07-1-2.7-1.69-2.84-3.45,1.6-4.56,5.79-7.28,12.33-8.27.88-2,.88-2.1,0-4.12a8.44,8.44,0,0,0,4.8-.7c-2.37-3.78,3.09-2.94,1.87-7.57,3.16-.93,6.17-1.92,9.48-2.75.5-2.16-2.88-1.56-1.88-4.13,3.47-2.09,8.75-2.86,13.34-4.14.66,1.87-1.93,1.39-1.93,2.75,3.8-1.15,7.83-2.12,10.47-4.12-2.35-1.08-7.08-.43-6.67-3.45.53-1.91,3.65-1.92,5.71-2.75.38-1.67-1.75-1.49-1-3.46,4.62,2.27,10-3.33,13.3-2.07-2.2,3.69-6.72,5.67-8.54,9.63,3.52.5,4.09-1.17,7.57-.67.09,1.07-.42,2.62,1,2.76.94-1.7,3.64.94,6.65,0-.46-1.58-1.86-3.52,0-4.83-3.46-.24-4.35-2.36-5.71-4.14a41,41,0,0,0,0-9c-1.82-1.27-2.36,0-4.73,0,.1-3.26-4.39-3.25-4.75-6.18a3.15,3.15,0,0,0,.94-2.75c-3.66-1.51-2.33-6.61-7.62-6.9-.48,1,1.14,3.56-.94,3.46-2-.41-6.24.86-6.65-.71v-6.87c-5.09,1.66-4.16-1.61-8.56-2.07-2.5,1.9-2-.8-4.72-.68-2.3-.28-2.05,1.25-4.76.68,1.42,6.86-2.58,10.72-1,15.84-1.62.2-4.73-1.95-5.71,0,1,2,3.17.44,3.82,1.37-3.32,1.5-3.39,5.34-4.74,8.28-2.17-2.11-2.6-5.49-3.78-8.28-1.94-1.37-1.88.32-3.8.69-.82-2-1.42-.75-3.83-.69a26.52,26.52,0,0,0-10.4-4.81c1.5-3.42-3.34-2.19-2.93-4.83,2.07.33,1.85-1,1.95-2.06,3.14-1.18,4.47-3.62,7.59-4.83,2.1-2.41,3.55-5.25,8.58-5.51.06-1.23-1.17-1.45-1-2.75a90.87,90.87,0,0,0,14.21-2.76,12.8,12.8,0,0,1,1-6.89c-1.12-1-3.59-1.08-4.73-2.06,3.77-.23,7,0,8.52,1.36,1.78-2.09,4.56.8,7.61,0-1.32,3.51,4.34,1.91,3.8,4.85-.93,5-11.27,3.28-12.35,8.24,1.57,1.64,5.54,1.51,9.51,1.37,5.9,1.93,8.23,6.45,16.17,6.9-2.13-3.57,1.59-3.47,1-7.57-.42-1.79-2.88-2.08-2.89-4.14,3.62.15,4.62,2.19,7.62,2.75-.27-1.79-.34-3.43,2.85-2.75-.67-2.12,1-2.51.92-4.14-2.56.49-1.8-1.41-2.84-2.06a60,60,0,0,1-8.55-2.08c.27-1.4,2.59-1.33,2.89-2.74-1.23-1.65-4.18-2-3.85-4.82h-8.52c.45-2.18-2.55-1.82-2.85-3.46-4-.4-6.28.5-9.51.71.56-4.27-7.5-2.91-8.56-.71.35-2.57-.76-4-3.79-4.14-4.9,2.19-10.61,9.23-4.74,13.1,1.39.38,4.88-.78,4.74.68-1,2-3,3.32-4.74,4.85-2.43-1.7,2-1.49,1-4.15-3.25-1.54-6.33-3.23-7.63-6.21-3.61.33-3-2.38-7.55-1.36.33,1.64-1.79,1.48-1,3.42,3.26.94,2.05,6.41,0,7.59a3,3,0,0,1-1.85-3.45C-169-47-169-44-172.87-43.77c-3.53-1.1-7.41-2-9.47-4.13,4.24-.52,5.72.92,9.47.68,2.1-1.43-.43-2,0-4.13,5.27-.78,7.36-3.86,12.33-4.8-1.72-2.17-1.37-3.79-1.87-5.51h-14.21c-2.1,1.93-6.83,1.93-7.63,4.8-.48-1-1.39-1.71-1.88-2.74-2.51,0-5.92.63-4.73-2.06,7,1.05,15.42-2.51,21.83-4.15,0,3.17,8.13,2.38,9.5.69-.66-1.57-.86-3.5-1.87-4.84-5.6.54-8.35,3.19-14.28,3.46v-4.13c-5.19-1.27-6.12,3.24-2.84,4.13-5.45.49-8.52-.76-13.27-.69,1.41,3.57-4.39,1.91-4.75,4.14,2.37.87,2.92-.35,3.77.69-.61.91-2,1.28-3.77,1.35-1.53-3.93-9.06-3.55-16.17-3.44-.5,3.34-2.92,5.23-5.71,6.9-.17,2.17,2.48,2.33,1.93,4.82,4.69.21,7-1.3,10.39-2.06-1.94,3.73,5.22.83,5.73,2.77.68,1.86-4.47-.5-3.82,1.35,0,3.73,10.39-.17,8.58,4.83,3.54-1.53,4.64-1.09,8.52,0h1c-.3-.83,2.74-2.37,2.85-.68-.17.82-1.51.77-2.85.68.25,1.74,4.07,3.91,0,4.84-1.12-.14-.77-1.27-1-2.07-8.43-.55-12.7-4.1-22.78-3.45-2.9-.64-3-3.34-6.63-3.44-.45,2-3,2.43-5.72,2.75a3.61,3.61,0,0,0-.92-3.45c-3.67.16-3.67,2.93-7.6,2.77-3.61.53-4.54-.84-7.62-.68-1.05.16-.62,1.36-1.9,1.36-.92,0-.77-.84-.92-1.36-2.28.22-3.6,1.08-6.69.68-7.57-3.43-22.2-1.79-30.35-4.83-7.1,2.25-16.32,2.89-20.9,3.45-2.17,2.67,1.72,2.72,2.81,4.84,3.63-.33,5.94.28,6.67,2.08-3.85-1-3.41,1.22-4.77,2.06-1.73-.61-2.58-1.78-4.72-2.06-3.61,2.65-12.29,1.66-15.22,4.8,5.24-.12,7.1,2.21,7.61,5.55,5-1.32,8.82.18,13.31-.73-4.65,6.07-24.41,1.18-22.83,11.72,3.17,1.66,3.91,1.89,2.87,5.52,1.71.08,2-.85,3.77-.69.08,1.1-.44,2.62,1,2.75,1.34-2.19.44,2.82,2.87,2.06,1.17-2.68,5.41-3.29,8.53-1.37-4.1,2.32-5.58,6.5-10.41,8.26-4.36,1-5.85,4-11.39,4.12.76,2.21-1.52,2.13-1.92,3.45,4.35.39,5.92-1.23,10.43-.69,1.06-2,4-2.56,7.62-2.77,3.57-4.73,9.75-7.6,15.2-11h1.92c1-.64.28-2.52,2.81-2.06.07-.41.16-.81.94-.67-.05.41-.11.81-.94.67.41,3.08-2.54,3.65-3.79,5.51,7.81.63,9.7-3,16.16-3.45.43-3.09-.5-5.17-1-7.58,4.36.65,4.61-1.71,8.5-1.38a23.79,23.79,0,0,1,6.69,4.84c6,1.39,11.2,3.38,10.44,9.64,4.6-.44.22-3.81,3.84-4.14.21,5.83-.3,12.11,2.8,15.85-2.86,1.79-1,2.55,0,4.83,0,1.35-2.58.85-1.85,2.76-.46,7.55-1.09,12.61,0,20,2.52,1.14,4.18,2.92,6.62,4.14,2.62,2.66,2.43,7.39,5.69,9.63-1.1.12-.8,1.25-1,2.07,4,1,4.88,4.26,6.69,6.89,2.89-.52,2.74,1.2,5.63.67.14-2.93-1.83-2.29-1.85-6.16-.54,0-1.07-.59,0-.7v.7c2-.35,1.77,1,1.85,2a29.62,29.62,0,0,1,7.64,5.51c-.69,4.86,1.83,7.4,3.77,10.34,7.85,1.41,12.47,4.94,21.86,3.42a26.12,26.12,0,0,0,3.82,4.84c3.58-.53,4.55.84,7.56.69.9,1.66,2.79,2.57,4.75,3.43V83C-162.63,83.37-161.51,86.92-156.69,87.78ZM-98.74-6.56c.47.35-.69.86-1,.67C-100.19-6.24-99-6.79-98.74-6.56ZM-171.9-60.31c2.92.67-1,1.85-1,2.76C-175.74-58.21-172.42-59.87-171.9-60.31Zm-3.79,3.45c3-.32,3.36,1.27,6.65.71,0,2.73-3.72,2.82-6.65,3.42Zm-29.42,1.41c-.51-.38.62-.91.91-.7C-203.71-55.8-204.86-55.29-205.11-55.45Zm-20,99.15a.46.46,0,0,1,.92,0C-224.3,44.5-225.07,44.09-225.07,43.7Zm.92,1.38c2.26.23,2.16,2.14,3.81,2.75C-221.54,49.57-225,47.09-224.15,45.08Z" transform="translate(321 121.61)"/><path class="cls-15" d="M267,81.35l-.25-1.47L337.7,64.77a10.79,10.79,0,0,0,.18,3.78A14.06,14.06,0,0,0,339,72.18Z" transform="translate(321 121.61)"/><polygon class="cls-16" points="589.32 203.06 587.84 202.88 601.43 68.71 608.89 69.63 589.32 203.06"/><polyline class="cls-17" points="601.13 70.51 681.02 80.41 659.71 105.98 674.13 135.98 595.73 126.27"/><polygon class="cls-18" points="643 119 633.01 109.73 621.08 116.31 626.71 103.91 616.86 94.63 630.67 96.34 636.17 83.92 638.61 97.32 652.33 98.98 640.61 105.63 643 119"/><path class="cls-19" d="M58,19.35l-.25-1.47L128.7,2.77a10.79,10.79,0,0,0,.18,3.78A14.06,14.06,0,0,0,130,10.18Z" transform="translate(321 121.61)"/><polygon class="cls-16" points="380.35 140.41 378.87 140.57 361.33 6.86 368.81 6.05 380.35 140.41"/><polygon class="cls-20" points="384.32 6.2 390.36 61.87 368.99 64.19 361.46 8.68 384.32 6.2"/><rect class="cls-2" x="66.26" y="-117.14" width="29" height="56" transform="translate(331.08 129.8) rotate(-6.19)"/><polygon class="cls-21" points="441.49 0 426.61 29.78 447.53 55.67 419.19 58.75 413.15 3.07 441.49 0"/><path class="cls-22" d="M246,70.35l-.25-1.47L316.7,53.77a10.79,10.79,0,0,0,.18,3.78A14.06,14.06,0,0,0,318,61.18Z" transform="translate(321 121.61)"/><polygon class="cls-16" points="546.59 88.25 548.66 98.46 550.56 107.77 552.35 116.59 557.08 115.77 568.71 191.9 567.24 192.16 550.47 107.79 548.62 98.47 546.59 88.25"/><polygon class="cls-23" points="557.08 115.77 552.35 116.59 550.56 107.77 555.73 106.86 622.9 95.07 630.16 102.93 557.08 115.77"/><polygon class="cls-16" points="548.36 58.58 548.63 60.39 541.31 61.68 540.95 59.88 548.36 58.58"/><polygon class="cls-23" points="543.06 70.51 549.99 69.29 616.33 57.64 620.47 47.77 548.63 60.39 541.31 61.68 543.06 70.51"/><polygon class="cls-2" points="541.31 61.68 543.06 70.51 549.99 69.29 616.33 57.64 611.96 68.05 551.42 78.69 544.91 79.83 546.59 88.25 544.88 79.83 542.98 70.52 541.19 61.7 541.31 61.68"/><polygon class="cls-24" points="548.66 98.46 554.29 97.47 615.25 86.76 607.59 78.47 611.96 68.05 551.42 78.69 544.91 79.83 546.59 88.25 548.66 98.46"/><polygon class="cls-2" points="550.56 107.77 555.73 106.86 622.9 95.07 615.25 86.76 554.29 97.47 548.66 98.46 550.56 107.77"/><path class="cls-25" d="M87,22.35l-.25-1.47L157.7,5.77a10.79,10.79,0,0,0,.18,3.78A14.06,14.06,0,0,0,159,13.18Z" transform="translate(321 121.61)"/><polygon class="cls-16" points="428.4 38.15 426.09 50.41 422.72 68.33 427.41 69.35 409.46 144.24 408 143.93 426.04 50.4 428.4 38.15"/><polygon class="cls-2" points="433.19 13.3 433.08 13.28 430 29.68 428.4 38.15 430.03 29.68 436.57 31.14 497.41 44.68 511.76 30.29 440.46 14.87 433.19 13.3"/><polygon class="cls-16" points="440.89 13.09 440.46 14.87 433.19 13.3 433.54 11.51 440.89 13.09"/><polygon class="cls-26" points="426.09 50.41 431.65 51.65 492.5 65.2 488.25 53.85 497.41 44.68 436.57 31.14 430.03 29.68 428.4 38.15 426.09 50.41"/><polygon class="cls-27" points="427.41 69.35 422.72 68.33 426.09 50.41 431.65 51.65 492.5 65.2 499.93 85.02 427.41 69.35"/></svg>