<svg xmlns="http://www.w3.org/2000/svg" viewBox="0 0 350 102"><defs><style>.cls-1,.cls-5{fill:#fff;}.cls-2{fill:#259955;}.cls-2,.cls-3,.cls-4,.cls-5,.cls-7{fill-rule:evenodd;}.cls-3,.cls-6{fill:#d9d9d9;}.cls-7{fill:#4cc47e;}.cls-8{fill:#308a56;}</style></defs><title>PandaQuiz-logo</title><g id="Layer_2" data-name="Layer 2"><rect class="cls-1" width="350" height="102"/><path class="cls-2" d="M22,101.41a2.13,2.13,0,0,0-.3-.73.86.86,0,0,0-.59-.41h-.13a.3.3,0,0,0-.14.17,1,1,0,0,0,0,.5,2.15,2.15,0,0,0,.1.44H22Z" transform="translate(0 -34)"/><path class="cls-3" d="M48.28,79.41c-.71-.82-1.2,4.21-1.77,3.64-.77-.77.88-2.65-.45-2.82s1-1.69-1-1.33c-11.18,2.05-11.1,9.91-6,12.73a1.13,1.13,0,0,1,.42-1c.41.45,1.72,2.17,2.56,2.22,1-1.75,4.52-1.17,5.69-2.93a3.78,3.78,0,0,1-.41,1.23,8,8,0,0,0,2.37-1.74A8.72,8.72,0,0,0,50.82,88c.45-.72.74-.79.77-1.51,1.85,1.38,1.69,4.71,0,6.25a18.8,18.8,0,0,1,3.43-.42h.08a18.8,18.8,0,0,1,3.43.42c-1.65-1.54-1.81-4.87,0-6.25a4.72,4.72,0,0,0,.77,2.19,8.71,8.71,0,0,0,1.13,1.44,8,8,0,0,0,2.37,1.74,3.78,3.78,0,0,1-.41-1.23c1.17,1.77,3.9,2.59,4.87,4.34.84,0,2.7-2,3.11-2.41a1.13,1.13,0,0,1,.42,1C76,90.71,76.38,81,65.2,78.91c-2-.37.37,1.15-1,1.33s.32,2-.45,2.82c-.57.57-1.06-4.46-1.77-3.64-1.13-.15-2.69.8-3.71,1.95a3.94,3.94,0,0,1,1-3.3,2,2,0,0,0-2.55,1.36,4.34,4.34,0,0,0-1.52-3v-.1l0,0,0,0v.1a4.34,4.34,0,0,0-1.52,3A2,2,0,0,0,51,78.05a3.94,3.94,0,0,1,1,3.3c-1-1.15-2.58-2.1-3.71-1.95Z" transform="translate(0 -34)"/><path class="cls-4" d="M72.65,85.49c.57,3.27-2.24,7.41-5.56,7.41-2.31,0-5.93-4.16-7.16-5.27a4.07,4.07,0,0,1-1.46-4.27c1-3.51,2.62-4.86,4.67-4.81,3.46.08,8.91,3.47,9.52,6.94Z" transform="translate(0 -34)"/><path class="cls-5" d="M65.08,87.73a2.37,2.37,0,0,1-2.75-1.54c-.11-.57,4.21-1.85,4.5-1.08a2.23,2.23,0,0,1-1.75,2.61Z" transform="translate(0 -34)"/><path class="cls-4" d="M32,76.51c.48-2.12-5.42-3.33-5.71-9.41-.29-5.91,3-8.73,6.22-11.43.25.55.51.57.76.49.41-.12.25-.92,1.16-1.87.3.79.58,1.93,1.22,1.69.25-.09.14-.54.47-1a3.6,3.6,0,0,0,1.2,1,8.09,8.09,0,0,1,2.41,3c1.59,2.31,3,2.93,6.56,1.61a25.7,25.7,0,0,1,8.79-1.54h.08a25.7,25.7,0,0,1,8.79,1.54c3.61,1.32,5,.7,6.56-1.61a8.09,8.09,0,0,1,2.41-3,3.6,3.6,0,0,0,1.2-1c.33.45.22.9.46,1,.64.23.93-.9,1.22-1.69.92,1,.75,1.75,1.16,1.87.26.08.51.06.76-.49,3.19,2.7,6.51,5.52,6.22,11.43-.29,6.08-6.2,7.29-5.71,9.41q.21,1,.32,2c1,5.07.88,15.53,6.38,19.09a2.29,2.29,0,0,1-1.62.81,3.48,3.48,0,0,1-.43,3.84c-.22-.4-.48-.63-.57-.64-.46,3.45-7.95,6.65-10.63,8.05-6.83,3.58-8.06,6-16.52,6h-.08c-9.68,0-12-4.56-17.51-7.74a32,32,0,0,0-5.91-3c-2.09-.82-5.59-3-5.5-5.5-.09,0-.35.16-.57.56a3.48,3.48,0,0,1-.43-3.84,2.26,2.26,0,0,1-1.67-.7c2.85-1.85,7.49-13.35,8.19-16.94q.11-1,.32-2ZM55.13,61.31h0c-10.72,0-20.07,7.29-21.57,18a47.48,47.48,0,0,1-4.4,12.31c-1.84,3.9-.64,9.69,3.83,11.45,2.61,1,3.27,1.93,5.76,3.37,5.08,2.94,7.86,7.37,16.42,7.38s10.28-3.56,15.36-6.5c5.42-3.14,12.8-5.11,8.87-13.44-2-4.29-1.7-9.74-2.64-14.57-1.5-10.67-10.86-18-21.57-18Z" transform="translate(0 -34)"/><path class="cls-4" d="M37.57,85.49c-.57,3.27,1.53,5,5.88,5.05,3.29.21,5.62-1.8,6.85-2.91s2.54-3,1.46-4.27c-2.26-2.6-3.36-4.57-5.41-4.53-3.46.08-8.17,3.18-8.77,6.65Z" transform="translate(0 -34)"/><path class="cls-5" d="M45.27,86.5c1.24.34,2.34.46,2.59-.28.14-.43-4.07-1.94-4.4-1.37s.57,1.32,1.81,1.66Z" transform="translate(0 -34)"/><path class="cls-6" d="M38.16,71.88c.7-1.48,4.19-2.31,7.12-2.27a5.65,5.65,0,0,0-1.85-1.95c1.77-.94,5.54-.13,7,.54a4,4,0,0,0-1.21-2.48A9.32,9.32,0,0,1,55,67.52a.23.23,0,0,0,.2,0A9.32,9.32,0,0,1,61,65.72a4,4,0,0,0-1.21,2.48c1.47-.67,5.24-1.47,7-.54a5.65,5.65,0,0,0-1.85,1.95c2.93,0,6.42.79,7.12,2.27a3.15,3.15,0,0,0-2.28.56c2.47.64,5.67,4.17,5.51,5.8a2.63,2.63,0,0,0-1.42-.09c2.23,2,.37,10.42,3.64,15.67a6,6,0,0,1,.64,5.6v0l0,.07-.06.11a3.1,3.1,0,0,0-2.33-2.12,4.33,4.33,0,0,1,.35,3.57v0h0a4.83,4.83,0,0,0-1.19-1c.59,4.13-3.13,4.88-6.88,5.69,0,0,0,0,0,0a1.4,1.4,0,0,1-1.07-.05.79.79,0,0,1,.79-.43,1.66,1.66,0,0,0-1.61-.55,1.09,1.09,0,0,1,.68-.53c-4.16-1.41-8.81,2-11.15-3.25-.61-1.36-.77-4.14,3.15-4.9,1.67-.33,3.08-1.84,1.79-2.32a13.31,13.31,0,0,0-5.41-.7h0a13.31,13.31,0,0,0-5.41.7c-1.3.47.12,2,1.79,2.32,3.92.76,3.57,3.47,3.15,4.9C53.7,104.12,49.85,104,47,102a17.69,17.69,0,0,1-4.68-5.23,2.82,2.82,0,0,0-4.16-.54,1.5,1.5,0,0,1,1.52.82,4.14,4.14,0,0,0-2.54.7,2.43,2.43,0,0,1,1.5.61c-1.47,0-1.44,2.11-.78,2.61,2.31,1.46,4.64,3.75,7,5.52a84.69,84.69,0,0,0-8.74-3.5c-.87-.34-2.81-3.06-2.49-5.29a4.84,4.84,0,0,0-1.19,1h0v0l0-.08v0l0-.08v0l0-.08v0l0-.08v0l0-.08v0l0-.08v-.68s0-.06,0-.09v0s0-.06,0-.09v0s0-.06,0-.08v-.23h0v-.1h0v-.12l0-.09v0l0-.1v0l0-.1v0l0-.1v0l0-.1h0l0-.11h0l0-.11h0l0-.11h0l0-.11h0l0-.11h0l.05-.11h0l.06-.11h0l.06-.11a3.1,3.1,0,0,0-2.33,2.12l-.06-.11,0-.07v0a6,6,0,0,1,.64-5.6c3.27-5.25,3.17-11.32,5.4-13.35a2.63,2.63,0,0,0-1.42.09c-.15-1.62,3-5.15,5.51-5.8a3.15,3.15,0,0,0-2.28-.56ZM54.89,109a47.55,47.55,0,0,1,5.69-1.57l-1.9-2.35a8.22,8.22,0,0,1-3.57-1.16,8.22,8.22,0,0,1-3.57,1.16L54.89,109Zm.26-47.7h-.08c0-1.29,0-1,0,0-10.71,0-20.05,7.29-21.55,18-.8,4.08-2.1,6.82-3.54,10.35a19.2,19.2,0,0,1-3.18,5.26,1,1,0,0,0,.87.06,3.11,3.11,0,0,0-.65,2.4,1.89,1.89,0,0,1,1.22-.43,7.77,7.77,0,0,0,4.7,6.06c2.61,1,3.79,2.31,6.28,3.75,5.07,2.93,7,7,15.84,7.06h.08c8.85,0,10.38-2.92,15.46-5.85,1.79-1,7-3.72,8-5.07A5.76,5.76,0,0,0,80.38,99a2.72,2.72,0,0,1,1.05.68,3.11,3.11,0,0,0-.65-2.4,1,1,0,0,0,.87-.06c-4.45-4.71-3.66-11.27-5-17.92-1.5-10.67-10.84-17.95-21.55-18Z" transform="translate(0 -34)"/><path class="cls-4" d="M40,98.4h0a4.7,4.7,0,0,0-.4.29,9.77,9.77,0,0,0-1.46,1.85c-.14.22.23,0,.45.15a.47.47,0,0,0,.43,0c.65,2.57,4.49,5.49,8.67,7.09A19.85,19.85,0,0,0,55.05,109h0c2,.06,7.67-.87,9.26-2.88h0a5.45,5.45,0,0,0,.83.18c.61.07,1-.13.1-.66a6.08,6.08,0,0,0-1.47-.68,9.75,9.75,0,0,0-2.35-.16h0a7,7,0,0,1-3.32-.25c-1.69-.49-2.55-2-2.71-3.86.11-4.17,5.89-3.46,5.89-6,0-2.08-4.43-2.36-6.13-2.38h-.08c-1.7,0-6.13.3-6.13,2.38,0,2.55,5.78,1.83,5.89,6-.12,2.62-1.64,3.59-3.63,3.6-4.2,0-7.16-2.62-9.84-5.39l-.19-.19a4.14,4.14,0,0,0,.33-.33c.4-.46.44-.87-.48-.45a7.25,7.25,0,0,0-1,.52Z" transform="translate(0 -34)"/><path class="cls-5" d="M50,105.5a3.63,3.63,0,0,1-1.66-.29,2.56,2.56,0,0,0,.08.39c.29,1.22.66,1.5.9,1.53s.45-.57.55-1.14a2.7,2.7,0,0,1,.14-.49Z" transform="translate(0 -34)"/><path class="cls-3" d="M48.62,106.34c-.07-.68,1.16-.59,1.1.14a9.06,9.06,0,0,1,.24-1,4.16,4.16,0,0,1-1.66-.29,2.56,2.56,0,0,0,.08.39,4.74,4.74,0,0,0,.24.74Z" transform="translate(0 -34)"/><path class="cls-7" d="M41.1,100.29l-20-.39a3.62,3.62,0,0,1,1.28,1.88c0,.08,0,.15,0,.22-.05,1.67-1.44,4.83.17,7.47.82,1.34,2.38,1.95,3.1,1.41,1.32-1,1.47-3.4-.77-5.68l20.44-2a19.52,19.52,0,0,1-4.24-2.92Z" transform="translate(0 -34)"/><path class="cls-2" d="M22.29,106.21c5.86-.45,11.53-2.27,17.41-2.45l4.37-.8a9.54,9.54,0,0,1-1.72-1.45l-1.54-1-6.75-.48c1.85.29,5.11.83,4.53,1.76-1,1.61-10.62.77-15.94,1.16l-.36,3.23Z" transform="translate(0 -34)"/><path class="cls-2" d="M39.25,103.82c.43,1.62-.2,2.89-3.08,3.08s-4.29-.46-4.69-2.53c-.48-2.47,1-2.35,3-2.36,3,0,4.41.43,4.78,1.8Z" transform="translate(0 -34)"/><path class="cls-2" d="M45.34,103.21l-20.44,2c2.16,2.36,1.84,6,.77,6.29l11.16-3.9,4.35-1.16,5.53-.71q.89-1.17-1.37-2.53Z" transform="translate(0 -34)"/><path d="M45.51,103.76l-19.17,2c1.22,2.08,1,4.07.53,4.83a63,63,0,0,1,14.08-4.76c1.75-.33,3.69-.25,5.54-.45a.69.69,0,0,0,0-.7h0a2.17,2.17,0,0,0-1-.93Zm-7.2-.24a3.34,3.34,0,0,0-1-.83,5.55,5.55,0,0,0-2.88-.67,3,3,0,0,0-2.16.7,2,2,0,0,0-.45,1.44l6.45-.63Zm-7.38.72a2.89,2.89,0,0,1,.69-2.16,3.82,3.82,0,0,1,2.85-1,6.46,6.46,0,0,1,3.36.8,4.14,4.14,0,0,1,1.53,1.53l4.71-.46h0q-.41-.25-.86-.56c-1.78-1.22-1.19-1.47-3.28-1.44-.76,0-1.57-.08-2.33-.14-5.32-.41-11.66-1.16-14.91-.45a3.72,3.72,0,0,1,.12,3c-.58,1.69-.08,6.23,1.32,7.34.83.66,1.47.1,1.75-.95A3.93,3.93,0,0,0,26,108.2a7,7,0,0,0-1.42-2.75.37.37,0,0,1,.25-.61l6.1-.6Zm-9-2.84a2.13,2.13,0,0,0-.3-.73.86.86,0,0,0-.59-.41h-.13a.3.3,0,0,0-.14.17,1,1,0,0,0,0,.5,2.15,2.15,0,0,0,.1.44H22Zm.05.75H20.36l-.1-.22A3.13,3.13,0,0,1,20,101a1.76,1.76,0,0,1,.09-.87,1,1,0,0,1,.54-.58l.13,0h0c3.27-.93,11.23,0,16.65.44a9.05,9.05,0,0,0,3.64-.06h.14l.1.09q1.25,1.06,2.3,1.78a12.57,12.57,0,0,0,1.77,1h0l.08,0,1.26.57-.39,0a3,3,0,0,1,.76.86h0A1.39,1.39,0,0,1,47,106l-.08.11-.13,0c-2,.26-4,.2-5.65.54-5.26,1.05-10.36,3.67-15.37,5.45l-.09,0h0a2.53,2.53,0,0,1-2.13-.39c-1.66-1-2.69-5.23-1.82-8.24a7.89,7.89,0,0,0,.3-1.34Z" transform="translate(0 -34)"/><path class="cls-7" d="M37.57,104.61h0c-3.74.4-7.48.8-11.22,1.17a7,7,0,0,1,.42.84q.09.21.16.42c2.74-.46,5.85-.94,8.59-1.4,3.34-.57,6.59-1.06,10-1.37l.67-.06a3.31,3.31,0,0,0-.5-.38l-.12-.08-7.94.85Z" transform="translate(0 -34)"/><path class="cls-5" d="M55.15,110.64h-.08c-2.51,0-5.51-1.18-4.95-.22.42.71,2.07,1.44,4.95,1.56h.08c2.88-.11,4.53-.85,4.95-1.56.56-1-2.43.24-4.95.22Z" transform="translate(0 -34)"/><path class="cls-5" d="M55.08,93.62h.06c2.15,0,3.9.41,3.32-.18-.22-.23-.86-.42-3.32-.57h-.06c-2.47.15-3.1.34-3.32.57-.58.6,1.17.16,3.32.18Z" transform="translate(0 -34)"/><path class="cls-5" d="M61.82,105.7c-.29,1.14-.64,1.41-.87,1.43s-.45-.57-.55-1.14l0-.12a10.13,10.13,0,0,1,1.45-.17Z" transform="translate(0 -34)"/><path class="cls-3" d="M61.82,105.7a6.6,6.6,0,0,1-.29.84c-.13-.38-.8-.36-1,0,0-.17-.09-.37-.12-.57l0-.12a10.16,10.16,0,0,1,1.45-.17Z" transform="translate(0 -34)"/><path class="cls-8" d="M101.38,96.52V73.68a1.71,1.71,0,0,1,.5-1.23,1.62,1.62,0,0,1,1.21-.51h14q11.1,0,11.1,10.23t-11.1,10.23H108.3v4.13a1.72,1.72,0,0,1-1.72,1.72h-3.45a1.69,1.69,0,0,1-1.23-.5A1.65,1.65,0,0,1,101.38,96.52Zm6.92-9.32H115a8.63,8.63,0,0,0,4.68-1q1.6-1,1.6-4t-1.6-4a8.64,8.64,0,0,0-4.68-1h-6.7Z" transform="translate(0 -34)"/><path class="cls-8" d="M132.48,96.92a5.47,5.47,0,0,1-2.43-4.77,5.38,5.38,0,0,1,2.43-4.73,10.93,10.93,0,0,1,6.27-1.65h6.07a4,4,0,0,0-.9-3,4.58,4.58,0,0,0-3.15-.84A3.88,3.88,0,0,0,137.62,83a2.78,2.78,0,0,1-2.23,1.11h-2.73a1.11,1.11,0,0,1-.82-.32,1.08,1.08,0,0,1-.32-.8q0-5.27,10-5.26a11.51,11.51,0,0,1,7,2q2.64,2,2.64,6V97.12A1.07,1.07,0,0,1,150,98.24h-3.54a1.07,1.07,0,0,1-.81-.32,1.1,1.1,0,0,1-.31-.8v-.57a11.14,11.14,0,0,1-6.69,2.06A10.72,10.72,0,0,1,132.48,96.92Zm4.68-6.37a2,2,0,0,0-.74,1.61,2,2,0,0,0,.77,1.63,3.32,3.32,0,0,0,2.18.64,10.09,10.09,0,0,0,5.45-1.65V89.93h-5.63A3.06,3.06,0,0,0,137.16,90.55Z" transform="translate(0 -34)"/><path class="cls-8" d="M155.68,97.12V79.27a1.11,1.11,0,0,1,.32-.82,1.08,1.08,0,0,1,.8-.32h4.11a1.08,1.08,0,0,1,.8.32,1.11,1.11,0,0,1,.32.82v1.16a10.27,10.27,0,0,1,6.72-2.66,8,8,0,0,1,5.81,2.17q2.24,2.17,2.24,6.65V97.12a1.08,1.08,0,0,1-.32.8,1.11,1.11,0,0,1-.82.32h-4.09a1.1,1.1,0,0,1-1.12-1.12V86.59q0-4.38-3.5-4.38-2.29,0-4.92,2.62V97.12a1.1,1.1,0,0,1-1.12,1.12H156.8a1.1,1.1,0,0,1-1.12-1.12Z" transform="translate(0 -34)"/><path class="cls-8" d="M189.16,98.61a8.51,8.51,0,0,1-6.41-2.7q-2.58-2.7-2.58-7.73t2.67-7.72A9.67,9.67,0,0,1,190,77.77a17.91,17.91,0,0,1,5.3.94V73.07a1.11,1.11,0,0,1,.32-.82,1.08,1.08,0,0,1,.8-.32h4.09a1.1,1.1,0,0,1,1.14,1.14V97.12a1.08,1.08,0,0,1-.32.8,1.11,1.11,0,0,1-.82.32H197a1.08,1.08,0,0,1-.81-.32,1.1,1.1,0,0,1-.31-.8v-.57A11.35,11.35,0,0,1,189.16,98.61Zm-1.39-15a7.79,7.79,0,0,0-1,4.56,8.2,8.2,0,0,0,1,4.57,3.38,3.38,0,0,0,3,1.43,9.09,9.09,0,0,0,4.63-1.65V82.94a13.9,13.9,0,0,0-4-.73A4.15,4.15,0,0,0,187.77,83.63Z" transform="translate(0 -34)"/><path class="cls-8" d="M207.48,96.92a5.47,5.47,0,0,1-2.43-4.77,5.38,5.38,0,0,1,2.43-4.73,10.93,10.93,0,0,1,6.27-1.65h6.07a4,4,0,0,0-.9-3,4.58,4.58,0,0,0-3.15-.84A3.88,3.88,0,0,0,212.62,83a2.78,2.78,0,0,1-2.23,1.11h-2.73a1.11,1.11,0,0,1-.82-.32,1.08,1.08,0,0,1-.32-.8q0-5.27,10-5.26a11.51,11.51,0,0,1,7,2q2.64,2,2.64,6V97.12A1.07,1.07,0,0,1,225,98.24h-3.54a1.07,1.07,0,0,1-.81-.32,1.09,1.09,0,0,1-.31-.8v-.57a11.15,11.15,0,0,1-6.69,2.06A10.72,10.72,0,0,1,207.48,96.92Zm4.68-6.37a2,2,0,0,0-.74,1.61,2,2,0,0,0,.77,1.63,3.32,3.32,0,0,0,2.18.64,10.08,10.08,0,0,0,5.45-1.65V89.93h-5.63A3.06,3.06,0,0,0,212.16,90.55Z" transform="translate(0 -34)"/><path class="cls-8" d="M242.69,84.9q0-7,3.76-10.26t11.05-3.27q7.29,0,11,3.1t3.72,10a11.22,11.22,0,0,1-1.43,6,20.2,20.2,0,0,1-2.17,3h2.92a1.71,1.71,0,0,1,1.74,1.72v1.5a1.71,1.71,0,0,1-1.74,1.72H257.46q-7.25,0-11-3.26T242.69,84.9Zm14.77,8.57q7.85,0,7.85-9,0-4.16-1.85-6.17t-6-2q-4.12,0-6,2.18t-1.88,6.38q0,4.2,1.88,6.39T257.46,93.47Z" transform="translate(0 -34)"/><path class="cls-8" d="M275.55,89.78V79.27a1.1,1.1,0,0,1,.32-.82,1.08,1.08,0,0,1,.8-.32h4.11a1.08,1.08,0,0,1,.8.32,1.11,1.11,0,0,1,.32.82V89.78q0,4.4,3.49,4.4,2.29,0,4.93-2.64V79.27a1.11,1.11,0,0,1,.32-.82,1.08,1.08,0,0,1,.8-.32h4.09a1.1,1.1,0,0,1,1.14,1.14V97.12a1.08,1.08,0,0,1-.32.8,1.11,1.11,0,0,1-.82.32h-4.09a1.1,1.1,0,0,1-1.12-1.12V95.95a10.27,10.27,0,0,1-6.72,2.66,8,8,0,0,1-5.81-2.17Q275.55,94.26,275.55,89.78Z" transform="translate(0 -34)"/><path class="cls-8" d="M301.18,74.3v-.62a2.1,2.1,0,0,1,.56-1.54,2.08,2.08,0,0,1,1.55-.57h2.28a2.1,2.1,0,0,1,1.54.56,2.08,2.08,0,0,1,.57,1.55v.62a2.1,2.1,0,0,1-.56,1.54,2.07,2.07,0,0,1-1.55.57h-2.28a2,2,0,0,1-2.11-2.11Zm.07,22.82V79.71a1.07,1.07,0,0,1,.32-.81,1.1,1.1,0,0,1,.8-.31h4.11a1.08,1.08,0,0,1,.81.32,1.1,1.1,0,0,1,.31.8V97.12a1.07,1.07,0,0,1-.32.81,1.1,1.1,0,0,1-.8.31h-4.11a1.07,1.07,0,0,1-1.12-1.12Z" transform="translate(0 -34)"/><path class="cls-8" d="M310.87,81.45V79.27A1.1,1.1,0,0,1,312,78.13h16.71a1.08,1.08,0,0,1,.81.32,1.12,1.12,0,0,1,.31.82V81a3.79,3.79,0,0,1-1.3,2.66l-10,10.11h10.33A1.1,1.1,0,0,1,330,94.94v2.18a1.08,1.08,0,0,1-.32.8,1.1,1.1,0,0,1-.82.32H312a1.11,1.11,0,0,1-.82-.32,1.08,1.08,0,0,1-.32-.8V95.34a3.83,3.83,0,0,1,1.32-2.66l9.65-10.11H312a1.11,1.11,0,0,1-.82-.32A1.08,1.08,0,0,1,310.87,81.45Z" transform="translate(0 -34)"/></g></svg>