<svg id="Layer_1" data-name="Layer 1" xmlns="http://www.w3.org/2000/svg" viewBox="0 0 160 160"><defs><style>.cls-1{fill:#ffd05b;}.cls-2{fill:#f1543f;}.cls-3{fill:#fff;}.cls-4{fill:#324a5e;}.cls-5{fill:#84dbff;}.cls-6{fill:#ff7058;}</style></defs><title>progress</title><circle class="cls-1" cx="80" cy="80" r="80"/><path class="cls-2" d="M134.55,32.65c6.91,6.91,6.56,9.89,4.5,11.94s-5,2.41-11.94-4.5S112,21.59,114,19.53,127.65,25.71,134.55,32.65Z" transform="translate(-5 58)"/><path class="cls-3" d="M114.47,11.1,105.53,20l5.73,5.73a.94.94,0,0,0,1.3,0l7.64-7.64a.94.94,0,0,0,0-1.3Z" transform="translate(-5 58)"/><circle class="cls-4" cx="88.71" cy="56.84" r="26.3"/><circle class="cls-5" cx="88.71" cy="56.84" r="21.32"/><path class="cls-6" d="M101-13.87,81,.9l6.94,2.66L78.22,32.65,58.35,25.83,58,25.71l-.13,0a2.72,2.72,0,0,0-3.36,1.84L45,60.43l13.72-28,20.56,8.84a3.74,3.74,0,0,0,4.91-1.93L84.3,39,98.15,7.46l7.76,3Z" transform="translate(-5 58)"/><polygon class="cls-3" points="129.39 117.89 42.04 117.89 42.04 30.51 37.04 30.51 37.04 37.73 30.45 37.73 30.45 42.74 37.04 42.74 37.04 55.35 30.45 55.35 30.45 60.33 37.04 60.33 37.04 72.94 30.45 72.94 30.45 77.94 37.04 77.94 37.04 90.55 30.45 90.55 30.45 95.56 37.04 95.56 37.04 108.17 30.45 108.17 30.45 113.17 37.04 113.17 37.04 122.87 46.73 122.87 46.73 129.49 51.74 129.49 51.74 122.87 64.35 122.87 64.35 129.49 69.35 129.49 69.35 122.87 81.96 122.87 81.96 129.49 86.97 129.49 86.97 122.87 99.58 122.87 99.58 129.49 104.59 129.49 104.59 122.87 117.2 122.87 117.2 129.49 122.2 129.49 122.2 122.87 129.39 122.87 129.39 117.89"/></svg>