<svg id="Layer_1" data-name="Layer 1" xmlns="http://www.w3.org/2000/svg" viewBox="0 0 298.07 283.03"><defs><style>.cls-1{fill:#ffd05b;}.cls-2{fill:#f9b54c;}.cls-3{fill:#fff;}.cls-4{fill:#1f1e20;}.cls-4,.cls-5,.cls-6{fill-rule:evenodd;}.cls-5{fill:#111012;}.cls-6{fill:#f0f2f0;}</style></defs><title>scheme-two-right</title><circle class="cls-1" cx="21.71" cy="18.71" r="18.71"/><path class="cls-2" d="M-20.29.72c-11,.58-32.61.19-43.61,0,0-21.54,6.6-39,21.81-39S-20.29-20.82-20.29.72Z" transform="translate(63.9 80)"/><path class="cls-3" d="M-41.77-8.11H-44v3.46a1.62,1.62,0,0,1-.35,1.13,1.15,1.15,0,0,1-.88.38,1.16,1.16,0,0,1-.9-.38,1.61,1.61,0,0,1-.34-1.11v-9.43a1.54,1.54,0,0,1,.38-1.17,1.71,1.71,0,0,1,1.19-.35h3.18a8.34,8.34,0,0,1,2.17.22,3.24,3.24,0,0,1,1.3.69,3.13,3.13,0,0,1,.83,1.19,4.17,4.17,0,0,1,.28,1.58,3.48,3.48,0,0,1-1.15,2.83A5.24,5.24,0,0,1-41.77-8.11Zm-.6-5.61H-44V-10h1.67a5,5,0,0,0,1.46-.18,1.71,1.71,0,0,0,.9-.6,1.79,1.79,0,0,0,.31-1.09,1.86,1.86,0,0,0-.48-1.32A3.17,3.17,0,0,0-42.37-13.72Z" transform="translate(63.9 80)"/><polygon class="cls-4" points="19.42 45.99 17.79 61.28 21.74 63.82 21.74 45.99 19.42 45.99"/><polygon class="cls-4" points="21.74 63.82 25.31 61.28 24.07 45.99 21.74 45.99 21.74 63.82"/><polygon class="cls-4" points="17.35 41.69 19.45 45.99 24.04 45.99 26.14 41.69 17.35 41.69"/><polygon class="cls-4" points="17.35 41.69 19.45 45.99 21.74 45.99 21.74 41.69 17.35 41.69"/><polygon class="cls-5" points="19.45 45.99 24.04 45.99 24.04 46.19 19.45 45.99"/><polygon class="cls-6" points="13.34 38.97 21.69 41.73 13.17 49.25 13.34 38.97"/><polygon class="cls-6" points="30.1 38.97 21.75 41.73 30.27 49.25 30.1 38.97"/><circle class="cls-1" cx="85.32" cy="18.71" r="18.71"/><path class="cls-2" d="M43.33.72c-11,.58-32.61.19-43.61,0,0-21.54,6.6-39,21.81-39S43.33-20.82,43.33.72Z" transform="translate(63.9 80)"/><path class="cls-3" d="M21.85-8.11H19.58v3.46a1.62,1.62,0,0,1-.35,1.13,1.15,1.15,0,0,1-.88.38,1.16,1.16,0,0,1-.9-.38,1.61,1.61,0,0,1-.34-1.11v-9.43a1.54,1.54,0,0,1,.38-1.17,1.71,1.71,0,0,1,1.19-.35h3.18a8.34,8.34,0,0,1,2.17.22,3.24,3.24,0,0,1,1.3.69,3.13,3.13,0,0,1,.83,1.19,4.17,4.17,0,0,1,.28,1.58,3.48,3.48,0,0,1-1.15,2.83A5.24,5.24,0,0,1,21.85-8.11Zm-.6-5.61H19.58V-10h1.67a5,5,0,0,0,1.46-.18,1.71,1.71,0,0,0,.9-.6,1.79,1.79,0,0,0,.31-1.09,1.86,1.86,0,0,0-.48-1.32A3.17,3.17,0,0,0,21.25-13.72Z" transform="translate(63.9 80)"/><polygon class="cls-4" points="83.04 45.99 81.4 61.28 85.36 63.82 85.36 45.99 83.04 45.99"/><polygon class="cls-4" points="85.36 63.82 88.92 61.28 87.68 45.99 85.36 45.99 85.36 63.82"/><polygon class="cls-4" points="80.97 41.69 83.06 45.99 87.65 45.99 89.75 41.69 80.97 41.69"/><polygon class="cls-4" points="80.97 41.69 83.06 45.99 85.36 45.99 85.36 41.69 80.97 41.69"/><polygon class="cls-5" points="83.06 45.99 87.65 45.99 87.65 46.19 83.06 45.99"/><polygon class="cls-6" points="76.95 38.97 85.31 41.73 76.79 49.25 76.95 38.97"/><polygon class="cls-6" points="93.72 38.97 85.36 41.73 93.88 49.25 93.72 38.97"/><circle class="cls-1" cx="148.93" cy="18.71" r="18.71"/><path class="cls-2" d="M106.94.72c-11,.58-32.61.19-43.61,0,0-21.54,6.6-39,21.81-39S106.94-20.82,106.94.72Z" transform="translate(63.9 80)"/><path class="cls-3" d="M85.46-8.11H83.19v3.46a1.62,1.62,0,0,1-.35,1.13,1.15,1.15,0,0,1-.88.38,1.16,1.16,0,0,1-.9-.38,1.61,1.61,0,0,1-.34-1.11v-9.43a1.54,1.54,0,0,1,.38-1.17,1.71,1.71,0,0,1,1.19-.35h3.18a8.34,8.34,0,0,1,2.17.22,3.24,3.24,0,0,1,1.3.69,3.13,3.13,0,0,1,.83,1.19A4.17,4.17,0,0,1,90-11.91a3.48,3.48,0,0,1-1.15,2.83A5.24,5.24,0,0,1,85.46-8.11Zm-.6-5.61H83.19V-10h1.67a5,5,0,0,0,1.46-.18,1.71,1.71,0,0,0,.9-.6,1.79,1.79,0,0,0,.31-1.09,1.86,1.86,0,0,0-.48-1.32A3.17,3.17,0,0,0,84.86-13.72Z" transform="translate(63.9 80)"/><polygon class="cls-4" points="146.65 45.99 145.02 61.28 148.97 63.82 148.97 45.99 146.65 45.99"/><polygon class="cls-4" points="148.97 63.82 152.54 61.28 151.29 45.99 148.97 45.99 148.97 63.82"/><polygon class="cls-4" points="144.58 41.69 146.67 45.99 151.27 45.99 153.36 41.69 144.58 41.69"/><polygon class="cls-4" points="144.58 41.69 146.67 45.99 148.97 45.99 148.97 41.69 144.58 41.69"/><polygon class="cls-5" points="146.67 45.99 151.27 45.99 151.27 46.19 146.67 45.99"/><polygon class="cls-6" points="140.57 38.97 148.92 41.73 140.4 49.25 140.57 38.97"/><polygon class="cls-6" points="157.33 38.97 148.98 41.73 157.5 49.25 157.33 38.97"/><circle class="cls-1" cx="212.55" cy="18.71" r="18.71"/><path class="cls-2" d="M170.56.72c-11,.58-32.61.19-43.61,0,0-21.54,6.6-39,21.81-39S170.56-20.82,170.56.72Z" transform="translate(63.9 80)"/><path class="cls-3" d="M149.07-8.11H146.8v3.46a1.62,1.62,0,0,1-.35,1.13,1.15,1.15,0,0,1-.88.38,1.16,1.16,0,0,1-.9-.38,1.61,1.61,0,0,1-.34-1.11v-9.43a1.54,1.54,0,0,1,.38-1.17,1.71,1.71,0,0,1,1.19-.35h3.18a8.34,8.34,0,0,1,2.17.22,3.24,3.24,0,0,1,1.3.69,3.13,3.13,0,0,1,.83,1.19,4.17,4.17,0,0,1,.28,1.58,3.48,3.48,0,0,1-1.15,2.83A5.24,5.24,0,0,1,149.07-8.11Zm-.6-5.61H146.8V-10h1.67a5,5,0,0,0,1.46-.18,1.71,1.71,0,0,0,.9-.6,1.79,1.79,0,0,0,.31-1.09,1.86,1.86,0,0,0-.48-1.32A3.17,3.17,0,0,0,148.47-13.72Z" transform="translate(63.9 80)"/><polygon class="cls-4" points="210.26 45.99 208.63 61.28 212.59 63.82 212.59 45.99 210.26 45.99"/><polygon class="cls-4" points="212.59 63.82 216.15 61.28 214.91 45.99 212.59 45.99 212.59 63.82"/><polygon class="cls-4" points="208.19 41.69 210.29 45.99 214.88 45.99 216.98 41.69 208.19 41.69"/><polygon class="cls-4" points="208.19 41.69 210.29 45.99 212.59 45.99 212.59 41.69 208.19 41.69"/><polygon class="cls-5" points="210.29 45.99 214.88 45.99 214.88 46.19 210.29 45.99"/><polygon class="cls-6" points="204.18 38.97 212.53 41.73 204.02 49.25 204.18 38.97"/><polygon class="cls-6" points="220.94 38.97 212.59 41.73 221.11 49.25 220.94 38.97"/><circle class="cls-1" cx="276.16" cy="18.71" r="18.71"/><path class="cls-2" d="M234.17.72c-11,.58-32.61.19-43.61,0,0-21.54,6.6-39,21.81-39S234.17-20.82,234.17.72Z" transform="translate(63.9 80)"/><path class="cls-3" d="M212.69-8.11h-2.27v3.46a1.62,1.62,0,0,1-.35,1.13,1.15,1.15,0,0,1-.88.38,1.16,1.16,0,0,1-.9-.38,1.61,1.61,0,0,1-.34-1.11v-9.43a1.54,1.54,0,0,1,.38-1.17,1.71,1.71,0,0,1,1.19-.35h3.18a8.34,8.34,0,0,1,2.17.22,3.24,3.24,0,0,1,1.3.69,3.13,3.13,0,0,1,.83,1.19,4.17,4.17,0,0,1,.28,1.58,3.48,3.48,0,0,1-1.15,2.83A5.24,5.24,0,0,1,212.69-8.11Zm-.6-5.61h-1.67V-10h1.67a5,5,0,0,0,1.46-.18,1.71,1.71,0,0,0,.9-.6,1.79,1.79,0,0,0,.31-1.09,1.86,1.86,0,0,0-.48-1.32A3.17,3.17,0,0,0,212.09-13.72Z" transform="translate(63.9 80)"/><polygon class="cls-4" points="273.88 45.99 272.25 61.28 276.2 63.82 276.2 45.99 273.88 45.99"/><polygon class="cls-4" points="276.2 63.82 279.77 61.28 278.52 45.99 276.2 45.99 276.2 63.82"/><polygon class="cls-4" points="271.81 41.69 273.9 45.99 278.5 45.99 280.59 41.69 271.81 41.69"/><polygon class="cls-4" points="271.81 41.69 273.9 45.99 276.2 45.99 276.2 41.69 271.81 41.69"/><polygon class="cls-5" points="273.9 45.99 278.5 45.99 278.5 46.19 273.9 45.99"/><polygon class="cls-6" points="267.8 38.97 276.15 41.73 267.63 49.25 267.8 38.97"/><polygon class="cls-6" points="284.56 38.97 276.21 41.73 284.72 49.25 284.56 38.97"/><circle class="cls-1" cx="21.71" cy="119.71" r="18.71"/><path class="cls-2" d="M-20.29,101.72c-11,.58-32.61.19-43.61,0,0-21.54,6.6-39,21.81-39S-20.29,80.18-20.29,101.72Z" transform="translate(63.9 80)"/><path class="cls-3" d="M-41.77,92.89H-44v3.46a1.62,1.62,0,0,1-.35,1.13,1.15,1.15,0,0,1-.88.38,1.16,1.16,0,0,1-.9-.38,1.61,1.61,0,0,1-.34-1.11V86.94a1.54,1.54,0,0,1,.38-1.17,1.71,1.71,0,0,1,1.19-.35h3.18a8.34,8.34,0,0,1,2.17.22,3.24,3.24,0,0,1,1.3.69,3.13,3.13,0,0,1,.83,1.19,4.17,4.17,0,0,1,.28,1.58,3.48,3.48,0,0,1-1.15,2.83A5.24,5.24,0,0,1-41.77,92.89Zm-.6-5.61H-44V91h1.67a5,5,0,0,0,1.46-.18,1.71,1.71,0,0,0,.9-.6,1.79,1.79,0,0,0,.31-1.09,1.86,1.86,0,0,0-.48-1.32A3.17,3.17,0,0,0-42.37,87.28Z" transform="translate(63.9 80)"/><polygon class="cls-4" points="19.42 146.99 17.79 162.28 21.74 164.82 21.74 146.99 19.42 146.99"/><polygon class="cls-4" points="21.74 164.82 25.31 162.28 24.07 146.99 21.74 146.99 21.74 164.82"/><polygon class="cls-4" points="17.35 142.69 19.45 146.99 24.04 146.99 26.14 142.69 17.35 142.69"/><polygon class="cls-4" points="17.35 142.69 19.45 146.99 21.74 146.99 21.74 142.69 17.35 142.69"/><polygon class="cls-5" points="19.45 146.99 24.04 146.99 24.04 147.19 19.45 146.99"/><polygon class="cls-6" points="13.34 139.97 21.69 142.72 13.17 150.25 13.34 139.97"/><polygon class="cls-6" points="30.1 139.97 21.75 142.72 30.27 150.25 30.1 139.97"/><circle class="cls-1" cx="85.32" cy="119.71" r="18.71"/><path class="cls-2" d="M43.33,101.72c-11,.58-32.61.19-43.61,0,0-21.54,6.6-39,21.81-39S43.33,80.18,43.33,101.72Z" transform="translate(63.9 80)"/><path class="cls-3" d="M21.85,92.89H19.58v3.46a1.62,1.62,0,0,1-.35,1.13,1.24,1.24,0,0,1-1.79,0,1.61,1.61,0,0,1-.34-1.11V86.94a1.54,1.54,0,0,1,.38-1.17,1.71,1.71,0,0,1,1.19-.35h3.18a8.34,8.34,0,0,1,2.17.22,3.24,3.24,0,0,1,1.3.69,3.13,3.13,0,0,1,.83,1.19,4.17,4.17,0,0,1,.28,1.58,3.48,3.48,0,0,1-1.15,2.83A5.24,5.24,0,0,1,21.85,92.89Zm-.6-5.61H19.58V91h1.67a5,5,0,0,0,1.46-.18,1.71,1.71,0,0,0,.9-.6,1.79,1.79,0,0,0,.31-1.09,1.86,1.86,0,0,0-.48-1.32A3.17,3.17,0,0,0,21.25,87.28Z" transform="translate(63.9 80)"/><polygon class="cls-4" points="83.04 146.99 81.4 162.28 85.36 164.82 85.36 146.99 83.04 146.99"/><polygon class="cls-4" points="85.36 164.82 88.92 162.28 87.68 146.99 85.36 146.99 85.36 164.82"/><polygon class="cls-4" points="80.97 142.69 83.06 146.99 87.65 146.99 89.75 142.69 80.97 142.69"/><polygon class="cls-4" points="80.97 142.69 83.06 146.99 85.36 146.99 85.36 142.69 80.97 142.69"/><polygon class="cls-5" points="83.06 146.99 87.65 146.99 87.65 147.19 83.06 146.99"/><polygon class="cls-6" points="76.95 139.97 85.31 142.72 76.79 150.25 76.95 139.97"/><polygon class="cls-6" points="93.72 139.97 85.36 142.72 93.88 150.25 93.72 139.97"/><circle class="cls-1" cx="148.93" cy="119.71" r="18.71"/><path class="cls-2" d="M106.94,101.72c-11,.58-32.61.19-43.61,0,0-21.54,6.6-39,21.81-39S106.94,80.18,106.94,101.72Z" transform="translate(63.9 80)"/><path class="cls-3" d="M85.46,92.89H83.19v3.46a1.62,1.62,0,0,1-.35,1.13,1.24,1.24,0,0,1-1.79,0,1.61,1.61,0,0,1-.34-1.11V86.94a1.54,1.54,0,0,1,.38-1.17,1.71,1.71,0,0,1,1.19-.35h3.18a8.34,8.34,0,0,1,2.17.22,3.24,3.24,0,0,1,1.3.69,3.13,3.13,0,0,1,.83,1.19A4.17,4.17,0,0,1,90,89.09a3.48,3.48,0,0,1-1.15,2.83A5.24,5.24,0,0,1,85.46,92.89Zm-.6-5.61H83.19V91h1.67a5,5,0,0,0,1.46-.18,1.71,1.71,0,0,0,.9-.6,1.79,1.79,0,0,0,.31-1.09,1.86,1.86,0,0,0-.48-1.32A3.17,3.17,0,0,0,84.86,87.28Z" transform="translate(63.9 80)"/><polygon class="cls-4" points="146.65 146.99 145.02 162.28 148.97 164.82 148.97 146.99 146.65 146.99"/><polygon class="cls-4" points="148.97 164.82 152.54 162.28 151.29 146.99 148.97 146.99 148.97 164.82"/><polygon class="cls-4" points="144.58 142.69 146.67 146.99 151.27 146.99 153.36 142.69 144.58 142.69"/><polygon class="cls-4" points="144.58 142.69 146.67 146.99 148.97 146.99 148.97 142.69 144.58 142.69"/><polygon class="cls-5" points="146.67 146.99 151.27 146.99 151.27 147.19 146.67 146.99"/><polygon class="cls-6" points="140.57 139.97 148.92 142.72 140.4 150.25 140.57 139.97"/><polygon class="cls-6" points="157.33 139.97 148.98 142.72 157.5 150.25 157.33 139.97"/><circle class="cls-1" cx="212.55" cy="119.71" r="18.71"/><path class="cls-2" d="M170.56,101.72c-11,.58-32.61.19-43.61,0,0-21.54,6.6-39,21.81-39S170.56,80.18,170.56,101.72Z" transform="translate(63.9 80)"/><path class="cls-3" d="M149.07,92.89H146.8v3.46a1.62,1.62,0,0,1-.35,1.13,1.24,1.24,0,0,1-1.79,0,1.61,1.61,0,0,1-.34-1.11V86.94a1.54,1.54,0,0,1,.38-1.17,1.71,1.71,0,0,1,1.19-.35h3.18a8.34,8.34,0,0,1,2.17.22,3.24,3.24,0,0,1,1.3.69,3.13,3.13,0,0,1,.83,1.19,4.17,4.17,0,0,1,.28,1.58,3.48,3.48,0,0,1-1.15,2.83A5.24,5.24,0,0,1,149.07,92.89Zm-.6-5.61H146.8V91h1.67a5,5,0,0,0,1.46-.18,1.71,1.71,0,0,0,.9-.6,1.79,1.79,0,0,0,.31-1.09,1.86,1.86,0,0,0-.48-1.32A3.17,3.17,0,0,0,148.47,87.28Z" transform="translate(63.9 80)"/><polygon class="cls-4" points="210.26 146.99 208.63 162.28 212.59 164.82 212.59 146.99 210.26 146.99"/><polygon class="cls-4" points="212.59 164.82 216.15 162.28 214.91 146.99 212.59 146.99 212.59 164.82"/><polygon class="cls-4" points="208.19 142.69 210.29 146.99 214.88 146.99 216.98 142.69 208.19 142.69"/><polygon class="cls-4" points="208.19 142.69 210.29 146.99 212.59 146.99 212.59 142.69 208.19 142.69"/><polygon class="cls-5" points="210.29 146.99 214.88 146.99 214.88 147.19 210.29 146.99"/><polygon class="cls-6" points="204.18 139.97 212.53 142.72 204.02 150.25 204.18 139.97"/><polygon class="cls-6" points="220.94 139.97 212.59 142.72 221.11 150.25 220.94 139.97"/><circle class="cls-1" cx="276.16" cy="119.71" r="18.71"/><path class="cls-2" d="M234.17,101.72c-11,.58-32.61.19-43.61,0,0-21.54,6.6-39,21.81-39S234.17,80.18,234.17,101.72Z" transform="translate(63.9 80)"/><path class="cls-3" d="M212.69,92.89h-2.27v3.46a1.62,1.62,0,0,1-.35,1.13,1.24,1.24,0,0,1-1.79,0,1.61,1.61,0,0,1-.34-1.11V86.94a1.54,1.54,0,0,1,.38-1.17,1.71,1.71,0,0,1,1.19-.35h3.18a8.34,8.34,0,0,1,2.17.22,3.24,3.24,0,0,1,1.3.69,3.13,3.13,0,0,1,.83,1.19,4.17,4.17,0,0,1,.28,1.58,3.48,3.48,0,0,1-1.15,2.83A5.24,5.24,0,0,1,212.69,92.89Zm-.6-5.61h-1.67V91h1.67a5,5,0,0,0,1.46-.18,1.71,1.71,0,0,0,.9-.6,1.79,1.79,0,0,0,.31-1.09,1.86,1.86,0,0,0-.48-1.32A3.17,3.17,0,0,0,212.09,87.28Z" transform="translate(63.9 80)"/><polygon class="cls-4" points="273.88 146.99 272.25 162.28 276.2 164.82 276.2 146.99 273.88 146.99"/><polygon class="cls-4" points="276.2 164.82 279.77 162.28 278.52 146.99 276.2 146.99 276.2 164.82"/><polygon class="cls-4" points="271.81 142.69 273.9 146.99 278.5 146.99 280.59 142.69 271.81 142.69"/><polygon class="cls-4" points="271.81 142.69 273.9 146.99 276.2 146.99 276.2 142.69 271.81 142.69"/><polygon class="cls-5" points="273.9 146.99 278.5 146.99 278.5 147.19 273.9 146.99"/><polygon class="cls-6" points="267.8 139.97 276.15 142.72 267.63 150.25 267.8 139.97"/><polygon class="cls-6" points="284.56 139.97 276.21 142.72 284.72 150.25 284.56 139.97"/><circle class="cls-1" cx="21.71" cy="220.71" r="18.71"/><path class="cls-2" d="M-20.29,202.72c-11,.58-32.61.19-43.61,0,0-21.54,6.6-39,21.81-39S-20.29,181.18-20.29,202.72Z" transform="translate(63.9 80)"/><path class="cls-3" d="M-41.77,193.89H-44v3.46a1.62,1.62,0,0,1-.35,1.13,1.15,1.15,0,0,1-.88.38,1.16,1.16,0,0,1-.9-.38,1.61,1.61,0,0,1-.34-1.11v-9.43a1.54,1.54,0,0,1,.38-1.17,1.71,1.71,0,0,1,1.19-.35h3.18a8.34,8.34,0,0,1,2.17.22,3.24,3.24,0,0,1,1.3.69,3.13,3.13,0,0,1,.83,1.19,4.17,4.17,0,0,1,.28,1.58,3.48,3.48,0,0,1-1.15,2.83A5.24,5.24,0,0,1-41.77,193.89Zm-.6-5.61H-44V192h1.67a5,5,0,0,0,1.46-.18,1.71,1.71,0,0,0,.9-.6,1.79,1.79,0,0,0,.31-1.09,1.86,1.86,0,0,0-.48-1.32A3.17,3.17,0,0,0-42.37,188.28Z" transform="translate(63.9 80)"/><polygon class="cls-4" points="19.42 247.99 17.79 263.28 21.74 265.82 21.74 247.99 19.42 247.99"/><polygon class="cls-4" points="21.74 265.82 25.31 263.28 24.07 247.99 21.74 247.99 21.74 265.82"/><polygon class="cls-4" points="17.35 243.69 19.45 247.99 24.04 247.99 26.14 243.69 17.35 243.69"/><polygon class="cls-4" points="17.35 243.69 19.45 247.99 21.74 247.99 21.74 243.69 17.35 243.69"/><polygon class="cls-5" points="19.45 247.99 24.04 247.99 24.04 248.19 19.45 247.99"/><polygon class="cls-6" points="13.34 240.97 21.69 243.72 13.17 251.25 13.34 240.97"/><polygon class="cls-6" points="30.1 240.97 21.75 243.72 30.27 251.25 30.1 240.97"/><circle class="cls-1" cx="85.32" cy="220.71" r="18.71"/><path class="cls-2" d="M43.33,202.72c-11,.58-32.61.19-43.61,0,0-21.54,6.6-39,21.81-39S43.33,181.18,43.33,202.72Z" transform="translate(63.9 80)"/><path class="cls-3" d="M21.85,193.89H19.58v3.46a1.62,1.62,0,0,1-.35,1.13,1.24,1.24,0,0,1-1.79,0,1.61,1.61,0,0,1-.34-1.11v-9.43a1.54,1.54,0,0,1,.38-1.17,1.71,1.71,0,0,1,1.19-.35h3.18a8.34,8.34,0,0,1,2.17.22,3.24,3.24,0,0,1,1.3.69,3.13,3.13,0,0,1,.83,1.19,4.17,4.17,0,0,1,.28,1.58,3.48,3.48,0,0,1-1.15,2.83A5.24,5.24,0,0,1,21.85,193.89Zm-.6-5.61H19.58V192h1.67a5,5,0,0,0,1.46-.18,1.71,1.71,0,0,0,.9-.6,1.79,1.79,0,0,0,.31-1.09,1.86,1.86,0,0,0-.48-1.32A3.17,3.17,0,0,0,21.25,188.28Z" transform="translate(63.9 80)"/><polygon class="cls-4" points="83.04 247.99 81.4 263.28 85.36 265.82 85.36 247.99 83.04 247.99"/><polygon class="cls-4" points="85.36 265.82 88.92 263.28 87.68 247.99 85.36 247.99 85.36 265.82"/><polygon class="cls-4" points="80.97 243.69 83.06 247.99 87.65 247.99 89.75 243.69 80.97 243.69"/><polygon class="cls-4" points="80.97 243.69 83.06 247.99 85.36 247.99 85.36 243.69 80.97 243.69"/><polygon class="cls-5" points="83.06 247.99 87.65 247.99 87.65 248.19 83.06 247.99"/><polygon class="cls-6" points="76.95 240.97 85.31 243.72 76.79 251.25 76.95 240.97"/><polygon class="cls-6" points="93.72 240.97 85.36 243.72 93.88 251.25 93.72 240.97"/><circle class="cls-1" cx="148.93" cy="220.71" r="18.71"/><path class="cls-2" d="M106.94,202.72c-11,.58-32.61.19-43.61,0,0-21.54,6.6-39,21.81-39S106.94,181.18,106.94,202.72Z" transform="translate(63.9 80)"/><path class="cls-3" d="M85.46,193.89H83.19v3.46a1.62,1.62,0,0,1-.35,1.13,1.24,1.24,0,0,1-1.79,0,1.61,1.61,0,0,1-.34-1.11v-9.43a1.54,1.54,0,0,1,.38-1.17,1.71,1.71,0,0,1,1.19-.35h3.18a8.34,8.34,0,0,1,2.17.22,3.24,3.24,0,0,1,1.3.69,3.13,3.13,0,0,1,.83,1.19,4.17,4.17,0,0,1,.28,1.58,3.48,3.48,0,0,1-1.15,2.83A5.24,5.24,0,0,1,85.46,193.89Zm-.6-5.61H83.19V192h1.67a5,5,0,0,0,1.46-.18,1.71,1.71,0,0,0,.9-.6,1.79,1.79,0,0,0,.31-1.09,1.86,1.86,0,0,0-.48-1.32A3.17,3.17,0,0,0,84.86,188.28Z" transform="translate(63.9 80)"/><polygon class="cls-4" points="146.65 247.99 145.02 263.28 148.97 265.82 148.97 247.99 146.65 247.99"/><polygon class="cls-4" points="148.97 265.82 152.54 263.28 151.29 247.99 148.97 247.99 148.97 265.82"/><polygon class="cls-4" points="144.58 243.69 146.67 247.99 151.27 247.99 153.36 243.69 144.58 243.69"/><polygon class="cls-4" points="144.58 243.69 146.67 247.99 148.97 247.99 148.97 243.69 144.58 243.69"/><polygon class="cls-5" points="146.67 247.99 151.27 247.99 151.27 248.19 146.67 247.99"/><polygon class="cls-6" points="140.57 240.97 148.92 243.72 140.4 251.25 140.57 240.97"/><polygon class="cls-6" points="157.33 240.97 148.98 243.72 157.5 251.25 157.33 240.97"/><circle class="cls-1" cx="212.55" cy="220.71" r="18.71"/><path class="cls-2" d="M170.56,202.72c-11,.58-32.61.19-43.61,0,0-21.54,6.6-39,21.81-39S170.56,181.18,170.56,202.72Z" transform="translate(63.9 80)"/><path class="cls-3" d="M149.07,193.89H146.8v3.46a1.62,1.62,0,0,1-.35,1.13,1.24,1.24,0,0,1-1.79,0,1.61,1.61,0,0,1-.34-1.11v-9.43a1.54,1.54,0,0,1,.38-1.17,1.71,1.71,0,0,1,1.19-.35h3.18a8.34,8.34,0,0,1,2.17.22,3.24,3.24,0,0,1,1.3.69,3.13,3.13,0,0,1,.83,1.19,4.17,4.17,0,0,1,.28,1.58,3.48,3.48,0,0,1-1.15,2.83A5.24,5.24,0,0,1,149.07,193.89Zm-.6-5.61H146.8V192h1.67a5,5,0,0,0,1.46-.18,1.71,1.71,0,0,0,.9-.6,1.79,1.79,0,0,0,.31-1.09,1.86,1.86,0,0,0-.48-1.32A3.17,3.17,0,0,0,148.47,188.28Z" transform="translate(63.9 80)"/><polygon class="cls-4" points="210.26 247.99 208.63 263.28 212.59 265.82 212.59 247.99 210.26 247.99"/><polygon class="cls-4" points="212.59 265.82 216.15 263.28 214.91 247.99 212.59 247.99 212.59 265.82"/><polygon class="cls-4" points="208.19 243.69 210.29 247.99 214.88 247.99 216.98 243.69 208.19 243.69"/><polygon class="cls-4" points="208.19 243.69 210.29 247.99 212.59 247.99 212.59 243.69 208.19 243.69"/><polygon class="cls-5" points="210.29 247.99 214.88 247.99 214.88 248.19 210.29 247.99"/><polygon class="cls-6" points="204.18 240.97 212.53 243.72 204.02 251.25 204.18 240.97"/><polygon class="cls-6" points="220.94 240.97 212.59 243.72 221.11 251.25 220.94 240.97"/><circle class="cls-1" cx="276.16" cy="220.71" r="18.71"/><path class="cls-2" d="M234.17,202.72c-11,.58-32.61.19-43.61,0,0-21.54,6.6-39,21.81-39S234.17,181.18,234.17,202.72Z" transform="translate(63.9 80)"/><path class="cls-3" d="M212.69,193.89h-2.27v3.46a1.62,1.62,0,0,1-.35,1.13,1.24,1.24,0,0,1-1.79,0,1.61,1.61,0,0,1-.34-1.11v-9.43a1.54,1.54,0,0,1,.38-1.17,1.71,1.71,0,0,1,1.19-.35h3.18a8.34,8.34,0,0,1,2.17.22,3.24,3.24,0,0,1,1.3.69,3.13,3.13,0,0,1,.83,1.19,4.17,4.17,0,0,1,.28,1.58,3.48,3.48,0,0,1-1.15,2.83A5.24,5.24,0,0,1,212.69,193.89Zm-.6-5.61h-1.67V192h1.67a5,5,0,0,0,1.46-.18,1.71,1.71,0,0,0,.9-.6,1.79,1.79,0,0,0,.31-1.09,1.86,1.86,0,0,0-.48-1.32A3.17,3.17,0,0,0,212.09,188.28Z" transform="translate(63.9 80)"/><polygon class="cls-4" points="273.88 247.99 272.25 263.28 276.2 265.82 276.2 247.99 273.88 247.99"/><polygon class="cls-4" points="276.2 265.82 279.77 263.28 278.52 247.99 276.2 247.99 276.2 265.82"/><polygon class="cls-4" points="271.81 243.69 273.9 247.99 278.5 247.99 280.59 243.69 271.81 243.69"/><polygon class="cls-4" points="271.81 243.69 273.9 247.99 276.2 247.99 276.2 243.69 271.81 243.69"/><polygon class="cls-5" points="273.9 247.99 278.5 247.99 278.5 248.19 273.9 247.99"/><polygon class="cls-6" points="267.8 240.97 276.15 243.72 267.63 251.25 267.8 240.97"/><polygon class="cls-6" points="284.56 240.97 276.21 243.72 284.72 251.25 284.56 240.97"/></svg>