<svg id="Layer_1" data-name="Layer 1" xmlns="http://www.w3.org/2000/svg" viewBox="0 0 161.27 192.54"><defs><style>.cls-1{fill:none;stroke:#324a5e;stroke-linecap:round;stroke-linejoin:round;stroke-width:5px;}.cls-2{fill:#324a5e;}.cls-3{fill:#45b39c;}.cls-4{fill:#379982;}.cls-5{fill:#fff;}.cls-6{fill:#84dbff;}.cls-7{fill:#54c0eb;}.cls-8{fill:#ff7058;}.cls-9{fill:#f1543f;}</style></defs><title>scheme-one-left</title><line class="cls-1" x1="76.02" y1="91.96" x2="97.04" y2="112.98"/><line class="cls-1" x1="97.04" y1="91.96" x2="76.02" y2="112.98"/><path class="cls-2" d="M-43.71,15.84h9.18a3.35,3.35,0,0,1,2.09.56,1.84,1.84,0,0,1,.72,1.53,2,2,0,0,1-.57,1.46A2.29,2.29,0,0,1-34,20H-47A2.8,2.8,0,0,1-49,19.26a2.34,2.34,0,0,1-.74-1.72,4.38,4.38,0,0,1,.48-1.68,6,6,0,0,1,1-1.64q2.34-2.43,4.22-4.16a27.88,27.88,0,0,1,2.69-2.28,15.47,15.47,0,0,0,2.4-2.05,8.11,8.11,0,0,0,1.46-2.11A5,5,0,0,0-37,1.5a3.82,3.82,0,0,0-.54-2A3.72,3.72,0,0,0-39-1.9a4.21,4.21,0,0,0-2-.49,4.11,4.11,0,0,0-3.62,2,8.78,8.78,0,0,0-.59,1.44,6,6,0,0,1-.93,1.81,1.85,1.85,0,0,1-1.52.63,2,2,0,0,1-1.46-.58,2.14,2.14,0,0,1-.58-1.58,6.62,6.62,0,0,1,.55-2.53,7.26,7.26,0,0,1,1.63-2.39A8,8,0,0,1-44.77-5.3,10.51,10.51,0,0,1-40.87-6a11.27,11.27,0,0,1,4.59.84,6.91,6.91,0,0,1,2.16,1.55,7.15,7.15,0,0,1,1.45,2.28,7.13,7.13,0,0,1,.52,2.68,7.51,7.51,0,0,1-1.08,4,12.3,12.3,0,0,1-2.21,2.8q-1.13,1-3.77,3.18a28.26,28.26,0,0,0-3.63,3.36A10,10,0,0,0-43.71,15.84Z" transform="translate(171.9 95)"/><path class="cls-2" d="M-10.63,7.34a30.17,30.17,0,0,1-.35,5,11.55,11.55,0,0,1-1.3,3.77,8.65,8.65,0,0,1-3.1,3.2,8.13,8.13,0,0,1-4.22,1.13,8.05,8.05,0,0,1-4.79-1.51,9.21,9.21,0,0,1-3.19-4.19,15.56,15.56,0,0,1-.8-3.23,26.84,26.84,0,0,1-.26-3.83,36.76,36.76,0,0,1,.28-4.79,15.81,15.81,0,0,1,.88-3.66,8.27,8.27,0,0,1,3-3.86A8.28,8.28,0,0,1-19.74-6a8.81,8.81,0,0,1,3.29.59,7.49,7.49,0,0,1,2.6,1.72A9.84,9.84,0,0,1-12-.88,20.18,20.18,0,0,1-10.63,7.34ZM-15.45,7a29.32,29.32,0,0,0-.39-5.27,6.49,6.49,0,0,0-1.3-3.1,3.19,3.19,0,0,0-2.53-1A3.26,3.26,0,0,0-22.9-.09a21.32,21.32,0,0,0-.91,7.21,31,31,0,0,0,.39,5.42,6.82,6.82,0,0,0,1.3,3.19,3.08,3.08,0,0,0,2.48,1.08A3.08,3.08,0,0,0-17.1,15.7a7,7,0,0,0,1.28-3.22A32.8,32.8,0,0,0-15.45,7Z" transform="translate(171.9 95)"/><path class="cls-2" d="M-39.81-54.26v-3.25h-8.77a3.6,3.6,0,0,1-2.49-.75,2.62,2.62,0,0,1-.83-2,2,2,0,0,1,.12-.67,3.45,3.45,0,0,1,.37-.72c.16-.25.33-.49.51-.73l.65-.86L-41-75.68a14,14,0,0,1,1.49-1.77A2,2,0,0,1-38.09-78q2.66,0,2.66,3v13.53h.75a5.31,5.31,0,0,1,2.16.37,1.57,1.57,0,0,1,.81,1.61A1.67,1.67,0,0,1-32.38-58a3.49,3.49,0,0,1-2,.46h-1.07v3.25a2.91,2.91,0,0,1-.59,2,2,2,0,0,1-1.59.66,2,2,0,0,1-1.58-.67A2.89,2.89,0,0,1-39.81-54.26Zm-7.52-7.17h7.52V-71.59Z" transform="translate(171.9 95)"/><path class="cls-2" d="M-11.49-64.61a29.94,29.94,0,0,1-.35,4.93,11.48,11.48,0,0,1-1.29,3.74,8.59,8.59,0,0,1-3.08,3.18,8.07,8.07,0,0,1-4.19,1.12,8,8,0,0,1-4.76-1.5,9.15,9.15,0,0,1-3.17-4.16,15.46,15.46,0,0,1-.8-3.21,26.72,26.72,0,0,1-.25-3.8,36.57,36.57,0,0,1,.28-4.75,15.69,15.69,0,0,1,.87-3.64,8.21,8.21,0,0,1,3-3.84,8.23,8.23,0,0,1,4.69-1.32,8.77,8.77,0,0,1,3.27.59,7.45,7.45,0,0,1,2.58,1.71,9.8,9.8,0,0,1,1.88,2.79A20.05,20.05,0,0,1-11.49-64.61ZM-16.28-65a29.15,29.15,0,0,0-.38-5.23A6.44,6.44,0,0,0-18-73.27a3.16,3.16,0,0,0-2.52-1A3.23,3.23,0,0,0-23.68-72a21.18,21.18,0,0,0-.9,7.17,30.84,30.84,0,0,0,.38,5.38,6.76,6.76,0,0,0,1.29,3.17,3.06,3.06,0,0,0,2.46,1.07,3.06,3.06,0,0,0,2.52-1.12,7,7,0,0,0,1.28-3.2A32.57,32.57,0,0,0-16.28-65Z" transform="translate(171.9 95)"/><path class="cls-2" d="M-42.66,74.4a4.28,4.28,0,0,0,2.79-.95,3.31,3.31,0,0,0,1.17-2.72,3.25,3.25,0,0,0-.93-2.33,3.31,3.31,0,0,0-2.51-1,4.51,4.51,0,0,0-1.77.3,2.83,2.83,0,0,0-1.1.79,6,6,0,0,0-.76,1.27q-.36.77-.66,1.46a1.23,1.23,0,0,1-.63.58,2.49,2.49,0,0,1-1.05.21,1.82,1.82,0,0,1-1.29-.57A2,2,0,0,1-50,69.94,4,4,0,0,1-49.45,68a7,7,0,0,1,1.62-1.92,8.12,8.12,0,0,1,2.64-1.47,10.64,10.64,0,0,1,3.53-.55,9.83,9.83,0,0,1,3.11.47,7.29,7.29,0,0,1,2.44,1.34,5.8,5.8,0,0,1,1.56,2,6,6,0,0,1,.53,2.5,5.69,5.69,0,0,1-.76,3A10.14,10.14,0,0,1-37,75.88a9.68,9.68,0,0,1,2.31,1.69,6.48,6.48,0,0,1,1.41,2.1,6.46,6.46,0,0,1,.47,2.49,7.76,7.76,0,0,1-.64,3.09,7.88,7.88,0,0,1-1.89,2.66,9,9,0,0,1-3,1.83,10.47,10.47,0,0,1-3.79.66,9.06,9.06,0,0,1-3.78-.76,8.71,8.71,0,0,1-2.75-1.89,8.6,8.6,0,0,1-1.63-2.35,5.09,5.09,0,0,1-.55-2,2.16,2.16,0,0,1,.66-1.64,2.29,2.29,0,0,1,1.64-.62,1.75,1.75,0,0,1,.95.29,1.37,1.37,0,0,1,.6.69,11.82,11.82,0,0,0,2,3.63A3.72,3.72,0,0,0-42,86.93a4.43,4.43,0,0,0,2.1-.54,4.37,4.37,0,0,0,1.67-1.59,4.51,4.51,0,0,0,.66-2.44,4.46,4.46,0,0,0-1.12-3.22A4.14,4.14,0,0,0-41.83,78q-.35,0-1.09.07c-.49,0-.81.07-.95.07a2.13,2.13,0,0,1-1.49-.48,1.73,1.73,0,0,1-.53-1.34,1.68,1.68,0,0,1,.63-1.36,2.91,2.91,0,0,1,1.88-.52Z" transform="translate(171.9 95)"/><path class="cls-2" d="M-11.45,77.32a30.1,30.1,0,0,1-.35,5A11.54,11.54,0,0,1-13.1,86a8.64,8.64,0,0,1-3.09,3.2,8.11,8.11,0,0,1-4.22,1.12,8,8,0,0,1-4.79-1.51,9.19,9.19,0,0,1-3.19-4.18,15.54,15.54,0,0,1-.8-3.22,26.86,26.86,0,0,1-.25-3.82,36.77,36.77,0,0,1,.28-4.78,15.78,15.78,0,0,1,.88-3.65,8.26,8.26,0,0,1,3-3.86A8.27,8.27,0,0,1-20.55,64a8.81,8.81,0,0,1,3.29.59,7.49,7.49,0,0,1,2.59,1.72,9.85,9.85,0,0,1,1.89,2.8A20.16,20.16,0,0,1-11.45,77.32ZM-16.27,77a29.3,29.3,0,0,0-.39-5.26A6.48,6.48,0,0,0-18,68.61a3.18,3.18,0,0,0-2.53-1,3.25,3.25,0,0,0-3.22,2.34,21.29,21.29,0,0,0-.9,7.2,31,31,0,0,0,.39,5.41,6.8,6.8,0,0,0,1.3,3.19,3.07,3.07,0,0,0,2.48,1.08,3.08,3.08,0,0,0,2.53-1.12,7,7,0,0,0,1.28-3.22A32.75,32.75,0,0,0-16.27,77Z" transform="translate(171.9 95)"/><circle class="cls-3" cx="25.1" cy="12.72" r="12.72"/><path class="cls-4" d="M-136.36-67.12a17.63,17.63,0,0,1-10.43,3.26,17.63,17.63,0,0,1-10.43-3.26A24.86,24.86,0,0,0-171.9-44.46h50A24.46,24.46,0,0,0-136.36-67.12Z" transform="translate(171.9 95)"/><line class="cls-1" x1="76" y1="19.33" x2="97.02" y2="40.35"/><line class="cls-1" x1="97.02" y1="19.33" x2="76" y2="40.35"/><path class="cls-5" d="M-147.52-51.3a4.2,4.2,0,0,1-.67,2.33,4.44,4.44,0,0,1-2,1.62,7.34,7.34,0,0,1-3.06.59,6.87,6.87,0,0,1-3.5-.8,4.65,4.65,0,0,1-1.59-1.54A3.49,3.49,0,0,1-158.9-51a1.25,1.25,0,0,1,.37-.9,1.24,1.24,0,0,1,.93-.38,1.1,1.1,0,0,1,.78.29,2.3,2.3,0,0,1,.54.87,5.79,5.79,0,0,0,.59,1.14,2.4,2.4,0,0,0,.89.76,3.31,3.31,0,0,0,1.51.3,3.42,3.42,0,0,0,2.09-.6,1.81,1.81,0,0,0,.81-1.5,1.58,1.58,0,0,0-.43-1.16,2.81,2.81,0,0,0-1.12-.68q-.69-.23-1.84-.5a13.53,13.53,0,0,1-2.58-.84A4.18,4.18,0,0,1-158-55.48a3.42,3.42,0,0,1-.61-2.08,3.56,3.56,0,0,1,.64-2.1,4.07,4.07,0,0,1,1.87-1.41,7.63,7.63,0,0,1,2.87-.49,7.11,7.11,0,0,1,2.28.33,4.81,4.81,0,0,1,1.6.87,3.63,3.63,0,0,1,.93,1.14,2.62,2.62,0,0,1,.29,1.16,1.37,1.37,0,0,1-.37.93,1.17,1.17,0,0,1-.91.42,1.05,1.05,0,0,1-.76-.25,3.35,3.35,0,0,1-.56-.82,3.71,3.71,0,0,0-.94-1.26,2.74,2.74,0,0,0-1.76-.45,3,3,0,0,0-1.81.49,1.44,1.44,0,0,0-.69,1.19,1.2,1.2,0,0,0,.23.74,2,2,0,0,0,.64.54,4.38,4.38,0,0,0,.83.35l1.39.37a21.73,21.73,0,0,1,2.19.63,6.66,6.66,0,0,1,1.67.83,3.41,3.41,0,0,1,1.07,1.24A4,4,0,0,1-147.52-51.3Z" transform="translate(171.9 95)"/><path class="cls-5" d="M-139.51-52.58h-2.66v4.05a1.89,1.89,0,0,1-.41,1.32,1.34,1.34,0,0,1-1,.45,1.35,1.35,0,0,1-1.05-.44,1.89,1.89,0,0,1-.4-1.3v-11a1.8,1.8,0,0,1,.44-1.37,2,2,0,0,1,1.4-.41h3.72a9.77,9.77,0,0,1,2.54.25,3.78,3.78,0,0,1,1.52.81,3.66,3.66,0,0,1,1,1.39,4.88,4.88,0,0,1,.33,1.85,4.08,4.08,0,0,1-1.35,3.32A6.13,6.13,0,0,1-139.51-52.58Zm-.7-6.56h-2v4.38h2A5.82,5.82,0,0,0-138.5-55a2,2,0,0,0,1-.7,2.1,2.1,0,0,0,.36-1.28,2.17,2.17,0,0,0-.56-1.54A3.71,3.71,0,0,0-140.21-59.14Z" transform="translate(171.9 95)"/><circle class="cls-6" cx="25.1" cy="83.72" r="12.72"/><path class="cls-7" d="M-136.36,3.88A17.63,17.63,0,0,1-146.8,7.14a17.63,17.63,0,0,1-10.43-3.26A24.86,24.86,0,0,0-171.9,26.54h50A24.46,24.46,0,0,0-136.36,3.88Z" transform="translate(171.9 95)"/><line class="cls-1" x1="76" y1="91.8" x2="97.02" y2="112.82"/><line class="cls-1" x1="97.02" y1="91.8" x2="76" y2="112.82"/><path class="cls-5" d="M-154.75,21.16-157,12v9.88a1.8,1.8,0,0,1-.37,1.23,1.24,1.24,0,0,1-1,.41,1.24,1.24,0,0,1-1-.41,1.78,1.78,0,0,1-.37-1.24V10.59a1.42,1.42,0,0,1,.49-1.26A2.34,2.34,0,0,1-157.91,9h.9a3.43,3.43,0,0,1,1.18.15,1,1,0,0,1,.54.53,8.13,8.13,0,0,1,.4,1.24l2.08,7.84,2.08-7.84a8.13,8.13,0,0,1,.4-1.24,1,1,0,0,1,.54-.53A3.43,3.43,0,0,1-148.61,9h.9a2.34,2.34,0,0,1,1.32.33,1.42,1.42,0,0,1,.49,1.26V21.92a1.8,1.8,0,0,1-.37,1.23,1.25,1.25,0,0,1-1,.41,1.22,1.22,0,0,1-.95-.41,1.78,1.78,0,0,1-.37-1.23V12l-2.29,9.12q-.22.89-.37,1.3a1.8,1.8,0,0,1-.52.76,1.52,1.52,0,0,1-1.05.34,1.59,1.59,0,0,1-.86-.22,1.58,1.58,0,0,1-.55-.56,3.23,3.23,0,0,1-.31-.76Z" transform="translate(171.9 95)"/><path class="cls-5" d="M-137.37,17.74H-140v4.05a1.89,1.89,0,0,1-.41,1.32,1.34,1.34,0,0,1-1,.45,1.35,1.35,0,0,1-1.05-.44,1.89,1.89,0,0,1-.4-1.3v-11a1.8,1.8,0,0,1,.44-1.37,2,2,0,0,1,1.4-.41h3.72a9.77,9.77,0,0,1,2.54.25,3.78,3.78,0,0,1,1.52.81,3.66,3.66,0,0,1,1,1.39A4.88,4.88,0,0,1-132,13.3a4.08,4.08,0,0,1-1.35,3.32A6.13,6.13,0,0,1-137.37,17.74Zm-.7-6.56h-2v4.38h2a5.82,5.82,0,0,0,1.71-.21,2,2,0,0,0,1-.7,2.1,2.1,0,0,0,.36-1.28,2.17,2.17,0,0,0-.56-1.54A3.71,3.71,0,0,0-138.07,11.18Z" transform="translate(171.9 95)"/><circle class="cls-8" cx="25.1" cy="154.72" r="12.72"/><path class="cls-9" d="M-136.36,74.88a17.63,17.63,0,0,1-10.43,3.26,17.63,17.63,0,0,1-10.43-3.26A24.86,24.86,0,0,0-171.9,97.54h50A24.46,24.46,0,0,0-136.36,74.88Z" transform="translate(171.9 95)"/><line class="cls-1" x1="76" y1="161.9" x2="97.02" y2="182.92"/><line class="cls-1" x1="97.02" y1="161.9" x2="76" y2="182.92"/><path class="cls-5" d="M-152.77,94.67h-4.37a1.81,1.81,0,0,1-1.35-.42,1.91,1.91,0,0,1-.41-1.35V82.13a1.87,1.87,0,0,1,.42-1.36,1.84,1.84,0,0,1,1.34-.42h4.64a10.79,10.79,0,0,1,1.78.13,3.79,3.79,0,0,1,1.35.49,3.54,3.54,0,0,1,.9.77,3.38,3.38,0,0,1,.6,1,3.43,3.43,0,0,1,.21,1.19,3.29,3.29,0,0,1-2.15,3.14q2.82.9,2.82,3.5a3.93,3.93,0,0,1-.62,2.16,3.69,3.69,0,0,1-1.66,1.42,5.91,5.91,0,0,1-1.5.39A15.27,15.27,0,0,1-152.77,94.67ZM-156,82.53v3.7h2.66a5.33,5.33,0,0,0,1.67-.21,1.6,1.6,0,0,0,.9-.78,1.76,1.76,0,0,0,.24-.92,1.42,1.42,0,0,0-.77-1.44,5.9,5.9,0,0,0-2.35-.36Zm3,5.78h-3v4.18h3.12q2.94,0,2.94-2.12a1.73,1.73,0,0,0-.76-1.57A4.27,4.27,0,0,0-153,88.31Z" transform="translate(171.9 95)"/><path class="cls-5" d="M-141.65,81.86V92.28h5.88a1.55,1.55,0,0,1,1.08.34,1.11,1.11,0,0,1,.38.86,1.09,1.09,0,0,1-.37.85,1.59,1.59,0,0,1-1.08.33h-7a1.86,1.86,0,0,1-1.36-.42,1.88,1.88,0,0,1-.42-1.36v-11a1.92,1.92,0,0,1,.4-1.32,1.33,1.33,0,0,1,1-.44,1.38,1.38,0,0,1,1.06.43A1.88,1.88,0,0,1-141.65,81.86Z" transform="translate(171.9 95)"/></svg>