<svg id="Layer_1" data-name="Layer 1" xmlns="http://www.w3.org/2000/svg" viewBox="0 0 187.87 256.93"><defs><style>.cls-1{fill:#ff7058;}.cls-2{fill:#f1543f;}.cls-3{fill:#fff;}.cls-4{fill:#1f1e20;}.cls-4,.cls-5,.cls-6{fill-rule:evenodd;}.cls-5{fill:#111012;}.cls-6{fill:#f0f2f0;}.cls-7{fill:#45b39c;}.cls-8{fill:#379982;}.cls-9{fill:#ffd05b;}.cls-10{fill:#f9b54c;}.cls-11{fill:#84dbff;}.cls-12{fill:#54c0eb;}.cls-13{fill:none;stroke:#324a5e;stroke-linecap:round;stroke-linejoin:round;stroke-width:5px;}</style></defs><title>scheme-two-left</title><circle class="cls-1" cx="97.55" cy="27.34" r="27.34"/><path class="cls-2" d="M121.66-9c-16.08.85-47.66.28-63.74,0,0-31.48,9.65-57,31.87-57S121.66-40.51,121.66-9Z" transform="translate(7.9 127)"/><path class="cls-3" d="M83.42-15H78a2.26,2.26,0,0,1-1.69-.53,2.39,2.39,0,0,1-.51-1.69V-30.63a2.34,2.34,0,0,1,.52-1.7A2.3,2.3,0,0,1,78-32.85h5.79a13.52,13.52,0,0,1,2.22.16,4.73,4.73,0,0,1,1.68.61,4.42,4.42,0,0,1,1.12,1,4.22,4.22,0,0,1,.74,1.28,4.29,4.29,0,0,1,.26,1.48,4.11,4.11,0,0,1-2.68,3.93q3.53,1.12,3.53,4.37a4.91,4.91,0,0,1-.77,2.7,4.61,4.61,0,0,1-2.07,1.77,7.36,7.36,0,0,1-1.88.48A19.14,19.14,0,0,1,83.42-15Zm-4-15.16v4.62H82.7a6.66,6.66,0,0,0,2.09-.26,2,2,0,0,0,1.13-1,2.2,2.2,0,0,0,.3-1.15,1.78,1.78,0,0,0-1-1.8,7.36,7.36,0,0,0-2.94-.45Zm3.77,7.22H79.38v5.22h3.89q3.67,0,3.67-2.65a2.16,2.16,0,0,0-1-2A5.33,5.33,0,0,0,83.15-22.91Z" transform="translate(7.9 127)"/><path class="cls-3" d="M97.3-31v13h7.34a1.94,1.94,0,0,1,1.35.43,1.39,1.39,0,0,1,.47,1.07,1.36,1.36,0,0,1-.46,1.07,2,2,0,0,1-1.35.41H95.9a2.32,2.32,0,0,1-1.7-.52,2.34,2.34,0,0,1-.52-1.7V-31a2.4,2.4,0,0,1,.49-1.65,1.67,1.67,0,0,1,1.3-.55,1.73,1.73,0,0,1,1.32.54A2.35,2.35,0,0,1,97.3-31Z" transform="translate(7.9 127)"/><polygon class="cls-4" points="94.21 67.21 91.82 89.56 97.6 93.27 97.6 67.21 94.21 67.21"/><polygon class="cls-4" points="97.6 93.27 102.81 89.56 100.99 67.21 97.6 67.21 97.6 93.27"/><polygon class="cls-4" points="91.18 60.93 94.24 67.21 100.96 67.21 104.02 60.93 91.18 60.93"/><polygon class="cls-4" points="91.18 60.93 94.24 67.21 97.6 67.21 97.6 60.93 91.18 60.93"/><polygon class="cls-5" points="94.24 67.21 100.96 67.21 100.96 67.51 94.24 67.21"/><polygon class="cls-6" points="85.32 56.96 97.53 60.98 85.08 71.98 85.32 56.96"/><polygon class="cls-6" points="109.82 56.96 97.61 60.98 110.06 71.98 109.82 56.96"/><circle class="cls-7" cx="96.73" cy="172.51" r="21.54"/><path class="cls-8" d="M114.22,117.11c-12.7.67-37.63.22-50.32,0,0-24.86,7.62-45,25.16-45S114.22,92.25,114.22,117.11Z" transform="translate(7.9 127)"/><path class="cls-3" d="M88.26,108.18a4.15,4.15,0,0,1-.66,2.3,4.38,4.38,0,0,1-1.93,1.6,7.24,7.24,0,0,1-3,.58,6.78,6.78,0,0,1-3.45-.79,4.59,4.59,0,0,1-1.57-1.52,3.44,3.44,0,0,1-.6-1.84,1.25,1.25,0,0,1,1.28-1.26,1.09,1.09,0,0,1,.77.29,2.28,2.28,0,0,1,.53.86,5.72,5.72,0,0,0,.58,1.13,2.36,2.36,0,0,0,.88.75,3.25,3.25,0,0,0,1.49.29,3.37,3.37,0,0,0,2.07-.59,1.78,1.78,0,0,0,.79-1.48,1.56,1.56,0,0,0-.43-1.14,2.76,2.76,0,0,0-1.11-.67q-.68-.23-1.82-.49a13.31,13.31,0,0,1-2.55-.83,4.12,4.12,0,0,1-1.63-1.3,3.38,3.38,0,0,1-.6-2A3.51,3.51,0,0,1,78,99.94a4,4,0,0,1,1.84-1.39,7.53,7.53,0,0,1,2.83-.49,7,7,0,0,1,2.25.32,4.75,4.75,0,0,1,1.57.86,3.58,3.58,0,0,1,.92,1.12,2.59,2.59,0,0,1,.29,1.15,1.35,1.35,0,0,1-.36.92,1.15,1.15,0,0,1-.9.41,1,1,0,0,1-.75-.25,3.3,3.3,0,0,1-.55-.8,3.65,3.65,0,0,0-.92-1.25,2.7,2.7,0,0,0-1.73-.45,3,3,0,0,0-1.79.49,1.41,1.41,0,0,0-.68,1.17,1.18,1.18,0,0,0,.23.73,1.94,1.94,0,0,0,.64.53,4.27,4.27,0,0,0,.82.35l1.37.37a21.49,21.49,0,0,1,2.16.62,6.58,6.58,0,0,1,1.65.82,3.37,3.37,0,0,1,1.06,1.22A3.9,3.9,0,0,1,88.26,108.18Z" transform="translate(7.9 127)"/><path class="cls-3" d="M95.93,106.92H93.41v4a2,2,0,0,1-.39,1.31,1.32,1.32,0,0,1-2,0,2,2,0,0,1-.38-1.3V100a1.86,1.86,0,0,1,.42-1.36,1.83,1.83,0,0,1,1.32-.41h3.53a8.83,8.83,0,0,1,2.41.25,3.53,3.53,0,0,1,1.44.81,3.65,3.65,0,0,1,.92,1.38,5.08,5.08,0,0,1,.31,1.84,4.16,4.16,0,0,1-1.28,3.3A5.61,5.61,0,0,1,95.93,106.92Zm-.68-6.42H93.41v4.12h1.84a5.5,5.5,0,0,0,1.62-.2,1.88,1.88,0,0,0,1-.66,2,2,0,0,0,.34-1.21,2,2,0,0,0-.52-1.45A3.5,3.5,0,0,0,95.25,100.5Z" transform="translate(7.9 127)"/><polygon class="cls-4" points="94.05 204.13 92.17 221.78 96.73 224.71 96.73 204.13 94.05 204.13"/><polygon class="cls-4" points="96.73 224.71 100.84 221.78 99.41 204.13 96.73 204.13 96.73 224.71"/><polygon class="cls-4" points="91.73 199.09 94.19 204.13 99.58 204.13 102.03 199.09 91.73 199.09"/><polygon class="cls-4" points="91.58 199.09 94.03 204.13 96.73 204.13 96.73 199.09 91.58 199.09"/><polygon class="cls-5" points="94.18 204.13 99.48 204.13 99.48 204.37 94.18 204.13"/><polygon class="cls-6" points="87.3 195.94 96.93 199.12 87.1 207.8 87.3 195.94"/><polygon class="cls-6" points="106.62 195.94 96.98 199.12 106.81 207.8 106.62 195.94"/><circle class="cls-9" cx="165.97" cy="169.68" r="18.71"/><path class="cls-10" d="M180,104.69c-11,.58-32.61.19-43.61,0,0-21.54,6.6-39,21.81-39S180,83.15,180,104.69Z" transform="translate(7.9 127)"/><path class="cls-3" d="M158.49,95.86h-2.27v3.46a1.62,1.62,0,0,1-.35,1.13,1.24,1.24,0,0,1-1.79,0,1.61,1.61,0,0,1-.34-1.11V89.91a1.54,1.54,0,0,1,.38-1.17,1.71,1.71,0,0,1,1.19-.35h3.18a8.34,8.34,0,0,1,2.17.22,3.24,3.24,0,0,1,1.3.69,3.13,3.13,0,0,1,.83,1.19,4.17,4.17,0,0,1,.28,1.58,3.48,3.48,0,0,1-1.15,2.83A5.24,5.24,0,0,1,158.49,95.86Zm-.6-5.61h-1.67V94h1.67a5,5,0,0,0,1.46-.18,1.71,1.71,0,0,0,.9-.6,1.79,1.79,0,0,0,.31-1.09,1.86,1.86,0,0,0-.48-1.32A3.17,3.17,0,0,0,157.89,90.25Z" transform="translate(7.9 127)"/><polygon class="cls-4" points="163.68 196.96 162.05 212.25 166 214.79 166 196.96 163.68 196.96"/><polygon class="cls-4" points="166 214.79 169.57 212.25 168.32 196.96 166 196.96 166 214.79"/><polygon class="cls-4" points="161.61 192.66 163.71 196.96 168.3 196.96 170.4 192.66 161.61 192.66"/><polygon class="cls-4" points="161.61 192.66 163.71 196.96 166 196.96 166 192.66 161.61 192.66"/><polygon class="cls-5" points="163.71 196.96 168.3 196.96 168.3 197.16 163.71 196.96"/><polygon class="cls-6" points="157.6 189.94 165.95 192.69 157.44 200.22 157.6 189.94"/><polygon class="cls-6" points="174.36 189.94 166.01 192.69 174.53 200.22 174.36 189.94"/><circle class="cls-11" cx="28.39" cy="175.43" r="24.46"/><path class="cls-12" d="M49.13,129.52c-14.39.76-42.64.25-57,0,0-28.17,8.63-51,28.52-51S49.13,101.35,49.13,129.52Z" transform="translate(7.9 127)"/><path class="cls-3" d="M11.41,121.8,8.84,111.61v11A2,2,0,0,1,8.43,124a1.39,1.39,0,0,1-1.09.46A1.38,1.38,0,0,1,6.28,124a2,2,0,0,1-.41-1.38V110a1.59,1.59,0,0,1,.55-1.41,2.61,2.61,0,0,1,1.47-.37h1a3.83,3.83,0,0,1,1.32.16,1.1,1.1,0,0,1,.61.59,9.17,9.17,0,0,1,.45,1.39l2.32,8.76,2.33-8.76a9.14,9.14,0,0,1,.45-1.39,1.1,1.1,0,0,1,.61-.59,3.83,3.83,0,0,1,1.32-.16h1a2.61,2.61,0,0,1,1.47.37,1.59,1.59,0,0,1,.55,1.41v12.66a2,2,0,0,1-.41,1.38,1.4,1.4,0,0,1-1.1.46,1.36,1.36,0,0,1-1.06-.46,2,2,0,0,1-.41-1.38v-11L15.75,121.8q-.25,1-.41,1.46a2,2,0,0,1-.58.85,1.7,1.7,0,0,1-1.18.38,1.72,1.72,0,0,1-1.57-.87,3.58,3.58,0,0,1-.34-.85Z" transform="translate(7.9 127)"/><path class="cls-3" d="M30.83,118h-3v4.53a2.12,2.12,0,0,1-.46,1.47,1.62,1.62,0,0,1-2.34,0,2.11,2.11,0,0,1-.45-1.46V110.2a2,2,0,0,1,.49-1.53,2.23,2.23,0,0,1,1.56-.46h4.16a10.91,10.91,0,0,1,2.84.28,4.24,4.24,0,0,1,1.7.91A4.09,4.09,0,0,1,36.46,111a5.47,5.47,0,0,1,.37,2.06,4.56,4.56,0,0,1-1.51,3.71A6.85,6.85,0,0,1,30.83,118ZM30,110.65H27.86v4.89H30A6.52,6.52,0,0,0,32,115.3a2.23,2.23,0,0,0,1.17-.79,2.35,2.35,0,0,0,.4-1.43,2.43,2.43,0,0,0-.62-1.72A4.15,4.15,0,0,0,30,110.65Z" transform="translate(7.9 127)"/><polygon class="cls-4" points="25.4 211.11 23.26 231.1 28.43 234.43 28.43 211.11 25.4 211.11"/><polygon class="cls-4" points="28.43 234.43 33.1 231.1 31.47 211.11 28.43 211.11 28.43 234.43"/><polygon class="cls-4" points="22.69 205.49 25.43 211.11 31.44 211.11 34.18 205.49 22.69 205.49"/><polygon class="cls-4" points="22.69 205.49 25.43 211.11 28.43 211.11 28.43 205.49 22.69 205.49"/><polygon class="cls-5" points="25.43 211.11 31.44 211.11 31.44 211.38 25.43 211.11"/><polygon class="cls-6" points="17.45 201.94 28.37 205.53 17.23 215.38 17.45 201.94"/><polygon class="cls-6" points="39.37 201.94 28.44 205.53 39.58 215.38 39.37 201.94"/><polyline class="cls-13" points="97.29 125.47 97.29 133.53 28.52 133.53 28.52 142.25"/><line class="cls-13" x1="97.29" y1="133.52" x2="97.29" y2="142.25"/><polyline class="cls-13" points="97.46 125.47 97.46 133.53 166.24 133.53 166.24 142.25"/></svg>