<svg id="Layer_1" data-name="Layer 1" xmlns="http://www.w3.org/2000/svg" viewBox="0 0 383.13 424"><defs><style>.cls-1{fill:#0097aa;}.cls-2{fill:#fff;}.cls-3{fill:#1f1e20;}.cls-3,.cls-4,.cls-5{fill-rule:evenodd;}.cls-4{fill:#111012;}.cls-5{fill:#f0f2f0;}.cls-6{fill:#ff7058;}.cls-7{fill:#f1543f;}.cls-8{fill:#45b39c;}.cls-9{fill:#379982;}.cls-10{fill:#ffd05b;}.cls-11{fill:#f9b54c;}.cls-12{fill:#84dbff;}.cls-13{fill:#54c0eb;}.cls-14{fill:none;stroke:#324a5e;stroke-linecap:round;stroke-linejoin:round;stroke-width:5px;}</style></defs><title>scheme-three</title><circle class="cls-1" cx="212.87" cy="31.66" r="31.66"/><path class="cls-1" d="M143.38-14.4c-18.62,1-55.19.33-73.81,0,0-36.46,11.17-66,36.9-66S143.38-50.86,143.38-14.4Z" transform="translate(106.56 151)"/><path class="cls-2" d="M97.24-27.49a6.08,6.08,0,0,1-1,3.38,6.42,6.42,0,0,1-2.83,2.34,10.62,10.62,0,0,1-4.42.85A10,10,0,0,1,84-22.08a6.73,6.73,0,0,1-2.3-2.22,5.05,5.05,0,0,1-.88-2.7,1.8,1.8,0,0,1,.53-1.31,1.8,1.8,0,0,1,1.35-.54,1.59,1.59,0,0,1,1.12.42,3.34,3.34,0,0,1,.78,1.26,8.42,8.42,0,0,0,.85,1.65,3.46,3.46,0,0,0,1.29,1.09,4.78,4.78,0,0,0,2.19.43,4.94,4.94,0,0,0,3-.87A2.61,2.61,0,0,0,93.11-27a2.29,2.29,0,0,0-.63-1.67,4.06,4.06,0,0,0-1.62-1q-1-.34-2.66-.72a19.52,19.52,0,0,1-3.74-1.22,6,6,0,0,1-2.39-1.91,5,5,0,0,1-.88-3,5.15,5.15,0,0,1,.93-3,5.87,5.87,0,0,1,2.7-2A11,11,0,0,1,89-42.33a10.27,10.27,0,0,1,3.3.47,7,7,0,0,1,2.31,1.26A5.25,5.25,0,0,1,95.92-39a3.8,3.8,0,0,1,.42,1.68,2,2,0,0,1-.53,1.35,1.69,1.69,0,0,1-1.32.6,1.52,1.52,0,0,1-1.09-.36,4.83,4.83,0,0,1-.81-1.18,5.35,5.35,0,0,0-1.36-1.83,4,4,0,0,0-2.54-.66,4.4,4.4,0,0,0-2.62.71,2.07,2.07,0,0,0-1,1.72,1.74,1.74,0,0,0,.34,1.07,2.86,2.86,0,0,0,.93.78,6.25,6.25,0,0,0,1.2.51q.61.18,2,.54a31.49,31.49,0,0,1,3.17.9,9.66,9.66,0,0,1,2.42,1.2,4.94,4.94,0,0,1,1.55,1.79A5.72,5.72,0,0,1,97.24-27.49Z" transform="translate(106.56 151)"/><path class="cls-2" d="M109.65-21.27h-6.33a2.62,2.62,0,0,1-2-.61,2.76,2.76,0,0,1-.59-2V-39.41a2.71,2.71,0,0,1,.6-2,2.66,2.66,0,0,1,1.94-.6H110a15.65,15.65,0,0,1,2.57.18,5.49,5.49,0,0,1,1.95.71,5.12,5.12,0,0,1,1.3,1.11,4.93,4.93,0,0,1,.86,1.48,5,5,0,0,1,.3,1.72,4.76,4.76,0,0,1-3.11,4.55q4.08,1.3,4.08,5.06a5.68,5.68,0,0,1-.89,3.13,5.33,5.33,0,0,1-2.4,2.06,8.51,8.51,0,0,1-2.17.56A22.18,22.18,0,0,1,109.65-21.27ZM105-38.83v5.35h3.84a7.72,7.72,0,0,0,2.42-.3,2.31,2.31,0,0,0,1.31-1.13,2.55,2.55,0,0,0,.35-1.33,2.06,2.06,0,0,0-1.12-2.08,8.53,8.53,0,0,0-3.4-.52Zm4.36,8.36H105v6h4.51q4.25,0,4.25-3.07a2.5,2.5,0,0,0-1.1-2.27A6.17,6.17,0,0,0,109.34-30.47Z" transform="translate(106.56 151)"/><path class="cls-2" d="M125.72-39.79v15.07h8.5a2.24,2.24,0,0,1,1.56.49,1.61,1.61,0,0,1,.54,1.24,1.57,1.57,0,0,1-.54,1.24,2.3,2.3,0,0,1-1.57.47H124.1a2.69,2.69,0,0,1-2-.61,2.72,2.72,0,0,1-.6-2V-39.79a2.77,2.77,0,0,1,.57-1.91,1.93,1.93,0,0,1,1.5-.64,2,2,0,0,1,1.53.63A2.72,2.72,0,0,1,125.72-39.79Z" transform="translate(106.56 151)"/><polygon class="cls-3" points="209 77.83 206.24 103.7 212.93 108 212.93 77.83 209 77.83"/><polygon class="cls-3" points="212.93 108 218.97 103.7 216.86 77.83 212.93 77.83 212.93 108"/><polygon class="cls-3" points="205.5 70.55 209.04 77.83 216.82 77.83 220.36 70.55 205.5 70.55"/><polygon class="cls-3" points="205.5 70.55 209.04 77.83 212.93 77.83 212.93 70.55 205.5 70.55"/><polygon class="cls-4" points="209.04 77.83 216.82 77.83 216.82 78.17 209.04 77.83"/><polygon class="cls-5" points="198.71 65.96 212.84 70.61 198.43 83.35 198.71 65.96"/><polygon class="cls-5" points="227.07 65.96 212.94 70.61 227.35 83.35 227.07 65.96"/><circle class="cls-6" cx="97.55" cy="194.41" r="27.34"/><path class="cls-7" d="M23,134c-16.08.85-47.66.28-63.74,0,0-31.48,9.65-57,31.87-57S23,102.56,23,134Z" transform="translate(106.56 151)"/><path class="cls-2" d="M-15.25,128.11h-5.47a2.26,2.26,0,0,1-1.69-.53,2.39,2.39,0,0,1-.51-1.69V112.45a2.34,2.34,0,0,1,.52-1.7,2.3,2.3,0,0,1,1.68-.52h5.79a13.52,13.52,0,0,1,2.22.16A4.73,4.73,0,0,1-11,111a4.42,4.42,0,0,1,1.12,1,4.22,4.22,0,0,1,.74,1.28,4.29,4.29,0,0,1,.26,1.48,4.11,4.11,0,0,1-2.68,3.93q3.53,1.12,3.53,4.37a4.91,4.91,0,0,1-.77,2.7,4.61,4.61,0,0,1-2.07,1.77,7.36,7.36,0,0,1-1.88.48A19.14,19.14,0,0,1-15.25,128.11Zm-4-15.16v4.62H-16a6.66,6.66,0,0,0,2.09-.26,2,2,0,0,0,1.13-1,2.2,2.2,0,0,0,.3-1.15,1.78,1.78,0,0,0-1-1.8,7.36,7.36,0,0,0-2.94-.45Zm3.77,7.22h-3.77v5.22h3.89q3.67,0,3.67-2.65a2.16,2.16,0,0,0-1-2A5.33,5.33,0,0,0-15.52,120.17Z" transform="translate(106.56 151)"/><path class="cls-2" d="M-1.37,112.12v13H6a1.94,1.94,0,0,1,1.35.43,1.39,1.39,0,0,1,.47,1.07,1.36,1.36,0,0,1-.46,1.07,2,2,0,0,1-1.35.41H-2.77a2.32,2.32,0,0,1-1.7-.52,2.34,2.34,0,0,1-.52-1.7V112.12a2.4,2.4,0,0,1,.49-1.65,1.67,1.67,0,0,1,1.3-.55,1.73,1.73,0,0,1,1.32.54A2.35,2.35,0,0,1-1.37,112.12Z" transform="translate(106.56 151)"/><polygon class="cls-3" points="94.21 234.29 91.82 256.63 97.6 260.35 97.6 234.29 94.21 234.29"/><polygon class="cls-3" points="97.6 260.35 102.81 256.63 100.99 234.29 97.6 234.29 97.6 260.35"/><polygon class="cls-3" points="91.18 228 94.24 234.29 100.96 234.29 104.02 228 91.18 228"/><polygon class="cls-3" points="91.18 228 94.24 234.29 97.6 234.29 97.6 228 91.18 228"/><polygon class="cls-4" points="94.24 234.29 100.96 234.29 100.96 234.58 94.24 234.29"/><polygon class="cls-5" points="85.32 224.04 97.53 228.06 85.08 239.06 85.32 224.04"/><polygon class="cls-5" points="109.82 224.04 97.61 228.06 110.06 239.06 109.82 224.04"/><circle class="cls-8" cx="96.73" cy="339.58" r="21.54"/><path class="cls-9" d="M15.55,260.18c-12.7.67-37.63.22-50.32,0,0-24.86,7.62-45,25.16-45S15.55,235.32,15.55,260.18Z" transform="translate(106.56 151)"/><path class="cls-2" d="M-10.4,251.26a4.15,4.15,0,0,1-.66,2.3,4.38,4.38,0,0,1-1.93,1.6,7.24,7.24,0,0,1-3,.58,6.78,6.78,0,0,1-3.45-.79A4.59,4.59,0,0,1-21,253.43a3.44,3.44,0,0,1-.6-1.84,1.23,1.23,0,0,1,.36-.89,1.23,1.23,0,0,1,.92-.37,1.09,1.09,0,0,1,.77.29,2.28,2.28,0,0,1,.53.86,5.72,5.72,0,0,0,.58,1.13,2.36,2.36,0,0,0,.88.75,3.25,3.25,0,0,0,1.49.29A3.37,3.37,0,0,0-14,253a1.78,1.78,0,0,0,.79-1.48,1.56,1.56,0,0,0-.43-1.14,2.76,2.76,0,0,0-1.11-.67q-.68-.23-1.82-.49a13.31,13.31,0,0,1-2.55-.83,4.12,4.12,0,0,1-1.63-1.3,3.38,3.38,0,0,1-.6-2,3.51,3.51,0,0,1,.64-2.07,4,4,0,0,1,1.84-1.39,7.53,7.53,0,0,1,2.83-.49,7,7,0,0,1,2.25.32,4.75,4.75,0,0,1,1.57.86,3.58,3.58,0,0,1,.92,1.12,2.59,2.59,0,0,1,.29,1.15,1.35,1.35,0,0,1-.36.92,1.15,1.15,0,0,1-.9.41,1,1,0,0,1-.75-.25,3.3,3.3,0,0,1-.55-.8,3.65,3.65,0,0,0-.92-1.25,2.7,2.7,0,0,0-1.73-.45,3,3,0,0,0-1.79.49,1.41,1.41,0,0,0-.68,1.17,1.18,1.18,0,0,0,.23.73,1.94,1.94,0,0,0,.64.53,4.27,4.27,0,0,0,.82.35l1.37.37a21.49,21.49,0,0,1,2.16.62,6.58,6.58,0,0,1,1.65.82,3.37,3.37,0,0,1,1.06,1.22A3.9,3.9,0,0,1-10.4,251.26Z" transform="translate(106.56 151)"/><path class="cls-2" d="M-2.74,250H-5.25v4a2,2,0,0,1-.39,1.31,1.24,1.24,0,0,1-1,.45,1.25,1.25,0,0,1-1-.44,2,2,0,0,1-.38-1.3v-11a1.86,1.86,0,0,1,.42-1.36,1.83,1.83,0,0,1,1.32-.41h3.53a8.83,8.83,0,0,1,2.41.25,3.53,3.53,0,0,1,1.44.81A3.65,3.65,0,0,1,2,243.73a5.08,5.08,0,0,1,.31,1.84,4.16,4.16,0,0,1-1.28,3.3A5.61,5.61,0,0,1-2.74,250Zm-.68-6.42H-5.25v4.12h1.84a5.5,5.5,0,0,0,1.62-.2,1.88,1.88,0,0,0,1-.66,2,2,0,0,0,.34-1.21A2,2,0,0,0-1,244.18,3.5,3.5,0,0,0-3.41,243.58Z" transform="translate(106.56 151)"/><polygon class="cls-3" points="94.05 371.2 92.17 388.85 96.73 391.78 96.73 371.2 94.05 371.2"/><polygon class="cls-3" points="96.73 391.78 100.84 388.85 99.41 371.2 96.73 371.2 96.73 391.78"/><polygon class="cls-3" points="91.73 366.16 94.19 371.2 99.58 371.2 102.03 366.16 91.73 366.16"/><polygon class="cls-3" points="91.58 366.16 94.03 371.2 96.73 371.2 96.73 366.16 91.58 366.16"/><polygon class="cls-4" points="94.18 371.2 99.48 371.2 99.48 371.44 94.18 371.2"/><polygon class="cls-5" points="87.3 363.01 96.93 366.19 87.1 374.87 87.3 363.01"/><polygon class="cls-5" points="106.62 363.01 96.98 366.19 106.81 374.87 106.62 363.01"/><circle class="cls-10" cx="165.97" cy="336.75" r="18.71"/><path class="cls-11" d="M81.31,247.76c-11,.58-32.61.19-43.61,0,0-21.54,6.6-39,21.81-39S81.31,226.22,81.31,247.76Z" transform="translate(106.56 151)"/><path class="cls-2" d="M59.83,238.93H57.56v3.46a1.62,1.62,0,0,1-.35,1.13,1.24,1.24,0,0,1-1.79,0,1.61,1.61,0,0,1-.34-1.11V233a1.54,1.54,0,0,1,.38-1.17,1.71,1.71,0,0,1,1.19-.35h3.18a8.34,8.34,0,0,1,2.17.22,3.24,3.24,0,0,1,1.3.69,3.13,3.13,0,0,1,.83,1.19,4.17,4.17,0,0,1,.28,1.58A3.48,3.48,0,0,1,63.26,238,5.24,5.24,0,0,1,59.83,238.93Zm-.6-5.61H57.56v3.74h1.67a5,5,0,0,0,1.46-.18,1.71,1.71,0,0,0,.9-.6,1.79,1.79,0,0,0,.31-1.09,1.86,1.86,0,0,0-.48-1.32A3.17,3.17,0,0,0,59.23,233.33Z" transform="translate(106.56 151)"/><polygon class="cls-3" points="163.68 364.03 162.05 379.32 166 381.86 166 364.03 163.68 364.03"/><polygon class="cls-3" points="166 381.86 169.57 379.32 168.32 364.03 166 364.03 166 381.86"/><polygon class="cls-3" points="161.61 359.73 163.71 364.03 168.3 364.03 170.4 359.73 161.61 359.73"/><polygon class="cls-3" points="161.61 359.73 163.71 364.03 166 364.03 166 359.73 161.61 359.73"/><polygon class="cls-4" points="163.71 364.03 168.3 364.03 168.3 364.24 163.71 364.03"/><polygon class="cls-5" points="157.6 357.02 165.95 359.77 157.44 367.29 157.6 357.02"/><polygon class="cls-5" points="174.36 357.02 166.01 359.77 174.53 367.29 174.36 357.02"/><circle class="cls-12" cx="28.39" cy="342.51" r="24.46"/><path class="cls-13" d="M-49.53,272.6c-14.39.76-42.64.25-57,0,0-28.17,8.63-51,28.52-51S-49.53,244.43-49.53,272.6Z" transform="translate(106.56 151)"/><path class="cls-2" d="M-87.26,264.87l-2.57-10.19v11a2,2,0,0,1-.41,1.38,1.39,1.39,0,0,1-1.09.46,1.38,1.38,0,0,1-1.07-.45,2,2,0,0,1-.41-1.38V253.06a1.59,1.59,0,0,1,.55-1.41,2.61,2.61,0,0,1,1.47-.37h1a3.83,3.83,0,0,1,1.32.16,1.1,1.1,0,0,1,.61.59,9.17,9.17,0,0,1,.45,1.39l2.32,8.76,2.33-8.76a9.14,9.14,0,0,1,.45-1.39,1.1,1.1,0,0,1,.61-.59,3.83,3.83,0,0,1,1.32-.16h1a2.61,2.61,0,0,1,1.47.37,1.59,1.59,0,0,1,.55,1.41v12.66a2,2,0,0,1-.41,1.38,1.4,1.4,0,0,1-1.1.46,1.36,1.36,0,0,1-1.06-.46,2,2,0,0,1-.41-1.38v-11l-2.57,10.19q-.25,1-.41,1.46a2,2,0,0,1-.58.85,1.7,1.7,0,0,1-1.18.38,1.78,1.78,0,0,1-1-.25,1.77,1.77,0,0,1-.61-.63,3.58,3.58,0,0,1-.34-.85Z" transform="translate(106.56 151)"/><path class="cls-2" d="M-67.83,261.05h-3v4.53a2.12,2.12,0,0,1-.46,1.47,1.5,1.5,0,0,1-1.16.5,1.51,1.51,0,0,1-1.18-.5,2.11,2.11,0,0,1-.45-1.46V253.27a2,2,0,0,1,.49-1.53,2.23,2.23,0,0,1,1.56-.46h4.16a10.91,10.91,0,0,1,2.84.28,4.24,4.24,0,0,1,1.7.91A4.09,4.09,0,0,1-62.21,254a5.47,5.47,0,0,1,.37,2.06,4.56,4.56,0,0,1-1.51,3.71A6.85,6.85,0,0,1-67.83,261.05Zm-.79-7.33H-70.8v4.89h2.18a6.52,6.52,0,0,0,1.92-.24,2.23,2.23,0,0,0,1.17-.79,2.35,2.35,0,0,0,.4-1.43,2.43,2.43,0,0,0-.62-1.72A4.15,4.15,0,0,0-68.62,253.72Z" transform="translate(106.56 151)"/><polygon class="cls-3" points="25.4 378.18 23.26 398.18 28.43 401.5 28.43 378.18 25.4 378.18"/><polygon class="cls-3" points="28.43 401.5 33.1 398.18 31.47 378.18 28.43 378.18 28.43 401.5"/><polygon class="cls-3" points="22.69 372.56 25.43 378.18 31.44 378.18 34.18 372.56 22.69 372.56"/><polygon class="cls-3" points="22.69 372.56 25.43 378.18 28.43 378.18 28.43 372.56 22.69 372.56"/><polygon class="cls-4" points="25.43 378.18 31.44 378.18 31.44 378.45 25.43 378.18"/><polygon class="cls-5" points="17.45 369.01 28.37 372.61 17.23 382.45 17.45 369.01"/><polygon class="cls-5" points="39.37 369.01 28.44 372.61 39.58 382.45 39.37 369.01"/><circle class="cls-12" cx="327.04" cy="191.54" r="24.46"/><path class="cls-13" d="M249.12,121.63c-14.39.76-42.64.25-57,0,0-28.17,8.63-51,28.52-51S249.12,93.46,249.12,121.63Z" transform="translate(106.56 151)"/><path class="cls-2" d="M211.39,113.9l-2.57-10.19v11a2,2,0,0,1-.41,1.38,1.5,1.5,0,0,1-2.16,0,2,2,0,0,1-.41-1.38V102.09a1.59,1.59,0,0,1,.55-1.41,2.61,2.61,0,0,1,1.47-.37h1a3.83,3.83,0,0,1,1.32.16,1.1,1.1,0,0,1,.61.59,9.17,9.17,0,0,1,.45,1.39l2.32,8.76,2.33-8.76a9.14,9.14,0,0,1,.45-1.39,1.1,1.1,0,0,1,.61-.59,3.83,3.83,0,0,1,1.32-.16h1a2.61,2.61,0,0,1,1.47.37,1.59,1.59,0,0,1,.55,1.41v12.66a2,2,0,0,1-.41,1.38,1.4,1.4,0,0,1-1.1.46,1.36,1.36,0,0,1-1.06-.46,2,2,0,0,1-.41-1.38v-11l-2.57,10.19q-.25,1-.41,1.46a2,2,0,0,1-.58.85,1.7,1.7,0,0,1-1.18.38,1.72,1.72,0,0,1-1.57-.87,3.58,3.58,0,0,1-.34-.85Z" transform="translate(106.56 151)"/><path class="cls-2" d="M230.82,110.08h-3v4.53a2.12,2.12,0,0,1-.46,1.47,1.62,1.62,0,0,1-2.34,0,2.11,2.11,0,0,1-.45-1.46V102.3a2,2,0,0,1,.49-1.53,2.23,2.23,0,0,1,1.56-.46h4.16a10.91,10.91,0,0,1,2.84.28,4.24,4.24,0,0,1,1.7.91,4.09,4.09,0,0,1,1.09,1.55,5.47,5.47,0,0,1,.37,2.06,4.56,4.56,0,0,1-1.51,3.71A6.85,6.85,0,0,1,230.82,110.08Zm-.79-7.33h-2.18v4.89H230a6.52,6.52,0,0,0,1.92-.24,2.23,2.23,0,0,0,1.17-.79,2.35,2.35,0,0,0,.4-1.43,2.43,2.43,0,0,0-.62-1.72A4.15,4.15,0,0,0,230,102.75Z" transform="translate(106.56 151)"/><polygon class="cls-3" points="324.05 227.21 321.91 247.21 327.08 250.53 327.08 227.21 324.05 227.21"/><polygon class="cls-3" points="327.08 250.53 331.75 247.21 330.12 227.21 327.08 227.21 327.08 250.53"/><polygon class="cls-3" points="321.34 221.59 324.08 227.21 330.09 227.21 332.83 221.59 321.34 221.59"/><polygon class="cls-3" points="321.34 221.59 324.08 227.21 327.08 227.21 327.08 221.59 321.34 221.59"/><polygon class="cls-4" points="324.08 227.21 330.09 227.21 330.09 227.48 324.08 227.21"/><polygon class="cls-5" points="316.1 218.04 327.02 221.64 315.88 231.48 316.1 218.04"/><polygon class="cls-5" points="338.01 218.04 327.09 221.64 338.23 231.48 338.01 218.04"/><circle class="cls-10" cx="294.8" cy="324.67" r="18.71"/><path class="cls-11" d="M210.14,235.68c-11,.58-32.61.19-43.61,0,0-21.54,6.6-39,21.81-39S210.14,214.14,210.14,235.68Z" transform="translate(106.56 151)"/><path class="cls-2" d="M188.66,226.86h-2.27v3.46a1.62,1.62,0,0,1-.35,1.13,1.24,1.24,0,0,1-1.79,0,1.61,1.61,0,0,1-.34-1.11v-9.43a1.54,1.54,0,0,1,.38-1.17,1.71,1.71,0,0,1,1.19-.35h3.18a8.34,8.34,0,0,1,2.17.22,3.24,3.24,0,0,1,1.3.69,3.13,3.13,0,0,1,.83,1.19,4.17,4.17,0,0,1,.28,1.58,3.48,3.48,0,0,1-1.15,2.83A5.24,5.24,0,0,1,188.66,226.86Zm-.6-5.61h-1.67V225h1.67a5,5,0,0,0,1.46-.18,1.71,1.71,0,0,0,.9-.6,1.79,1.79,0,0,0,.31-1.09,1.86,1.86,0,0,0-.48-1.32A3.17,3.17,0,0,0,188.06,221.25Z" transform="translate(106.56 151)"/><polygon class="cls-3" points="292.51 351.95 290.88 367.24 294.83 369.79 294.83 351.95 292.51 351.95"/><polygon class="cls-3" points="294.83 369.79 298.4 367.24 297.15 351.95 294.83 351.95 294.83 369.79"/><polygon class="cls-3" points="290.44 347.65 292.54 351.95 297.13 351.95 299.22 347.65 290.44 347.65"/><polygon class="cls-3" points="290.44 347.65 292.54 351.95 294.83 351.95 294.83 347.65 290.44 347.65"/><polygon class="cls-4" points="292.54 351.95 297.13 351.95 297.13 352.16 292.54 351.95"/><polygon class="cls-5" points="286.43 344.94 294.78 347.69 286.26 355.22 286.43 344.94"/><polygon class="cls-5" points="303.19 344.94 294.84 347.69 303.36 355.22 303.19 344.94"/><circle class="cls-10" cx="361.22" cy="324.67" r="18.71"/><path class="cls-11" d="M276.56,235.68c-11,.58-32.61.19-43.61,0,0-21.54,6.6-39,21.81-39S276.56,214.14,276.56,235.68Z" transform="translate(106.56 151)"/><path class="cls-2" d="M255.08,226.86h-2.27v3.46a1.62,1.62,0,0,1-.35,1.13,1.24,1.24,0,0,1-1.79,0,1.61,1.61,0,0,1-.34-1.11v-9.43a1.54,1.54,0,0,1,.38-1.17,1.71,1.71,0,0,1,1.19-.35h3.18a8.34,8.34,0,0,1,2.17.22,3.24,3.24,0,0,1,1.3.69,3.13,3.13,0,0,1,.83,1.19,4.17,4.17,0,0,1,.28,1.58,3.48,3.48,0,0,1-1.15,2.83A5.24,5.24,0,0,1,255.08,226.86Zm-.6-5.61h-1.67V225h1.67a5,5,0,0,0,1.46-.18,1.71,1.71,0,0,0,.9-.6,1.79,1.79,0,0,0,.31-1.09,1.86,1.86,0,0,0-.48-1.32A3.17,3.17,0,0,0,254.48,221.25Z" transform="translate(106.56 151)"/><polygon class="cls-3" points="358.94 351.95 357.31 367.24 361.26 369.79 361.26 351.95 358.94 351.95"/><polygon class="cls-3" points="361.26 369.79 364.83 367.24 363.58 351.95 361.26 351.95 361.26 369.79"/><polygon class="cls-3" points="356.87 347.65 358.96 351.95 363.56 351.95 365.65 347.65 356.87 347.65"/><polygon class="cls-3" points="356.87 347.65 358.96 351.95 361.26 351.95 361.26 347.65 356.87 347.65"/><polygon class="cls-4" points="358.96 351.95 363.56 351.95 363.56 352.16 358.96 351.95"/><polygon class="cls-5" points="352.86 344.94 361.21 347.69 352.69 355.22 352.86 344.94"/><polygon class="cls-5" points="369.62 344.94 361.27 347.69 369.78 355.22 369.62 344.94"/><polyline class="cls-14" points="212.7 143.93 212.7 151.98 97.29 151.98 97.29 160.7"/><polyline class="cls-14" points="212.7 143.93 212.7 151.98 328.11 151.98 328.11 160.7"/><polyline class="cls-14" points="97.29 292.55 97.29 300.6 28.52 300.6 28.52 309.32"/><line class="cls-14" x1="97.29" y1="300.6" x2="97.29" y2="309.32"/><polyline class="cls-14" points="97.46 292.55 97.46 300.6 166.24 300.6 166.24 309.32"/><polyline class="cls-14" points="328.11 281.14 328.11 289.19 294.89 289.19 294.89 297.92"/><polyline class="cls-14" points="327.94 281.14 327.94 289.19 361.15 289.19 361.15 297.92"/></svg>