<svg id="Layer_1" data-name="Layer 1" xmlns="http://www.w3.org/2000/svg" viewBox="0 0 180.44 50.54"><defs><style>.cls-1{fill:#ffd05b;}.cls-2{fill:#f9b54c;}.cls-3{fill:none;stroke:#324a5e;stroke-linecap:round;stroke-linejoin:round;stroke-width:5px;}.cls-4{fill:#fff;}.cls-5{fill:#324a5e;}</style></defs><title>scheme-one-right</title><circle class="cls-1" cx="25.1" cy="12.72" r="12.72"/><path class="cls-2" d="M221.36,42.87a18.32,18.32,0,0,1-20.87,0,24.86,24.86,0,0,0-14.67,22.66h50A24.46,24.46,0,0,0,221.36,42.87Z" transform="translate(-185.82 -14.99)"/><line class="cls-3" x1="73.98" y1="19.9" x2="95" y2="40.92"/><line class="cls-3" x1="95" y1="19.9" x2="73.98" y2="40.92"/><path class="cls-4" d="M212,58.28h-2.39v3.65a1.7,1.7,0,0,1-.37,1.19,1.3,1.3,0,0,1-1.88,0A1.7,1.7,0,0,1,207,62V52a1.63,1.63,0,0,1,.4-1.23,1.8,1.8,0,0,1,1.26-.37H212a8.78,8.78,0,0,1,2.29.23,3.41,3.41,0,0,1,1.37.73,3.29,3.29,0,0,1,.88,1.25,4.4,4.4,0,0,1,.3,1.66,3.67,3.67,0,0,1-1.21,3A5.52,5.52,0,0,1,212,58.28Zm-.63-5.91h-1.76v3.94h1.76a5.26,5.26,0,0,0,1.54-.19,1.8,1.8,0,0,0,.95-.63,1.89,1.89,0,0,0,.33-1.15,2,2,0,0,0-.5-1.39A3.34,3.34,0,0,0,211.4,52.37Z" transform="translate(-185.82 -14.99)"/><path class="cls-5" d="M313.67,42.4a4.28,4.28,0,0,0,2.79-.95,3.31,3.31,0,0,0,1.17-2.72,3.25,3.25,0,0,0-.93-2.33,3.31,3.31,0,0,0-2.51-1,4.51,4.51,0,0,0-1.77.3,2.83,2.83,0,0,0-1.1.79,6,6,0,0,0-.76,1.27q-.36.77-.66,1.46a1.23,1.23,0,0,1-.63.58,2.49,2.49,0,0,1-1.05.21,1.82,1.82,0,0,1-1.29-.57,2,2,0,0,1-.59-1.52,4,4,0,0,1,.55-1.92,7,7,0,0,1,1.62-1.92,8.12,8.12,0,0,1,2.64-1.47,10.64,10.64,0,0,1,3.53-.55,9.83,9.83,0,0,1,3.11.47,7.29,7.29,0,0,1,2.44,1.34,5.8,5.8,0,0,1,1.56,2,6,6,0,0,1,.53,2.5,5.69,5.69,0,0,1-.76,3,10.14,10.14,0,0,1-2.19,2.45,9.68,9.68,0,0,1,2.31,1.69,6.3,6.3,0,0,1,1.89,4.59,7.76,7.76,0,0,1-.64,3.09A7.88,7.88,0,0,1,321,55.91a9,9,0,0,1-3,1.83,10.47,10.47,0,0,1-3.79.66,9.06,9.06,0,0,1-3.78-.76,8.71,8.71,0,0,1-2.75-1.89,8.6,8.6,0,0,1-1.63-2.35,5.09,5.09,0,0,1-.55-2,2.16,2.16,0,0,1,.66-1.64,2.29,2.29,0,0,1,1.64-.62,1.75,1.75,0,0,1,.95.29,1.37,1.37,0,0,1,.6.69,11.82,11.82,0,0,0,2,3.63,3.72,3.72,0,0,0,2.94,1.19,4.43,4.43,0,0,0,2.1-.54,4.37,4.37,0,0,0,1.67-1.59,4.51,4.51,0,0,0,.66-2.44,4.46,4.46,0,0,0-1.12-3.22A4.14,4.14,0,0,0,314.49,46q-.35,0-1.09.07c-.49,0-.81.07-.95.07a2.13,2.13,0,0,1-1.49-.48,1.73,1.73,0,0,1-.53-1.34,1.68,1.68,0,0,1,.63-1.36,2.91,2.91,0,0,1,1.88-.52Z" transform="translate(-185.82 -14.99)"/><path class="cls-5" d="M344.87,45.32a30.1,30.1,0,0,1-.35,5,11.54,11.54,0,0,1-1.3,3.76,8.64,8.64,0,0,1-3.09,3.2,8.4,8.4,0,0,1-9-.39,9.19,9.19,0,0,1-3.19-4.18,15.54,15.54,0,0,1-.8-3.22,26.86,26.86,0,0,1-.25-3.82,36.77,36.77,0,0,1,.28-4.78,15.78,15.78,0,0,1,.88-3.65A7.86,7.86,0,0,1,335.77,32a8.81,8.81,0,0,1,3.29.59,7.49,7.49,0,0,1,2.59,1.72,9.85,9.85,0,0,1,1.89,2.8A20.16,20.16,0,0,1,344.87,45.32ZM340.06,45a29.3,29.3,0,0,0-.39-5.26,6.48,6.48,0,0,0-1.3-3.09,3.18,3.18,0,0,0-2.53-1,3.25,3.25,0,0,0-3.22,2.34,21.29,21.29,0,0,0-.9,7.2,31,31,0,0,0,.39,5.41,6.8,6.8,0,0,0,1.3,3.19,3.39,3.39,0,0,0,5,0,7,7,0,0,0,1.28-3.22A32.75,32.75,0,0,0,340.06,45Z" transform="translate(-185.82 -14.99)"/><path class="cls-5" d="M366.26,45.32a30.1,30.1,0,0,1-.35,5,11.54,11.54,0,0,1-1.3,3.76,8.64,8.64,0,0,1-3.09,3.2,8.4,8.4,0,0,1-9-.39,9.19,9.19,0,0,1-3.19-4.18,15.54,15.54,0,0,1-.8-3.22,26.86,26.86,0,0,1-.25-3.82,36.77,36.77,0,0,1,.28-4.78,15.78,15.78,0,0,1,.88-3.65A7.86,7.86,0,0,1,357.16,32a8.81,8.81,0,0,1,3.29.59A7.49,7.49,0,0,1,363,34.31a9.85,9.85,0,0,1,1.89,2.8A20.16,20.16,0,0,1,366.26,45.32ZM361.44,45a29.3,29.3,0,0,0-.39-5.26,6.48,6.48,0,0,0-1.3-3.09,3.18,3.18,0,0,0-2.53-1A3.25,3.25,0,0,0,354,37.9a21.29,21.29,0,0,0-.9,7.2,31,31,0,0,0,.39,5.41,6.8,6.8,0,0,0,1.3,3.19,3.39,3.39,0,0,0,5,0,7,7,0,0,0,1.28-3.22A32.75,32.75,0,0,0,361.44,45Z" transform="translate(-185.82 -14.99)"/></svg>