<svg id="Layer_1" data-name="Layer 1" xmlns="http://www.w3.org/2000/svg" viewBox="0 0 160 160"><defs><style>.cls-1{fill:#efc84a;}.cls-2{fill:#d5d6db;}.cls-3{fill:#ebf0f3;}.cls-4{fill:#e1e6e9;}.cls-5{fill:#44c4a1;}.cls-6{fill:#d15241;}.cls-7{fill:#3ea69b;}.cls-8{fill:#31978c;}.cls-9{fill:#64798a;}.cls-10{fill:#fcd462;}.cls-11{fill:#dc8744;}.cls-12{fill:#f6c358;}</style></defs><title>write</title><circle class="cls-1" cx="80" cy="80" r="80"/><rect class="cls-2" x="34.17" y="122.62" width="68.55" height="3.22"/><polygon class="cls-3" points="86.56 34.17 34.17 34.17 34.17 122.62 102.72 122.62 102.72 50.39 86.56 34.17"/><polygon class="cls-4" points="86.56 50.39 102.72 50.39 86.56 34.17 86.56 50.39"/><rect class="cls-5" x="39.99" y="42.58" width="34.41" height="3.33"/><rect class="cls-2" x="39.77" y="84.86" width="40.22" height="3.11"/><rect class="cls-2" x="39.77" y="93.92" width="57.35" height="3.11"/><rect class="cls-2" x="39.77" y="75.82" width="57.35" height="3.11"/><rect class="cls-2" x="39.77" y="66.77" width="57.35" height="3.11"/><rect class="cls-2" x="39.77" y="102.96" width="57.35" height="3.11"/><rect class="cls-2" x="39.77" y="112.02" width="26.11" height="3.11"/><rect class="cls-6" x="52.23" y="55.95" width="32.41" height="3.11"/><rect class="cls-5" x="95.73" y="90.68" width="10.03" height="35.15"/><rect class="cls-7" x="105.77" y="90.68" width="10.03" height="35.15"/><rect class="cls-8" x="115.8" y="90.68" width="10.03" height="35.15"/><path class="cls-9" d="M115.78,1.06l7.49,15.75a13.72,13.72,0,0,1-15,0Z" transform="translate(-5 58)"/><path class="cls-10" d="M100.73,32.69l7.56-15.88a13.76,13.76,0,0,0,4.52,1.9l-2,14Z" transform="translate(-5 58)"/><path class="cls-11" d="M130.83,32.69h-10l-2-14a13.76,13.76,0,0,0,4.52-1.9Z" transform="translate(-5 58)"/><path class="cls-12" d="M110.77,32.69l2-14a13.68,13.68,0,0,0,5.95,0l2,14Z" transform="translate(-5 58)"/></svg>